<svg width="60" height="61" viewBox="0 0 60 61" fill="none" xmlns="http://www.w3.org/2000/svg">
<path fill-rule="evenodd" clip-rule="evenodd" d="M39 20C38.1719 20 37.5 20.6712 37.5 21.4997C37.5 22.328 38.1719 23 39 23C39.8281 23 40.5 22.328 40.5 21.4997C40.5 20.6715 39.8281 20 39 20Z" fill="#43495C"/>
<path d="M30.0004 24.0001C26.4105 24.0001 23.5 26.9106 23.5 30.5005C23.5 34.0908 26.4109 36.9999 30.0004 36.9999C33.5902 36.9999 36.5 34.0905 36.5 30.5005C36.5 26.9109 33.5906 24.0001 30.0004 24.0001Z" stroke="#43495C" stroke-width="3"/>
<rect x="16" y="16.5" width="28" height="28" rx="2" stroke="#43495C" stroke-width="2"/>
<circle cx="30" cy="30.5" r="29" stroke="#43495C" stroke-width="2"/>
</svg>
