<svg width="60" height="60" viewBox="0 0 60 60" fill="none" xmlns="http://www.w3.org/2000/svg">
    <circle cx="30" cy="30" r="29" stroke="#FBFBFB" stroke-width="2"/>
    <mask id="path-2-inside-1" fill="white">
        <path d="M27.3072 37.4423V26.0536L23.4997 27.55C23.4997 27.55 22.569 29.4619 22.7382 32.2883C22.8228 34.5328 24.1766 37.1097 25.192 38.2735L27.3072 37.4423ZM37.5452 14C38.3913 14.0831 39.8297 14.4988 40.8451 15.3301C41.945 16.3276 42.1988 17.907 41.8604 19.3202C41.5219 20.5672 41.0989 21.2322 39.7451 22.1466C38.3913 23.061 37.376 23.1441 37.376 23.1441V28.6306L39.9989 30.6257L37.376 32.9533V40.4349C37.376 40.4349 39.5759 38.6892 41.2681 35.2809C41.2681 35.2809 41.3527 35.1147 41.5219 34.699C41.6912 35.6134 41.6066 37.5254 40.5066 39.853C39.6605 41.6818 38.2221 43.3444 36.276 44.3419C32.9762 46.0876 30.4379 46.2539 27.8149 45.7551C24.6843 45.1732 21.8075 43.5106 19.9461 40.6011C18.5923 38.5229 18 36.1953 18 33.6183C18.0846 28.5475 22.0613 24.2248 26.6304 22.5622C27.2226 22.396 27.3919 22.2297 28.1534 22.1466C27.8149 22.396 27.3919 22.6454 26.8842 22.9779C25.4458 23.8923 24.1766 25.7211 23.5843 27.1343L32.3839 23.3935V35.1147L25.3612 38.5229C26.2073 39.6036 28.661 41.183 30.7763 41.4324C34.33 41.8481 36.6991 40.518 36.6991 40.518V32.8702L34.0761 30.6257L36.6991 28.6306V23.1441C35.1761 22.9779 33.0608 22.3129 32.0455 22.0635C30.4379 21.731 25.192 20.3178 24.3458 20.1515C23.4997 20.0684 22.4844 20.0684 21.8921 20.5672C21.2998 21.0659 20.8768 22.0635 21.1306 22.8948C21.2998 23.3935 21.6383 23.6429 21.8921 23.8923C21.8921 23.8923 21.5537 23.8923 21.046 23.5598C20.0307 22.9779 19.2692 21.8972 19.1846 20.484C19.1352 19.6141 19.311 18.7461 19.6957 17.961C20.0805 17.176 20.6615 16.4996 21.3845 15.9951C22.7382 15.1638 24.2612 14.665 26.0381 14.9144C28.661 15.2469 32.1301 16.6601 35.2607 17.4083C36.4453 17.6577 37.376 17.7408 38.2221 17.3251C38.6452 17.0758 39.322 16.3276 38.7298 15.4132C38.0529 14.3325 36.7837 14.3325 35.6838 14.1663C36.6991 14 36.8683 14 37.5452 14"/>
    </mask>
    <path d="M27.3072 37.4423V26.0536L23.4997 27.55C23.4997 27.55 22.569 29.4619 22.7382 32.2883C22.8228 34.5328 24.1766 37.1097 25.192 38.2735L27.3072 37.4423ZM37.5452 14C38.3913 14.0831 39.8297 14.4988 40.8451 15.3301C41.945 16.3276 42.1988 17.907 41.8604 19.3202C41.5219 20.5672 41.0989 21.2322 39.7451 22.1466C38.3913 23.061 37.376 23.1441 37.376 23.1441V28.6306L39.9989 30.6257L37.376 32.9533V40.4349C37.376 40.4349 39.5759 38.6892 41.2681 35.2809C41.2681 35.2809 41.3527 35.1147 41.5219 34.699C41.6912 35.6134 41.6066 37.5254 40.5066 39.853C39.6605 41.6818 38.2221 43.3444 36.276 44.3419C32.9762 46.0876 30.4379 46.2539 27.8149 45.7551C24.6843 45.1732 21.8075 43.5106 19.9461 40.6011C18.5923 38.5229 18 36.1953 18 33.6183C18.0846 28.5475 22.0613 24.2248 26.6304 22.5622C27.2226 22.396 27.3919 22.2297 28.1534 22.1466C27.8149 22.396 27.3919 22.6454 26.8842 22.9779C25.4458 23.8923 24.1766 25.7211 23.5843 27.1343L32.3839 23.3935V35.1147L25.3612 38.5229C26.2073 39.6036 28.661 41.183 30.7763 41.4324C34.33 41.8481 36.6991 40.518 36.6991 40.518V32.8702L34.0761 30.6257L36.6991 28.6306V23.1441C35.1761 22.9779 33.0608 22.3129 32.0455 22.0635C30.4379 21.731 25.192 20.3178 24.3458 20.1515C23.4997 20.0684 22.4844 20.0684 21.8921 20.5672C21.2998 21.0659 20.8768 22.0635 21.1306 22.8948C21.2998 23.3935 21.6383 23.6429 21.8921 23.8923C21.8921 23.8923 21.5537 23.8923 21.046 23.5598C20.0307 22.9779 19.2692 21.8972 19.1846 20.484C19.1352 19.6141 19.311 18.7461 19.6957 17.961C20.0805 17.176 20.6615 16.4996 21.3845 15.9951C22.7382 15.1638 24.2612 14.665 26.0381 14.9144C28.661 15.2469 32.1301 16.6601 35.2607 17.4083C36.4453 17.6577 37.376 17.7408 38.2221 17.3251C38.6452 17.0758 39.322 16.3276 38.7298 15.4132C38.0529 14.3325 36.7837 14.3325 35.6838 14.1663C36.6991 14 36.8683 14 37.5452 14" fill="#FBFBFB"/>
    <path d="M27.3072 37.4423L27.9153 38.9896L28.9698 38.5752V37.4423H27.3072ZM27.3072 26.0536H28.9698V23.6139L26.6991 24.5063L27.3072 26.0536ZM23.4997 27.55L22.8916 26.0026L22.2885 26.2396L22.0049 26.8223L23.4997 27.55ZM22.7382 32.2883L24.3996 32.2257L24.3989 32.2073L24.3978 32.1889L22.7382 32.2883ZM25.192 38.2735L23.9392 39.3665L24.7095 40.2495L25.8001 39.8209L25.192 38.2735ZM40.8451 15.3301L41.9619 14.0985L41.9308 14.0703L41.8983 14.0436L40.8451 15.3301ZM41.8604 19.3202L43.4649 19.7557L43.4714 19.7317L43.4772 19.7074L41.8604 19.3202ZM37.376 23.1441L37.2403 21.4871L35.7134 21.6121V23.1441H37.376ZM37.376 28.6306H35.7134V29.4549L36.3695 29.9539L37.376 28.6306ZM39.9989 30.6257L41.1025 31.8693L42.6152 30.5268L41.0055 29.3024L39.9989 30.6257ZM37.376 32.9533L36.2725 31.7098L35.7134 32.2059V32.9533H37.376ZM37.376 40.4349H35.7134V43.8766L38.4094 41.7372L37.376 40.4349ZM41.2681 35.2809L39.7863 34.5268L39.779 34.5416L41.2681 35.2809ZM41.5219 34.699L43.1568 34.3965L42.1234 28.8126L39.9821 34.0721L41.5219 34.699ZM40.5066 39.853L39.0034 39.1426L38.9977 39.1549L40.5066 39.853ZM36.276 44.3419L35.5176 42.8623L35.4986 42.8723L36.276 44.3419ZM27.8149 45.7551L28.1255 44.1218L28.1187 44.1205L27.8149 45.7551ZM19.9461 40.6011L21.3466 39.7051L21.3391 39.6937L19.9461 40.6011ZM18 33.6183L16.3377 33.5906L16.3374 33.6045V33.6183H18ZM26.6304 22.5622L26.181 20.9615L26.1207 20.9785L26.0618 20.9999L26.6304 22.5622ZM28.1534 22.1466L29.1396 23.4851L34.1079 19.8241L27.9729 20.4938L28.1534 22.1466ZM26.8842 22.9779L27.7762 24.3811L27.7951 24.3687L26.8842 22.9779ZM23.5843 27.1343L22.051 26.4917L20.4696 30.265L24.2348 28.6644L23.5843 27.1343ZM32.3839 23.3935H34.0465V20.8802L31.7335 21.8635L32.3839 23.3935ZM32.3839 35.1147L33.1098 36.6104L34.0465 36.1558V35.1147H32.3839ZM25.3612 38.5229L24.6353 37.0272L22.7826 37.9264L24.0521 39.5479L25.3612 38.5229ZM30.7763 41.4324L30.5816 43.0836L30.5832 43.0837L30.7763 41.4324ZM36.6991 40.518L37.513 41.9677L38.3617 41.4913V40.518H36.6991ZM36.6991 32.8702H38.3617V32.1047L37.78 31.607L36.6991 32.8702ZM34.0761 30.6257L33.0696 29.3024L31.43 30.5496L32.9952 31.8889L34.0761 30.6257ZM36.6991 28.6306L37.7056 29.9539L38.3617 29.4549V28.6306H36.6991ZM36.6991 23.1441H38.3617V21.6532L36.8795 21.4914L36.6991 23.1441ZM32.0455 22.0635L32.442 20.4489L32.4123 20.4416L32.3822 20.4354L32.0455 22.0635ZM24.3458 20.1515L24.6664 18.5201L24.588 18.5047L24.5084 18.4969L24.3458 20.1515ZM21.1306 22.8948L19.5405 23.3803L19.548 23.4047L19.5562 23.4289L21.1306 22.8948ZM21.8921 23.8923L21.8921 25.5549L25.9566 25.5549L23.0573 22.7063L21.8921 23.8923ZM21.046 23.5598L21.957 22.169L21.9156 22.1419L21.8727 22.1173L21.046 23.5598ZM19.1846 20.484L17.5247 20.5783L17.525 20.5834L19.1846 20.484ZM21.3845 15.9951L20.5145 14.5783L20.4729 14.6038L20.433 14.6317L21.3845 15.9951ZM26.0381 14.9144L25.807 16.561L25.829 16.5638L26.0381 14.9144ZM35.2607 17.4083L34.8743 19.0253L34.8962 19.0305L34.9182 19.0352L35.2607 17.4083ZM38.2221 17.3251L38.9551 18.8174L39.0119 18.7895L39.0664 18.7574L38.2221 17.3251ZM38.7298 15.4132L37.3208 16.2957L37.3275 16.3064L37.3343 16.317L38.7298 15.4132ZM35.6838 14.1663L35.4151 12.5255L35.4353 15.8102L35.6838 14.1663ZM28.9698 37.4423V26.0536H25.6447V37.4423H28.9698ZM26.6991 24.5063L22.8916 26.0026L24.1078 29.0973L27.9153 27.601L26.6991 24.5063ZM23.4997 27.55C22.0049 26.8223 22.0046 26.8228 22.0044 26.8232C22.0043 26.8234 22.0041 26.8239 22.0039 26.8243C22.0036 26.825 22.0032 26.8257 22.0028 26.8264C22.0021 26.828 22.0013 26.8296 22.0005 26.8314C21.9988 26.8349 21.9969 26.8389 21.9948 26.8433C21.9905 26.8523 21.9854 26.8632 21.9795 26.8759C21.9678 26.9014 21.9528 26.9345 21.9353 26.975C21.9001 27.0558 21.8544 27.1662 21.8022 27.304C21.6978 27.5794 21.5671 27.9666 21.4443 28.4492C21.1991 29.4128 20.9819 30.7714 21.0786 32.3876L24.3978 32.1889C24.3254 30.9788 24.4889 29.9682 24.6668 29.2692C24.7555 28.9206 24.8468 28.6531 24.9118 28.4817C24.9442 28.3962 24.9698 28.3351 24.9849 28.3003C24.9924 28.2829 24.9973 28.2722 24.9991 28.2683C25 28.2664 25.0001 28.2662 24.9994 28.2677C24.999 28.2685 24.9984 28.2697 24.9976 28.2713C24.9972 28.2722 24.9968 28.2731 24.9963 28.2742C24.996 28.2747 24.9958 28.2752 24.9955 28.2758C24.9953 28.2761 24.9951 28.2766 24.9951 28.2767C24.9948 28.2772 24.9946 28.2776 23.4997 27.55ZM21.0768 32.3509C21.1298 33.7556 21.5695 35.1757 22.0969 36.3617C22.6248 37.5488 23.2998 38.6337 23.9392 39.3665L26.4448 37.1806C26.0687 36.7496 25.5592 35.9641 25.1352 35.0106C24.7107 34.0561 24.4313 33.0654 24.3996 32.2257L21.0768 32.3509ZM25.8001 39.8209L27.9153 38.9896L26.6991 35.8949L24.5839 36.7262L25.8001 39.8209ZM37.3827 15.6546C37.9977 15.715 39.0959 16.0467 39.7918 16.6165L41.8983 14.0436C40.5635 12.9509 38.785 12.4512 37.7078 12.3454L37.3827 15.6546ZM39.7282 16.5616C40.2436 17.0291 40.4887 17.9092 40.2435 18.933L43.4772 19.7074C43.9089 17.9049 43.6464 15.6261 41.9619 14.0985L39.7282 16.5616ZM40.2559 18.8847C40.113 19.4111 39.9894 19.6732 39.8388 19.8804C39.6806 20.098 39.4109 20.3661 38.8145 20.7689L40.6757 23.5243C41.4331 23.0127 42.0518 22.4911 42.5282 21.8358C43.0122 21.1702 43.2693 20.4763 43.4649 19.7557L40.2559 18.8847ZM38.8145 20.7689C38.2796 21.1302 37.8326 21.3133 37.5472 21.4045C37.4039 21.4502 37.3003 21.4731 37.2458 21.4835C37.2185 21.4886 37.2036 21.4907 37.2023 21.4908C37.2016 21.4909 37.2043 21.4905 37.2106 21.4899C37.2138 21.4895 37.2178 21.4891 37.2227 21.4887C37.2252 21.4884 37.2279 21.4882 37.2308 21.4879C37.2323 21.4878 37.2338 21.4877 37.2354 21.4875C37.2362 21.4875 37.237 21.4874 37.2378 21.4873C37.2382 21.4873 37.2389 21.4872 37.2391 21.4872C37.2397 21.4872 37.2403 21.4871 37.376 23.1441C37.5117 24.8012 37.5123 24.8011 37.5129 24.8011C37.5132 24.801 37.5138 24.801 37.5142 24.801C37.5151 24.8009 37.516 24.8008 37.5169 24.8007C37.5188 24.8006 37.5207 24.8004 37.5226 24.8002C37.5265 24.7999 37.5307 24.7995 37.5351 24.7991C37.544 24.7983 37.5539 24.7973 37.5648 24.7961C37.5866 24.7938 37.6125 24.7907 37.6422 24.7867C37.7017 24.7788 37.7767 24.7672 37.8658 24.7503C38.044 24.7165 38.2788 24.6614 38.5586 24.5721C39.1193 24.393 39.8568 24.0775 40.6757 23.5243L38.8145 20.7689ZM35.7134 23.1441V28.6306H39.0386V23.1441H35.7134ZM36.3695 29.9539L38.9924 31.949L41.0055 29.3024L38.3825 27.3074L36.3695 29.9539ZM38.8954 29.3822L36.2725 31.7098L38.4795 34.1969L41.1025 31.8693L38.8954 29.3822ZM35.7134 32.9533V40.4349H39.0386V32.9533H35.7134ZM37.376 40.4349C38.4094 41.7372 38.4098 41.7369 38.4102 41.7366C38.4103 41.7365 38.4107 41.7362 38.411 41.736C38.4116 41.7355 38.4122 41.7351 38.4128 41.7346C38.414 41.7336 38.4154 41.7325 38.4169 41.7313C38.42 41.7288 38.4235 41.726 38.4276 41.7226C38.4358 41.716 38.4461 41.7076 38.4584 41.6975C38.483 41.6772 38.5157 41.6499 38.5558 41.6156C38.6359 41.5469 38.7458 41.45 38.8799 41.325C39.1478 41.0751 39.5139 40.712 39.9338 40.2364C40.7723 39.2867 41.8345 37.8787 42.7572 36.0203L39.779 34.5416C39.0095 36.0914 38.1257 37.2604 37.4412 38.0356C37.0996 38.4225 36.8098 38.7088 36.6125 38.8928C36.5139 38.9847 36.4386 39.0508 36.3919 39.0909C36.3685 39.1109 36.3522 39.1244 36.3438 39.1314C36.3396 39.1349 36.3373 39.1367 36.3371 39.1369C36.3369 39.137 36.3373 39.1367 36.3382 39.136C36.3387 39.1356 36.3393 39.1351 36.34 39.1346C36.3403 39.1343 36.3407 39.134 36.3412 39.1336C36.3414 39.1335 36.3417 39.1332 36.3418 39.1331C36.3422 39.1328 36.3425 39.1325 37.376 40.4349ZM41.2681 35.2809C42.7498 36.035 42.7499 36.0348 42.75 36.0347C42.75 36.0346 42.7501 36.0345 42.7501 36.0344C42.7502 36.0342 42.7503 36.034 42.7504 36.0338C42.7506 36.0334 42.7509 36.033 42.7511 36.0325C42.7515 36.0317 42.752 36.0308 42.7524 36.0298C42.7534 36.028 42.7544 36.026 42.7555 36.0238C42.7577 36.0194 42.7602 36.0144 42.763 36.0087C42.7686 35.9974 42.7754 35.9834 42.7834 35.9666C42.7995 35.9331 42.8204 35.8884 42.8464 35.8311C42.8981 35.7166 42.9699 35.5516 43.0618 35.3259L39.9821 34.0721C39.9047 34.2621 39.8496 34.388 39.8168 34.4606C39.8004 34.4968 39.7896 34.5196 39.7845 34.5302C39.782 34.5355 39.7809 34.5378 39.7812 34.5372C39.7813 34.5369 39.7818 34.5359 39.7827 34.5341C39.7831 34.5333 39.7837 34.5322 39.7843 34.531C39.7846 34.5304 39.7849 34.5297 39.7853 34.529C39.7854 34.5287 39.7856 34.5283 39.7858 34.528C39.7859 34.5278 39.786 34.5276 39.7861 34.5274C39.7861 34.5273 39.7862 34.5272 39.7862 34.5271C39.7863 34.527 39.7864 34.5268 41.2681 35.2809ZM39.8871 35.0016C39.9826 35.5174 39.9804 37.0754 39.0034 39.1426L42.0098 40.5633C43.2328 37.9754 43.3997 35.7094 43.1568 34.3965L39.8871 35.0016ZM38.9977 39.1549C38.2866 40.692 37.0916 42.0556 35.5176 42.8624L37.0344 45.8214C39.3527 44.6331 41.0344 42.6717 42.0155 40.5511L38.9977 39.1549ZM35.4986 42.8723C32.5462 44.4342 30.3934 44.5531 28.1255 44.1218L27.5043 47.3884C30.4824 47.9547 33.4062 47.741 37.0535 45.8115L35.4986 42.8723ZM28.1187 44.1205C25.3729 43.6102 22.9257 42.1734 21.3465 39.7051L18.5456 41.4971C20.6893 44.8479 23.9957 46.7363 27.5111 47.3897L28.1187 44.1205ZM21.3391 39.6937C20.1886 37.9274 19.6626 35.9272 19.6626 33.6183H16.3374C16.3374 36.4635 16.996 39.1184 18.553 41.5086L21.3391 39.6937ZM19.6623 33.6461C19.7326 29.4364 23.0984 25.6167 27.1989 24.1246L26.0618 20.9999C21.0242 22.833 16.4366 27.6586 16.3377 33.5906L19.6623 33.6461ZM27.0797 24.1629C27.28 24.1067 27.4429 24.0508 27.5778 24.0019C27.7387 23.9435 27.7753 23.9277 27.869 23.8955C27.9687 23.8612 28.0807 23.827 28.3338 23.7994L27.9729 20.4938C27.4645 20.5493 27.1112 20.6398 26.7878 20.751C26.4361 20.872 26.426 20.8928 26.181 20.9615L27.0797 24.1629ZM27.1671 20.8081C26.8736 21.0244 26.5794 21.1901 25.9732 21.5871L27.7951 24.3687C28.2043 24.1007 28.7562 23.7675 29.1396 23.4851L27.1671 20.8081ZM25.9922 21.5748C24.1794 22.7273 22.7274 24.8779 22.051 26.4917L25.1177 27.777C25.6259 26.5644 26.7122 25.0573 27.7761 24.3809L25.9922 21.5748ZM24.2348 28.6644L33.0344 24.9236L31.7335 21.8635L22.9339 25.6043L24.2348 28.6644ZM30.7214 23.3935V35.1147H34.0465V23.3935H30.7214ZM31.658 33.6189L24.6353 37.0272L26.0871 40.0187L33.1098 36.6104L31.658 33.6189ZM24.0521 39.5479C24.6588 40.3227 25.6856 41.1155 26.769 41.7335C27.8683 42.3607 29.228 42.924 30.5816 43.0836L30.971 39.7813C30.2093 39.6915 29.2845 39.3404 28.4166 38.8453C27.5328 38.3411 26.9097 37.8039 26.6702 37.498L24.0521 39.5479ZM30.5832 43.0837C32.6078 43.3205 34.3039 43.0609 35.5047 42.7359C36.1053 42.5733 36.5851 42.3936 36.9247 42.249C37.0946 42.1767 37.2302 42.1128 37.3288 42.0639C37.3782 42.0394 37.4184 42.0187 37.4492 42.0024C37.4646 41.9943 37.4776 41.9872 37.4882 41.9814C37.4936 41.9785 37.4983 41.9759 37.5024 41.9736C37.5045 41.9725 37.5064 41.9714 37.5082 41.9704C37.509 41.97 37.5099 41.9695 37.5107 41.969C37.5111 41.9688 37.5117 41.9685 37.5119 41.9684C37.5124 41.9681 37.513 41.9677 36.6991 40.518C35.8852 39.0683 35.8857 39.068 35.8863 39.0677C35.8864 39.0676 35.887 39.0673 35.8873 39.0671C35.8879 39.0667 35.8886 39.0664 35.8892 39.0661C35.8904 39.0654 35.8914 39.0648 35.8923 39.0643C35.8941 39.0633 35.8954 39.0626 35.8961 39.0622C35.8976 39.0614 35.8969 39.0618 35.8941 39.0633C35.8884 39.0663 35.8742 39.0737 35.8519 39.0848C35.8071 39.107 35.7298 39.1438 35.6221 39.1896C35.4065 39.2814 35.0718 39.4083 34.6359 39.5263C33.7638 39.7623 32.4985 39.96 30.9694 39.7811L30.5832 43.0837ZM38.3617 40.518V32.8702H35.0365V40.518H38.3617ZM37.78 31.607L35.1571 29.3625L32.9952 31.8889L35.6182 34.1334L37.78 31.607ZM35.0827 31.949L37.7056 29.9539L35.6926 27.3074L33.0696 29.3024L35.0827 31.949ZM38.3617 28.6306V23.1441H35.0365V28.6306H38.3617ZM36.8795 21.4914C35.5001 21.3408 33.6517 20.746 32.442 20.4489L31.6489 23.6781C32.4699 23.8797 34.8521 24.615 36.5187 24.7969L36.8795 21.4914ZM32.3822 20.4354C31.6273 20.2792 29.9627 19.8558 28.3237 19.4348C26.7532 19.0314 25.1515 18.6155 24.6664 18.5201L24.0253 21.7829C24.3863 21.8538 25.8307 22.2276 27.4965 22.6554C29.0939 23.0657 30.8561 23.5152 31.7087 23.6916L32.3822 20.4354ZM24.5084 18.4969C24.0358 18.4505 23.4334 18.4176 22.826 18.4904C22.2355 18.5611 21.4674 18.7513 20.8212 19.2954L22.9631 21.8389C22.9091 21.8843 22.9448 21.825 23.2216 21.7919C23.4814 21.7608 23.8098 21.7694 24.1833 21.8061L24.5084 18.4969ZM20.8212 19.2954C20.276 19.7545 19.864 20.3857 19.6279 21.0483C19.3912 21.7129 19.2852 22.5442 19.5405 23.3803L22.7207 22.4092C22.7222 22.4141 22.7008 22.3309 22.7602 22.1642C22.8203 21.9956 22.9159 21.8785 22.9631 21.8389L20.8212 19.2954ZM19.5562 23.4289C19.8868 24.4034 20.6397 24.9926 20.7269 25.0783L23.0573 22.7063C23.0103 22.6602 22.965 22.6175 22.9287 22.5836C22.8876 22.5452 22.8626 22.5221 22.832 22.4932C22.7761 22.4404 22.7465 22.4099 22.7264 22.3872C22.7173 22.3768 22.7116 22.3697 22.7084 22.3654C22.7068 22.3633 22.7057 22.3618 22.7051 22.3608C22.7045 22.3599 22.7042 22.3595 22.7042 22.3594C22.7042 22.3594 22.7043 22.3597 22.7046 22.3602C22.7049 22.3607 22.7051 22.3612 22.7054 22.3617C22.7059 22.3629 22.7058 22.3628 22.705 22.3606L19.5562 23.4289ZM21.8921 23.8923C21.8921 22.2297 21.8929 22.2297 21.8937 22.2297C21.894 22.2297 21.8948 22.2297 21.8953 22.2297C21.8964 22.2297 21.8974 22.2297 21.8984 22.2297C21.9005 22.2297 21.9026 22.2298 21.9047 22.2298C21.9088 22.2298 21.9129 22.2299 21.9169 22.2299C21.9248 22.23 21.9326 22.2302 21.94 22.2305C21.955 22.2309 21.9689 22.2316 21.9818 22.2324C22.0076 22.234 22.0293 22.2363 22.0473 22.2386C22.0833 22.2433 22.1032 22.2485 22.1088 22.25C22.1221 22.2538 22.0666 22.2408 21.957 22.169L20.1351 24.9506C20.5331 25.2113 20.9006 25.3646 21.2101 25.4514C21.3637 25.4946 21.5 25.5205 21.6154 25.5356C21.6729 25.5431 21.7251 25.548 21.7714 25.5509C21.7946 25.5524 21.8162 25.5534 21.8364 25.554C21.8464 25.5543 21.8561 25.5545 21.8654 25.5547C21.8701 25.5547 21.8746 25.5548 21.8791 25.5548C21.8813 25.5548 21.8835 25.5548 21.8857 25.5549C21.8868 25.5549 21.8878 25.5549 21.8889 25.5549C21.8895 25.5549 21.8903 25.5549 21.8905 25.5549C21.8913 25.5549 21.8921 25.5549 21.8921 23.8923ZM21.8727 22.1173C21.3264 21.8042 20.8941 21.2188 20.8442 20.3847L17.525 20.5834C17.6442 22.5757 18.735 24.1516 20.2193 25.0023L21.8727 22.1173ZM20.8445 20.3898C20.8113 19.8059 20.9292 19.2222 21.1887 18.6927L18.2028 17.2294C17.6929 18.2699 17.459 19.4223 17.5247 20.5783L20.8445 20.3898ZM21.1887 18.6927C21.4483 18.163 21.842 17.7032 22.3359 17.3585L20.433 14.6317C19.4809 15.2961 18.7127 16.1891 18.2028 17.2294L21.1887 18.6927ZM22.2544 17.4119C23.3744 16.7242 24.5105 16.3789 25.807 16.5608L26.2692 13.268C24.012 12.9512 22.1021 13.6034 20.5145 14.5783L22.2544 17.4119ZM25.829 16.5638C26.9787 16.7095 28.3727 17.1028 29.9699 17.5945C31.513 18.0695 33.2411 18.635 34.8743 19.0253L35.6471 15.7912C34.1497 15.4334 32.5779 14.9182 30.9482 14.4165C29.3724 13.9314 27.7204 13.4518 26.2472 13.265L25.829 16.5638ZM34.9182 19.0352C36.1296 19.2902 37.5614 19.502 38.9551 18.8174L37.4891 15.8329C37.1905 15.9795 36.7609 16.0251 35.6032 15.7814L34.9182 19.0352ZM39.0664 18.7574C39.5086 18.4967 40.0579 18.008 40.3755 17.2949C40.7391 16.4784 40.7443 15.4652 40.1252 14.5093L37.3343 16.317C37.3429 16.3303 37.3077 16.2777 37.3008 16.1709C37.2941 16.0683 37.318 15.9869 37.3379 15.9422C37.3549 15.9041 37.3672 15.8948 37.3587 15.9038C37.3488 15.9142 37.3478 15.9106 37.3778 15.8929L39.0664 18.7574ZM40.1388 14.5306C39.5165 13.5371 38.619 13.0785 37.827 12.8496C37.149 12.6537 36.296 12.5773 35.9322 12.5224L35.4353 15.8102C35.5938 15.8341 35.751 15.8544 35.8923 15.8725C36.0392 15.8912 36.1675 15.9073 36.2954 15.9254C36.5518 15.9617 36.7452 15.9982 36.9039 16.044C37.1906 16.1269 37.2662 16.2086 37.3208 16.2957L40.1388 14.5306ZM35.9524 15.807C36.4558 15.7245 36.6952 15.6927 36.8771 15.6778C37.052 15.6635 37.1956 15.6626 37.5452 15.6626V12.3374C36.7771 12.3374 36.5181 12.3449 35.4151 12.5255L35.9524 15.807Z" fill="#FBFBFB" mask="url(#path-2-inside-1)"/>
</svg>
