<svg width="60" height="61" viewBox="0 0 60 61" fill="none" xmlns="http://www.w3.org/2000/svg">
<path d="M33.9479 20.4554C34.9247 20.5935 35.8814 20.8389 36.8266 21.1294C38.4767 21.6375 40.0338 22.3434 41.4982 23.2592C41.6001 23.3224 41.7361 23.3626 41.8562 23.3626C43.5762 23.3697 45.2956 23.3672 47.0143 23.3686C47.1527 23.3686 47.2905 23.3831 47.4287 23.391C47.4287 23.4247 47.4336 23.4389 47.4279 23.4467C47.3477 23.5703 47.2664 23.6921 47.1858 23.8153C46.6023 24.7101 46.1038 25.6462 45.8094 26.6809C45.7775 26.792 45.7707 26.8851 45.846 26.9941C47.3772 29.1928 47.8658 31.6068 47.2259 34.2089C46.6648 36.4911 45.3567 38.2704 43.3689 39.5303C41.9481 40.4312 40.3786 40.8601 38.7019 40.8694C37.9974 40.8736 37.2964 40.7788 36.6082 40.6006C34.9315 40.1656 33.4941 39.3297 32.3095 38.0638C32.1532 37.8976 32.0062 37.724 31.8397 37.5361C31.2133 38.4697 30.5969 39.3879 29.9655 40.3303C29.3366 39.3908 28.7287 38.4814 28.1222 37.5755C28.0803 37.5975 28.0682 37.6 28.0601 37.6078C28.0462 37.6192 28.0345 37.633 28.0235 37.6462C26.5907 39.3382 24.7882 40.3754 22.5923 40.7224C21.3708 40.9159 20.161 40.8463 18.9747 40.5193C17.2933 40.0573 15.8644 39.1703 14.71 37.8614C13.5818 36.5816 12.8802 35.0959 12.6167 33.4067C12.3152 31.8301 12.6824 30.31 12.774 29.941C13.0396 28.8686 13.5027 27.884 14.1383 26.9785C14.183 26.9142 14.1986 26.8006 14.1773 26.7239C13.9181 25.7733 13.4714 24.9086 12.9484 24.0806C12.8156 23.87 12.6565 23.675 12.5095 23.473C12.5095 23.4499 12.5095 23.4261 12.5095 23.4027C12.5389 23.4062 12.5681 23.4119 12.5968 23.4119C14.3567 23.4126 16.1161 23.4133 17.876 23.4098C17.9527 23.4098 18.0379 23.3782 18.1033 23.3363C19.3397 22.543 20.6571 21.9145 22.0412 21.4252C23.0394 21.0729 24.0585 20.7981 25.0979 20.5967C26.1042 20.4021 27.1159 20.2651 28.1382 20.1976C30.6306 20.0059 32.6227 20.2697 33.9479 20.4554ZM31.7417 32.078C31.7417 35.9425 34.8772 39.0996 38.7278 39.0847C42.593 39.0708 45.7143 36.0025 45.7114 32.0954C45.7086 28.069 42.4424 25.0421 38.5779 25.1206C34.7628 25.1998 31.7765 28.2749 31.7417 32.078ZM21.2625 25.094C17.5035 25.0613 14.226 28.1986 14.2917 32.1948C14.3528 35.9215 17.4243 39.0808 21.3406 39.047C25.17 39.0144 28.2479 35.8874 28.255 32.1007C28.2611 28.2103 25.1455 25.094 21.2625 25.094ZM21.6091 23.2709C23.7326 23.4005 25.5979 24.1406 27.1738 25.5737C28.7465 27.004 29.6679 28.7884 30.0028 30.8866C30.3472 28.8132 31.2446 27.0456 32.7878 25.6295C34.3335 24.2119 36.174 23.468 38.2626 23.3107C35.7841 22.2089 33.1706 21.7408 30.4804 21.689C27.423 21.629 24.4491 22.0796 21.6091 23.2709Z" fill="#43495C"/>
<path d="M38.7141 27.6719C41.1056 27.668 43.0427 29.5947 43.0427 31.9838C43.0427 34.3821 41.1386 36.236 38.8923 36.3216C36.3836 36.4178 34.3762 34.419 34.377 31.9944C34.3791 29.5422 36.4006 27.6314 38.7141 27.6719ZM41.5349 31.9944C41.5339 30.4356 40.2736 29.1686 38.7254 29.1686C37.1595 29.1686 35.8847 30.4288 35.8783 31.9831C35.8726 33.5306 37.1538 34.8182 38.7052 34.8224C40.2591 34.8284 41.5356 33.5505 41.5349 31.9944Z" fill="#43495C"/>
<path d="M21.1708 27.6719C23.561 27.6694 25.5008 29.5997 25.4948 31.9884C25.4881 34.4063 23.5823 36.2197 21.3754 36.3202C18.8567 36.4353 16.8245 34.4276 16.8291 31.9899C16.8341 29.5202 18.8695 27.6307 21.1708 27.6719ZM23.9885 31.9849C23.9839 30.4164 22.7155 29.1662 21.1321 29.169C19.6049 29.1718 18.3251 30.4608 18.3287 31.9938C18.3326 33.5445 19.6109 34.8196 21.1666 34.8239C22.7127 34.8274 23.9924 33.5398 23.9885 31.9849Z" fill="#43495C"/>
<path d="M38.7154 30.5557C39.508 30.555 40.1578 31.2051 40.1503 31.9931C40.1425 32.7828 39.5037 33.4227 38.7243 33.423C37.9218 33.423 37.2765 32.7888 37.2783 32.003C37.2797 31.1877 37.9065 30.5564 38.7154 30.5557Z" fill="#43495C"/>
<path d="M21.1632 30.5461C21.9678 30.5454 22.6144 31.1882 22.6176 31.9903C22.6208 32.7857 21.9682 33.4387 21.1674 33.4405C20.3475 33.4423 19.7151 32.8088 19.7158 31.9846C19.7158 31.1754 20.3468 30.5472 21.1632 30.5461Z" fill="#43495C"/>
<circle cx="30" cy="30.5" r="29" stroke="#43495C" stroke-width="2"/>
</svg>
