<svg width="3152" height="7881" viewBox="0 0 3152 7881" fill="none" xmlns="http://www.w3.org/2000/svg">
<rect width="3152" height="7881" fill="#ffffff"/>
<g opacity="0.04">
<path d="M2411.86 1564.16L2511.64 1358.72L1744.48 829.684L1969.53 829.684L1969.53 592.059L926.701 592.059L926.701 829.684L1144.73 829.684L553.471 1237.04L652.875 1442.92L1445.9 896.695L2411.86 1564.16Z" fill="#A5ACC5"/>
<path d="M1276.29 1112.69L1807.68 2199.42L1976.93 2083.91L1906.72 1938.43L2366.79 1626.3L1452.93 992.778L1276.29 1112.69ZM1971.01 1621.89L1807.68 1731.22L1645.82 1402.78L1971.01 1621.89Z" fill="#A5ACC5"/>
<path d="M1566.37 2849.27L1566.37 2848.83L1549 2813.56L1466.59 2643.39L1466.22 2643.83L1319.89 2342.28L1678.34 2096.72L1632.14 2001.49L1628.45 1994L1578.93 1891.28L1578.56 1891.28L1212.72 1139.17L1040.15 1257.76L1405.99 2009.43L1219.74 2137.28L1146.58 1986.5L974.373 2105.54L1294.02 2762.86L553.473 3273.82L652.877 3479.71L1566.37 2849.27Z" fill="#A5ACC5"/>
<path d="M2162.8 4092.05L2147.65 4061.19L2137.67 4040.47L1723.8 3189.16L1551.22 3307.75L1727.86 3671.02L1254.86 4649.3L1075.63 4773.18L1175.04 4979.06L2237.45 4246.35L2162.8 4092.05ZM1843.15 3908.21L1965.47 4159.5L1600 4411.67L1843.15 3908.21Z" fill="#A5ACC5"/>
<path d="M1302.51 3672.37L1200.52 3463.4L1959.92 2939.66L1860.14 2733.78L1022.04 3312.63L928.175 3377.44L1071.92 3672.37L553.467 3672.37L553.467 3909.56L1535.32 3910L1652.09 3672.37L1302.51 3672.37Z" fill="#A5ACC5"/>
<path d="M1767.04 5702.06L1944.05 5826.38L2245.96 4487.48L2053.8 4425.76L1920.77 5017.4L717.193 5017.4L717.193 5254.58L1867.55 5254.58L1767.04 5702.06Z" fill="#A5ACC5"/>
<path d="M1471.76 7392.8L1471.76 6880.52L1934.42 6563.54L2136.93 6703.73L2236.7 6498.29L1418.55 5933.11L1272.58 6106.37L1272.58 6743.41L927.068 6980.16L1073.03 7154.3L1272.58 7017.63L1272.58 7393.24L1471.76 7393.24L1471.76 7392.8ZM1471.76 6243.47L1735.24 6425.55L1471.76 6606.3L1471.76 6243.47Z" fill="#A5ACC5"/>
<path d="M1970.28 6211.27L2070.05 6005.38L1463.28 5586.57L1634 5586.57L1634 5348.94L553.482 5348.94L553.482 5586.57L1065.66 5586.57L1228.62 5698.99L553.113 6505.76L693.536 6673.73L1406.74 5822.43L1970.28 6211.27Z" fill="#A5ACC5"/>
</g>
</svg>
