<svg width="751" height="338" viewBox="0 0 751 338" fill="none" xmlns="http://www.w3.org/2000/svg">
<path d="M129.668 175.3L0 303.831L33.5484 337.676L130.242 241.831L230.627 337.962L236.125 332.221L327.315 241.831L427.7 337.962L435.519 329.798L524.264 241.831L624.649 337.962L630.148 332.221L721.337 241.831L821.722 337.962L854.683 303.544L720.764 175.3L623.926 271.288L523.691 175.3L426.914 271.228L326.741 175.3L229.904 271.288L129.668 175.3Z" fill="#1DCFFF"/>
<path d="M129.669 0.24707L0.000976563 128.778L33.5494 162.623L130.243 66.7782L230.628 162.91L236.126 157.168L327.316 66.7782L427.701 162.91L435.52 154.745L524.265 66.7782L624.65 162.91L630.149 157.168L721.338 66.7782L821.723 162.91L854.684 128.491L720.765 0.24707L623.927 96.2354L523.692 0.24707L426.915 96.1749L326.742 0.24707L229.905 96.2354L129.669 0.24707Z" fill="#1DCFFF"/>
</svg>
