<svg width="50" height="8" viewBox="0 0 50 8" fill="none" xmlns="http://www.w3.org/2000/svg">
<path d="M48.625 4.5C48.9011 4.5 49.125 4.27614 49.125 4C49.125 3.72386 48.9011 3.5 48.625 3.5L48.625 4.5ZM0.271446 3.64644C0.0761833 3.8417 0.0761833 4.15829 0.271446 4.35355L3.45343 7.53553C3.64869 7.73079 3.96527 7.73079 4.16053 7.53553C4.3558 7.34027 4.3558 7.02369 4.16053 6.82842L1.33211 4L4.16053 1.17157C4.3558 0.976307 4.3558 0.659724 4.16053 0.464462C3.96527 0.2692 3.64869 0.2692 3.45343 0.464462L0.271446 3.64644ZM48.625 3.5L0.625 3.5L0.625 4.5L48.625 4.5L48.625 3.5Z" fill="#43495C"/>
</svg>
