<svg width="32" height="22" viewBox="0 0 32 22" fill="none" xmlns="http://www.w3.org/2000/svg">
<path d="M15.7246 6.60626C13.4184 6.60626 11.5371 8.57501 11.5371 11C11.5371 13.4188 13.4121 15.3938 15.7246 15.3938C18.0309 15.3938 19.9121 13.425 19.9121 11C19.9121 8.58126 18.0309 6.60626 15.7246 6.60626Z" fill="#43495C"/>
<path d="M15.7249 17.9437C12.0124 17.9437 8.9874 14.8312 8.9874 11C8.9874 7.16874 12.0124 4.05624 15.7249 4.05624C19.4374 4.05624 22.4624 7.16874 22.4624 11C22.4624 14.8312 19.4374 17.9437 15.7249 17.9437ZM31.1186 10.325C27.1311 3.92499 21.7561 0.399994 15.9999 0.399994C10.2437 0.399994 4.86865 3.92499 0.881152 10.325C0.624902 10.7375 0.624902 11.2625 0.881152 11.675C4.86865 18.075 10.2437 21.6 15.9999 21.6C21.7561 21.6 27.1249 18.075 31.1186 11.675C31.3749 11.2625 31.3749 10.7375 31.1186 10.325Z" fill="#43495C"/>
</svg>
