<svg width="41" height="41" viewBox="0 0 41 41" fill="none" xmlns="http://www.w3.org/2000/svg">
<g clip-path="url(#clip0)">
<path d="M40.0795 1.8896C39.7334 1.5021 39.1873 1.3982 38.735 1.59585L1.07905 18.0801C0.661862 18.2629 0.387645 18.6715 0.377489 19.1277C0.367333 19.5832 0.6228 20.0035 1.03217 20.2051L10.0235 24.6269L12.2641 38.069C12.3368 38.5792 12.7375 38.9893 13.2594 39.0635C13.6344 39.1174 14.0071 38.9854 14.2649 38.7198L21.3633 31.6214L31.4929 38.8573C31.8179 39.0885 32.2366 39.1393 32.6054 38.9932C32.9749 38.8471 33.2452 38.5229 33.3233 38.1331L40.3545 2.89897C40.424 2.54975 40.3342 2.17553 40.0795 1.8896ZM10.9516 22.4715L4.33058 19.2152L30.4882 7.76455L10.9516 22.4715ZM14.6188 25.955L13.5289 31.4042L12.3532 24.3496L26.7257 13.5301L14.9383 25.3574C14.7727 25.523 14.6625 25.7386 14.6188 25.955ZM15.3321 34.3378L16.5617 28.1917L19.4297 30.2402L15.3321 34.3378ZM31.3796 35.8956L17.5727 26.0339L37.2967 6.24425L31.3796 35.8956Z" fill="#1DCFFF"/>
</g>
<defs>
<clipPath id="clip0">
<rect width="40" height="40" fill="white" transform="translate(0.376953 0.287109)"/>
</clipPath>
</defs>
</svg>
