<svg width="60" height="61" viewBox="0 0 60 61" fill="none" xmlns="http://www.w3.org/2000/svg">
<path d="M33.9479 20.93C34.9247 21.0681 35.8814 21.3135 36.8266 21.604C38.4767 22.1121 40.0338 22.818 41.4982 23.7338C41.6001 23.797 41.7361 23.8372 41.8562 23.8372C43.5762 23.8443 45.2956 23.8418 47.0143 23.8432C47.1527 23.8432 47.2905 23.8578 47.4286 23.8656C47.4286 23.8993 47.4336 23.9135 47.4279 23.9213C47.3477 24.0449 47.2664 24.1667 47.1858 24.2899C46.6023 25.1847 46.1038 26.1208 45.8094 27.1555C45.7775 27.2667 45.7707 27.3597 45.846 27.4687C47.3772 29.6674 47.8658 32.0814 47.2259 34.6835C46.6648 36.9657 45.3567 38.7451 43.3689 40.0049C41.9481 40.9058 40.3786 41.3347 38.7019 41.344C37.9974 41.3482 37.2964 41.2534 36.6082 41.0752C34.9315 40.6402 33.4941 39.8043 32.3095 38.5384C32.1532 38.3722 32.0062 38.1986 31.8397 38.0107C31.2133 38.9443 30.5969 39.8625 29.9655 40.805C29.3366 39.8654 28.7287 38.956 28.1222 38.0501C28.0803 38.0722 28.0682 38.0746 28.0601 38.0824C28.0462 38.0938 28.0345 38.1077 28.0235 38.1208C26.5907 39.8128 24.7882 40.85 22.5923 41.197C21.3708 41.3905 20.161 41.3209 18.9747 40.9939C17.2933 40.5319 15.8644 39.6449 14.71 38.336C13.5818 37.0562 12.8802 35.5705 12.6167 33.8813C12.3152 32.3047 12.6824 30.7846 12.774 30.4156C13.0396 29.3432 13.5027 28.3586 14.1383 27.4531C14.183 27.3888 14.1986 27.2752 14.1773 27.1985C13.9181 26.2479 13.4714 25.3832 12.9484 24.5552C12.8156 24.3446 12.6565 24.1496 12.5095 23.9476C12.5095 23.9245 12.5095 23.9007 12.5095 23.8773C12.5389 23.8808 12.5681 23.8865 12.5968 23.8865C14.3567 23.8872 16.1161 23.8879 17.876 23.8844C17.9527 23.8844 18.0379 23.8528 18.1033 23.8109C19.3397 23.0176 20.6571 22.3891 22.0412 21.8998C23.0394 21.5475 24.0585 21.2727 25.0979 21.0713C26.1042 20.8767 27.1159 20.7397 28.1382 20.6722C30.6306 20.4805 32.6227 20.7443 33.9479 20.93ZM31.7417 32.5526C31.7417 36.4171 34.8772 39.5742 38.7278 39.5593C42.593 39.5454 45.7143 36.4771 45.7114 32.57C45.7086 28.5436 42.4424 25.5168 38.5779 25.5952C34.7628 25.6744 31.7765 28.7495 31.7417 32.5526ZM21.2625 25.5686C17.5035 25.5359 14.226 28.6732 14.2917 32.6694C14.3528 36.3961 17.4243 39.5554 21.3406 39.5216C25.17 39.489 28.2479 36.362 28.255 32.5753C28.2611 28.6849 25.1455 25.5686 21.2625 25.5686ZM21.6091 23.7455C23.7326 23.8752 25.5979 24.6152 27.1738 26.0483C28.7465 27.4786 29.6679 29.263 30.0028 31.3612C30.3472 29.2878 31.2446 27.5202 32.7878 26.1041C34.3335 24.6865 36.174 23.9426 38.2626 23.7853C35.7841 22.6835 33.1706 22.2155 30.4804 22.1636C27.423 22.1036 24.4491 22.5542 21.6091 23.7455Z" fill="#43495C"/>
<path d="M38.714 28.1461C41.1056 28.1422 43.0426 30.069 43.0426 32.458C43.0426 34.8563 41.1386 36.7103 38.8923 36.7959C36.3835 36.8921 34.3762 34.8933 34.3769 32.4687C34.379 30.0164 36.4006 28.1057 38.714 28.1461ZM41.5349 32.4687C41.5338 30.9098 40.2736 29.6429 38.7254 29.6429C37.1594 29.6429 35.8846 30.9031 35.8782 32.4573C35.8725 34.0048 37.1537 35.2924 38.7051 35.2967C40.259 35.3027 41.5356 34.0247 41.5349 32.4687Z" fill="#43495C"/>
<path d="M21.1711 28.1462C23.5613 28.1437 25.5012 30.074 25.4951 32.4627C25.4884 34.8805 23.5826 36.694 21.3757 36.7945C18.857 36.9095 16.8248 34.9018 16.8294 32.4641C16.8344 29.9944 18.8698 28.105 21.1711 28.1462ZM23.9888 32.4591C23.9842 30.8907 22.7158 29.6404 21.1324 29.6432C19.6052 29.6461 18.3254 30.9351 18.329 32.468C18.3329 34.0187 19.6112 35.2938 21.1669 35.2981C22.713 35.3017 23.9927 34.0141 23.9888 32.4591Z" fill="#43495C"/>
<path d="M38.7155 31.0303C39.508 31.0296 40.1578 31.6797 40.1504 32.4677C40.1426 33.2574 39.5038 33.8973 38.7243 33.8977C37.9218 33.8977 37.2766 33.2635 37.2784 32.4776C37.2798 31.6623 37.9065 31.031 38.7155 31.0303Z" fill="#43495C"/>
<path d="M21.1631 31.0205C21.9677 31.0198 22.6143 31.6625 22.6175 32.4647C22.6207 33.2601 21.9681 33.9131 21.1673 33.9149C20.3474 33.9167 19.715 33.2832 19.7157 32.459C19.7157 31.6497 20.3467 31.0216 21.1631 31.0205Z" fill="#43495C"/>
<circle cx="30" cy="30.9746" r="29" stroke="#43495C" stroke-width="2"/>
</svg>
