<svg width="41" height="41" viewBox="0 0 41 41" fill="none" xmlns="http://www.w3.org/2000/svg">
<g clip-path="url(#clip0)">
<path d="M1.95725 19.0334C2.48822 21.8218 4.06436 27.185 8.65336 31.774C13.2424 36.363 18.6056 37.9396 21.3944 38.4705C24.5878 39.0786 29.2739 39.1703 31.564 36.8802L32.8408 35.6034C33.4852 34.959 33.8403 34.1018 33.8403 33.1902C33.8403 32.2786 33.4852 31.4219 32.8408 30.7774L27.735 25.6717C27.0902 25.0268 26.2334 24.6721 25.3218 24.6721C24.4102 24.6721 23.5535 25.0268 22.9086 25.6717L21.6323 26.948C20.8526 27.7277 19.3807 27.7311 18.5951 26.9576L13.5024 21.6513C13.4949 21.6434 13.4873 21.6354 13.4794 21.6279C12.6984 20.8469 12.6984 19.5761 13.4794 18.7951L14.7557 17.5188C16.0898 16.1847 16.0898 14.026 14.7557 12.6924L9.64997 7.58663C8.31963 6.25628 6.15473 6.25628 4.82396 7.58663L3.54764 8.86337C1.71983 10.6916 1.11056 14.588 1.95725 19.0334ZM5.82099 11.1367C7.16096 9.82732 7.08936 9.80219 7.23718 9.80219C7.28784 9.80219 7.33851 9.82145 7.37704 9.85998C12.757 15.2689 12.541 14.951 12.541 15.106C12.541 15.16 12.5213 15.2073 12.4832 15.2458L11.2064 16.5222C9.17344 18.5552 9.16549 21.8461 11.1935 23.8883L16.2891 29.1979C16.2971 29.2055 16.3046 29.2134 16.3126 29.2214C18.3452 31.2539 21.8664 31.2606 23.9056 29.2214L25.182 27.945C25.259 27.868 25.3846 27.868 25.4617 27.945C30.8417 33.3535 30.6256 33.0357 30.6256 33.1906C30.6256 33.2451 30.6059 33.292 30.5678 33.3305L29.2911 34.6068C28.4163 35.4816 25.63 36.005 21.9958 35.3128C19.5704 34.8505 14.9069 33.4812 10.9267 29.5011C6.94657 25.5209 5.57728 20.8574 5.11541 18.4321C4.42281 14.7978 4.94624 12.0111 5.82099 11.1367Z" fill="#1DCFFF"/>
<path fill-rule="evenodd" clip-rule="evenodd" d="M31.6868 9.2897C28.6859 6.33006 24.2523 4.62714 18.547 4.65167C17.7892 4.65493 17.1722 4.04325 17.1689 3.28545C17.1657 2.52765 17.7774 1.91068 18.5352 1.90743C24.7956 1.88051 29.9867 3.75866 33.6138 7.33582C37.2426 10.9147 39.1525 16.0432 39.1415 22.2156C39.1401 22.9734 38.5247 23.5866 37.7669 23.5853C37.0091 23.5839 36.3958 22.9685 36.3972 22.2107C36.4072 16.6116 34.6859 12.2476 31.6868 9.2897Z" fill="#1DCFFF"/>
<path fill-rule="evenodd" clip-rule="evenodd" d="M27.2299 13.072C25.1246 10.9957 21.9917 9.77674 17.9034 9.79431C17.1456 9.79757 16.5286 9.18589 16.5254 8.42809C16.5221 7.67029 17.1338 7.05333 17.8916 7.05007C22.5351 7.03011 26.4255 8.42433 29.1569 11.1181C31.89 13.8137 33.3092 17.6594 33.3011 22.2411C33.2997 22.9989 32.6843 23.6121 31.9265 23.6107C31.1687 23.6094 30.5554 22.994 30.5568 22.2362C30.564 18.2278 29.3333 15.1466 27.2299 13.072Z" fill="#1DCFFF"/>
</g>
<defs>
<clipPath id="clip0">
<rect width="40" height="40" fill="white" transform="translate(0.376953 0.287109)"/>
</clipPath>
</defs>
</svg>
