<svg width="41" height="41" viewBox="0 0 41 41" fill="none" xmlns="http://www.w3.org/2000/svg">
<g clip-path="url(#clip0)">
<path d="M10.0513 37.4328C13.1418 39.2925 16.6755 40.2728 20.3062 40.2728C31.308 40.2728 40.377 31.2951 40.377 20.2798C40.377 9.27728 31.3209 0.287109 20.3062 0.287109C9.32501 0.287109 0.391296 9.25592 0.391296 20.2798C0.391296 23.959 1.37183 27.5195 3.23126 30.6124L0.376953 40.2871L10.0513 37.4328ZM2.73444 20.2798C2.73444 10.5477 10.6171 2.62994 20.3062 2.62994C30.0812 2.62994 38.0341 10.5477 38.0341 20.2798C38.0341 30.0121 30.0812 37.9296 20.3062 37.9296C16.9425 37.9296 13.6738 36.9769 10.8542 35.1739L10.4038 34.8861L3.84222 36.8221L5.77795 30.2603L5.49017 29.8101C3.68719 26.99 2.73444 23.6947 2.73444 20.2798Z" fill="#1DCFFF"/>
<path d="M10.1134 16.5958C10.5004 18.628 11.649 22.5367 14.9935 25.8811C18.3379 29.2255 22.2466 30.3745 24.279 30.7615C26.6063 31.2046 30.0215 31.2714 31.6905 29.6024L32.621 28.6719C33.0907 28.2023 33.3495 27.5776 33.3495 26.9132C33.3495 26.2488 33.0907 25.6244 32.621 25.1548L28.9 21.4338C28.43 20.9638 27.8057 20.7053 27.1413 20.7053C26.4769 20.7053 25.8525 20.9638 25.3826 21.4338L24.4524 22.3639C23.8841 22.9322 22.8114 22.9346 22.2389 22.371L18.5274 18.5038C18.5219 18.498 18.5164 18.4922 18.5106 18.4867C17.9415 17.9175 17.9415 16.9913 18.5106 16.4222L19.4408 15.492C20.4131 14.5197 20.4131 12.9465 19.4408 11.9745L15.7198 8.25352C14.7502 7.28398 13.1725 7.28398 12.2026 8.25352L11.2724 9.18401V9.1837C9.94036 10.5161 9.49633 13.3561 10.1134 16.5958ZM12.9292 10.8408C13.9058 9.88652 13.8536 9.86821 13.9614 9.86821C13.9983 9.86821 14.0352 9.88225 14.0633 9.91032C17.9842 13.8523 17.8267 13.6207 17.8267 13.7336C17.8267 13.7729 17.8124 13.8074 17.7846 13.8355L16.8541 14.7657C15.3725 16.2473 15.3667 18.6457 16.8447 20.134L20.5583 24.0036C20.5641 24.0091 20.5696 24.0149 20.5754 24.0207C22.0567 25.5021 24.623 25.5069 26.1092 24.0207L27.0394 23.0906C27.0955 23.0344 27.1871 23.0344 27.2432 23.0906C31.1641 27.0322 31.0066 26.8006 31.0066 26.9135C31.0066 26.9532 30.9923 26.9874 30.9645 27.0154L30.034 27.9456C29.3965 28.5831 27.3659 28.9646 24.7173 28.4601C22.9497 28.1232 19.551 27.1253 16.6503 24.2246C13.7496 21.3239 12.7516 17.9252 12.415 16.1576C11.9103 13.509 12.2917 11.478 12.9292 10.8408Z" fill="#1DCFFF"/>
</g>
<defs>
<clipPath id="clip0">
<rect width="40" height="40" fill="white" transform="translate(0.376953 0.287109)"/>
</clipPath>
</defs>
</svg>
