<svg width="256" height="216" viewBox="0 0 256 216" fill="none" xmlns="http://www.w3.org/2000/svg">
<g filter="url(#filter0_d)">
<path d="M15.0398 86.622L4.09848 85.3469L-1.51828 134.075L-6.47557 122.645L-16.5888 127.031L6.38246 179.995L16.4957 175.608L11.693 164.535L42.0541 187.045L48.6267 178.196L7.91086 148.002L15.0398 86.622Z" fill="#21232A"/>
<path d="M20.8402 152.629L55.3854 105.581L46.7413 99.1173L42.0962 105.369L18.6777 87.7641L11.8457 145.871L20.8402 152.629ZM27.208 107.946L35.4591 114.223L25.0461 128.506L27.208 107.946Z" fill="#21232A"/>
<path d="M88.3587 105.841L88.34 105.849L87.2215 107.383L81.7943 114.709L81.8211 114.72L72.2108 127.718L53.8639 114.046L50.8287 118.15L50.5911 118.476L47.3101 122.887L47.3182 122.906L23.3673 155.369L32.216 161.945L56.1481 129.489L65.692 136.588L60.8868 143.088L69.746 149.636L90.6804 121.268L128.739 149.448L135.312 140.599L88.3587 105.841Z" fill="#21232A"/>
<path d="M128.112 52.609L127.132 53.9482L126.47 54.8374L99.3559 91.5718L108.205 98.1473L119.774 82.4706L171.829 88.4357L181.049 95.2515L187.622 86.4025L133.035 45.9696L128.112 52.609ZM127.329 72.2368L135.33 61.386L154.113 75.2927L127.329 72.2368Z" fill="#21232A"/>
<path d="M129.201 104.049L122.554 113.086L83.5362 84.1856L76.9717 93.0533L120.069 124.934L124.895 128.505L134.281 115.76L145.701 142.091L155.796 137.713L134.186 87.8385L121.501 86.2942L129.201 104.049Z" fill="#21232A"/>
<path d="M205.351 42.9898L206.743 31.7051L143.109 41.0864L144.715 51.9851L172.826 47.8205L199.338 108.948L209.432 104.57L184.092 46.1449L205.351 42.9898Z" fill="#21232A"/>
<path d="M283.812 26.7775L262.01 36.2337L238.328 18.5873L239.834 5.71461L228.892 4.43952L222.86 56.4247L233.449 60.6398L260.562 48.8805L278.248 62.0586L282.444 51.4307L272.232 43.8188L288.218 36.8853L283.831 26.7693L283.812 26.7775ZM234.897 47.993L236.842 31.2505L250.339 41.2955L234.897 47.993Z" fill="#21232A"/>
<path d="M222.545 23.2682L211.585 22.0012L207.126 60.5493L203.366 51.8785L193.252 56.2648L217.054 111.142L227.167 106.756L215.885 80.7437L217.08 70.3918L266.296 89.8074L270.351 79.575L218.41 59.067L222.545 23.2682Z" fill="#21232A"/>
</g>
<defs>
<filter id="filter0_d" x="-38.5303" y="-3.56042" width="348.749" height="226.511" filterUnits="userSpaceOnUse" color-interpolation-filters="sRGB">
<feFlood flood-opacity="0" result="BackgroundImageFix"/>
<feColorMatrix in="SourceAlpha" type="matrix" values="0 0 0 0 0 0 0 0 0 0 0 0 0 0 0 0 0 0 127 0"/>
<feOffset dx="6" dy="8"/>
<feGaussianBlur stdDeviation="8"/>
<feColorMatrix type="matrix" values="0 0 0 0 0 0 0 0 0 0 0 0 0 0 0 0 0 0 0.25 0"/>
<feBlend mode="normal" in2="BackgroundImageFix" result="effect1_dropShadow"/>
<feBlend mode="normal" in="SourceGraphic" in2="effect1_dropShadow" result="shape"/>
</filter>
</defs>
</svg>
