<svg width="640" height="532" viewBox="0 0 640 532" fill="none" xmlns="http://www.w3.org/2000/svg">
<g filter="url(#filter0_d)">
<path d="M37.601 216.555L10.2476 213.368L-3.79425 335.187L-16.1875 306.613L-41.4705 317.579L15.9576 449.987L41.2406 439.021L29.234 411.338L105.137 467.612L121.568 445.489L19.7786 370.006L37.601 216.555Z" fill="#FE3629"/>
<path d="M52.1011 381.573L138.464 263.953L116.854 247.794L105.241 263.422L46.6949 219.411L29.615 364.679L52.1011 381.573ZM68.0209 269.866L88.6486 285.559L62.616 321.267L68.0209 269.866Z" fill="#FE3629"/>
<path d="M220.897 264.604L220.85 264.624L218.054 268.457L204.486 286.773L204.553 286.799L180.527 319.296L134.66 285.115L127.072 295.375L126.478 296.19L118.275 307.217L118.296 307.264L58.4185 388.423L80.5401 404.862L140.37 323.723L164.23 341.471L152.217 357.719L174.365 374.091L226.701 303.171L321.849 373.619L338.28 351.497L220.897 264.604Z" fill="#FE3629"/>
<path d="M320.281 131.523L317.832 134.871L316.177 137.094L248.391 228.93L270.512 245.369L299.437 206.177L429.572 221.09L452.623 238.129L469.055 216.006L332.588 114.924L320.281 131.523ZM318.324 180.592L338.325 153.465L385.282 188.232L318.324 180.592Z" fill="#FE3629"/>
<path d="M323.004 260.121L306.387 282.714L208.841 210.463L192.43 232.633L300.174 312.334L312.238 321.262L335.703 289.399L364.254 355.228L389.49 344.282L335.467 219.596L303.753 215.735L323.004 260.121Z" fill="#FE3629"/>
<path d="M513.38 107.475L516.86 79.2631L357.776 102.716L361.791 129.963L432.067 119.552L498.347 272.37L523.583 261.424L460.233 115.363L513.38 107.475Z" fill="#FE3629"/>
<path d="M709.534 66.9433L655.027 90.5838L595.823 46.4678L599.587 14.2861L572.234 11.0983L557.154 141.061L583.627 151.599L651.408 122.201L695.625 155.146L706.115 128.576L680.584 109.547L720.549 92.2129L709.581 66.923L709.534 66.9433ZM587.246 119.982L592.109 78.1256L625.851 103.238L587.246 119.982Z" fill="#FE3629"/>
<path d="M556.366 58.1711L528.966 55.0037L517.819 151.374L508.417 129.697L483.134 140.662L542.638 277.856L567.921 266.891L539.716 201.86L542.703 175.98L665.743 224.519L675.882 198.938L546.028 147.668L556.366 58.1711Z" fill="#FE3629"/>
</g>
<defs>
<filter id="filter0_d" x="-81.3242" y="-36.2014" width="850.901" height="567.577" filterUnits="userSpaceOnUse" color-interpolation-filters="sRGB">
<feFlood flood-opacity="0" result="BackgroundImageFix"/>
<feColorMatrix in="SourceAlpha" type="matrix" values="0 0 0 0 0 0 0 0 0 0 0 0 0 0 0 0 0 0 127 0"/>
<feOffset dx="10" dy="14"/>
<feGaussianBlur stdDeviation="10"/>
<feColorMatrix type="matrix" values="0 0 0 0 0 0 0 0 0 0 0 0 0 0 0 0 0 0 0.25 0"/>
<feBlend mode="normal" in2="BackgroundImageFix" result="effect1_dropShadow"/>
<feBlend mode="normal" in="SourceGraphic" in2="effect1_dropShadow" result="shape"/>
</filter>
</defs>
</svg>
