<svg width="1915" height="5700" viewBox="0 0 1915 5700" fill="none" xmlns="http://www.w3.org/2000/svg">
<g opacity="0.1">
<path d="M1859.1 814.605L1958.88 642.448L1191.72 199.126L1416.77 199.126L1416.77 6.46457e-06L373.942 1.89002e-05L373.942 199.126L591.968 199.126L0.711798 540.484L100.117 713.01L893.139 255.28L1859.1 814.605Z" fill="#A5ACC5"/>
<path d="M723.531 436.282L1254.92 1346.94L1424.17 1250.15L1353.96 1128.23L1814.03 866.674L900.168 335.795L723.531 436.282ZM1418.26 862.979L1254.92 954.599L1093.07 679.37L1418.26 862.979Z" fill="#A5ACC5"/>
<path d="M1013.61 1891.51L1013.61 1891.14L996.24 1861.58L913.834 1718.98L913.465 1719.35L767.129 1466.66L1125.58 1260.88L1079.39 1181.08L1075.69 1174.8L1026.17 1088.72L1025.8 1088.72L659.964 458.467L487.391 557.845L853.231 1187.73L666.985 1294.87L593.817 1168.52L421.614 1268.27L741.262 1819.1L0.714011 2247.27L100.119 2419.8L1013.61 1891.51Z" fill="#A5ACC5"/>
<path d="M1610.04 2932.93L1594.89 2907.07L1584.92 2889.71L1171.04 2176.33L998.463 2275.71L1175.1 2580.12L702.096 3399.9L522.872 3503.71L622.277 3676.23L1684.69 3062.23L1610.04 2932.93ZM1290.4 2778.88L1412.71 2989.45L1047.24 3200.77L1290.4 2778.88Z" fill="#A5ACC5"/>
<path d="M749.755 2581.25L647.763 2406.14L1407.16 1967.25L1307.38 1794.72L469.278 2279.79L375.416 2334.1L519.165 2581.25L0.707895 2581.25L0.707897 2780.01L982.562 2780.38L1099.33 2581.25L749.755 2581.25Z" fill="#A5ACC5"/>
<path d="M1214.28 4282.09L1391.29 4386.27L1693.2 3264.3L1501.04 3212.58L1368.01 3708.36L164.434 3708.36L164.434 3907.11L1314.8 3907.11L1214.28 4282.09Z" fill="#A5ACC5"/>
<path d="M919.004 5698.91L919.004 5269.62L1381.66 5004L1584.17 5121.48L1683.94 4949.32L865.791 4475.71L719.825 4620.9L719.825 5154.73L374.31 5353.12L520.276 5499.04L719.825 5384.52L719.825 5699.28L919.004 5699.28L919.004 5698.91ZM919.004 4735.79L1182.48 4888.37L919.004 5039.83L919.004 4735.79Z" fill="#A5ACC5"/>
<path d="M1417.52 4708.8L1517.29 4536.27L910.518 4185.31L1081.24 4185.31L1081.24 3986.19L0.723633 3986.19L0.723635 4185.31L512.899 4185.31L675.864 4279.52L0.354015 4955.58L140.777 5096.34L853.979 4382.96L1417.52 4708.8Z" fill="#A5ACC5"/>
</g>
</svg>
