<svg width="808" height="320" viewBox="0 0 808 320" fill="none" xmlns="http://www.w3.org/2000/svg">
<path d="M122.586 165.607L0 287.117L31.716 319.114L123.128 228.504L218.03 319.385L223.228 313.956L309.437 228.504L404.339 319.385L411.73 311.666L495.628 228.504L590.53 319.385L595.729 313.956L681.937 228.504L776.839 319.385L807.999 286.846L681.395 165.607L589.847 256.352L495.086 165.607L403.595 256.295L308.895 165.607L217.346 256.352L122.586 165.607Z" fill="#4364F7"/>
<path d="M122.586 0.115723L0.000732422 121.626L31.7167 153.623L123.128 63.0128L218.03 153.894L223.229 148.465L309.437 63.0128L404.339 153.894L411.731 146.175L495.629 63.0128L590.531 153.894L595.729 148.465L681.938 63.0128L776.84 153.894L808 121.355L681.396 0.115723L589.848 90.8611L495.087 0.115723L403.596 90.8039L308.895 0.115723L217.347 90.8611L122.586 0.115723Z" fill="#4364F7"/>
</svg>
