<svg width="110" height="110" viewBox="0 0 110 110" fill="none" xmlns="http://www.w3.org/2000/svg">
<path fill-rule="evenodd" clip-rule="evenodd" d="M57.9841 71.4704C57.9841 71.4704 59.0026 71.3593 59.5243 70.8093C60.0018 70.3054 59.9852 69.3544 59.9852 69.3544C59.9852 69.3544 59.9217 64.9138 62.0222 64.2581C64.0923 63.6133 66.7503 68.5525 69.5712 70.4517C71.702 71.8877 73.3195 71.5734 73.3195 71.5734L80.8574 71.4704C80.8574 71.4704 84.7989 71.232 82.9303 68.1894C82.7757 67.9401 81.84 65.9379 77.3272 61.8252C72.5991 57.52 73.2339 58.2163 78.9253 50.7683C82.392 46.2329 83.7776 43.4639 83.3443 42.2799C82.933 41.1474 80.3827 41.4482 80.3827 41.4482L71.898 41.4996C71.898 41.4996 71.2687 41.4156 70.8022 41.6893C70.3468 41.9575 70.0514 42.5834 70.0514 42.5834C70.0514 42.5834 68.71 46.092 66.9187 49.0777C63.14 55.3742 61.6302 55.7074 61.012 55.3173C59.5739 54.4043 59.9328 51.6543 59.9328 49.7008C59.9328 43.5967 60.8767 41.0526 58.0973 40.3942C57.1754 40.1748 56.4964 40.0312 54.1365 40.0068C51.1086 39.977 48.5472 40.0176 47.0953 40.7139C46.1293 41.1772 45.384 42.2122 45.8395 42.2718C46.3998 42.3449 47.6694 42.6078 48.3429 43.5073C49.2124 44.6696 49.182 47.276 49.182 47.276C49.182 47.276 49.6816 54.4611 48.0145 55.3525C46.8718 55.9648 45.304 54.7158 41.9339 49.0018C40.2088 46.0757 38.906 42.8408 38.906 42.8408C38.906 42.8408 38.6548 42.2366 38.2049 41.9115C37.6612 41.5186 36.9021 41.3967 36.9021 41.3967L28.8397 41.4482C28.8397 41.4482 27.628 41.4807 27.1837 41.9981C26.789 42.456 27.1533 43.407 27.1533 43.407C27.1533 43.407 33.4657 57.9047 40.6145 65.2118C47.1699 71.9093 54.6112 71.4704 54.6112 71.4704H57.9841Z" fill="#163E97"/>
<circle cx="55" cy="55" r="54" stroke="#163E97" stroke-width="2"/>
</svg>
