<svg width="1959" height="5700" viewBox="0 0 1959 5700" fill="none" xmlns="http://www.w3.org/2000/svg">
<g opacity="0.04">
<path d="M1858.75 814.605L1958.52 642.448L1191.37 199.126L1416.42 199.126L1416.42 6.46457e-06L373.588 1.89002e-05L373.588 199.126L591.614 199.126L0.35776 540.484L99.7626 713.01L892.784 255.28L1858.75 814.605Z" fill="#A5ACC5"/>
<path d="M723.178 436.282L1254.57 1346.94L1423.82 1250.15L1353.6 1128.23L1813.68 866.674L899.816 335.795L723.178 436.282ZM1417.9 862.979L1254.57 954.599L1092.71 679.37L1417.9 862.979Z" fill="#A5ACC5"/>
<path d="M1013.25 1891.51L1013.25 1891.14L995.885 1861.58L913.479 1718.98L913.109 1719.35L766.773 1466.66L1125.22 1260.88L1079.03 1181.08L1075.33 1174.8L1025.82 1088.72L1025.45 1088.72L659.608 458.467L487.036 557.845L852.875 1187.73L666.63 1294.87L593.462 1168.52L421.258 1268.27L740.906 1819.1L0.35847 2247.27L99.7632 2419.8L1013.25 1891.51Z" fill="#A5ACC5"/>
<path d="M1609.69 2932.93L1594.54 2907.07L1584.56 2889.71L1170.68 2176.33L998.11 2275.71L1174.75 2580.12L701.743 3399.9L522.518 3503.71L621.923 3676.23L1684.34 3062.23L1609.69 2932.93ZM1290.04 2778.88L1412.36 2989.45L1046.89 3200.77L1290.04 2778.88Z" fill="#A5ACC5"/>
<path d="M749.402 2581.25L647.41 2406.14L1406.8 1967.25L1307.03 1794.72L468.925 2279.79L375.063 2334.1L518.812 2581.25L0.354801 2581.25L0.354803 2780.01L982.209 2780.38L1098.98 2581.25L749.402 2581.25Z" fill="#A5ACC5"/>
<path d="M1213.93 4282.09L1390.94 4386.27L1692.85 3264.3L1500.69 3212.58L1367.66 3708.36L164.082 3708.36L164.082 3907.11L1314.44 3907.11L1213.93 4282.09Z" fill="#A5ACC5"/>
<path d="M918.648 5698.91L918.648 5269.62L1381.31 5004L1583.81 5121.48L1683.59 4949.32L865.435 4475.71L719.469 4620.9L719.469 5154.73L373.954 5353.12L519.92 5499.04L719.469 5384.52L719.469 5699.28L918.648 5699.28L918.648 5698.91ZM918.648 4735.79L1182.13 4888.37L918.648 5039.83L918.648 4735.79Z" fill="#A5ACC5"/>
<path d="M1417.17 4708.8L1516.94 4536.27L910.164 4185.31L1080.89 4185.31L1080.89 3986.19L0.369669 3986.19L0.369671 4185.31L512.545 4185.31L675.51 4279.52L1.02476e-05 4955.58L140.423 5096.34L853.625 4382.96L1417.17 4708.8Z" fill="#A5ACC5"/>
</g>
</svg>
