<svg width="130" height="129" viewBox="0 0 130 129" fill="none" xmlns="http://www.w3.org/2000/svg">
<circle cx="64.7002" cy="64.5" r="63.5" stroke="#163E97" stroke-width="2"/>
<g clip-path="url(#clip0)">
<path d="M96.4647 29.8855C95.8417 29.188 94.8587 29.0009 94.0445 29.3567L26.2638 59.0284C25.5129 59.3574 25.0193 60.0929 25.001 60.9141C24.9827 61.734 25.4426 62.4905 26.1794 62.8533L42.3638 70.8126L46.3969 95.0084C46.5277 95.9267 47.2491 96.6649 48.1885 96.7985C48.8635 96.8955 49.5343 96.6579 49.9983 96.1798L62.7754 83.4027L81.0087 96.4273C81.5937 96.8435 82.3474 96.9349 83.0112 96.672C83.6763 96.409 84.1629 95.8254 84.3035 95.1237L96.9597 31.7023C97.0848 31.0737 96.9231 30.4001 96.4647 29.8855ZM44.0345 66.9328L32.1166 61.0716L79.2003 40.4604L44.0345 66.9328ZM50.6353 73.2032L48.6736 83.0118L46.5573 70.3134L72.4278 50.8384L51.2105 72.1275C50.9124 72.4256 50.7141 72.8137 50.6353 73.2032ZM51.9192 88.2922L54.1327 77.2293L59.295 80.9165L51.9192 88.2922ZM80.8048 91.0962L55.9523 73.3453L91.4556 37.7238L80.8048 91.0962Z" fill="#163E97"/>
</g>
<defs>
<clipPath id="clip0">
<rect x="25" y="27" width="72" height="72" fill="white"/>
</clipPath>
</defs>
</svg>
