<svg width="129" height="129" viewBox="0 0 129 129" fill="none" xmlns="http://www.w3.org/2000/svg">
<circle cx="64.5" cy="64.5" r="63.5" stroke="#163E97" stroke-width="2"/>
<g clip-path="url(#clip0)">
<path fill-rule="evenodd" clip-rule="evenodd" d="M100.554 43.791C97.9535 44.9386 95.1634 45.7177 92.2365 46.0652C95.2266 44.2753 97.5218 41.4326 98.5958 38.0529C95.7951 39.7164 92.6997 40.9167 89.4042 41.5694C86.7615 38.7583 83.0028 37 78.8335 37C70.8422 37 64.3566 43.4857 64.3566 51.4769C64.3566 52.614 64.4829 53.7195 64.7356 54.7724C52.7013 54.1722 42.0358 48.4025 34.8974 39.6427C33.655 41.78 32.939 44.2648 32.939 46.918C32.939 51.9402 35.4975 56.3727 39.3826 58.9628C37.0136 58.8891 34.7815 58.2363 32.8232 57.1519C32.8232 57.215 32.8232 57.2677 32.8232 57.3308C32.8232 64.3429 37.8138 70.1969 44.4363 71.5235C43.2255 71.8499 41.941 72.0289 40.6249 72.0289C39.6879 72.0289 38.7824 71.9341 37.898 71.7656C39.7405 77.5143 45.0891 81.7047 51.4168 81.8205C46.4578 85.7056 40.2249 88.0219 33.4339 88.0219C32.2652 88.0219 31.1176 87.9482 29.9805 87.8219C36.3819 91.928 43.9941 94.3286 52.1749 94.3286C78.8019 94.3286 93.363 72.271 93.363 53.1404C93.363 52.5087 93.3525 51.8875 93.3209 51.2663C96.1531 49.2238 98.6063 46.6758 100.544 43.7699L100.554 43.791Z" fill="#163E97"/>
</g>
<defs>
<clipPath id="clip0">
<rect x="30" y="37" width="70.5556" height="57.3391" fill="white"/>
</clipPath>
</defs>
</svg>
