<svg width="311" height="39" viewBox="0 0 311 39" fill="none" xmlns="http://www.w3.org/2000/svg">
<path fill-rule="evenodd" clip-rule="evenodd" d="M311 30.6695L280.059 0L256.141 22.9044L233.034 0L209.132 22.8899L186.039 0L162.121 22.9044L139.014 0L115.102 22.8991L92 0L68.0822 22.9044L44.9752 0L21.0724 22.8899L-2.02008 0L-25.9379 22.9044L-49.0449 0L-81.0001 30.6011L-73.1353 38.8139L-49.1818 15.8754L-27.4225 37.4438L-26.1104 38.8139L-2.15689 15.8754L19.0191 36.8657L20.8848 38.8139L44.8383 15.8754L66.5976 37.4438L67.9097 38.8139L91.8632 15.8754L113.412 37.2352L114.924 38.8139L138.877 15.8754L160.637 37.4438L161.949 38.8139L185.902 15.8754L207.078 36.8657L208.944 38.8139L232.897 15.8754L254.657 37.4438L255.969 38.8139L279.922 15.8754L302.995 38.7455L311 30.6695Z" fill="#0052D4"/>
</svg>
