<svg width="129" height="129" viewBox="0 0 129 129" fill="none" xmlns="http://www.w3.org/2000/svg">
<path fill-rule="evenodd" clip-rule="evenodd" d="M67.6632 82.4085C67.6632 82.4085 68.8273 82.2815 69.4235 81.6529C69.9693 81.0769 69.9503 79.99 69.9503 79.99C69.9503 79.99 69.8778 74.9146 72.2785 74.1652C74.6445 73.4282 77.6825 79.0734 80.9066 81.2442C83.342 82.8854 85.1907 82.5262 85.1907 82.5262L93.8062 82.4085C93.8062 82.4085 98.3111 82.136 96.1753 78.6585C95.9987 78.3736 94.9292 76.0851 89.7713 71.3844C84.3673 66.4639 85.0929 67.2597 91.5979 58.7471C95.5602 53.5633 97.1438 50.3985 96.6485 49.0453C96.1785 47.7509 93.2635 48.0946 93.2635 48.0946L83.566 48.1534C83.566 48.1534 82.8467 48.0575 82.3136 48.3702C81.7931 48.6768 81.4555 49.3921 81.4555 49.3921C81.4555 49.3921 79.9223 53.4023 77.8749 56.8148C73.5562 64.0113 71.8305 64.3922 71.1239 63.9463C69.4803 62.9027 69.8904 59.7597 69.8904 57.527C69.8904 50.5502 70.9693 47.6425 67.7925 46.89C66.7388 46.6392 65.9628 46.4751 63.2655 46.4472C59.8048 46.4131 56.8773 46.4596 55.2179 47.2554C54.1138 47.7849 53.262 48.9679 53.7825 49.036C54.4229 49.1196 55.8741 49.42 56.6438 50.4481C57.6375 51.7765 57.6028 54.7555 57.6028 54.7555C57.6028 54.7555 58.1738 62.9678 56.2684 63.9866C54.9624 64.6864 53.1705 63.2589 49.3186 56.728C47.3469 53.3837 45.8579 49.6863 45.8579 49.6863C45.8579 49.6863 45.5708 48.9957 45.0566 48.6241C44.4351 48.1751 43.5676 48.0358 43.5676 48.0358L34.3527 48.0946C34.3527 48.0946 32.9678 48.1318 32.4599 48.7232C32.0088 49.2466 32.4252 50.3335 32.4252 50.3335C32.4252 50.3335 39.64 66.9036 47.8107 75.2552C55.3031 82.9101 63.8081 82.4085 63.8081 82.4085H67.6632Z" fill="#163E97"/>
<circle cx="64.5" cy="64.5" r="63.5" stroke="#163E97" stroke-width="2"/>
</svg>
