<svg width="129" height="129" viewBox="0 0 129 129" fill="none" xmlns="http://www.w3.org/2000/svg">
<g clip-path="url(#clip0)">
<path d="M44.865 98.4341C50.8915 102.061 57.7821 103.972 64.8619 103.972C86.3156 103.972 104 86.4656 104 64.9857C104 43.5308 86.3406 26 64.8619 26C43.4487 26 26.028 43.4892 26.028 64.9857C26.028 72.1602 27.94 79.1031 31.5659 85.1344L26 104L44.865 98.4341ZM30.5971 64.9857C30.5971 46.0082 45.9683 30.5685 64.8619 30.5685C83.9234 30.5685 99.4315 46.0082 99.4315 64.9857C99.4315 83.9638 83.9234 99.4029 64.8619 99.4029C58.3028 99.4029 51.9288 97.545 46.4307 94.0292L45.5524 93.468L32.7573 97.2433L36.532 84.4476L35.9708 83.5699C32.455 78.0706 30.5971 71.6448 30.5971 64.9857Z" fill="#163E97"/>
<path d="M44.9861 57.8026C45.7406 61.7653 47.9806 69.3873 54.5022 75.9089C61.0238 82.4305 68.6457 84.671 72.6091 85.4256C77.1472 86.2897 83.8069 86.42 87.0615 83.1655L88.8759 81.351C89.7918 80.4352 90.2964 79.217 90.2964 77.9215C90.2964 76.626 89.7918 75.4084 88.8759 74.4926L81.62 67.2366C80.7035 66.3202 79.486 65.8161 78.1904 65.8161C76.8949 65.8161 75.6774 66.3202 74.7609 67.2366L72.9471 69.0505C71.839 70.1585 69.7473 70.1633 68.6309 69.0641L61.3934 61.5231C61.3826 61.5118 61.3719 61.5005 61.3606 61.4898C60.2508 60.3799 60.2508 58.5738 61.3606 57.464L63.1745 55.6502C65.0704 53.7542 65.0704 50.6865 63.1745 48.7911L55.9185 41.5351C54.0279 39.6445 50.9513 39.6445 49.0601 41.5351L47.2462 43.3496V43.349C44.6486 45.9472 43.7828 51.4851 44.9861 57.8026V57.8026ZM50.477 46.5803C52.3813 44.7195 52.2795 44.6838 52.4896 44.6838C52.5616 44.6838 52.6336 44.7112 52.6883 44.7659C60.3341 52.4527 60.027 52.001 60.027 52.2212C60.027 52.298 59.9991 52.3652 59.9449 52.42L58.1305 54.2338C55.2413 57.123 55.23 61.7998 58.112 64.7021L65.3537 72.2479C65.365 72.2586 65.3757 72.2699 65.387 72.2812C68.2756 75.1698 73.2797 75.1793 76.1778 72.2812L77.9917 70.4674C78.1012 70.3579 78.2797 70.3579 78.3892 70.4674C86.0349 78.1536 85.7279 77.7019 85.7279 77.9221C85.7279 77.9995 85.6999 78.0661 85.6458 78.1209L83.8313 79.9347C82.5882 81.1778 78.6284 81.9217 73.4636 80.938C70.0168 80.281 63.3893 78.3351 57.7329 72.6787C52.0766 67.0224 50.1306 60.3948 49.4742 56.948C48.49 51.7832 49.2338 47.8229 50.477 46.5803V46.5803Z" fill="#163E97"/>
</g>
<circle cx="64.5" cy="64.5" r="63.5" stroke="#163E97" stroke-width="2"/>
<defs>
<clipPath id="clip0">
<rect x="26" y="26" width="78" height="78" fill="white"/>
</clipPath>
</defs>
</svg>
