<?xml version="1.0" standalone="no"?>
<!DOCTYPE svg PUBLIC "-//W3C//DTD SVG 1.1//EN" "http://www.w3.org/Graphics/SVG/1.1/DTD/svg11.dtd" >
<svg xmlns="http://www.w3.org/2000/svg" xmlns:xlink="http://www.w3.org/1999/xlink" version="1.1">
<metadata></metadata>
<defs>
<font id="mplus_1pmedium" horiz-adv-x="1144" vert-adv-y="2048" >
<font-face units-per-em="2048" ascent="1761" descent="-287" />
<missing-glyph horiz-adv-x="608" />
<glyph unicode="&#xfb01;" horiz-adv-x="1370" d="M106 860v164h205v113q0 379 369 379q106 0 205 -31l-41 -164q-70 31 -144 31q-100 0 -140 -48.5t-40 -166.5v-113h692v-1024h-217v860h-475v-860h-209v860h-205zM995 1311v225h217v-225h-217z" />
<glyph unicode="&#xfb02;" horiz-adv-x="1370" d="M106 860v164h205v113q0 182 110.5 280.5t323.5 98.5q256 0 467 -62v-1454h-217v1327q-129 25 -250 25q-125 0 -175 -49.5t-50 -165.5v-113h342v-164h-342v-860h-209v860h-205z" />
<glyph horiz-adv-x="0" vert-adv-y="0" />
<glyph horiz-adv-x="682" />
<glyph unicode=" "  horiz-adv-x="608" />
<glyph unicode="&#x09;" horiz-adv-x="608" />
<glyph unicode="&#xa0;" horiz-adv-x="608" />
<glyph unicode="!" horiz-adv-x="806" d="M270 1495h267l-31 -1065h-205zM281 0v266h245v-266h-245z" />
<glyph unicode="&#x22;" horiz-adv-x="888" d="M137 1577h225l-30 -533h-164zM526 1577h226l-31 -533h-164z" />
<glyph unicode="#" horiz-adv-x="1400" d="M96 369v176h240l80 446h-217v176h250l57 328h205l-58 -328h246l57 328h205l-57 -328h201v-176h-234l-80 -446h211v-176h-241l-66 -369h-205l66 369h-246l-66 -369h-204l65 369h-209zM541 545h245l80 446h-245z" />
<glyph unicode="$" horiz-adv-x="1257" d="M106 143l52 181q182 -98 374 -111v483q-231 70 -328.5 167.5t-97.5 242.5q0 156 105.5 249t320.5 107v207h173v-207q205 -12 385 -80l-52 -180q-160 66 -333 78v-436q246 -70 335.5 -164t89.5 -260t-107.5 -265.5t-317.5 -119.5v-209h-173v207q-225 12 -426 110z M317 1106q0 -76 48.5 -125t166.5 -88v387q-115 -12 -165 -55t-50 -119zM705 219q211 33 210 201q0 88 -44 137t-166 90v-428z" />
<glyph unicode="%" horiz-adv-x="1769" d="M76 1116.5q0 192.5 94 296t264 103.5t264.5 -103.5t94.5 -296t-94.5 -296t-264.5 -103.5t-264 103.5t-94 296zM291 1116.5q0 -235.5 143.5 -235.5t143.5 235.5t-143.5 235.5t-143.5 -235.5zM352 0l840 1495h225l-839 -1495h-226zM977 378.5q0 192.5 94 296t264 103.5 t264.5 -103.5t94.5 -296t-94.5 -295.5t-264.5 -103t-264 103t-94 295.5zM1192 378.5q0 -235.5 143.5 -235.5t143.5 235.5t-143.5 235.5t-143.5 -235.5z" />
<glyph unicode="&#x26;" horiz-adv-x="1492" d="M96 348q0 111 77 215.5t269 233.5l-20 20q-203 205 -203 371q0 150 112.5 239t317.5 89q207 0 313.5 -84t106.5 -234q0 -111 -73 -209t-253 -217l306 -315v387h208v-604l232 -240h-266l-111 113q-264 -133 -524 -133q-492 0 -492 368zM322 358q0 -203 276 -202 q109 0 189.5 21.5t183.5 78.5l-400 408q-139 -92 -194 -164t-55 -142zM440 1188q0 -61 29.5 -111.5t144.5 -169.5q152 100 199 156.5t47 124.5q0 156 -211 155q-100 0 -154.5 -41.5t-54.5 -113.5z" />
<glyph unicode="'" horiz-adv-x="540" d="M147 1577h246l-31 -533h-184z" />
<glyph unicode="(" horiz-adv-x="837" d="M137 630.5q0 276.5 106.5 521.5t303.5 425h205q-400 -387 -400 -946q0 -561 400 -948h-205q-197 180 -303.5 425.5t-106.5 522z" />
<glyph unicode=")" horiz-adv-x="837" d="M86 -317q399 387 399 948q0 559 -399 946h205q197 -180 303 -425t106 -521.5t-106.5 -522t-302.5 -425.5h-205z" />
<glyph unicode="*" horiz-adv-x="1087" d="M96 1147l56 168l311 -109l-6 330h176l-6 -330l311 109l53 -168l-315 -96l198 -263l-141 -104l-188 270l-189 -270l-143 104l199 263z" />
<glyph unicode="+" horiz-adv-x="1503" d="M158 508v172h501v508h185v-508h502v-172h-502v-508h-185v508h-501z" />
<glyph unicode="," horiz-adv-x="684" d="M117 -225l143 532h287l-225 -532h-205z" />
<glyph unicode="-" horiz-adv-x="950" d="M158 508v172h635v-172h-635z" />
<glyph unicode="." horiz-adv-x="643" d="M188 0v307h267v-307h-267z" />
<glyph unicode="/" horiz-adv-x="1083" d="M66 -82l706 1577h215l-706 -1577h-215z" />
<glyph unicode="0" horiz-adv-x="1290" d="M92 747.5q0 403.5 138.5 586t415 182.5t414.5 -182.5t138 -586t-138 -585.5t-414.5 -182t-415 182t-138.5 585.5zM317 747.5q0 -319.5 81 -453.5t247 -134t247 134t81 453.5t-81 453.5t-247 134t-247 -134t-81 -453.5z" />
<glyph unicode="1" horiz-adv-x="1290" d="M154 1065l471 430h225v-1495h-225v1229h-4l-385 -348z" />
<glyph unicode="2" horiz-adv-x="1290" d="M154 1372q211 144 481 144q229 0 355 -114t126 -317q0 -205 -130 -395t-505 -502v-4h635v-184h-942v184q418 332 563.5 519.5t145.5 361.5q0 262 -279 262q-186 0 -389 -135z" />
<glyph unicode="3" horiz-adv-x="1290" d="M174 82l62 184q186 -102 337.5 -102t234.5 80t83 227q0 125 -89 185.5t-290 60.5h-143v172l440 418v4h-635v184h922v-184l-441 -428v-4h41q199 0 309.5 -105.5t110.5 -302.5q0 -233 -142.5 -362t-400.5 -129q-223 0 -399 102z" />
<glyph unicode="4" horiz-adv-x="1290" d="M31 328v180l686 987h221v-987h240v-180h-240v-328h-221v328h-686zM256 508h461v661h-4l-457 -657v-4z" />
<glyph unicode="5" horiz-adv-x="1290" d="M174 72l51 184q182 -92 338 -92q348 0 348 338q0 285 -266 284q-152 0 -246 -90h-194l41 799h829v-184h-624l-21 -410h4q111 61 252 62q213 0 332 -121t119 -340q0 -258 -145.5 -390t-428.5 -132q-211 0 -389 92z" />
<glyph unicode="6" horiz-adv-x="1290" d="M113 584q0 412 207.5 659.5t576.5 272.5l41 -185q-227 -20 -363.5 -122.5t-207.5 -305.5l4 -4q141 115 336 115q231 0 361 -132t130 -370q0 -244 -147.5 -388t-395.5 -144q-260 0 -401 151.5t-141 452.5zM342 512q0 -170 81.5 -259t231.5 -89q154 0 236 88t82 260 q0 158 -84 245t-234 87q-143 0 -228 -89t-85 -243z" />
<glyph unicode="7" horiz-adv-x="1290" d="M164 1311v184h983v-184q-186 -303 -322.5 -613.5t-251.5 -697.5h-235q229 717 594 1307v4h-768z" />
<glyph unicode="8" horiz-adv-x="1290" d="M92 410q0 119 82 220t225 156v5q-123 53 -189.5 146t-66.5 210q0 166 133.5 267.5t369 101.5t368.5 -101.5t133 -267.5q0 -229 -256 -336v-4q307 -104 307 -397q0 -197 -146.5 -313.5t-406.5 -116.5t-406.5 116.5t-146.5 313.5zM305 420q0 -123 91 -193.5t249 -70.5 t245 70.5t87 193.5q0 215 -342 287q-162 -39 -246 -116t-84 -171zM360 1126q0 -86 73 -150t212 -95q141 33 217 98t76 147q0 98 -76 155.5t-217 57.5q-139 0 -212 -56t-73 -157z" />
<glyph unicode="9" horiz-adv-x="1290" d="M92 993q0 238 148.5 380.5t394.5 142.5q260 0 401.5 -152t141.5 -442q0 -426 -214 -672t-591 -270l-41 184q240 23 380 123t212 305l-4 4q-141 -115 -336 -115q-229 0 -360.5 133.5t-131.5 378.5zM317 993q0 -166 85 -254t233 -88q141 0 227 91.5t86 250.5 q0 162 -81.5 250t-231.5 88q-154 0 -236 -87t-82 -251z" />
<glyph unicode=":" horiz-adv-x="806" d="M270 0v307h267v-307h-267zM270 799v307h267v-307h-267z" />
<glyph unicode=";" horiz-adv-x="847" d="M158 -225l143 532h287l-226 -532h-204zM301 799v307h266v-307h-266z" />
<glyph unicode="&#x3c;" horiz-adv-x="1380" d="M127 481v226l1065 460v-194l-932 -377v-4l932 -377v-195z" />
<glyph unicode="=" horiz-adv-x="1544" d="M178 266v174h1188v-174h-1188zM178 748v174h1188v-174h-1188z" />
<glyph unicode="&#x3e;" horiz-adv-x="1380" d="M188 20v195l932 377v4l-932 377v194l1065 -460v-226z" />
<glyph unicode="?" horiz-adv-x="1257" d="M127 1444q248 72 502 72q242 0 371.5 -95.5t129.5 -253.5q0 -72 -18 -128t-60 -101t-73 -70.5t-90 -66.5q-61 -43 -91 -67.5t-72 -70t-59.5 -99.5t-17.5 -124h-225q0 88 22.5 159t70.5 126t83 85t100 75q68 47 101 74.5t63.5 77.5t30.5 110q0 180 -297 180 q-199 0 -430 -72zM414 0v266h245v-266h-245z" />
<glyph unicode="@" horiz-adv-x="1687" d="M76 532q0 336 218 552t550 216q336 0 552 -214t216 -554q0 -227 -111 -413h-497l-7 114h-2q-98 -131 -252 -131q-145 0 -237 113t-92 317q0 209 88 320t241 111q152 0 252 -127h4v110h220v-663h182q47 117 47 249q0 270 -167 437.5t-437 167.5q-266 0 -435 -169 t-169 -435.5t169 -435.5t435 -169q213 0 362 111l99 -131q-193 -143 -461 -144q-326 0 -547 215.5t-221 552.5zM635 532q0 -121 49 -186t127 -65t127 63.5t49 179.5v17q0 115 -49 178t-127 63q-176 0 -176 -250z" />
<glyph unicode="A" horiz-adv-x="1441" d="M66 0l532 1495h246l532 -1495h-241l-129 397h-578l-129 -397h-233zM483 573h467l-231 717h-4z" />
<glyph unicode="B" horiz-adv-x="1247" d="M168 10v1475q180 31 389 31q553 0 553 -369q0 -123 -84 -216t-223 -120v-4q172 -27 270 -127t98 -250q0 -450 -590 -450h-3q-219 0 -410 30zM393 174q80 -14 185 -14q193 0 282.5 71.5t89.5 219.5q0 133 -108.5 195.5t-366.5 62.5h-82v-535zM393 885h82q225 0 324.5 57 t99.5 174q0 113 -80 166t-262 53q-92 0 -164 -14v-436z" />
<glyph unicode="C" horiz-adv-x="1431" d="M76 747.5q0 352.5 204.5 560.5t553.5 208q266 0 471 -130l-72 -167q-180 112 -379 112q-248 0 -398.5 -159.5t-150.5 -423.5q0 -266 153.5 -425t395.5 -159q199 0 379 112l72 -167q-205 -129 -471 -129q-342 0 -550 207.5t-208 560z" />
<glyph unicode="D" horiz-adv-x="1411" d="M168 10v1475q180 31 389 31q375 0 576.5 -194t201.5 -554q0 -389 -200.5 -588.5t-577.5 -199.5q-209 0 -389 30zM393 178q72 -14 164 -14q287 0 425 148.5t138 455.5q0 279 -143 421t-420 142q-92 0 -164 -14v-1139z" />
<glyph unicode="E" horiz-adv-x="1216" d="M168 0v1495h901v-184h-676v-426h635v-176h-635v-525h676v-184h-901z" />
<glyph unicode="F" horiz-adv-x="1185" d="M168 0v1495h881v-184h-656v-447h615v-176h-615v-688h-225z" />
<glyph unicode="G" horiz-adv-x="1533" d="M76 747.5q0 352.5 212 560.5t576 208q262 0 465 -125l-72 -164q-178 108 -369 108h-3q-272 0 -426 -159.5t-154 -427.5q0 -270 162 -429t438 -159q147 0 266 51v498h-471v176h686v-793q-225 -112 -496 -112h-5q-369 0 -589 207.5t-220 560z" />
<glyph unicode="H" horiz-adv-x="1482" d="M168 0v1495h225v-610h697v610h225v-1495h-225v709h-697v-709h-225z" />
<glyph unicode="I" horiz-adv-x="684" d="M219 0v1495h246v-1495h-246z" />
<glyph unicode="J" horiz-adv-x="1093" d="M45 61l51 189q158 -86 277 -86q170 0 254 97t84 312v922h235v-963q0 -295 -137 -423.5t-436 -128.5q-176 0 -328 81z" />
<glyph unicode="K" horiz-adv-x="1339" d="M168 0v1495h225v-655h4l590 655h266l-655 -717l676 -778h-266l-611 717h-4v-717h-225z" />
<glyph unicode="L" horiz-adv-x="1206" d="M168 0v1495h235v-1307h687v-188h-922z" />
<glyph unicode="M" horiz-adv-x="1769" d="M168 0v1495h217l494 -881h4l493 881h226v-1495h-226v1106h-4l-389 -696h-205l-389 696h-4v-1106h-217z" />
<glyph unicode="N" horiz-adv-x="1482" d="M168 0v1495h221l701 -1116h4v1116h221v-1495h-221l-701 1116h-4v-1116h-221z" />
<glyph unicode="O" horiz-adv-x="1626" d="M76 747.5q0 350.5 200.5 559.5t536.5 209t536.5 -209t200.5 -559.5t-200.5 -559t-536.5 -208.5t-536.5 208.5t-200.5 559zM305 747.5q0 -270.5 139.5 -427t368.5 -156.5t368.5 156.5t139.5 427t-139.5 427t-368.5 156.5t-368.5 -156.5t-139.5 -427z" />
<glyph unicode="P" horiz-adv-x="1257" d="M168 0v1485q213 31 450 31q283 0 428.5 -120t145.5 -341q0 -502 -574 -502q-108 0 -225 10v-563h-225zM393 745q102 -16 205 -16q180 0 276.5 79t96.5 226.5t-94.5 224t-278.5 76.5q-117 0 -205 -14v-576z" />
<glyph unicode="Q" horiz-adv-x="1615" d="M76 747.5q0 350.5 200.5 559.5t536.5 209t536.5 -209t200.5 -559q0 -223 -97 -395.5t-271 -268.5v-4q133 -51 252.5 -153.5t197.5 -233.5h-266q-111 174 -220.5 230.5t-332.5 56.5q-336 0 -536.5 208.5t-200.5 559zM305 747.5q0 -270.5 139.5 -427t368.5 -156.5 t368.5 156.5t139.5 427t-139.5 427t-368.5 156.5t-368.5 -156.5t-139.5 -427z" />
<glyph unicode="R" horiz-adv-x="1298" d="M168 0v1485q193 31 410 31q295 0 444 -109t149 -301q0 -156 -79.5 -266.5t-217.5 -151.5v-4q88 -53 164 -244l174 -440h-233l-170 440q-43 111 -95 142.5t-198 31.5h-123v-614h-225zM393 791h123q434 0 434 294q0 125 -93 187.5t-300 62.5q-92 0 -164 -14v-530z" />
<glyph unicode="S" horiz-adv-x="1196" d="M117 102l61 185q184 -123 400 -123q133 0 204.5 61.5t71.5 173.5q0 106 -57.5 168t-208.5 109q-244 72 -357.5 182.5t-113.5 267.5q0 176 128 283t353 107q233 0 440 -93l-51 -174q-178 86 -389 86q-125 0 -192.5 -56t-67.5 -153q0 -170 250 -245q268 -76 379.5 -188.5 t111.5 -293.5q0 -203 -130 -311t-371 -108q-254 0 -461 122z" />
<glyph unicode="T" horiz-adv-x="1339" d="M117 1307v188h1106v-188h-441v-1307h-225v1307h-440z" />
<glyph unicode="U" horiz-adv-x="1421" d="M147 604v891h230v-901q0 -426 338 -426t338 426v901h221v-891q0 -309 -145.5 -466.5t-418 -157.5t-418 157.5t-145.5 466.5z" />
<glyph unicode="V" horiz-adv-x="1441" d="M66 1495h241l416 -1270h4l416 1270h233l-532 -1495h-246z" />
<glyph unicode="W" horiz-adv-x="1974" d="M86 1495h229l265 -1249h4l264 1249h287l264 -1249h4l264 1249h221l-358 -1495h-277l-264 1249h-4l-264 -1249h-277z" />
<glyph unicode="X" horiz-adv-x="1359" d="M86 0l451 758l-441 737h260l326 -584h4l326 584h252l-441 -737l451 -758h-264l-332 604h-4l-332 -604h-256z" />
<glyph unicode="Y" horiz-adv-x="1400" d="M55 1495h264l383 -696h5l383 696h256l-527 -881v-614h-237v614z" />
<glyph unicode="Z" horiz-adv-x="1318" d="M147 0v184l762 1123v4h-762v184h1024v-184l-761 -1123v-4h761v-184h-1024z" />
<glyph unicode="[" horiz-adv-x="991" d="M229 -317v1894h594v-164h-389v-1567h389v-163h-594z" />
<glyph unicode="\" horiz-adv-x="1083" d="M96 1495h215l707 -1577h-215z" />
<glyph unicode="]" horiz-adv-x="991" d="M168 -154h389v1567h-389v164h594v-1894h-594v163z" />
<glyph unicode="^" horiz-adv-x="1380" d="M76 573l481 922h266l482 -922h-230l-385 779l-385 -779h-229z" />
<glyph unicode="_" horiz-adv-x="1220" d="M-4 -154h1229v-163h-1229v163z" />
<glyph unicode="`" horiz-adv-x="632" d="M25 1659h307l225 -533h-184z" />
<glyph unicode="a" d="M96 287q0 178 150.5 285.5t433.5 107.5h102v10q0 129 -52 180.5t-183 51.5q-195 0 -359 -93l-30 164q172 92 389 92q231 0 335.5 -93t104.5 -296v-409q0 -145 31 -287h-195q-16 90 -18 164h-4q-57 -86 -158.5 -135t-228.5 -49q-145 0 -231.5 82t-86.5 225zM297 297 q0 -76 46 -120t122 -44q129 0 223 89t94 218v88h-102q-184 0 -283.5 -63.5t-99.5 -167.5z" />
<glyph unicode="b" horiz-adv-x="1206" d="M158 0v1536h204v-614h5q118 163 321 163h2q203 0 316.5 -140t113.5 -413q0 -268 -117.5 -410t-312.5 -142q-213 0 -330 174h-4l-4 -154h-194zM362 522q0 -178 78 -278.5t199 -100.5q127 0 204 100.5t77 288.5q0 195 -74 292.5t-207 97.5q-121 0 -199 -101.5t-78 -277.5 v-21z" />
<glyph unicode="c" horiz-adv-x="1083" d="M76 532q0 260 143 406.5t399 146.5q174 0 338 -71l-51 -168q-133 72 -276 72q-158 0 -248 -100.5t-90 -285.5q0 -180 95 -284.5t243 -104.5q143 0 276 72l51 -164q-162 -71 -333 -71h-5q-242 0 -392 149.5t-150 402.5z" />
<glyph unicode="d" horiz-adv-x="1206" d="M86 532q0 272 113.5 412.5t316.5 140.5q205 0 324 -163h4v614h205v-1536h-195l-4 154h-4q-117 -174 -330 -174q-195 0 -312.5 142t-117.5 410zM287 532q0 -188 76.5 -288.5t203.5 -100.5q121 0 199 100.5t78 278.5v21q0 176 -78 277.5t-199 101.5q-133 0 -206.5 -97.5 t-73.5 -292.5z" />
<glyph unicode="e" d="M76 532q0 258 136 405.5t366 147.5q227 0 354 -139t127 -403q0 -31 -4 -92h-770q6 -143 99 -227.5t234 -84.5q154 0 308 78l51 -156q-176 -81 -374 -81h-5q-229 0 -375.5 150.5t-146.5 401.5zM285 610h575q-2 152 -76.5 234t-206 82t-210 -83t-82.5 -233z" />
<glyph unicode="f" horiz-adv-x="1083" d="M106 860v164h267v113q0 379 368 379q106 0 205 -31l-41 -164q-70 31 -143 31q-100 0 -140 -48.5t-40 -166.5v-113h344v-164h-344v-860h-209v860h-267z" />
<glyph unicode="g" horiz-adv-x="1196" d="M86 553q0 260 110.5 396t309.5 136q219 0 340 -174h4l4 154h195v-963q0 -573 -523 -573q-180 0 -338 61l41 164q156 -61 297 -61q166 0 242 91t76 308v92h-4q-115 -164 -334 -164q-180 0 -300 145.5t-120 387.5zM287 553q0 -172 75.5 -270.5t194.5 -98.5q129 0 208 95.5 t79 263.5v20q0 170 -80 264.5t-207 94.5t-198.5 -93.5t-71.5 -275.5z" />
<glyph unicode="h" horiz-adv-x="1196" d="M158 0v1536h204v-614h5q140 163 342 163h2q348 0 348 -471v-614h-201v594q0 186 -48 255t-171 69q-111 0 -194 -108t-83 -237v-573h-204z" />
<glyph unicode="i" horiz-adv-x="655" d="M219 0v1065h217v-1065h-217zM219 1311v225h217v-225h-217z" />
<glyph unicode="j" horiz-adv-x="735" d="M-57 -303q219 0 287.5 63.5t68.5 270.5v1034h217v-1024q0 -299 -117.5 -405.5t-445.5 -106.5zM299 1311v225h217v-225h-217z" />
<glyph unicode="k" horiz-adv-x="1185" d="M158 0v1536h204v-901h5l467 430h256l-553 -502l563 -563h-256l-477 492h-5v-492h-204z" />
<glyph unicode="l" horiz-adv-x="655" d="M219 0v1536h217v-1536h-217z" />
<glyph unicode="m" horiz-adv-x="1677" d="M147 0v1065h195l4 -143h4q116 163 266 163h2q195 0 285 -184h4q121 184 305 184q168 0 248 -96t80 -313v-676h-201v614q0 180 -38.5 244t-139.5 64q-84 0 -149.5 -91.5t-65.5 -216.5v-614h-201v614q0 180 -38.5 244t-139.5 64q-84 0 -149.5 -91.5t-65.5 -216.5v-614h-205 z" />
<glyph unicode="n" horiz-adv-x="1185" d="M147 0v1065h195l4 -154h4q66 82 158 128t192 46q348 0 349 -471v-614h-201v594q0 186 -48 255t-171 69q-104 0 -190.5 -103.5t-86.5 -241.5v-573h-205z" />
<glyph unicode="o" horiz-adv-x="1175" d="M76 532.5q0 253.5 140 403t371.5 149.5t372 -149.5t140.5 -403t-140.5 -403t-372 -149.5t-371.5 149.5t-140 403zM285 532.5q0 -184.5 82 -287t221 -102.5t221 102.5t82 287t-82 287t-221 102.5t-221 -102.5t-82 -287z" />
<glyph unicode="p" horiz-adv-x="1196" d="M147 -451v1516h195l4 -154h4q119 174 330 174q203 0 316.5 -140t113.5 -413q0 -268 -118 -410t-312 -142q-205 0 -324 153h-4v-584h-205zM352 522q0 -178 78 -278.5t199 -100.5q127 0 203.5 100.5t76.5 288.5q0 195 -73.5 292.5t-206.5 97.5q-121 0 -199 -101.5 t-78 -277.5v-21z" />
<glyph unicode="q" horiz-adv-x="1196" d="M86 532q0 272 113.5 412.5t316.5 140.5q211 0 330 -174h4l4 154h195v-1516h-205v584h-4q-120 -153 -321 -153h-3q-195 0 -312.5 142t-117.5 410zM287 532q0 -188 76.5 -288.5t203.5 -100.5q121 0 199 100.5t78 278.5v21q0 176 -78 277.5t-199 101.5q-133 0 -206.5 -97.5 t-73.5 -292.5z" />
<glyph unicode="r" horiz-adv-x="950" d="M147 0v1065h199l4 -205h4q189 225 490 225v-172q-225 0 -356.5 -121.5t-131.5 -320.5v-471h-209z" />
<glyph unicode="s" horiz-adv-x="1032" d="M106 82l41 164q168 -102 369 -102q1 0 1 -1q200 0 200 144q0 70 -46 107.5t-165 56.5q-211 35 -305.5 115.5t-94.5 221.5q0 135 106.5 216t303.5 81q203 0 369 -81l-41 -164q-152 82 -328 82q-205 0 -205 -134q0 -63 48.5 -99t166.5 -54q215 -33 307.5 -116t92.5 -232 q0 -143 -107.5 -225t-302.5 -82q-227 0 -410 102z" />
<glyph unicode="t" horiz-adv-x="1062" d="M96 860v164h226v389h208v-389h385v-164h-385v-491q0 -133 35 -179.5t125 -46.5q102 0 184 37l31 -160q-114 -40 -240 -40h-6q-180 0 -258.5 79.5t-78.5 268.5v532h-226z" />
<glyph unicode="u" horiz-adv-x="1165" d="M137 389v676h201v-655q0 -145 46 -201.5t153 -56.5q104 0 190 101t86 239v573h205v-1065h-195l-4 154h-4q-135 -174 -350 -174q-164 0 -246 98t-82 311z" />
<glyph unicode="v" horiz-adv-x="1155" d="M66 1065h229l285 -942h4l284 942h222l-369 -1065h-287z" />
<glyph unicode="w" horiz-adv-x="1667" d="M86 1065h229l193 -881h4l182 881h287l182 -881h4l193 881h221l-287 -1065h-276l-182 860h-5l-182 -860h-276z" />
<glyph unicode="x" horiz-adv-x="1155" d="M96 0l359 543l-349 522h240l234 -389h4l233 389h232l-349 -522l359 -543h-240l-244 410h-4l-243 -410h-232z" />
<glyph unicode="y" horiz-adv-x="1155" d="M66 1065h225l274 -819h4l303 819h218l-615 -1516h-217l197 451z" />
<glyph unicode="z" horiz-adv-x="1134" d="M147 0v164l584 733v4h-584v164h840v-164l-584 -733v-4h584v-164h-840z" />
<glyph unicode="{" horiz-adv-x="1073" d="M117 543v174h82q174 0 174 246v297q0 170 69.5 243.5t227.5 73.5h225v-164h-123q-117 0 -155.5 -39t-38.5 -176v-246q0 -129 -45.5 -202.5t-149.5 -118.5v-4q104 -45 149.5 -118t45.5 -202v-246q0 -135 38.5 -175t155.5 -40h123v-163h-225q-158 0 -227.5 73.5 t-69.5 243.5v297q0 246 -174 246h-82z" />
<glyph unicode="|" horiz-adv-x="745" d="M270 -451v2110h205v-2110h-205z" />
<glyph unicode="}" horiz-adv-x="1073" d="M178 -154h123q117 0 156 40t39 175v246q0 129 45 202t149 118v4q-104 45 -149 118.5t-45 202.5v246q0 137 -39 176t-156 39h-123v164h225q158 0 227.5 -73.5t69.5 -243.5v-297q0 -246 174 -246h82v-174h-82q-174 0 -174 -246v-297q0 -170 -69.5 -243.5t-227.5 -73.5h-225 v163z" />
<glyph unicode="~" horiz-adv-x="1421" d="M106 434q0 381 271 381q143 0 389 -115q174 -82 246 -82q119 0 118 177h185q0 -360 -271 -361q-143 0 -389 115q-174 82 -245 82q-61 0 -90 -44t-29 -153h-185z" />
<glyph unicode="&#xa1;" horiz-adv-x="724" d="M229 -451l31 1086h205l31 -1086h-267zM240 799v266h245v-266h-245z" />
<glyph unicode="&#xa2;" horiz-adv-x="1138" d="M76 532q0 238 126 381.5t355 167.5v332h164v-332q141 -12 264 -67l-22 -168q-113 55 -242 67v-766q129 12 242 68l49 -164q-135 -55 -291 -67v-353h-164v355q-219 27 -350 172t-131 374zM291 532q0 -150 72.5 -247.5t193.5 -128.5v751q-127 -27 -196.5 -123t-69.5 -252z " />
<glyph unicode="&#xa3;" horiz-adv-x="1318" d="M147 0v184q86 6 145.5 95.5t59.5 232.5v164h-168v164h168v256q0 199 122 309.5t349 110.5q150 0 291 -52l-35 -188q-113 51 -231 51q-139 0 -204.5 -62.5t-65.5 -193.5v-231h466v-164h-466v-164q0 -115 -41.5 -202t-104.5 -122v-4h739v-184h-1024z" />
<glyph unicode="&#xa5;" horiz-adv-x="1421" d="M66 1495h264l383 -696h4l383 696h256l-455 -758h352v-143h-426v-164h426v-143h-426v-287h-233v287h-426v143h426v164h-426v143h352z" />
<glyph unicode="&#xa7;" horiz-adv-x="1083" d="M117 606q0 182 145 277q-139 96 -139 278q0 152 115.5 253.5t302.5 101.5q211 0 401 -89l-45 -178q-172 86 -334 86q-113 0 -174 -48t-61 -126q0 -76 51 -120t172 -68q223 -43 319.5 -133t96.5 -238q0 -182 -146 -276q142 -97 142 -279q0 -150 -118 -252t-304 -102 q-209 0 -400 88l45 178q172 -86 334 -86q113 0 175.5 48t62.5 126q0 76 -52.5 120t-173.5 69q-223 43 -319 133t-96 237zM295 641q0 -86 58.5 -136t205.5 -81q78 -16 115 -29q115 51 114 172q0 86 -58 136.5t-206 80.5q-77 17 -114 29q-115 -51 -115 -172z" />
<glyph unicode="&#xa8;" horiz-adv-x="950" d="M168 1249v267h205v-267h-205zM578 1249v267h204v-267h-204z" />
<glyph unicode="&#xa9;" horiz-adv-x="1667" d="M76 747.5q0 313.5 222 535.5t535.5 222t535.5 -222t222 -535.5t-222 -535.5t-535.5 -222t-535.5 222t-222 535.5zM219 747.5q0 -253.5 180.5 -434t434 -180.5t434 180.5t180.5 434t-180.5 434t-434 180.5t-434 -180.5t-180.5 -434zM395 748q0 207 129 325.5t355 118.5 q172 0 299 -78l-58 -135q-108 65 -223 65q-139 0 -219 -79.5t-80 -217t83 -217t216 -79.5q115 0 223 65l58 -135q-127 -78 -299 -78q-219 0 -351.5 120t-132.5 325z" />
<glyph unicode="&#xaa;" horiz-adv-x="1339" d="M178 393v131h983v-131h-983zM274 881q0 141 120 227t347 86h74v6q0 92 -37 129t-131 37q-162 0 -297 -74l-28 150q152 74 329 74q193 0 277 -76t84 -244v-319q0 -115 24 -230h-186q-12 72 -14 127h-5q-98 -143 -299 -143q-119 0 -188.5 66.5t-69.5 183.5zM461 893 q0 -55 33.5 -86t89.5 -31q96 0 163.5 64.5t67.5 158.5v60h-74q-135 0 -207.5 -45t-72.5 -121z" />
<glyph unicode="&#xab;" horiz-adv-x="1482" d="M127 512v164l553 409v-194l-420 -295v-4l420 -295v-195zM741 512v164l553 409v-194l-420 -295v-4l420 -295v-195z" />
<glyph unicode="&#xac;" horiz-adv-x="1359" d="M117 748v174h1065v-615h-195v441h-870z" />
<glyph unicode="&#xad;" horiz-adv-x="950" d="M158 508v172h635v-172h-635z" />
<glyph unicode="&#xae;" horiz-adv-x="1667" d="M76 747.5q0 313.5 222 535.5t535.5 222t535.5 -222t222 -535.5t-222 -535.5t-535.5 -222t-535.5 222t-222 535.5zM219 747.5q0 -253.5 180.5 -434t434 -180.5t434 180.5t180.5 434t-180.5 434t-434 180.5t-434 -180.5t-180.5 -434zM518 313v863q121 16 293 16 q375 0 375 -252q0 -82 -50.5 -145.5t-131.5 -89.5v-3q63 -33 106 -141l100 -248h-202l-93 242q-20 53 -46.5 70.5t-90.5 17.5h-65v-330h-195zM713 780h71q205 0 205 144q0 127 -192 127q-47 0 -84 -7v-264z" />
<glyph unicode="&#xaf;" horiz-adv-x="970" d="M117 1290v164h737v-164h-737z" />
<glyph unicode="&#xb0;" horiz-adv-x="827" d="M86 1188q0 135 96.5 231.5t231.5 96.5t231 -96.5t96 -231.5t-96 -231.5t-231 -96.5t-231.5 96.5t-96.5 231.5zM250 1187.5q0 -67.5 48 -115.5t115.5 -48t116 48t48.5 115.5t-48.5 116t-116 48.5t-115.5 -48.5t-48 -116z" />
<glyph unicode="&#xb1;" horiz-adv-x="1544" d="M178 -82v174h1188v-174h-1188zM178 692v172h502v467h184v-467h502v-172h-502v-467h-184v467h-502z" />
<glyph unicode="&#xb4;" horiz-adv-x="612" d="M76 1208l225 348h287l-307 -348h-205z" />
<glyph unicode="&#xb5;" horiz-adv-x="1175" d="M147 -451v1516h201v-655q0 -145 46 -201.5t153 -56.5q104 0 190 101t86 239v573h205v-1065h-194l-5 154h-4q-123 -174 -315 -174q-98 0 -162 43v-474h-201z" />
<glyph unicode="&#xb6;" horiz-adv-x="1339" d="M66 1024q0 195 138 333t333 138h634v-1782h-194v1608h-246v-1608h-194v840q-195 0 -333 138t-138 333z" />
<glyph unicode="&#xb7;" horiz-adv-x="643" d="M188 440v308h267v-308h-267z" />
<glyph unicode="&#xb8;" horiz-adv-x="851" d="M86 -403l25 167q98 -51 202 -51q188 0 189 137q0 87 -76 150h195q84 -98 84 -205q0 -115 -94.5 -180.5t-274.5 -65.5q-133 0 -250 48z" />
<glyph unicode="&#xba;" horiz-adv-x="1339" d="M178 393v131h983v-131h-983zM252 1073q0 203 113.5 323t304 120t304 -120t113.5 -323t-113.5 -322.5t-304 -119.5t-304 119.5t-113.5 322.5zM449 1073q0 -141 59 -216t161.5 -75t162 75t59.5 216t-59.5 216t-162 75t-161.5 -75t-59 -216z" />
<glyph unicode="&#xbb;" horiz-adv-x="1482" d="M188 102v195l420 295v4l-420 295v194l553 -409v-164zM803 102v195l420 295v4l-420 295v194l553 -409v-164z" />
<glyph unicode="&#xbf;" horiz-adv-x="1257" d="M127 -123q0 72 18.5 128t60.5 101.5t72.5 71t90.5 66.5q61 43 90.5 67.5t71.5 71.5t59.5 105.5t17.5 136.5h226q0 -78 -17.5 -144.5t-41 -109.5t-66.5 -87t-72 -65.5t-80 -58.5q-68 -47 -100.5 -75t-63.5 -78t-31 -109q0 -180 297 -181q199 0 431 72l40 -188 q-248 -72 -501 -72q-242 0 -372 95t-130 253zM598 799v266h246v-266h-246z" />
<glyph unicode="&#xc0;" horiz-adv-x="1441" d="M66 0l532 1495h246l532 -1495h-241l-129 397h-578l-129 -397h-233zM373 1966h286l226 -348h-205zM483 573h467l-231 717h-4z" />
<glyph unicode="&#xc1;" horiz-adv-x="1441" d="M66 0l532 1495h246l532 -1495h-241l-129 397h-578l-129 -397h-233zM483 573h467l-231 717h-4zM557 1618l225 348h287l-307 -348h-205z" />
<glyph unicode="&#xc2;" horiz-adv-x="1441" d="M66 0l532 1495h246l532 -1495h-241l-129 397h-578l-129 -397h-233zM301 1618l266 348h307l267 -348h-252l-166 256h-4l-166 -256h-252zM483 573h467l-231 717h-4z" />
<glyph unicode="&#xc3;" horiz-adv-x="1441" d="M66 0l532 1495h246l532 -1495h-241l-129 397h-578l-129 -397h-233zM322 1628q0 317 184 318q96 -1 239 -93q104 -68 144 -67q57 0 57 139h174q0 -297 -184 -297q-94 0 -240 92q-100 66 -143 66q-31 0 -44 -33t-13 -125h-174zM483 573h467l-231 717h-4z" />
<glyph unicode="&#xc4;" horiz-adv-x="1441" d="M66 0l532 1495h246l532 -1495h-241l-129 397h-578l-129 -397h-233zM414 1659v266h204v-266h-204zM483 573h467l-231 717h-4zM823 1659v266h205v-266h-205z" />
<glyph unicode="&#xc5;" horiz-adv-x="1441" d="M66 0l532 1495h246l532 -1495h-241l-129 397h-578l-129 -397h-233zM455 1833q0 111 77.5 188.5t188 77.5t188.5 -77.5t78 -188.5t-78 -188.5t-188.5 -77.5t-188 77.5t-77.5 188.5zM483 573h467l-231 717h-4zM578 1833q0 -59 42 -101t101 -42t101 42t42 101t-42 101 t-101 42t-101 -42t-42 -101z" />
<glyph unicode="&#xc6;" horiz-adv-x="1779" d="M66 0l532 1495h1034v-184h-604v-426h563v-176h-563v-525h604v-184h-819v397h-395l-129 -397h-223zM475 573h338v738h-98z" />
<glyph unicode="&#xc7;" horiz-adv-x="1431" d="M76 748q0 352 204.5 560t553.5 208q266 0 471 -130l-72 -167q-180 112 -379 112q-248 0 -398.5 -159.5t-150.5 -423.5q0 -266 153.5 -425t395.5 -159q199 0 379 112l72 -167q-166 -104 -394 -125q72 -92 72 -189q0 -115 -94 -180.5t-275 -65.5q-135 0 -252 48l25 167 q98 -51 203 -51q188 0 188 137q0 78 -59 136q-295 35 -469 238.5t-174 523.5z" />
<glyph unicode="&#xc8;" horiz-adv-x="1216" d="M168 0v1495h901v-184h-676v-426h635v-176h-635v-525h676v-184h-901zM332 1966h286l226 -348h-205z" />
<glyph unicode="&#xc9;" horiz-adv-x="1216" d="M168 0v1495h901v-184h-676v-426h635v-176h-635v-525h676v-184h-901zM393 1618l225 348h287l-307 -348h-205z" />
<glyph unicode="&#xca;" horiz-adv-x="1216" d="M168 0v1495h901v-184h-676v-426h635v-176h-635v-525h676v-184h-901zM199 1618l266 348h307l266 -348h-252l-165 256h-5l-165 -256h-252z" />
<glyph unicode="&#xcb;" horiz-adv-x="1216" d="M168 0v1495h901v-184h-676v-426h635v-176h-635v-525h676v-184h-901zM311 1659v266h205v-266h-205zM721 1659v266h205v-266h-205z" />
<glyph unicode="&#xcc;" horiz-adv-x="684" d="M-47 1966h287l225 -348h-205zM219 0v1495h246v-1495h-246z" />
<glyph unicode="&#xcd;" horiz-adv-x="684" d="M219 0v1495h246v-1495h-246zM219 1618l225 348h287l-307 -348h-205z" />
<glyph unicode="&#xce;" horiz-adv-x="684" d="M-78 1618l266 348h308l266 -348h-250l-168 256h-4l-168 -256h-250zM219 0v1495h246v-1495h-246z" />
<glyph unicode="&#xcf;" horiz-adv-x="684" d="M35 1659v266h205v-266h-205zM219 0v1495h246v-1495h-246zM444 1659v266h205v-266h-205z" />
<glyph unicode="&#xd0;" horiz-adv-x="1540" d="M66 688v176h229v621q180 31 389 31q375 0 576.5 -194t201.5 -554q0 -389 -200.5 -588.5t-577.5 -199.5q-209 0 -389 30v678h-229zM520 178q72 -14 164 -14q287 0 426 148.5t139 455.5q0 279 -144 421t-421 142q-92 0 -164 -14v-453h344v-176h-344v-510z" />
<glyph unicode="&#xd1;" horiz-adv-x="1482" d="M168 0v1495h221l701 -1116h4v1116h221v-1495h-221l-701 1116h-4v-1116h-221zM342 1628q0 317 184 318q97 -1 240 -93q104 -68 143 -67q57 0 58 139h174q0 -297 -185 -297q-94 0 -239 92q-100 66 -144 66q-31 0 -44 -33t-13 -125h-174z" />
<glyph unicode="&#xd2;" horiz-adv-x="1626" d="M76 747.5q0 350.5 200.5 559.5t536.5 209t536.5 -209t200.5 -559.5t-200.5 -559t-536.5 -208.5t-536.5 208.5t-200.5 559zM305 747.5q0 -270.5 139.5 -427t368.5 -156.5t368.5 156.5t139.5 427t-139.5 427t-368.5 156.5t-368.5 -156.5t-139.5 -427zM465 1966h287 l225 -348h-205z" />
<glyph unicode="&#xd3;" horiz-adv-x="1626" d="M76 747.5q0 350.5 200.5 559.5t536.5 209t536.5 -209t200.5 -559.5t-200.5 -559t-536.5 -208.5t-536.5 208.5t-200.5 559zM305 747.5q0 -270.5 139.5 -427t368.5 -156.5t368.5 156.5t139.5 427t-139.5 427t-368.5 156.5t-368.5 -156.5t-139.5 -427zM649 1618l225 348h287 l-307 -348h-205z" />
<glyph unicode="&#xd4;" horiz-adv-x="1626" d="M76 747.5q0 350.5 200.5 559.5t536.5 209t536.5 -209t200.5 -559.5t-200.5 -559t-536.5 -208.5t-536.5 208.5t-200.5 559zM305 747.5q0 -270.5 139.5 -427t368.5 -156.5t368.5 156.5t139.5 427t-139.5 427t-368.5 156.5t-368.5 -156.5t-139.5 -427zM393 1618l266 348h308 l266 -348h-250l-168 256h-4l-168 -256h-250z" />
<glyph unicode="&#xd5;" horiz-adv-x="1626" d="M76 747.5q0 350.5 200.5 559.5t536.5 209t536.5 -209t200.5 -559.5t-200.5 -559t-536.5 -208.5t-536.5 208.5t-200.5 559zM305 747.5q0 -270.5 139.5 -427t368.5 -156.5t368.5 156.5t139.5 427t-139.5 427t-368.5 156.5t-368.5 -156.5t-139.5 -427zM414 1628 q0 317 184 318q99 -1 242 -93q104 -68 143 -67q55 0 55 139h174q0 -297 -184 -297q-96 0 -242 92q-100 66 -143 66q-31 0 -43 -33t-12 -125h-174z" />
<glyph unicode="&#xd6;" horiz-adv-x="1626" d="M76 747.5q0 350.5 200.5 559.5t536.5 209t536.5 -209t200.5 -559.5t-200.5 -559t-536.5 -208.5t-536.5 208.5t-200.5 559zM305 747.5q0 -270.5 139.5 -427t368.5 -156.5t368.5 156.5t139.5 427t-139.5 427t-368.5 156.5t-368.5 -156.5t-139.5 -427zM506 1659v266h205 v-266h-205zM915 1659v266h205v-266h-205z" />
<glyph unicode="&#xd8;" horiz-adv-x="1646" d="M86 748q0 350 200.5 559t536.5 209q215 0 383 -93l113 150l156 -115l-113 -153q199 -209 199 -557q0 -350 -201 -559t-537 -209q-215 0 -383 92l-112 -150l-156 115l113 153q-199 209 -199 558zM315 748q1 -231 103 -381l669 897q-111 68 -264 67q-229 0 -368.5 -156.5 t-139.5 -426.5zM559 231q111 -68 264 -67q229 0 368.5 156.5t139.5 427.5q0 231 -102 380z" />
<glyph unicode="&#xd9;" horiz-adv-x="1421" d="M147 604v891h230v-901q0 -426 338 -426t338 426v901h221v-891q0 -309 -145.5 -466.5t-418 -157.5t-418 157.5t-145.5 466.5zM424 1966h287l225 -348h-205z" />
<glyph unicode="&#xda;" horiz-adv-x="1421" d="M147 604v891h230v-901q0 -426 338 -426t338 426v901h221v-891q0 -309 -145.5 -466.5t-418 -157.5t-418 157.5t-145.5 466.5zM485 1618l226 348h286l-307 -348h-205z" />
<glyph unicode="&#xdb;" horiz-adv-x="1421" d="M147 604v891h230v-901q0 -426 338 -426t338 426v901h221v-891q0 -309 -145.5 -466.5t-418 -157.5t-418 157.5t-145.5 466.5zM291 1618l266 348h307l266 -348h-249l-168 256h-4l-168 -256h-250z" />
<glyph unicode="&#xdc;" horiz-adv-x="1421" d="M147 604v891h230v-901q0 -426 338 -426t338 426v901h221v-891q0 -309 -145.5 -466.5t-418 -157.5t-418 157.5t-145.5 466.5zM403 1659v266h205v-266h-205zM813 1659v266h205v-266h-205z" />
<glyph unicode="&#xdd;" horiz-adv-x="1400" d="M55 1495h264l383 -696h5l383 696h256l-527 -881v-614h-237v614zM475 1618l225 348h287l-307 -348h-205z" />
<glyph unicode="&#xde;" horiz-adv-x="1277" d="M168 0v1495h225v-223q147 8 225 8q283 0 428.5 -120t145.5 -341q0 -502 -574 -502q-108 1 -225 11v-328h-225zM393 510q102 -16 205 -16q180 0 276.5 78.5t96.5 226t-94.5 224.5t-278.5 77q-117 0 -205 -15v-575z" />
<glyph unicode="&#xdf;" horiz-adv-x="1236" d="M158 0v1102q0 242 109.5 348t361.5 106q223 0 342 -77.5t119 -218.5q0 -82 -53.5 -178.5t-108 -169t-54.5 -97.5q0 -23 45.5 -76t98.5 -110.5t98 -145.5t45 -172q0 -332 -395 -331q-123 0 -272 36l14 189q133 -37 233 -37q197 0 197 180q0 53 -46 122t-101.5 123 t-101.5 116.5t-46 105.5t59.5 119t119 160t59.5 145q0 137 -242 137q-150 0 -203 -55t-53 -215v-1106h-225z" />
<glyph unicode="&#xe0;" d="M96 287q0 178 150.5 285.5t433.5 107.5h102v10q0 129 -52 180.5t-183 51.5q-195 0 -359 -93l-30 164q172 92 389 92q231 0 335.5 -93t104.5 -296v-409q0 -145 31 -287h-195q-16 90 -18 164h-4q-57 -86 -158.5 -135t-228.5 -49q-145 0 -231.5 82t-86.5 225zM229 1556h287 l225 -348h-204zM297 297q0 -76 46 -120t122 -44q129 0 223 89t94 218v88h-102q-184 0 -283.5 -63.5t-99.5 -167.5z" />
<glyph unicode="&#xe1;" d="M96 287q0 178 150.5 285.5t433.5 107.5h102v10q0 129 -52 180.5t-183 51.5q-195 0 -359 -93l-30 164q172 92 389 92q231 0 335.5 -93t104.5 -296v-409q0 -145 31 -287h-195q-16 90 -18 164h-4q-57 -86 -158.5 -135t-228.5 -49q-145 0 -231.5 82t-86.5 225zM297 297 q0 -76 46 -120t122 -44q129 0 223 89t94 218v88h-102q-184 0 -283.5 -63.5t-99.5 -167.5zM414 1208l225 348h287l-308 -348h-204z" />
<glyph unicode="&#xe2;" d="M96 287q0 178 150.5 285.5t433.5 107.5h102v10q0 129 -52 180.5t-183 51.5q-195 0 -359 -93l-30 164q172 92 389 92q231 0 335.5 -93t104.5 -296v-409q0 -145 31 -287h-195q-16 90 -18 164h-4q-57 -86 -158.5 -135t-228.5 -49q-145 0 -231.5 82t-86.5 225zM158 1208 l266 348h307l266 -348h-252l-165 256h-5l-165 -256h-252zM297 297q0 -76 46 -120t122 -44q129 0 223 89t94 218v88h-102q-184 0 -283.5 -63.5t-99.5 -167.5z" />
<glyph unicode="&#xe3;" d="M96 287q0 178 150.5 285.5t433.5 107.5h102v10q0 129 -52 180.5t-183 51.5q-195 0 -359 -93l-30 164q172 92 389 92q231 0 335.5 -93t104.5 -296v-409q0 -145 31 -287h-195q-16 90 -18 164h-4q-57 -86 -158.5 -135t-228.5 -49q-145 0 -231.5 82t-86.5 225zM178 1198 q0 317 184 318q97 -1 240 -93q104 -68 143 -67q57 0 58 139h174q0 -297 -184 -297q-94 0 -240 92q-100 66 -143 66q-31 0 -44.5 -33t-13.5 -125h-174zM297 297q0 -76 46 -120t122 -44q129 0 223 89t94 218v88h-102q-184 0 -283.5 -63.5t-99.5 -167.5z" />
<glyph unicode="&#xe4;" d="M96 287q0 178 150.5 285.5t433.5 107.5h102v10q0 129 -52 180.5t-183 51.5q-195 0 -359 -93l-30 164q172 92 389 92q231 0 335.5 -93t104.5 -296v-409q0 -145 31 -287h-195q-16 90 -18 164h-4q-57 -86 -158.5 -135t-228.5 -49q-145 0 -231.5 82t-86.5 225zM270 1249v267 h205v-267h-205zM297 297q0 -76 46 -120t122 -44q129 0 223 89t94 218v88h-102q-184 0 -283.5 -63.5t-99.5 -167.5zM680 1249v267h205v-267h-205z" />
<glyph unicode="&#xe5;" d="M96 287q0 178 150.5 285.5t433.5 107.5h102v10q0 129 -52 180.5t-183 51.5q-195 0 -359 -93l-30 164q172 92 389 92q231 0 335.5 -93t104.5 -296v-409q0 -145 31 -287h-195q-16 90 -18 164h-4q-57 -86 -158.5 -135t-228.5 -49q-145 0 -231.5 82t-86.5 225zM297 297 q0 -76 46 -120t122 -44q129 0 223 89t94 218v88h-102q-184 0 -283.5 -63.5t-99.5 -167.5zM311 1402.5q0 110.5 78 188.5t188.5 78t188.5 -78t78 -188.5t-78 -188t-188.5 -77.5t-188.5 77.5t-78 188zM434 1402.5q0 -59.5 42 -101t101.5 -41.5t101.5 41.5t42 101t-42 101.5 t-101.5 42t-101.5 -42t-42 -101.5z" />
<glyph unicode="&#xe6;" horiz-adv-x="1830" d="M96 287q0 178 150.5 285.5t433.5 107.5h119v10q0 129 -55.5 180.5t-196.5 51.5q-195 0 -359 -93l-30 164q172 92 389 92q291 0 389 -141q125 141 328 141q227 0 354 -139t127 -403q0 -31 -4 -92h-744q6 -141 94.5 -226.5t213.5 -85.5q154 0 307 78l51 -156 q-178 -82 -379 -81q-123 0 -226.5 57t-168.5 160q-137 -217 -475 -217q-145 0 -231.5 81.5t-86.5 225.5zM297 297q0 -76 46 -120t122 -44q137 0 235.5 88t98.5 219v88h-119q-184 0 -283.5 -63.5t-99.5 -167.5zM997 610h549q-2 152 -77.5 234t-204.5 82q-113 0 -188 -84.5 t-79 -231.5z" />
<glyph unicode="&#xe7;" horiz-adv-x="1083" d="M76 532q0 260 143 406.5t399 146.5q174 0 338 -71l-51 -168q-133 72 -276 72q-158 0 -248 -100.5t-90 -285.5q0 -180 95 -284.5t243 -104.5q143 0 276 72l51 -164q-94 -43 -223 -63q74 -90 74 -193q0 -115 -94.5 -180.5t-274.5 -65.5q-131 0 -250 48l25 167 q98 -51 203 -51q188 0 188 137q0 76 -57 134q-213 23 -342 169t-129 379z" />
<glyph unicode="&#xe8;" d="M76 532q0 258 136 405.5t366 147.5q227 0 354 -139t127 -403q0 -31 -4 -92h-770q6 -143 99 -227.5t234 -84.5q154 0 308 78l51 -156q-178 -82 -379 -81q-229 0 -375.5 150.5t-146.5 401.5zM285 610h575q-2 152 -76.5 234t-206 82t-210 -83t-82.5 -233zM301 1556h287 l225 -348h-205z" />
<glyph unicode="&#xe9;" d="M76 532q0 258 136 405.5t366 147.5q227 0 354 -139t127 -403q0 -31 -4 -92h-770q6 -143 99 -227.5t234 -84.5q154 0 308 78l51 -156q-178 -82 -379 -81q-229 0 -375.5 150.5t-146.5 401.5zM285 610h575q-2 152 -76.5 234t-206 82t-210 -83t-82.5 -233zM362 1208l226 348 h286l-307 -348h-205z" />
<glyph unicode="&#xea;" d="M76 532q0 258 136 405.5t366 147.5q227 0 354 -139t127 -403q0 -31 -4 -92h-770q6 -143 99 -227.5t234 -84.5q154 0 308 78l51 -156q-178 -82 -379 -81q-229 0 -375.5 150.5t-146.5 401.5zM168 1208l266 348h307l267 -348h-250l-168 256h-4l-168 -256h-250zM285 610h575 q-2 152 -76.5 234t-206 82t-210 -83t-82.5 -233z" />
<glyph unicode="&#xeb;" d="M76 532q0 258 136 405.5t366 147.5q227 0 354 -139t127 -403q0 -31 -4 -92h-770q6 -143 99 -227.5t234 -84.5q154 0 308 78l51 -156q-178 -82 -379 -81q-229 0 -375.5 150.5t-146.5 401.5zM281 1249v267h204v-267h-204zM285 610h575q-2 152 -76.5 234t-206 82t-210 -83 t-82.5 -233zM690 1249v267h205v-267h-205z" />
<glyph unicode="&#xec;" horiz-adv-x="688" d="M-43 1556h287l225 -348h-205zM252 0v1065h217v-1065h-217z" />
<glyph unicode="&#xed;" horiz-adv-x="688" d="M219 0v1065h217v-1065h-217zM219 1208l225 348h287l-307 -348h-205z" />
<glyph unicode="&#xee;" horiz-adv-x="655" d="M-92 1208l266 348h307l267 -348h-252l-166 256h-4l-166 -256h-252zM219 0v1065h217v-1065h-217z" />
<glyph unicode="&#xef;" horiz-adv-x="655" d="M20 1249v267h205v-267h-205zM219 0v1065h217v-1065h-217zM430 1249v267h205v-267h-205z" />
<glyph unicode="&#xf0;" horiz-adv-x="1165" d="M86 532q0 240 134 386.5t362 146.5q102 0 194 -59l4 4q-57 115 -153 190l-367 -156l-53 134l264 112q-104 43 -235 62l61 164q221 -27 389 -136l309 131l54 -133l-236 -98q266 -266 266 -748q0 -254 -138 -403t-359.5 -149t-358.5 149.5t-137 402.5zM295 532 q0 -186 81 -287.5t206 -101.5t206.5 101.5t81.5 287.5q0 182 -76.5 280.5t-212 98.5t-211 -98t-75.5 -281z" />
<glyph unicode="&#xf1;" horiz-adv-x="1185" d="M147 0v1065h195l4 -154h4q66 82 158 128t192 46q348 0 349 -471v-614h-201v594q0 186 -48 255t-171 69q-104 0 -190.5 -103.5t-86.5 -241.5v-573h-205zM199 1198q0 317 184 318q97 -1 240 -93q104 -68 143 -67q57 0 57 139h174q0 -297 -184 -297q-94 0 -240 92 q-100 66 -143 66q-31 0 -44 -33t-13 -125h-174z" />
<glyph unicode="&#xf2;" horiz-adv-x="1175" d="M76 532.5q0 253.5 140 403t371.5 149.5t372 -149.5t140.5 -403t-140.5 -403t-372 -149.5t-371.5 149.5t-140 403zM240 1556h286l226 -348h-205zM285 532.5q0 -184.5 82 -287t221 -102.5t221 102.5t82 287t-82 287t-221 102.5t-221 -102.5t-82 -287z" />
<glyph unicode="&#xf3;" horiz-adv-x="1175" d="M76 532.5q0 253.5 140 403t371.5 149.5t372 -149.5t140.5 -403t-140.5 -403t-372 -149.5t-371.5 149.5t-140 403zM285 532.5q0 -184.5 82 -287t221 -102.5t221 102.5t82 287t-82 287t-221 102.5t-221 -102.5t-82 -287zM424 1208l225 348h287l-307 -348h-205z" />
<glyph unicode="&#xf4;" horiz-adv-x="1175" d="M76 532.5q0 253.5 140 403t371.5 149.5t372 -149.5t140.5 -403t-140.5 -403t-372 -149.5t-371.5 149.5t-140 403zM168 1208l266 348h307l267 -348h-250l-168 256h-4l-168 -256h-250zM285 532.5q0 -184.5 82 -287t221 -102.5t221 102.5t82 287t-82 287t-221 102.5 t-221 -102.5t-82 -287z" />
<glyph unicode="&#xf5;" horiz-adv-x="1175" d="M76 532.5q0 253.5 140 403t371.5 149.5t372 -149.5t140.5 -403t-140.5 -403t-372 -149.5t-371.5 149.5t-140 403zM188 1198q0 317 185 318q98 -1 241 -93q104 -68 144 -67q55 0 55 139h174q0 -297 -184 -297q-96 0 -242 92q-100 66 -143 66q-31 0 -43.5 -33t-12.5 -125 h-174zM285 532.5q0 -184.5 82 -287t221 -102.5t221 102.5t82 287t-82 287t-221 102.5t-221 -102.5t-82 -287z" />
<glyph unicode="&#xf6;" horiz-adv-x="1175" d="M76 532.5q0 253.5 140 403t371.5 149.5t372 -149.5t140.5 -403t-140.5 -403t-372 -149.5t-371.5 149.5t-140 403zM281 1249v267h204v-267h-204zM285 532.5q0 -184.5 82 -287t221 -102.5t221 102.5t82 287t-82 287t-221 102.5t-221 -102.5t-82 -287zM690 1249v267h205 v-267h-205z" />
<glyph unicode="&#xf7;" horiz-adv-x="1503" d="M158 508v172h1188v-172h-1188zM629 0v307h245v-307h-245zM629 881v307h245v-307h-245z" />
<glyph unicode="&#xf8;" horiz-adv-x="1196" d="M86 532q0 254 140.5 403.5t371.5 149.5q156 0 270 -67l82 110l115 -86l-86 -116q131 -150 131 -394q0 -254 -140.5 -403t-371.5 -149q-155 -1 -270 67l-82 -110l-115 86l86 116q-131 150 -131 393zM295 532q0 -133 45 -227l422 569q-70 47 -164 48q-139 0 -221 -102.5 t-82 -287.5zM434 190q70 -47 164 -47q139 0 221 102.5t82 286.5q0 133 -45 228z" />
<glyph unicode="&#xf9;" horiz-adv-x="1165" d="M137 389v676h201v-655q0 -145 46 -201.5t153 -56.5q104 0 190 101t86 239v573h205v-1065h-195l-4 154h-4q-135 -174 -350 -174q-164 0 -246 98t-82 311zM301 1556h287l225 -348h-205z" />
<glyph unicode="&#xfa;" horiz-adv-x="1165" d="M137 389v676h201v-655q0 -145 46 -201.5t153 -56.5q104 0 190 101t86 239v573h205v-1065h-195l-4 154h-4q-135 -174 -350 -174q-164 0 -246 98t-82 311zM362 1208l226 348h286l-307 -348h-205z" />
<glyph unicode="&#xfb;" horiz-adv-x="1165" d="M137 389v676h201v-655q0 -145 46 -201.5t153 -56.5q104 0 190 101t86 239v573h205v-1065h-195l-4 154h-4q-135 -174 -350 -174q-164 0 -246 98t-82 311zM168 1208l266 348h307l267 -348h-250l-168 256h-4l-168 -256h-250z" />
<glyph unicode="&#xfc;" horiz-adv-x="1165" d="M137 389v676h201v-655q0 -145 46 -201.5t153 -56.5q104 0 190 101t86 239v573h205v-1065h-195l-4 154h-4q-135 -174 -350 -174q-164 0 -246 98t-82 311zM281 1249v267h204v-267h-204zM690 1249v267h205v-267h-205z" />
<glyph unicode="&#xfd;" horiz-adv-x="1155" d="M66 1065h225l274 -819h4l303 819h218l-615 -1516h-217l197 451zM352 1208l226 348h286l-307 -348h-205z" />
<glyph unicode="&#xfe;" horiz-adv-x="1196" d="M147 -451v1987h205v-625h4q119 174 324 174q203 0 316.5 -140.5t113.5 -412.5q0 -268 -118 -410t-312 -142q-205 0 -324 153h-4v-584h-205zM352 522q0 -178 78 -278.5t199 -100.5q127 0 203.5 100.5t76.5 288.5q0 195 -73.5 292.5t-206.5 97.5q-121 0 -199 -101.5 t-78 -277.5v-21z" />
<glyph unicode="&#xff;" horiz-adv-x="1155" d="M66 1065h225l274 -819h4l303 819h218l-615 -1516h-217l197 451zM270 1249v267h205v-267h-205zM680 1249v267h205v-267h-205z" />
<glyph unicode="&#x131;" horiz-adv-x="655" d="M219 0v1065h217v-1065h-217z" />
<glyph unicode="&#x152;" horiz-adv-x="1820" d="M76 747.5q0 350.5 200.5 559.5t536.5 209q104 0 193 -21h667v-184h-604v-426h563v-176h-563v-525h604v-184h-667q-88 -20 -193 -20q-336 0 -536.5 208.5t-200.5 559zM305 747.5q0 -270.5 139.5 -427t368.5 -156.5q6 0 20.5 1t20.5 1v1163q-6 0 -20.5 1t-20.5 1 q-229 0 -368.5 -156.5t-139.5 -427z" />
<glyph unicode="&#x153;" horiz-adv-x="1882" d="M76 532.5q0 251.5 137 402t354 150.5q244 0 379 -192q129 193 369 192q227 0 354 -139t127 -403q0 -31 -4 -92h-743q6 -141 94 -226.5t213 -85.5q154 0 307 78l51 -156q-178 -82 -379 -81q-244 0 -383 200q-133 -201 -385 -200q-217 0 -354 150.5t-137 402zM285 532.5 q0 -182.5 78.5 -286t203.5 -103.5q119 0 201 104.5t82 285t-82 285t-201 104.5q-125 0 -203.5 -103.5t-78.5 -286zM1049 610h548q-2 152 -76.5 234t-205.5 82q-113 0 -187.5 -84.5t-78.5 -231.5z" />
<glyph unicode="&#x178;" horiz-adv-x="1400" d="M55 1495h264l383 -696h5l383 696h256l-527 -881v-614h-237v614zM393 1659v266h205v-266h-205zM803 1659v266h205v-266h-205z" />
<glyph unicode="&#x192;" horiz-adv-x="1085" d="M10 -440l41 164q72 -31 144 -31q100 0 140 48t40 167v952h-266v164h266v113q0 379 368 379q106 0 205 -31l-41 -164q-72 31 -143 31q-100 0 -140 -48.5t-40 -166.5v-113h344v-164h-344v-952q0 -201 -89 -290t-280 -89q-106 0 -205 31z" />
<glyph unicode="&#x2c6;" horiz-adv-x="991" d="M76 1208l266 348h307l266 -348h-251l-166 256h-4l-166 -256h-252z" />
<glyph unicode="&#x2c7;" horiz-adv-x="991" d="M76 1556h252l166 -256h4l166 256h251l-266 -348h-307z" />
<glyph unicode="&#x2d8;" horiz-adv-x="950" d="M76 1526h174q4 -74 69.5 -124t155.5 -50t155.5 50t69.5 124h174q0 -139 -112.5 -233.5t-286.5 -94.5t-286.5 94.5t-112.5 233.5z" />
<glyph unicode="&#x2d9;" horiz-adv-x="643" d="M188 1229v307h267v-307h-267z" />
<glyph unicode="&#x2da;" horiz-adv-x="684" d="M76 1402.5q0 110.5 77.5 188.5t188.5 78t188.5 -78t77.5 -188.5t-77.5 -188t-188.5 -77.5t-188.5 77.5t-77.5 188zM199 1402.5q0 -59.5 42 -101t101 -41.5t101 41.5t42 101t-42 101.5t-101 42t-101 -42t-42 -101.5z" />
<glyph unicode="&#x2db;" horiz-adv-x="796" d="M147 -236q1 121 97 236h235q-129 -74 -129 -178q0 -109 152 -109q98 0 184 41l25 -164q-104 -41 -232 -41q-162 0 -247 57.5t-85 157.5z" />
<glyph unicode="&#x2dc;" horiz-adv-x="1032" d="M117 1198q0 317 184 318q97 -1 240 -93q104 -68 143 -67q57 0 57 139h174q0 -297 -184 -297q-94 0 -239 92q-100 66 -144 66q-31 0 -44 -33t-13 -125h-174z" />
<glyph unicode="&#x2dd;" horiz-adv-x="980" d="M76 1208l225 348h266l-307 -348h-184zM465 1208l225 348h266l-307 -348h-184z" />
<glyph unicode="&#x3a9;" horiz-adv-x="1738" d="M106 0v180h279v4q-133 113 -193.5 257.5t-60.5 357.5q0 315 203 516t534.5 201t534.5 -201t203 -516q0 -213 -60.5 -358.5t-191.5 -256.5v-4h278v-180h-655v180q182 33 290.5 184.5t108.5 393.5q0 264 -139 418.5t-368.5 154.5t-368 -154.5t-138.5 -418.5 q0 -242 109 -393.5t291 -184.5v-180h-656z" />
<glyph unicode="&#x3c0;" horiz-adv-x="1318" d="M106 901v164h1106v-164h-180v-901h-205v901h-335v-901h-205v901h-181z" />
<glyph unicode="&#x400;" horiz-adv-x="1216" d="M168 0v1495h901v-184h-676v-426h635v-176h-635v-525h676v-184h-901zM332 1966h286l226 -348h-205z" />
<glyph unicode="&#x401;" horiz-adv-x="1216" d="M168 0v1495h901v-184h-676v-426h635v-176h-635v-525h676v-184h-901zM311 1659v266h205v-266h-205zM721 1659v266h205v-266h-205z" />
<glyph unicode="&#x402;" horiz-adv-x="1667" d="M117 1311v184h1106v-184h-441v-441q123 72 287 72q231 0 366.5 -123t135.5 -332q0 -236 -148.5 -364.5t-435.5 -138.5l-20 184q184 6 284.5 86t100.5 221q0 133 -85 208t-239 75q-139 0 -246 -72v-686h-225v1311h-440z" />
<glyph unicode="&#x403;" horiz-adv-x="1155" d="M168 0v1495h881v-195h-646v-1300h-235zM383 1618l225 348h287l-307 -348h-205z" />
<glyph unicode="&#x404;" horiz-adv-x="1441" d="M76 747.5q0 352.5 204.5 560.5t553.5 208q266 0 471 -130l-72 -167q-180 113 -379 112q-219 0 -363.5 -126t-177.5 -341h869v-176h-875q18 -242 170 -383t377 -141q199 0 379 112l72 -167q-205 -129 -471 -129q-342 0 -550 207.5t-208 560z" />
<glyph unicode="&#x405;" horiz-adv-x="1196" d="M117 102l61 185q184 -123 400 -123q133 0 204.5 61.5t71.5 173.5q0 106 -57.5 168t-208.5 109q-244 72 -357.5 182.5t-113.5 267.5q0 176 128 283t353 107q233 0 440 -93l-51 -174q-178 86 -389 86q-125 0 -192.5 -56t-67.5 -153q0 -170 250 -245q268 -76 379.5 -188.5 t111.5 -293.5q0 -203 -130 -311t-371 -108q-254 0 -461 122z" />
<glyph unicode="&#x406;" horiz-adv-x="684" d="M219 0v1495h246v-1495h-246z" />
<glyph unicode="&#x407;" horiz-adv-x="684" d="M35 1659v266h205v-266h-205zM219 0v1495h246v-1495h-246zM444 1659v266h205v-266h-205z" />
<glyph unicode="&#x408;" horiz-adv-x="1093" d="M45 61l51 189q158 -86 277 -86q170 0 254 97t84 312v922h235v-963q0 -295 -137 -423.5t-436 -128.5q-176 0 -328 81z" />
<glyph unicode="&#x409;" horiz-adv-x="2066" d="M55 158q135 10 197.5 52t91.5 158.5t29 358.5v768h901v-575q94 16 184 16q260 0 391 -119t131 -342q0 -254 -134 -374.5t-412 -120.5q-205 0 -385 32v1299h-451v-584q0 -293 -49 -446.5t-159.5 -220t-323.5 -80.5zM1274 178q74 -18 164 -18q170 0 250.5 75.5t80.5 237.5 q0 145 -79.5 216t-251.5 71q-82 -1 -164 -17v-565z" />
<glyph unicode="&#x40a;" horiz-adv-x="2004" d="M168 0v1495h225v-569h594v569h225v-575q94 16 185 16q260 0 391 -119t131 -342q0 -254 -134 -374.5t-413 -120.5q-205 0 -385 32v738h-594v-750h-225zM1212 178q74 -18 164 -18q170 0 251 75.5t81 237.5q0 145 -80 216t-252 71q-82 -1 -164 -17v-565z" />
<glyph unicode="&#x40b;" horiz-adv-x="1697" d="M117 1311v184h1106v-184h-441v-441q123 72 287 72q242 0 361.5 -125t119.5 -383v-434h-219v414q0 186 -70.5 265t-232.5 79q-139 0 -246 -72v-686h-225v1311h-440z" />
<glyph unicode="&#x40c;" horiz-adv-x="1339" d="M168 0v1495h225v-655h4l590 655h266l-655 -717l676 -778h-266l-611 717h-4v-717h-225zM506 1618l225 348h287l-307 -348h-205z" />
<glyph unicode="&#x40d;" horiz-adv-x="1482" d="M168 0v1495h221v-1116h4l701 1116h221v-1495h-221v1116h-4l-701 -1116h-221zM455 1966h286l226 -348h-205z" />
<glyph unicode="&#x40e;" horiz-adv-x="1421" d="M76 1495h264l383 -850h4l383 850h256l-502 -1044q-133 -274 -291.5 -372.5t-461.5 -98.5l-15 184q236 0 336 53t176 213zM311 1935h174q4 -74 70 -124t156 -50t155.5 50.5t69.5 123.5h174q0 -139 -112.5 -233t-286.5 -94t-287 94t-113 233z" />
<glyph unicode="&#x40f;" horiz-adv-x="1482" d="M168 0v1495h225v-1311h697v1311h225v-1495h-471v-328h-205v328h-471z" />
<glyph unicode="&#x410;" horiz-adv-x="1441" d="M66 0l532 1495h246l532 -1495h-241l-129 397h-578l-129 -397h-233zM483 573h467l-231 717h-4z" />
<glyph unicode="&#x411;" horiz-adv-x="1257" d="M168 12v1483h922v-180h-697v-393q86 14 205 14q285 0 429 -119t144 -342q0 -252 -146 -373.5t-458 -121.5q-203 0 -399 32zM393 178q80 -18 185 -18q385 0 385 313q0 287 -385 287q-106 0 -185 -15v-567z" />
<glyph unicode="&#x412;" horiz-adv-x="1247" d="M168 10v1475q180 31 389 31q553 0 553 -369q0 -123 -84 -216t-223 -120v-4q172 -27 270 -127t98 -250q0 -451 -593 -450q-219 0 -410 30zM393 174q80 -14 185 -14q193 0 282.5 71.5t89.5 219.5q0 135 -107.5 196.5t-367.5 61.5h-82v-535zM393 885h82q225 0 324.5 57 t99.5 174q0 113 -80 166t-262 53q-92 0 -164 -14v-436z" />
<glyph unicode="&#x413;" horiz-adv-x="1155" d="M168 0v1495h881v-195h-646v-1300h-235z" />
<glyph unicode="&#x414;" horiz-adv-x="1533" d="M86 184h113q94 137 128.5 237.5t48 284t13.5 605.5v184h885v-1311h174v-512h-205v328h-952v-328h-205v512zM457 184h592v1127h-441q0 -438 -9 -611.5t-36.5 -273t-105.5 -242.5z" />
<glyph unicode="&#x415;" horiz-adv-x="1216" d="M168 0v1495h901v-184h-676v-426h635v-176h-635v-525h676v-184h-901z" />
<glyph unicode="&#x416;" horiz-adv-x="1882" d="M76 0l450 793l-436 702h236l381 -610h120v610h226v-610h123l380 610h234l-434 -702l450 -793h-239l-391 698h-123v-698h-226v698h-120l-392 -698h-239z" />
<glyph unicode="&#x417;" horiz-adv-x="1185" d="M66 102l61 181q215 -119 410 -119q168 0 258 71.5t90 204.5q0 129 -108.5 192.5t-362.5 63.5h-103v185h103q444 0 444 245q0 205 -301 205q-170 0 -389 -114l-62 176q238 123 482 123q231 0 361 -94.5t130 -254.5q0 -145 -77.5 -234t-249.5 -132v-4q358 -51 358 -367 q0 -213 -148.5 -331.5t-414.5 -118.5q-252 0 -481 122z" />
<glyph unicode="&#x418;" horiz-adv-x="1482" d="M168 0v1495h221v-1116h4l701 1116h221v-1495h-221v1116h-4l-701 -1116h-221z" />
<glyph unicode="&#x419;" horiz-adv-x="1482" d="M168 0v1495h221v-1116h4l701 1116h221v-1495h-221v1116h-4l-701 -1116h-221zM342 1935h174q4 -74 69.5 -124t155.5 -50t156 50.5t70 123.5h174q0 -139 -113 -233t-287 -94t-286.5 94t-112.5 233z" />
<glyph unicode="&#x41a;" horiz-adv-x="1339" d="M168 0v1495h225v-655h4l590 655h266l-655 -717l676 -778h-266l-611 717h-4v-717h-225z" />
<glyph unicode="&#x41b;" horiz-adv-x="1503" d="M45 158q135 10 199.5 52t96.5 159.5t32 357.5v768h962v-1495h-225v1311h-512v-584q0 -291 -52 -446.5t-164 -221t-327 -79.5z" />
<glyph unicode="&#x41c;" horiz-adv-x="1769" d="M168 0v1495h217l494 -881h4l493 881h226v-1495h-226v1106h-4l-389 -696h-205l-389 696h-4v-1106h-217z" />
<glyph unicode="&#x41d;" horiz-adv-x="1482" d="M168 0v1495h225v-610h697v610h225v-1495h-225v709h-697v-709h-225z" />
<glyph unicode="&#x41e;" horiz-adv-x="1626" d="M76 747.5q0 350.5 200.5 559.5t536.5 209t536.5 -209t200.5 -559.5t-200.5 -559t-536.5 -208.5t-536.5 208.5t-200.5 559zM305 747.5q0 -270.5 139.5 -427t368.5 -156.5t368.5 156.5t139.5 427t-139.5 427t-368.5 156.5t-368.5 -156.5t-139.5 -427z" />
<glyph unicode="&#x41f;" horiz-adv-x="1482" d="M168 0v1495h1147v-1495h-225v1311h-697v-1311h-225z" />
<glyph unicode="&#x420;" horiz-adv-x="1257" d="M168 0v1485q213 31 450 31q283 0 428.5 -120t145.5 -341q0 -502 -574 -502q-108 0 -225 10v-563h-225zM393 745q102 -16 205 -16q180 0 276.5 79t96.5 226.5t-94.5 224t-278.5 76.5q-117 0 -205 -14v-576z" />
<glyph unicode="&#x421;" horiz-adv-x="1431" d="M76 747.5q0 352.5 204.5 560.5t553.5 208q266 0 471 -130l-72 -167q-180 112 -379 112q-248 0 -398.5 -159.5t-150.5 -423.5q0 -266 153.5 -425t395.5 -159q199 0 379 112l72 -167q-205 -129 -471 -129q-342 0 -550 207.5t-208 560z" />
<glyph unicode="&#x422;" horiz-adv-x="1339" d="M117 1307v188h1106v-188h-441v-1307h-225v1307h-440z" />
<glyph unicode="&#x423;" horiz-adv-x="1421" d="M76 1495h264l383 -850h4l383 850h256l-502 -1044q-133 -274 -291.5 -372.5t-461.5 -98.5l-15 184q236 0 336 53t176 213z" />
<glyph unicode="&#x424;" horiz-adv-x="1523" d="M66 757.5q0 233.5 154.5 382t428.5 175.5v180h225v-180q274 -27 429 -175.5t155 -382t-154.5 -382t-429.5 -174.5v-201h-225v201q-274 27 -428.5 175t-154.5 381.5zM291 757.5q0 -157.5 93 -252.5t265 -118v741q-172 -23 -265 -118t-93 -252.5zM874 387q172 23 265.5 118 t93.5 252.5t-93 253t-266 117.5v-741z" />
<glyph unicode="&#x425;" horiz-adv-x="1359" d="M86 0l451 758l-441 737h260l326 -584h4l326 584h252l-441 -737l451 -758h-264l-332 604h-4l-332 -604h-256z" />
<glyph unicode="&#x426;" horiz-adv-x="1605" d="M168 0v1495h225v-1311h697v1311h225v-1311h205v-512h-205v328h-1147z" />
<glyph unicode="&#x427;" horiz-adv-x="1370" d="M147 973v522h222v-496q0 -199 76.5 -271.5t285.5 -72.5q139 0 246 72v768h225v-1495h-225v539q-123 -72 -287 -72q-291 0 -417 117.5t-126 388.5z" />
<glyph unicode="&#x428;" horiz-adv-x="1953" d="M168 0v1495h221v-1311h479v1311h217v-1311h480v1311h221v-1495h-1618z" />
<glyph unicode="&#x429;" horiz-adv-x="2066" d="M168 0v1495h221v-1311h479v1311h217v-1311h480v1311h221v-1311h194v-512h-204v328h-1608z" />
<glyph unicode="&#x42a;" horiz-adv-x="1595" d="M76 1315v180h655v-573q86 14 205 14q285 0 429 -119t144 -342q0 -252 -146 -373.5t-458 -121.5q-203 0 -399 32v1303h-430zM731 178q80 -18 184 -18q383 0 383 313q0 287 -383 287q-106 -1 -184 -15v-567z" />
<glyph unicode="&#x42b;" horiz-adv-x="1769" d="M168 12v1483h225v-573q86 14 205 14q285 0 429 -119t144 -342q0 -252 -146 -373.5t-458 -121.5q-203 0 -399 32zM393 178q80 -18 185 -18q385 0 385 313q0 287 -385 287q-107 -1 -185 -15v-567zM1376 0v1495h226v-1495h-226z" />
<glyph unicode="&#x42c;" horiz-adv-x="1257" d="M168 12v1483h225v-573q86 14 205 14q285 0 429 -119t144 -342q0 -252 -146 -373.5t-458 -121.5q-203 0 -399 32zM393 178q80 -18 185 -18q385 0 385 313q0 287 -385 287q-107 -1 -185 -15v-567z" />
<glyph unicode="&#x42d;" horiz-adv-x="1441" d="M137 109l72 167q180 -113 379 -112q225 0 376.5 141t170.5 383h-875v176h868q-33 215 -177 341t-363 126q-199 0 -379 -112l-72 167q205 129 471 130q348 0 553 -208t205 -560.5t-208 -560t-550 -207.5q-266 0 -471 129z" />
<glyph unicode="&#x42e;" horiz-adv-x="2076" d="M168 0v1495h225v-610h285q35 293 209 462t444 169q301 0 480.5 -208t179.5 -560.5t-179.5 -560t-480.5 -207.5q-293 0 -472 197.5t-189 531.5h-277v-709h-225zM899 747.5q0 -270.5 117.5 -427t314.5 -156.5q195 0 312.5 156.5t117.5 427t-117.5 427t-312.5 156.5 q-197 0 -314.5 -156.5t-117.5 -427z" />
<glyph unicode="&#x42f;" horiz-adv-x="1298" d="M86 0l174 440q76 190 164 244v4q-137 41 -217 151.5t-80 266.5q0 193 149.5 301.5t444.5 108.5q217 0 409 -31v-1485h-225v614h-123q-145 0 -197.5 -31.5t-95.5 -142.5l-170 -440h-233zM348 1085q0 -295 434 -294h123v530q-72 14 -164 14q-207 0 -300 -62.5t-93 -187.5z " />
<glyph unicode="&#x430;" d="M96 287q0 178 150.5 285.5t433.5 107.5h102v10q0 129 -52 180.5t-183 51.5q-195 0 -359 -93l-30 164q172 92 389 92q231 0 335.5 -93t104.5 -296v-409q0 -145 31 -287h-195q-16 90 -18 164h-4q-57 -86 -158.5 -135t-228.5 -49q-145 0 -231.5 82t-86.5 225zM297 297 q0 -76 46 -120t122 -44q129 0 223 89t94 218v88h-102q-184 0 -283.5 -63.5t-99.5 -167.5z" />
<glyph unicode="&#x431;" horiz-adv-x="1216" d="M137 532v431q0 293 144.5 423t459.5 130q162 0 312 20v-164q-158 -20 -312 -20q-229 0 -314 -81t-85 -298v-92h4q115 164 334 163q180 0 300 -145t120 -387q0 -258 -122 -395t-349 -137q-238 0 -365 142t-127 410zM342 502q0 -164 78 -261.5t198 -97.5q133 0 207 94.5 t74 274.5q0 172 -75.5 270.5t-194.5 98.5q-129 0 -208 -95.5t-79 -263.5v-20z" />
<glyph unicode="&#x432;" horiz-adv-x="1077" d="M147 8v1049q154 23 318 22q473 0 473 -262q0 -92 -64.5 -156.5t-179.5 -85.5v-2q141 -20 219 -91t78 -175q0 -322 -508 -321q-172 0 -336 22zM360 137q68 -10 132 -10q293 0 292 195q0 176 -305 176h-119v-361zM360 633h115q125 0 193.5 42t68.5 118q0 145 -254 145 q-57 0 -123 -10v-295z" />
<glyph unicode="&#x433;" horiz-adv-x="1021" d="M147 0v1065h799v-174h-584v-891h-215z" />
<glyph unicode="&#x434;" horiz-adv-x="1318" d="M76 164h92q45 57 64.5 80.5t42 75t27.5 78t12.5 113.5t7.5 157.5v232.5v164h778v-901h143v-410h-205v246h-757v-246h-205v410zM410 164h485v737h-369q0 -426 -14 -519t-102 -218z" />
<glyph unicode="&#x435;" d="M76 532q0 258 136 405.5t366 147.5q227 0 354 -139t127 -403q0 -31 -4 -92h-770q6 -143 99 -227.5t234 -84.5q154 0 308 78l51 -156q-178 -82 -379 -81q-229 0 -375.5 150.5t-146.5 401.5zM285 610h575q-2 152 -76.5 234t-206 82t-210 -83t-82.5 -233z" />
<glyph unicode="&#x436;" horiz-adv-x="1595" d="M96 0l348 553l-338 512h216l278 -430h96v430h205v-430h94l279 430h215l-338 -512l348 -553h-215l-289 467h-94v-467h-205v467h-96l-289 -467h-215z" />
<glyph unicode="&#x437;" horiz-adv-x="1091" d="M86 57l49 152q195 -66 365 -66q291 0 291 168q0 86 -94.5 128t-329.5 42h-82v158h82q410 0 409 149q0 137 -287 138q-162 0 -339 -70l-50 152q203 78 410 77q227 0 354 -75.5t127 -190.5q0 -86 -67.5 -155.5t-186.5 -98.5v-4q121 -20 195 -97t74 -177q0 -139 -128 -223 t-368 -84q-213 0 -424 77z" />
<glyph unicode="&#x438;" horiz-adv-x="1257" d="M147 0v1065h213v-774h5l524 774h221v-1065h-213v774h-4l-522 -774h-224z" />
<glyph unicode="&#x439;" horiz-adv-x="1257" d="M147 0v1065h213v-774h5l524 774h221v-1065h-213v774h-4l-522 -774h-224zM229 1526h174q4 -74 70 -124t156 -50t155.5 50t69.5 124h174q0 -139 -112.5 -233.5t-286.5 -94.5t-287 94.5t-113 233.5z" />
<glyph unicode="&#x43a;" horiz-adv-x="1171" d="M147 0v1065h218v-438h4l440 438h258l-528 -510l546 -555h-258l-458 481h-4v-481h-218z" />
<glyph unicode="&#x43b;" horiz-adv-x="1288" d="M35 147q117 6 173 39t79.5 115t23.5 252v512h830v-1065h-205v897h-424v-381q0 -301 -96.5 -410.5t-370.5 -125.5z" />
<glyph unicode="&#x43c;" horiz-adv-x="1515" d="M147 0v1065h238l371 -621h2l370 621h240v-1065h-211v778h-2l-307 -487h-182l-308 487h-4v-778h-207z" />
<glyph unicode="&#x43d;" horiz-adv-x="1249" d="M147 0v1065h220v-422h518v422h217v-1065h-217v487h-518v-487h-220z" />
<glyph unicode="&#x43e;" horiz-adv-x="1175" d="M76 532.5q0 253.5 140 403t371.5 149.5t372 -149.5t140.5 -403t-140.5 -403t-372 -149.5t-371.5 149.5t-140 403zM285 532.5q0 -184.5 82 -287t221 -102.5t221 102.5t82 287t-82 287t-221 102.5t-221 -102.5t-82 -287z" />
<glyph unicode="&#x43f;" horiz-adv-x="1226" d="M147 0v1065h932v-1065h-205v897h-522v-897h-205z" />
<glyph unicode="&#x440;" horiz-adv-x="1196" d="M147 -451v1516h195l4 -154h4q119 174 330 174q203 0 316.5 -140t113.5 -413q0 -268 -118 -410t-312 -142q-205 0 -324 153h-4v-584h-205zM352 522q0 -178 78 -278.5t199 -100.5q127 0 203.5 100.5t76.5 288.5q0 195 -73.5 292.5t-206.5 97.5q-121 0 -199 -101.5 t-78 -277.5v-21z" />
<glyph unicode="&#x441;" horiz-adv-x="1083" d="M76 532q0 260 143 406.5t399 146.5q174 0 338 -71l-51 -168q-133 72 -276 72q-158 0 -248 -100.5t-90 -285.5q0 -180 95 -284.5t243 -104.5q143 0 276 72l51 -164q-164 -72 -338 -71q-242 0 -392 149.5t-150 402.5z" />
<glyph unicode="&#x442;" horiz-adv-x="1134" d="M86 899v166h963v-166h-371v-899h-221v899h-371z" />
<glyph unicode="&#x443;" horiz-adv-x="1165" d="M76 1065h229l295 -819h4l275 819h221l-400 -1065q-104 -279 -228 -375t-366 -96l-10 168q168 0 250 60.5t150 242.5z" />
<glyph unicode="&#x444;" horiz-adv-x="1544" d="M86 532.5q0 274.5 98.5 413.5t270.5 139q119 0 211 -86h4v537h204v-537h5q92 86 211 86q172 0 270 -139t98 -413.5t-98 -413.5t-270 -139q-119 0 -211 86h-5v-517h-204v517h-4q-92 -86 -211 -86q-172 0 -270.5 139t-98.5 413.5zM291 532.5q0 -385.5 209 -385.5 q102 0 170 99v573q-68 98 -170 99q-209 0 -209 -385.5zM874 246q68 -98 170 -99q209 0 209 385.5t-209 385.5q-102 0 -170 -99v-573z" />
<glyph unicode="&#x445;" horiz-adv-x="1155" d="M96 0l359 543l-349 522h240l234 -389h4l233 389h232l-349 -522l359 -543h-240l-244 410h-4l-243 -410h-232z" />
<glyph unicode="&#x446;" horiz-adv-x="1329" d="M147 0v1065h205v-897h522v897h205v-897h185v-414h-185v246h-932z" />
<glyph unicode="&#x447;" horiz-adv-x="1165" d="M127 645v420h201v-377q0 -139 48 -186t181 -47q150 0 256 57v553h205v-1065h-205v344q-125 -57 -293 -57q-219 0 -306 79.5t-87 278.5z" />
<glyph unicode="&#x448;" horiz-adv-x="1605" d="M147 0v1065h201v-897h357v897h196v-897h356v897h201v-1065h-1311z" />
<glyph unicode="&#x449;" horiz-adv-x="1687" d="M147 0v1065h201v-897h357v897h196v-897h356v897h201v-897h164v-414h-184v246h-1291z" />
<glyph unicode="&#x44a;" horiz-adv-x="1308" d="M66 897v168h512v-311q72 14 174 14q233 0 357 -101.5t124 -277.5q0 -207 -128 -308t-394 -101q-178 0 -338 30v887h-307zM578 160q76 -16 147 -17q158 0 232.5 60.5t74.5 185.5q0 102 -77.5 158.5t-233.5 56.5q-84 0 -143 -14v-430z" />
<glyph unicode="&#x44b;" horiz-adv-x="1507" d="M147 10v1055h205v-311q72 14 174 14q233 0 357.5 -101.5t124.5 -277.5q0 -207 -128 -308t-395 -101q-178 0 -338 30zM352 160q76 -16 148 -17q158 0 232.5 60.5t74.5 185.5q0 102 -78 158.5t-233 56.5q-85 0 -144 -14v-430zM1161 0v1065h199v-1065h-199z" />
<glyph unicode="&#x44c;" horiz-adv-x="1083" d="M147 10v1055h205v-311q72 14 174 14q233 0 357.5 -101.5t124.5 -277.5q0 -207 -128 -308t-395 -101q-178 0 -338 30zM352 160q76 -16 148 -17q158 0 232.5 60.5t74.5 185.5q0 102 -78 158.5t-233 56.5q-85 0 -144 -14v-430z" />
<glyph unicode="&#x44d;" horiz-adv-x="1093" d="M137 51l51 164q133 -72 277 -72q129 0 220 82t112 226h-588v163h590q-18 145 -105.5 224.5t-228.5 79.5q-143 0 -277 -72l-51 168q164 72 338 71q256 0 399.5 -146t143.5 -407q0 -254 -150.5 -403t-392.5 -149q-174 0 -338 71z" />
<glyph unicode="&#x44e;" horiz-adv-x="1626" d="M147 0v1065h201v-451h213q20 223 150.5 347t337.5 124q225 0 358 -147t133 -405.5t-133 -405.5t-358 -147q-207 0 -337 123.5t-151 347.5h-213v-451h-201zM766 532.5q0 -190.5 73.5 -290t209 -99.5t209 99.5t73.5 290t-73.5 290t-209 99.5t-209 -99.5t-73.5 -290z" />
<glyph unicode="&#x44f;" horiz-adv-x="1110" d="M76 0l143 299q45 92 80 133.5t82 61.5v4q-119 29 -194.5 98.5t-75.5 177.5q0 305 489 305q188 0 363 -22v-1057h-215v430h-113q-96 0 -133 -23.5t-84 -119.5l-129 -287h-213zM315 754q0 -172 312 -172h121v333q-59 8 -140 9q-293 0 -293 -170z" />
<glyph unicode="&#x450;" d="M76 532q0 258 136 405.5t366 147.5q227 0 354 -139t127 -403q0 -31 -4 -92h-770q6 -143 99 -227.5t234 -84.5q154 0 308 78l51 -156q-178 -82 -379 -81q-229 0 -375.5 150.5t-146.5 401.5zM285 610h575q-2 152 -76.5 234t-206 82t-210 -83t-82.5 -233zM301 1556h287 l225 -348h-205z" />
<glyph unicode="&#x451;" d="M76 532q0 258 136 405.5t366 147.5q227 0 354 -139t127 -403q0 -31 -4 -92h-770q6 -143 99 -227.5t234 -84.5q154 0 308 78l51 -156q-178 -82 -379 -81q-229 0 -375.5 150.5t-146.5 401.5zM281 1249v267h204v-267h-204zM285 610h575q-2 152 -76.5 234t-206 82t-210 -83 t-82.5 -233zM690 1249v267h205v-267h-205z" />
<glyph unicode="&#x452;" horiz-adv-x="1335" d="M66 1085v164h229v287h205v-287h364v-164h-364v-286h6q141 164 342 164q348 0 348 -471v-584q0 -201 -86 -290t-274 -89q-106 0 -205 31l41 164q70 -31 143 -31q100 0 141 48t41 167v563q0 186 -48 255t-171 69q-111 0 -194.5 -107.5t-83.5 -236.5v-451h-205v1085h-229z " />
<glyph unicode="&#x453;" horiz-adv-x="1021" d="M147 0v1065h799v-174h-584v-891h-215zM260 1208l225 348h287l-307 -348h-205z" />
<glyph unicode="&#x454;" horiz-adv-x="1093" d="M76 532q0 260 143 406.5t399 146.5q174 0 338 -71l-51 -168q-133 72 -276 72q-141 0 -228.5 -79t-105.5 -225h590v-163h-588q20 -143 111.5 -225.5t220.5 -82.5q143 0 276 72l51 -164q-164 -72 -338 -71q-242 0 -392 149.5t-150 402.5z" />
<glyph unicode="&#x455;" horiz-adv-x="1032" d="M106 82l41 164q168 -102 369 -102.5t201 143.5q0 70 -46 107.5t-165 56.5q-211 35 -305.5 115.5t-94.5 221.5q0 135 106.5 216t303.5 81q203 0 369 -81l-41 -164q-152 82 -328 82q-205 0 -205 -134q0 -63 48.5 -99t166.5 -54q215 -33 307.5 -116t92.5 -232 q0 -143 -107.5 -225t-302.5 -82q-227 0 -410 102z" />
<glyph unicode="&#x456;" horiz-adv-x="655" d="M219 0v1065h217v-1065h-217zM219 1311v225h217v-225h-217z" />
<glyph unicode="&#x457;" horiz-adv-x="655" d="M20 1249v267h205v-267h-205zM219 0v1065h217v-1065h-217zM430 1249v267h205v-267h-205z" />
<glyph unicode="&#x458;" horiz-adv-x="735" d="M-57 -283q219 0 287.5 63.5t68.5 270.5v1014h217v-1004q0 -299 -117.5 -405.5t-445.5 -106.5zM299 1311v225h217v-225h-217z" />
<glyph unicode="&#x459;" horiz-adv-x="1759" d="M35 154q117 6 170 36.5t74.5 110.5t21.5 252v512h727v-311q72 14 174 14q233 0 357 -101.5t124 -277.5q0 -207 -128 -308t-394 -101q-178 -1 -338 30v887h-323v-385q0 -297 -93.5 -406.5t-351.5 -125.5zM1028 160q76 -16 148 -17q158 0 232.5 60.5t74.5 185.5 q0 102 -78 158.5t-234 56.5q-84 0 -143 -14v-430z" />
<glyph unicode="&#x45a;" horiz-adv-x="1748" d="M147 0v1065h201v-422h465v422h205v-311q72 14 174 14q233 0 357 -101.5t124 -277.5q0 -207 -128 -308t-394 -101q-178 -1 -338 30v477h-465v-487h-201zM1018 160q76 -16 149 -17q158 0 232 60.5t74 185.5q0 102 -78 158.5t-234 56.5q-84 0 -143 -14v-430z" />
<glyph unicode="&#x45b;" horiz-adv-x="1335" d="M66 1085v164h229v287h205v-287h364v-164h-364v-286h6q141 164 342 164q348 0 348 -471v-492h-199v471q0 186 -48 255t-171 69q-111 0 -194.5 -107.5t-83.5 -236.5v-451h-205v1085h-229z" />
<glyph unicode="&#x45c;" horiz-adv-x="1171" d="M147 0v1065h218v-438h4l440 438h258l-528 -510l546 -555h-258l-458 481h-4v-481h-218zM401 1208l226 348h286l-307 -348h-205z" />
<glyph unicode="&#x45d;" horiz-adv-x="1257" d="M147 0v1065h213v-774h5l524 774h221v-1065h-213v774h-4l-522 -774h-224zM281 1556h286l226 -348h-205z" />
<glyph unicode="&#x45e;" horiz-adv-x="1165" d="M76 1065h229l295 -819h4l275 819h221l-400 -1065q-104 -279 -228 -375t-366 -96l-10 168q170 0 251 59.5t149 243.5zM178 1526h174q4 -74 69.5 -124t156 -50t156 50t69.5 124h174q0 -139 -112.5 -233.5t-287 -94.5t-287 94.5t-112.5 233.5z" />
<glyph unicode="&#x45f;" horiz-adv-x="1226" d="M147 0v1065h205v-897h522v897h205v-1065h-374v-246h-185v246h-373z" />
<glyph unicode="&#x460;" horiz-adv-x="1892" d="M86 696q0 483 195 820l241 -41q-201 -350 -200 -779q0 -246 75.5 -379t184.5 -133q111 0 181.5 175.5t70.5 527.5v434h225v-434q0 -352 70.5 -527.5t181.5 -175.5q109 0 184.5 133.5t75.5 378.5q0 428 -201 779l242 41q195 -336 194 -820q0 -350 -132 -533t-349 -183 q-145 0 -243.5 93t-133.5 285h-4q-35 -193 -133 -285.5t-244 -92.5q-217 0 -349 183t-132 533z" />
<glyph unicode="&#x461;" horiz-adv-x="1626" d="M106 1065h207q0 -559 205 -895h4q139 166 207 426q-66 246 -65 469h206q0 -580 238 -895h4q205 336 205 895h203q0 -311 -71 -588.5t-200 -476.5h-231q-121 150 -203 346q-84 -193 -207 -346h-231q-129 199 -200 476.5t-71 588.5z" />
<glyph unicode="&#x462;" horiz-adv-x="1595" d="M76 1141v180h430v174h225v-174h430v-180h-430v-221q98 16 205 16q285 0 429 -119t144 -342q0 -252 -146 -373.5t-458 -121.5q-203 0 -399 32v1129h-430zM731 178q80 -18 184 -18q383 0 383 313q0 287 -383 287q-96 -1 -184 -17v-565z" />
<glyph unicode="&#x463;" horiz-adv-x="1308" d="M66 1028v170h307v379h205v-379h307v-170h-307v-274q72 14 174 14q233 0 357 -101.5t124 -277.5q0 -207 -128 -308t-394 -101q-178 0 -338 30v1018h-307zM578 160q76 -16 147 -17q158 0 232.5 60.5t74.5 185.5q0 102 -77.5 158.5t-233.5 56.5q-84 0 -143 -14v-430z" />
<glyph unicode="&#x46e;" horiz-adv-x="1134" d="M25 -154q0 158 112.5 238t358.5 80q160 0 243.5 71.5t83.5 204.5q0 129 -101 192.5t-339 63.5h-102v185h102q414 0 414 245q0 205 -281 205q-176 0 -379 -94l-51 176q231 102 461 103q221 0 346 -94.5t125 -254.5q0 -285 -318 -366v-4q348 -53 349 -367 q0 -213 -143.5 -331.5t-399.5 -118.5q-154 0 -215.5 -31t-61.5 -96q0 -156 222 -156q123 0 258 41l28 -164q-143 -45 -293 -45q-420 0 -419 317zM127 1966h250l168 -256h4l168 256h250l-267 -348h-307z" />
<glyph unicode="&#x46f;" horiz-adv-x="1042" d="M25 -154q0 139 108.5 218t317.5 79q291 0 290 168q0 84 -95 127t-331 43h-82v158h82q410 0 410 149q0 137 -287 138q-160 0 -338 -70l-49 152q203 78 408 77q227 0 355 -75.5t128 -190.5q0 -86 -67.5 -155.5t-186.5 -98.5v-4q121 -20 194.5 -97t73.5 -177 q0 -139 -129 -223t-368 -84q-233 0 -234 -134q0 -154 226 -153q131 0 258 39l28 -158q-143 -45 -293 -45q-420 0 -419 317zM66 1556h249l168 -256h4l168 256h250l-266 -348h-307z" />
<glyph unicode="&#x470;" horiz-adv-x="1646" d="M137 932v563h219v-577q0 -190 87 -294t268 -126v997h225v-997q180 23 267 126t87 294v577h219v-563q0 -295 -139 -446.5t-434 -174.5v-311h-225v311q-295 23 -434.5 174.5t-139.5 446.5z" />
<glyph unicode="&#x471;" horiz-adv-x="1482" d="M127 604v461h201v-496q0 -201 73.5 -300t237.5 -119v1263h205v-1263q164 20 237.5 119.5t73.5 299.5v496h201v-461q0 -293 -125 -445.5t-387 -174.5v-435h-205v435q-262 23 -387 175t-125 445z" />
<glyph unicode="&#x472;" horiz-adv-x="1626" d="M76 747.5q0 350.5 200.5 559.5t536.5 209t536.5 -209t200.5 -559.5t-200.5 -559t-536.5 -208.5t-536.5 208.5t-200.5 559zM326 938q43 14 104 14q168 0 447 -129q205 -94 284 -94q70 0 102.5 50t32.5 171q-45 180 -173 280.5t-310 100.5q-184 0 -313 -103.5t-174 -289.5z M330 545q45 -180 173 -280.5t310 -100.5q184 0 313 103.5t174 289.5q-43 -14 -104 -14q-168 0 -446 129q-205 94 -285 94q-70 0 -102.5 -50t-32.5 -171z" />
<glyph unicode="&#x473;" horiz-adv-x="1175" d="M76 532.5q0 253.5 140 403t371.5 149.5t372 -149.5t140.5 -403t-140.5 -403t-372 -149.5t-371.5 149.5t-140 403zM301 385q29 -117 103.5 -179.5t183.5 -62.5q104 0 178 59.5t104 170.5q-29 -4 -43 -4q-113 0 -286 94q-121 66 -168 65q-37 0 -53.5 -31.5t-18.5 -111.5z M305 692q29 4 43 4q113 0 287 -94q121 -66 168 -65q37 0 53 31.5t18 111.5q-29 117 -103.5 179.5t-182.5 62.5q-104 0 -178 -59.5t-105 -170.5z" />
<glyph unicode="&#x474;" horiz-adv-x="1738" d="M66 1495h239l418 -1270h4l322 981q51 170 144 240t261 70q111 0 240 -31l-27 -185q-92 31 -172 31q-106 0 -157.5 -40t-90.5 -152l-403 -1139h-246z" />
<glyph unicode="&#x475;" horiz-adv-x="1441" d="M66 1065h229l285 -942h4l211 641q49 172 138 246.5t243 74.5q111 0 221 -30l-33 -172q-74 29 -152 28q-96 0 -141 -37.5t-88 -152.5l-262 -721h-287z" />
<glyph unicode="&#x476;" horiz-adv-x="1738" d="M66 1495h239l418 -1270h4l322 981q51 170 144 240t261 70q111 0 240 -31l-27 -185q-92 31 -172 31q-106 0 -157.5 -40t-90.5 -152l-403 -1139h-246zM250 1966h266l225 -348h-184zM639 1966h266l225 -348h-184z" />
<glyph unicode="&#x477;" horiz-adv-x="1441" d="M66 1065h229l285 -942h4l211 641q49 172 138 246.5t243 74.5q111 0 221 -30l-33 -172q-74 29 -152 28q-96 0 -141 -37.5t-88 -152.5l-262 -721h-287zM86 1556h266l226 -348h-185zM475 1556h266l226 -348h-185z" />
<glyph unicode="&#x478;" horiz-adv-x="2936" d="M76 747.5q0 350.5 200.5 559.5t536.5 209t536.5 -209t200.5 -559.5t-200.5 -559t-536.5 -208.5t-536.5 208.5t-200.5 559zM305 747.5q0 -270.5 139.5 -427t368.5 -156.5t368.5 156.5t139.5 427t-139.5 427t-368.5 156.5t-368.5 -156.5t-139.5 -427zM1591 1065h226 l274 -819h4l195 518q70 188 151.5 254.5t229.5 66.5q111 0 221 -30l-33 -172q-74 29 -152 28q-94 0 -137 -34.5t-92 -155.5l-477 -1172h-217l196 451z" />
<glyph unicode="&#x479;" horiz-adv-x="2404" d="M76 532.5q0 253.5 140 403t371.5 149.5t372 -149.5t140.5 -403t-140.5 -403t-372 -149.5t-371.5 149.5t-140 403zM285 532.5q0 -184.5 82 -287t221 -102.5t221 102.5t82 287t-82 287t-221 102.5t-221 -102.5t-82 -287zM1059 1065h225l275 -819h4l194 518 q70 188 152 254.5t229 66.5q111 0 221 -30l-32 -172q-74 29 -152 28q-94 0 -137 -34.5t-92 -155.5l-478 -1172h-217l197 451z" />
<glyph unicode="&#x47a;" horiz-adv-x="1626" d="M76 747.5q0 319.5 168 523.5t456 238v191h226v-191q289 -35 456.5 -238.5t167.5 -523t-168 -523.5t-456 -238v-191h-226v191q-289 35 -456.5 238.5t-167.5 523zM305 747.5q0 -235.5 106.5 -386t288.5 -187.5v205h226v-205q182 37 288.5 187.5t106.5 386t-106.5 386 t-288.5 187.5v-205h-226v205q-182 -37 -288.5 -187.5t-106.5 -386z" />
<glyph unicode="&#x47b;" horiz-adv-x="1175" d="M76 532.5q0 223.5 110.5 367.5t298.5 177v193h205v-193q188 -33 299 -177t111 -367.5t-110.5 -368t-299.5 -176.5v-193h-205v193q-188 33 -298.5 177t-110.5 367.5zM285 532.5q0 -147.5 53 -243.5t147 -129v147h205v-147q94 33 147.5 129t53.5 243.5t-53.5 243.5 t-147.5 129v-147h-205v147q-94 -33 -147 -129t-53 -243.5z" />
<glyph unicode="&#x47c;" horiz-adv-x="1892" d="M86 696q0 483 195 820l241 -41q-201 -350 -200 -779q0 -246 75.5 -379t184.5 -133q111 0 181.5 175.5t70.5 527.5v434h225v-434q0 -352 70.5 -527.5t181.5 -175.5q109 0 184.5 133.5t75.5 378.5q0 428 -201 779l242 41q195 -336 194 -820q0 -350 -132 -533t-349 -183 q-145 0 -243.5 93t-133.5 285h-4q-35 -193 -133 -285.5t-244 -92.5q-217 0 -349 183t-132 533zM526 1581v354h656v199h184v-352h-655v-201h-185z" />
<glyph unicode="&#x47d;" horiz-adv-x="1626" d="M106 1065h207q0 -559 205 -895h4q139 166 207 426q-66 246 -65 469h206q0 -580 238 -895h4q205 336 205 895h203q0 -311 -71 -588.5t-200 -476.5h-231q-121 150 -203 346q-84 -193 -207 -346h-231q-129 199 -200 476.5t-71 588.5zM393 1171v355h656v198h184v-352h-655 v-201h-185z" />
<glyph unicode="&#x47e;" horiz-adv-x="1892" d="M86 696q0 483 195 820l241 -41q-201 -350 -200 -779q0 -246 75.5 -379t184.5 -133q111 0 181.5 175.5t70.5 527.5v434h225v-434q0 -352 70.5 -527.5t181.5 -175.5q109 0 184.5 133.5t75.5 378.5q0 428 -201 779l242 41q195 -336 194 -820q0 -350 -132 -533t-349 -183 q-145 0 -243.5 93t-133.5 285h-4q-35 -193 -133 -285.5t-244 -92.5q-217 0 -349 183t-132 533zM485 1618v405h922v-405h-174v250h-205v-250h-164v250h-205v-250h-174z" />
<glyph unicode="&#x47f;" horiz-adv-x="1626" d="M106 1065h207q0 -559 205 -895h4q139 166 207 426q-66 246 -65 469h206q0 -580 238 -895h4q205 336 205 895h203q0 -311 -71 -588.5t-200 -476.5h-231q-121 150 -203 346q-84 -193 -207 -346h-231q-129 199 -200 476.5t-71 588.5zM352 1208v406h922v-406h-174v250h-205 v-250h-164v250h-205v-250h-174z" />
<glyph unicode="&#x480;" horiz-adv-x="1370" d="M76 748q0 352 204.5 560t553.5 208q266 0 471 -130l-72 -167q-180 112 -379 112q-248 0 -398.5 -159.5t-150.5 -423.5q0 -266 153.5 -425t395.5 -159q47 0 102 10v-625h-204v435q-307 20 -491.5 227t-184.5 537z" />
<glyph unicode="&#x481;" horiz-adv-x="1021" d="M76 532q0 260 143 406.5t399 146.5q174 0 338 -71l-51 -168q-133 72 -276 72q-158 0 -248 -100.5t-90 -285.5q0 -180 95 -284.5t243 -104.5q76 0 143 21v-533h-184v349q-229 6 -370.5 156.5t-141.5 395.5z" />
<glyph unicode="&#x483;" horiz-adv-x="0" d="M604 1171v355h656v198h184v-352h-656v-201h-184z" />
<glyph unicode="&#x484;" horiz-adv-x="0" d="M625 1198v143q290 205 485 205q135 0 224 -94t89 -233h-174q-4 76 -55 125t-129 49q-76 0 -170 -41t-270 -154z" />
<glyph unicode="&#x485;" horiz-adv-x="0" d="M625 1171v553h184v-198h655v-154h-655v-201h-184z" />
<glyph unicode="&#x486;" horiz-adv-x="0" d="M584 1372v154h655v198h184v-553h-184v201h-655z" />
<glyph unicode="&#x48a;" horiz-adv-x="1564" d="M168 0v1495h221v-1116h4l701 1116h221v-1311h225l-139 -512h-205l88 328h-82h-108v1116h-4l-701 -1116h-221zM342 1935h174q4 -74 69.5 -124t155.5 -50t156 50.5t70 123.5h174q0 -139 -113 -233t-287 -94t-286.5 94t-112.5 233z" />
<glyph unicode="&#x48b;" horiz-adv-x="1318" d="M147 0v1065h213v-774h5l524 774h221v-897h184l-133 -496h-184l88 328h-82h-86v774h-4l-522 -774h-224zM229 1526h174q4 -74 70 -124t156 -50t155.5 50t69.5 124h174q0 -139 -112.5 -233.5t-286.5 -94.5t-287 94.5t-113 233.5z" />
<glyph unicode="&#x48c;" horiz-adv-x="1472" d="M76 1161v160h307v174h225v-174h430v-160h-430v-239q86 14 205 14q285 0 429 -119t144 -342q0 -252 -146 -373.5t-458 -121.5q-203 0 -399 32v1149h-307zM608 178q80 -18 185 -18q383 0 383 313q0 287 -383 287q-107 -1 -185 -15v-567z" />
<glyph unicode="&#x48d;" horiz-adv-x="1247" d="M66 1049v149h245v256h205v-256h307v-149h-307v-295q72 14 174 14q233 0 357 -101.5t124 -277.5q0 -207 -128 -308t-394 -101q-178 0 -338 30v1039h-245zM516 160q76 -16 148 -17q158 0 232.5 60.5t74.5 185.5q0 102 -78 158.5t-234 56.5q-84 0 -143 -14v-430z" />
<glyph unicode="&#x48e;" horiz-adv-x="1257" d="M168 0v1485q213 31 450 31q283 0 428.5 -120t145.5 -341q0 -330 -254 -445l152 -323h-175l-135 278q-74 -12 -162 -12q-109 0 -225 10v-563h-225zM393 745q102 -16 205 -16q53 0 100 6l-100 207h184l70 -149q119 78 119 241q0 147 -94.5 224t-278.5 77q-117 0 -205 -14 v-576z" />
<glyph unicode="&#x48f;" horiz-adv-x="1196" d="M147 -451v1516h195l4 -154h4q119 174 330 174q203 0 316.5 -140t113.5 -413q0 -358 -207 -491l115 -246h-174l-92 191q-35 -6 -72 -6q-205 0 -324 153h-4v-584h-205zM352 522q0 -178 78 -278.5t199 -100.5q16 0 45 4l-148 304h185l106 -226q92 102 92 307 q0 195 -73.5 292.5t-206.5 97.5q-121 0 -199 -101.5t-78 -277.5v-21z" />
<glyph unicode="&#x490;" horiz-adv-x="1175" d="M168 0v1495h696v328h205v-523h-666v-1300h-235z" />
<glyph unicode="&#x491;" horiz-adv-x="1042" d="M147 0v1065h615v328h184v-502h-584v-891h-215z" />
<glyph unicode="&#x492;" horiz-adv-x="1323" d="M86 512v164h250v819h881v-195h-644v-624h414v-164h-414v-512h-237v512h-250z" />
<glyph unicode="&#x493;" horiz-adv-x="1241" d="M86 512v164h270v389h799v-174h-582v-215h394v-164h-394v-512h-217v512h-270z" />
<glyph unicode="&#x494;" horiz-adv-x="1277" d="M168 0v1495h891v-184h-666v-441q123 72 287 72q242 0 372 -135t130 -404q0 -561 -584 -583l-20 184q385 12 385 389q0 190 -79 275.5t-245 85.5q-137 0 -246 -74v-680h-225z" />
<glyph unicode="&#x495;" horiz-adv-x="1093" d="M147 0v1065h758v-164h-553v-323q109 47 230 47q426 0 426 -375q0 -414 -492 -430l-24 170q315 10 315 256q0 117 -62.5 169t-203.5 52q-106 0 -189 -53v-414h-205z" />
<glyph unicode="&#x496;" horiz-adv-x="1943" d="M76 0l450 793l-436 702h236l381 -610h120v610h226v-610h123l380 610h234l-434 -702l346 -609h166v-512h-205v328h-96l-391 698h-123v-698h-226v698h-120l-392 -698h-239z" />
<glyph unicode="&#x497;" horiz-adv-x="1595" d="M96 0l348 553l-338 512h216l278 -430h96v430h205v-430h94l279 430h215l-338 -512l242 -385h137v-414h-184v246h-62l-289 467h-94v-467h-205v467h-96l-289 -467h-215z" />
<glyph unicode="&#x498;" horiz-adv-x="1185" d="M66 102l61 181q215 -119 410 -119q168 0 258 71.5t90 204.5q0 129 -108.5 192.5t-362.5 63.5h-103v185h103q444 0 444 245q0 205 -301 205q-170 0 -389 -114l-62 176q238 123 482 123q231 0 361 -94.5t130 -254.5q0 -145 -77.5 -234t-249.5 -132v-4q358 -51 358 -367 q0 -166 -90 -275.5t-260 -150.5q88 -100 88 -209q0 -115 -94.5 -180.5t-274.5 -65.5q-131 0 -250 48l25 167q98 -51 203 -51q188 0 188 137q0 74 -55 130h-43q-252 0 -481 122z" />
<glyph unicode="&#x499;" horiz-adv-x="1091" d="M86 57l49 152q195 -66 365 -66q291 0 291 168q0 86 -94.5 128t-329.5 42h-82v158h82q410 0 409 149q0 137 -287 138q-162 0 -339 -70l-50 152q203 78 410 77q227 0 354 -75.5t127 -190.5q0 -86 -67.5 -155.5t-186.5 -98.5v-4q121 -20 195 -97t74 -177q0 -109 -77 -183.5 t-224 -105.5q82 -96 81 -203q0 -115 -94 -180.5t-274 -65.5q-131 0 -250 48l25 167q98 -51 202 -51q188 0 189 137q0 74 -56 130h-18q-213 0 -424 77z" />
<glyph unicode="&#x49a;" horiz-adv-x="1421" d="M168 0v1495h225v-655h4l590 655h266l-655 -717l516 -594h221v-512h-205v328h-20h-102l-611 717h-4v-717h-225z" />
<glyph unicode="&#x49b;" horiz-adv-x="1181" d="M147 0v1065h218v-438h4l440 438h258l-528 -510l379 -385h198v-416h-184v246h-21h-84l-458 481h-4v-481h-218z" />
<glyph unicode="&#x49c;" horiz-adv-x="1472" d="M168 0v1495h225v-635h133v369h205v-369h35l381 635h233l-434 -727l451 -768h-240l-391 676h-35v-348h-205v348h-133v-676h-225z" />
<glyph unicode="&#x49d;" horiz-adv-x="1288" d="M147 0v1065h205v-434h123v291h195v-291h18l279 434h215l-338 -516l348 -549h-215l-289 461h-18v-277h-195v277h-123v-461h-205z" />
<glyph unicode="&#x49e;" horiz-adv-x="1458" d="M66 1167v164h221v164h225v-164h229v-164h-229v-327h4l590 655h266l-655 -717l676 -778h-267l-610 717h-4v-717h-225v1167h-221z" />
<glyph unicode="&#x49f;" horiz-adv-x="1308" d="M66 1167v164h221v205h217v-205h340v-164h-340v-540h4l440 438h258l-530 -510l547 -555h-256l-459 481h-4v-481h-217v1167h-221z" />
<glyph unicode="&#x4a0;" horiz-adv-x="1589" d="M76 1331v164h567v-655h6l588 655h266l-655 -717l676 -778h-267l-608 717h-6v-717h-225v1331h-342z" />
<glyph unicode="&#x4a1;" horiz-adv-x="1400" d="M76 901v164h520v-438h4l440 438h258l-530 -510l547 -555h-256l-459 481h-4v-481h-219v901h-301z" />
<glyph unicode="&#x4a2;" horiz-adv-x="1605" d="M168 0v1495h225v-610h697v610h225v-1311h205v-512h-205v328h-82h-143v709h-697v-709h-225z" />
<glyph unicode="&#x4a3;" horiz-adv-x="1351" d="M147 0v1065h220v-422h518v422h217v-895h184v-416h-184v246h-82h-135v487h-518v-487h-220z" />
<glyph unicode="&#x4a4;" horiz-adv-x="2031" d="M168 0v1495h225v-610h697v610h835v-195h-610v-1300h-225v709h-697v-709h-225z" />
<glyph unicode="&#x4a5;" horiz-adv-x="1685" d="M147 0v1065h220v-422h518v422h714v-174h-497v-891h-217v487h-518v-487h-220z" />
<glyph unicode="&#x4a6;" horiz-adv-x="2158" d="M168 0v1495h1106v-625q123 72 287 72q242 0 371.5 -135t129.5 -404q0 -561 -583 -583l-21 184q385 12 385 389q0 190 -78.5 275.5t-244.5 85.5q-137 0 -246 -74v-680h-225v1311h-656v-1311h-225z" />
<glyph unicode="&#x4a7;" horiz-adv-x="1759" d="M147 0v1065h881v-487q109 47 229 47q426 0 426 -375q0 -414 -491 -430l-25 170q315 10 316 256q0 117 -62.5 169t-203.5 52q-106 0 -189 -53v-414h-205v897h-471v-897h-205z" />
<glyph unicode="&#x4aa;" horiz-adv-x="1431" d="M76 748q0 352 204.5 560t553.5 208q266 0 471 -130l-72 -167q-180 112 -379 112q-248 0 -398.5 -159.5t-150.5 -423.5q0 -266 153.5 -425t395.5 -159q199 0 379 112l72 -167q-166 -104 -394 -125q72 -92 72 -189q0 -115 -94 -180.5t-275 -65.5q-135 0 -252 48l25 167 q98 -51 203 -51q188 0 188 137q0 78 -59 136q-295 35 -469 238.5t-174 523.5z" />
<glyph unicode="&#x4ab;" horiz-adv-x="1083" d="M76 532q0 260 143 406.5t399 146.5q174 0 338 -71l-51 -168q-133 72 -276 72q-158 0 -248 -100.5t-90 -285.5q0 -180 95 -284.5t243 -104.5q143 0 276 72l51 -164q-94 -43 -223 -63q74 -90 74 -193q0 -115 -94.5 -180.5t-274.5 -65.5q-131 0 -250 48l25 167 q98 -51 203 -51q188 0 188 137q0 76 -57 134q-213 23 -342 169t-129 379z" />
<glyph unicode="&#x4ac;" horiz-adv-x="1349" d="M117 1307v188h1106v-188h-441v-1123h205v-512h-205v328h-82h-143v1307h-440z" />
<glyph unicode="&#x4ad;" horiz-adv-x="1155" d="M96 899v166h963v-166h-371v-731h184v-414h-184v246h-82h-139v899h-371z" />
<glyph unicode="&#x4ae;" horiz-adv-x="1400" d="M55 1495h264l383 -696h5l383 696h256l-527 -881v-614h-237v614z" />
<glyph unicode="&#x4af;" horiz-adv-x="1196" d="M66 1065h253l281 -688h4l281 688h245l-425 -881v-635h-213v635z" />
<glyph unicode="&#x4b0;" horiz-adv-x="1400" d="M55 1495h264l383 -696h5l383 696h256l-492 -819h297v-164h-332v-512h-237v512h-332v164h297z" />
<glyph unicode="&#x4b1;" horiz-adv-x="1216" d="M76 1065h254l280 -688h4l281 688h246l-424 -881v-133h342v-157h-342v-345h-217v345h-342v157h342v133z" />
<glyph unicode="&#x4b2;" horiz-adv-x="1421" d="M86 0l451 758l-441 737h260l326 -584h4l326 584h252l-441 -737l340 -574h172v-512h-205v328h-120l-332 604h-4l-332 -604h-256z" />
<glyph unicode="&#x4b3;" horiz-adv-x="1155" d="M96 -41l359 543l-349 522h240l234 -389h4l233 389h232l-349 -522l248 -375h142v-414h-185v246h-86l-244 410h-4l-243 -410h-232z" />
<glyph unicode="&#x4b4;" horiz-adv-x="1861" d="M76 1311v184h962v-184h-368v-1127h676v1311h225v-1311h205v-512h-205v328h-1127v1311h-368z" />
<glyph unicode="&#x4b5;" horiz-adv-x="1445" d="M76 897v168h686v-168h-242v-729h471v897h205v-897h184v-414h-184v246h-881v897h-239z" />
<glyph unicode="&#x4b6;" horiz-adv-x="1492" d="M147 973v522h222v-496q0 -199 76.5 -271.5t285.5 -72.5q139 0 246 72v768h225v-1311h205v-512h-205v328h-82h-143v537q-123 -72 -287 -72q-291 0 -417 118.5t-126 389.5z" />
<glyph unicode="&#x4b7;" horiz-adv-x="1267" d="M127 645v420h201v-377q0 -139 48 -186t181 -47q150 0 256 57v553h205v-897h184v-414h-184v246h-82h-123v344q-125 -57 -293 -57q-219 0 -306 79.5t-87 278.5z" />
<glyph unicode="&#x4b8;" horiz-adv-x="1370" d="M147 973v522h222v-496q0 -154 44 -229.5t154 -99.5v354h205v-367q117 10 205 70v768h225v-1495h-225v537q-86 -49 -205 -66v-348h-205v348q-223 23 -321.5 142.5t-98.5 359.5z" />
<glyph unicode="&#x4b9;" horiz-adv-x="1165" d="M127 645v420h201v-377q0 -115 31.5 -165t111.5 -62v327h193v-323q92 16 149 47v553h205v-1065h-205v344q-57 -27 -149 -43v-250h-193v238q-188 8 -266 89t-78 267z" />
<glyph unicode="&#x4ba;" horiz-adv-x="1370" d="M168 0v1495h225v-537q123 72 287 72q291 0 417 -118.5t126 -389.5v-522h-219v496q0 199 -78 271.5t-287 72.5q-139 0 -246 -72v-768h-225z" />
<glyph unicode="&#x4bb;" horiz-adv-x="1165" d="M147 0v1065h205v-344q125 57 291 57q219 0 307 -80t88 -278v-420h-200v377q0 139 -48.5 186t-181.5 47q-150 0 -256 -57v-553h-205z" />
<glyph unicode="&#x4bc;" horiz-adv-x="1861" d="M25 1040v168h174v-164q0 -125 42 -168t165 -45q23 322 209 503.5t491 181.5q313 0 491.5 -197t178.5 -565q0 -10 -7 -97h-1138q12 -236 160.5 -366.5t396.5 -130.5q231 0 426 116l59 -172q-238 -125 -526 -124q-317 0 -515 181t-224 496q-207 2 -295 90.5t-88 292.5z M629 831h932q-2 264 -113 384t-338 120q-221 0 -347 -130t-134 -374z" />
<glyph unicode="&#x4bd;" horiz-adv-x="1390" d="M25 733v127h170v-123q0 -82 21.5 -104.5t94.5 -22.5h15q20 225 153 350t344 125q227 0 354.5 -139t127.5 -403q0 -31 -5 -92h-770q6 -143 99.5 -227.5t234.5 -84.5q154 0 307 78l52 -156q-178 -82 -379 -81q-209 0 -351.5 126.5t-166.5 344.5h-15q-160 0 -223 62t-63 220 zM530 610h576q-2 152 -77 234t-206 82t-209.5 -83t-83.5 -233z" />
<glyph unicode="&#x4be;" horiz-adv-x="1861" d="M25 1040v168h174v-164q0 -125 42 -167.5t165 -45.5q23 322 209 503.5t491 181.5q313 0 491.5 -197t178.5 -565q0 -10 -7 -97h-1138q12 -236 160.5 -366.5t396.5 -130.5q231 0 426 116l59 -172q-238 -125 -526 -124h-35q-55 -55 -55 -130q0 -137 188 -137q104 0 203 51 l25 -167q-117 -47 -250 -48q-180 0 -274.5 66t-94.5 180q0 104 88 207q-231 53 -372.5 224t-161.5 431q-207 2 -295 90.5t-88 292.5zM629 831h932q-2 264 -113 384t-338 120q-221 0 -347 -130t-134 -374z" />
<glyph unicode="&#x4bf;" horiz-adv-x="1390" d="M25 733v127h170v-123q0 -82 21.5 -104.5t94.5 -22.5h15q20 225 153 350t344 125q227 0 354.5 -139t127.5 -403q0 -31 -5 -92h-770q6 -143 99.5 -227.5t234.5 -84.5q154 0 307 78l52 -156q-176 -82 -373 -81q-53 -57 -53 -130q0 -137 188 -137q104 0 203 51l24 -167 q-119 -47 -249 -48q-180 0 -274.5 66t-94.5 180q0 111 86 207q-147 43 -240.5 160t-113.5 289h-15q-160 0 -223 62t-63 220zM530 610h576q-2 152 -77 234t-206 82t-209.5 -83t-83.5 -233z" />
<glyph unicode="&#x4c0;" horiz-adv-x="684" d="M219 0v1495h246v-1495h-246z" />
<glyph unicode="&#x4c1;" horiz-adv-x="1882" d="M76 0l450 793l-436 702h236l381 -610h120v610h226v-610h123l380 610h234l-434 -702l450 -793h-239l-391 698h-123v-698h-226v698h-120l-392 -698h-239zM541 1935h176q4 -74 69.5 -124t155.5 -50t155.5 50.5t69.5 123.5h172q0 -139 -112.5 -233t-284.5 -94 q-174 0 -287.5 95t-113.5 232z" />
<glyph unicode="&#x4c2;" horiz-adv-x="1595" d="M96 0l348 553l-338 512h216l278 -430h96v430h205v-430h94l279 430h215l-338 -512l348 -553h-215l-289 467h-94v-467h-205v467h-96l-289 -467h-215zM397 1526h176q4 -74 70 -124t156 -50t155.5 50t69.5 124h172q0 -139 -112.5 -233.5t-284.5 -94.5q-174 0 -288 95.5 t-114 232.5z" />
<glyph unicode="&#x4c3;" horiz-adv-x="1376" d="M168 0v1495h225v-655h4l590 655h266l-555 -602l2 -2q46 6 93 6q242 0 373.5 -127t131.5 -356q0 -281 -174 -435.5t-495 -158.5l-21 184q217 2 341 106.5t124 282.5q0 168 -101.5 251t-316.5 83q-127 0 -262 -59v-668h-225z" />
<glyph unicode="&#x4c4;" horiz-adv-x="1183" d="M147 0v1065h218v-430h4l467 430h256l-471 -424l2 -2q45 6 90 6q186 0 290.5 -99.5t104.5 -275.5q0 -213 -148.5 -330.5t-431.5 -119.5l-14 164q186 2 284.5 74.5t98.5 203.5q0 240 -317 240q-123 0 -215 -51v-451h-218z" />
<glyph unicode="&#x4c5;" horiz-adv-x="1585" d="M45 158q135 10 199.5 52t96.5 159.5t32 357.5v768h962v-1311h226l-140 -512h-204l88 328h-82h-113v1311h-512v-584q0 -291 -52 -446.5t-164 -221t-327 -79.5z" />
<glyph unicode="&#x4c6;" horiz-adv-x="1370" d="M35 147q117 6 173 39t79.5 115t23.5 252v512h830v-897h205l-134 -496h-184l88 328h-82h-98v897h-424v-381q0 -301 -96.5 -410.5t-370.5 -125.5z" />
<glyph unicode="&#x4c7;" horiz-adv-x="1482" d="M168 0v1495h225v-610h697v610h225v-1587q0 -201 -89 -290t-280 -89q-111 0 -221 31l41 176q70 -31 143 -31q100 0 140.5 47t40.5 166v791h-697v-709h-225z" />
<glyph unicode="&#x4c8;" horiz-adv-x="1249" d="M147 0v1065h220v-422h518v422h217v-1157q0 -201 -89 -290t-280 -89q-106 0 -205 31l45 164q72 -31 144 -31q94 0 131 44t37 171v579h-518v-487h-220z" />
<glyph unicode="&#x4c9;" horiz-adv-x="1564" d="M168 0v1495h225v-610h697v610h225v-1311h225l-139 -512h-205l88 328h-82h-112v709h-697v-709h-225z" />
<glyph unicode="&#x4ca;" horiz-adv-x="1331" d="M147 0v1065h220v-422h518v422h217v-897h205l-133 -496h-185l88 328h-82h-110v487h-518v-487h-220z" />
<glyph unicode="&#x4cb;" horiz-adv-x="1370" d="M147 973v522h222v-496q0 -199 76.5 -271.5t285.5 -72.5q139 0 246 72v768h225v-1495h-143h-82v-328h-205v512h205v353q-123 -72 -287 -72q-291 0 -417 118.5t-126 389.5z" />
<glyph unicode="&#x4cc;" horiz-adv-x="1165" d="M127 645v420h201v-377q0 -139 48 -186t181 -47q150 0 256 57v553h205v-1065h-123h-82v-246h-184v406h184v184q-125 -57 -293 -57q-219 0 -306 79.5t-87 278.5z" />
<glyph unicode="&#x4cd;" horiz-adv-x="1851" d="M168 0v1495h217l494 -881h4l493 881h226v-1311h225l-139 -512h-205l88 328h-82h-113v1106h-4l-389 -696h-205l-389 696h-4v-1106h-217z" />
<glyph unicode="&#x4ce;" horiz-adv-x="1597" d="M147 0v1065h238l371 -621h2l370 621h240v-897h205l-133 -496h-185l88 328h-81h-105v778h-2l-307 -487h-182l-308 487h-4v-778h-207z" />
<glyph unicode="&#x4cf;" horiz-adv-x="655" d="M219 0v1536h217v-1536h-217z" />
<glyph unicode="&#x4d0;" horiz-adv-x="1441" d="M66 0l532 1495h246l532 -1495h-241l-129 397h-578l-129 -397h-233zM322 1935h174q4 -74 69.5 -124t155.5 -50t155.5 50.5t69.5 123.5h174q0 -139 -112.5 -233t-286.5 -94t-286.5 94t-112.5 233zM483 573h467l-231 717h-4z" />
<glyph unicode="&#x4d1;" d="M96 287q0 178 150.5 285.5t433.5 107.5h102v10q0 129 -52 180.5t-183 51.5q-195 0 -359 -93l-30 164q172 92 389 92q231 0 335.5 -93t104.5 -296v-409q0 -145 31 -287h-195q-16 90 -18 164h-4q-57 -86 -158.5 -135t-228.5 -49q-145 0 -231.5 82t-86.5 225zM178 1526h174 q4 -74 69.5 -124t156 -50t156 50t69.5 124h174q0 -139 -112.5 -233.5t-287 -94.5t-287 94.5t-112.5 233.5zM297 297q0 -76 46 -120t122 -44q129 0 223 89t94 218v88h-102q-184 0 -283.5 -63.5t-99.5 -167.5z" />
<glyph unicode="&#x4d2;" horiz-adv-x="1441" d="M66 0l532 1495h246l532 -1495h-241l-129 397h-578l-129 -397h-233zM414 1659v266h204v-266h-204zM483 573h467l-231 717h-4zM823 1659v266h205v-266h-205z" />
<glyph unicode="&#x4d3;" d="M96 287q0 178 150.5 285.5t433.5 107.5h102v10q0 129 -52 180.5t-183 51.5q-195 0 -359 -93l-30 164q172 92 389 92q231 0 335.5 -93t104.5 -296v-409q0 -145 31 -287h-195q-16 90 -18 164h-4q-57 -86 -158.5 -135t-228.5 -49q-145 0 -231.5 82t-86.5 225zM270 1249v267 h205v-267h-205zM297 297q0 -76 46 -120t122 -44q129 0 223 89t94 218v88h-102q-184 0 -283.5 -63.5t-99.5 -167.5zM680 1249v267h205v-267h-205z" />
<glyph unicode="&#x4d4;" horiz-adv-x="1779" d="M66 0l532 1495h1034v-184h-604v-426h563v-176h-563v-525h604v-184h-819v397h-395l-129 -397h-223zM475 573h338v738h-98z" />
<glyph unicode="&#x4d5;" horiz-adv-x="1830" d="M96 287q0 178 150.5 285.5t433.5 107.5h119v10q0 129 -55.5 180.5t-196.5 51.5q-195 0 -359 -93l-30 164q172 92 389 92q291 0 389 -141q125 141 328 141q227 0 354 -139t127 -403q0 -31 -4 -92h-744q6 -141 94.5 -226.5t213.5 -85.5q154 0 307 78l51 -156 q-178 -82 -379 -81q-123 0 -226.5 57t-168.5 160q-137 -217 -475 -217q-145 0 -231.5 81.5t-86.5 225.5zM297 297q0 -76 46 -120t122 -44q137 0 235.5 88t98.5 219v88h-119q-184 0 -283.5 -63.5t-99.5 -167.5zM997 610h549q-2 152 -77.5 234t-204.5 82q-113 0 -188 -84.5 t-79 -231.5z" />
<glyph unicode="&#x4d6;" horiz-adv-x="1216" d="M168 0v1495h901v-184h-676v-426h635v-176h-635v-525h676v-184h-901zM219 1935h174q4 -74 69.5 -124t156 -50t156 50.5t69.5 123.5h174q0 -139 -112.5 -233t-287 -94t-287 94t-112.5 233z" />
<glyph unicode="&#x4d7;" d="M76 532q0 258 136 405.5t366 147.5q227 0 354 -139t127 -403q0 -31 -4 -92h-770q6 -143 99 -227.5t234 -84.5q154 0 308 78l51 -156q-178 -82 -379 -81q-229 0 -375.5 150.5t-146.5 401.5zM188 1526h174q4 -74 70 -124t156 -50t155.5 50t69.5 124h174 q0 -139 -112.5 -233.5t-286.5 -94.5t-287 94.5t-113 233.5zM285 610h575q-2 152 -76.5 234t-206 82t-210 -83t-82.5 -233z" />
<glyph unicode="&#x4d8;" horiz-adv-x="1533" d="M86 741q0 39 4 97h1141q-12 236 -159.5 366.5t-395.5 130.5q-233 0 -428 -116l-60 172q238 125 529 125q340 0 540.5 -207t200.5 -561q0 -360 -187.5 -564t-512.5 -204q-313 0 -492.5 196.5t-179.5 564.5zM301 664q2 -264 112.5 -384t338.5 -120q221 0 347 130t134 374 h-932z" />
<glyph unicode="&#x4d9;" d="M86 522q0 31 4 92h770q-6 143 -99 227.5t-235 84.5q-154 0 -307 -78l-51 156q178 82 379 81q229 0 375.5 -150.5t146.5 -402.5q0 -258 -136 -405t-366 -147q-227 0 -354 139t-127 403zM285 455q2 -152 77.5 -234t204.5 -82q131 0 210 83t83 233h-575z" />
<glyph unicode="&#x4da;" horiz-adv-x="1533" d="M86 741q0 39 4 97h1141q-12 236 -159.5 366.5t-395.5 130.5q-233 0 -428 -116l-60 172q238 125 529 125q340 0 540.5 -207t200.5 -561q0 -360 -187.5 -564t-512.5 -204q-313 0 -492.5 196.5t-179.5 564.5zM301 664q2 -264 112.5 -384t338.5 -120q221 0 347 130t134 374 h-932zM471 1659v266h205v-266h-205zM881 1659v266h204v-266h-204z" />
<glyph unicode="&#x4db;" d="M86 522q0 31 4 92h770q-6 143 -99 227.5t-235 84.5q-154 0 -307 -78l-51 156q178 82 379 81q229 0 375.5 -150.5t146.5 -402.5q0 -258 -136 -405t-366 -147q-227 0 -354 139t-127 403zM285 455q2 -152 77.5 -234t204.5 -82q131 0 210 83t83 233h-575zM291 1249v267h205 v-267h-205zM700 1249v267h205v-267h-205z" />
<glyph unicode="&#x4dc;" horiz-adv-x="1882" d="M76 0l450 793l-436 702h236l381 -610h120v610h226v-610h123l380 610h234l-434 -702l450 -793h-239l-391 698h-123v-698h-226v698h-120l-392 -698h-239zM635 1659v266h205v-266h-205zM1044 1659v266h205v-266h-205z" />
<glyph unicode="&#x4dd;" horiz-adv-x="1595" d="M96 0l348 553l-338 512h216l278 -430h96v430h205v-430h94l279 430h215l-338 -512l348 -553h-215l-289 467h-94v-467h-205v467h-96l-289 -467h-215zM492 1249v267h204v-267h-204zM901 1249v267h205v-267h-205z" />
<glyph unicode="&#x4de;" horiz-adv-x="1216" d="M86 102l61 181q215 -119 410 -119q168 0 258 71.5t90 204.5q0 129 -108.5 192.5t-362.5 63.5h-102v185h102q444 0 445 245q0 205 -301 205q-170 0 -390 -114l-61 176q238 123 481 123q231 0 361.5 -94.5t130.5 -254.5q0 -145 -78 -234t-250 -132v-4q358 -51 358 -367 q0 -213 -148 -331.5t-415 -118.5q-252 0 -481 122zM311 1659v266h205v-266h-205zM721 1659v266h205v-266h-205z" />
<glyph unicode="&#x4df;" horiz-adv-x="1091" d="M86 57l49 152q195 -66 365 -66q291 0 291 168q0 86 -94.5 128t-329.5 42h-82v158h82q410 0 409 149q0 137 -287 138q-162 0 -339 -70l-50 152q203 78 410 77q227 0 354 -75.5t127 -190.5q0 -86 -67.5 -155.5t-186.5 -98.5v-4q121 -20 195 -97t74 -177q0 -139 -128 -223 t-368 -84q-213 0 -424 77zM227 1249v267h205v-267h-205zM637 1249v267h205v-267h-205z" />
<glyph unicode="&#x4e0;" d="M96 82l62 184q186 -102 337.5 -102t234.5 80t83 227q0 125 -89 185.5t-290 60.5h-143v172l440 418v4h-635v184h922v-184l-440 -428v-4h40q199 0 309.5 -105.5t110.5 -302.5q0 -233 -142 -362t-400 -129q-223 0 -400 102z" />
<glyph unicode="&#x4e1;" horiz-adv-x="1236" d="M147 -369l62 185q186 -102 337.5 -102.5t234.5 79.5t83 227q0 125 -89 185.5t-290 60.5h-143v172l440 439v4h-635v184h922v-184l-440 -449v-4h41q199 0 309.5 -105.5t110.5 -302.5q0 -233 -142.5 -362t-400.5 -129q-223 0 -400 102z" />
<glyph unicode="&#x4e2;" horiz-adv-x="1441" d="M147 0v1495h222v-1116h4l700 1116h221v-1495h-221v1116h-4l-700 -1116h-222zM352 1720v164h738v-164h-738z" />
<glyph unicode="&#x4e3;" horiz-adv-x="1257" d="M147 0v1065h213v-774h5l524 774h221v-1065h-213v774h-4l-522 -774h-224zM260 1290v164h737v-164h-737z" />
<glyph unicode="&#x4e4;" horiz-adv-x="1441" d="M147 0v1495h222v-1116h4l700 1116h221v-1495h-221v1116h-4l-700 -1116h-222zM414 1659v266h204v-266h-204zM823 1659v266h205v-266h-205z" />
<glyph unicode="&#x4e5;" horiz-adv-x="1257" d="M147 0v1065h213v-774h5l524 774h221v-1065h-213v774h-4l-522 -774h-224zM322 1249v267h204v-267h-204zM731 1249v267h205v-267h-205z" />
<glyph unicode="&#x4e6;" horiz-adv-x="1626" d="M76 747.5q0 350.5 200.5 559.5t536.5 209t536.5 -209t200.5 -559.5t-200.5 -559t-536.5 -208.5t-536.5 208.5t-200.5 559zM305 747.5q0 -270.5 139.5 -427t368.5 -156.5t368.5 156.5t139.5 427t-139.5 427t-368.5 156.5t-368.5 -156.5t-139.5 -427zM506 1659v266h205 v-266h-205zM915 1659v266h205v-266h-205z" />
<glyph unicode="&#x4e7;" horiz-adv-x="1175" d="M76 532.5q0 253.5 140 403t371.5 149.5t372 -149.5t140.5 -403t-140.5 -403t-372 -149.5t-371.5 149.5t-140 403zM281 1249v267h204v-267h-204zM285 532.5q0 -184.5 82 -287t221 -102.5t221 102.5t82 287t-82 287t-221 102.5t-221 -102.5t-82 -287zM690 1249v267h205 v-267h-205z" />
<glyph unicode="&#x4e8;" horiz-adv-x="1626" d="M76 747.5q0 350.5 200.5 559.5t536.5 209t536.5 -209t200.5 -559.5t-200.5 -559t-536.5 -208.5t-536.5 208.5t-200.5 559zM309 655q25 -231 160 -361t344 -130t344 130t160 361h-1008zM309 840h1008q-25 231 -160 361t-344 130t-344 -130t-160 -361z" />
<glyph unicode="&#x4e9;" horiz-adv-x="1175" d="M76 532.5q0 253.5 140 403t371.5 149.5t372 -149.5t140.5 -403t-140.5 -403t-372 -149.5t-371.5 149.5t-140 403zM289 451q18 -147 97 -227.5t202 -80.5t201.5 80t97.5 228h-598zM289 614h598q-18 147 -97 227.5t-202 80.5t-202 -80.5t-97 -227.5z" />
<glyph unicode="&#x4ea;" horiz-adv-x="1626" d="M76 747.5q0 350.5 200.5 559.5t536.5 209t536.5 -209t200.5 -559.5t-200.5 -559t-536.5 -208.5t-536.5 208.5t-200.5 559zM309 655q25 -231 160 -361t344 -130t344 130t160 361h-1008zM309 840h1008q-25 231 -160 361t-344 130t-344 -130t-160 -361zM506 1659v266h205 v-266h-205zM915 1659v266h205v-266h-205z" />
<glyph unicode="&#x4eb;" horiz-adv-x="1175" d="M76 532.5q0 253.5 140 403t371.5 149.5t372 -149.5t140.5 -403t-140.5 -403t-372 -149.5t-371.5 149.5t-140 403zM281 1249v267h204v-267h-204zM289 451q18 -147 97 -227.5t202 -80.5t201.5 80t97.5 228h-598zM289 614h598q-18 147 -97 227.5t-202 80.5t-202 -80.5 t-97 -227.5zM690 1249v267h205v-267h-205z" />
<glyph unicode="&#x4ec;" horiz-adv-x="1441" d="M137 109l72 167q180 -113 379 -112q225 0 376.5 141t170.5 383h-875v176h868q-33 215 -177 341t-363 126q-199 0 -379 -112l-72 167q205 129 471 130q348 0 553 -208t205 -560.5t-208 -560t-550 -207.5q-266 0 -471 129zM403 1659v266h205v-266h-205zM813 1659v266h205 v-266h-205z" />
<glyph unicode="&#x4ed;" horiz-adv-x="1093" d="M137 51l51 164q133 -72 277 -72q129 0 220 82t112 226h-588v163h590q-18 145 -105.5 224.5t-228.5 79.5q-143 0 -277 -72l-51 168q164 72 338 71q256 0 399.5 -146t143.5 -407q0 -254 -150.5 -403t-392.5 -149q-174 0 -338 71zM240 1249v267h204v-267h-204zM649 1249v267 h205v-267h-205z" />
<glyph unicode="&#x4ee;" horiz-adv-x="1421" d="M76 1495h264l385 -850l385 850h256l-502 -1044q-133 -274 -291.5 -372.5t-461.5 -98.5l-15 184q236 0 336 53t176 213zM342 1720v164h737v-164h-737z" />
<glyph unicode="&#x4ef;" horiz-adv-x="1165" d="M76 1065h229l295 -819h4l275 819h221l-400 -1065q-104 -279 -228 -375t-366 -96l-10 168q170 0 251 59.5t149 243.5zM209 1290v164h737v-164h-737z" />
<glyph unicode="&#x4f0;" horiz-adv-x="1421" d="M76 1495h264l385 -850l385 850h256l-502 -1044q-133 -274 -291.5 -372.5t-461.5 -98.5l-15 184q236 0 336 53t176 213zM403 1659v266h205v-266h-205zM813 1659v266h205v-266h-205z" />
<glyph unicode="&#x4f1;" horiz-adv-x="1165" d="M76 1065h229l295 -819h4l275 819h221l-400 -1065q-104 -279 -228 -375t-366 -96l-10 168q170 0 251 59.5t149 243.5zM270 1249v267h205v-267h-205zM680 1249v267h205v-267h-205z" />
<glyph unicode="&#x4f2;" horiz-adv-x="1421" d="M76 1495h264l385 -850l385 850h256l-502 -1044q-133 -274 -291.5 -372.5t-461.5 -98.5l-15 184q236 0 336 53t176 213zM362 1618l226 348h266l-307 -348h-185zM752 1618l225 348h266l-307 -348h-184z" />
<glyph unicode="&#x4f3;" horiz-adv-x="1165" d="M76 1065h229l295 -819h4l275 819h221l-400 -1065q-104 -279 -228 -375t-366 -96l-10 168q170 0 251 59.5t149 243.5zM229 1208l226 348h266l-307 -348h-185zM618 1208l226 348h266l-307 -348h-185z" />
<glyph unicode="&#x4f4;" horiz-adv-x="1370" d="M147 973v522h222v-496q0 -199 76.5 -271.5t285.5 -72.5q139 0 246 72v768h225v-1495h-225v537q-123 -72 -287 -72q-291 0 -417 118.5t-126 389.5zM424 1659v266h205v-266h-205zM834 1659v266h204v-266h-204z" />
<glyph unicode="&#x4f5;" horiz-adv-x="1165" d="M127 645v420h201v-377q0 -139 48 -186t181 -47q150 0 256 57v553h205v-1065h-205v344q-125 -57 -293 -57q-219 0 -306 79.5t-87 278.5zM328 1249v267h204v-267h-204zM737 1249v267h205v-267h-205z" />
<glyph unicode="&#x4f6;" horiz-adv-x="1155" d="M168 0v1495h881v-195h-646v-1116h205v-512h-205v328h-81h-154z" />
<glyph unicode="&#x4f7;" horiz-adv-x="1032" d="M147 0v1065h799v-174h-584v-723h185v-414h-185v246h-81h-134z" />
<glyph unicode="&#x4f8;" horiz-adv-x="1769" d="M168 12v1483h225v-573q86 14 205 14q285 0 429 -119t144 -342q0 -252 -146 -373.5t-458 -121.5q-203 0 -399 32zM393 178q80 -18 185 -18q385 0 385 313q0 287 -385 287q-107 -1 -185 -15v-567zM578 1659v266h204v-266h-204zM987 1659v266h205v-266h-205zM1376 0v1495 h226v-1495h-226z" />
<glyph unicode="&#x4f9;" horiz-adv-x="1507" d="M147 10v1055h205v-311q72 14 174 14q233 0 357.5 -101.5t124.5 -277.5q0 -207 -128 -308t-395 -101q-178 0 -338 30zM352 160q76 -16 148 -17q158 0 232.5 60.5t74.5 185.5q0 102 -78 158.5t-233 56.5q-85 0 -144 -14v-430zM451 1249v267h204v-267h-204zM860 1249v267 h205v-267h-205zM1161 0v1065h199v-1065h-199z" />
<glyph unicode="&#x4fa;" horiz-adv-x="1323" d="M86 512v164h250v819h881v-195h-644v-624h414v-164h-414v-328h205v-276q0 -201 -91 -290t-292 -89q-106 0 -205 31l41 164q78 -31 162 -31q100 0 140 48t40 167v92h-81h-156v512h-250z" />
<glyph unicode="&#x4fb;" horiz-adv-x="1253" d="M86 512v164h270v389h799v-174h-582v-215h394v-164h-394v-344h185v-260q0 -205 -83 -292t-263 -87q-106 0 -205 31l41 164q72 -31 143 -31q100 0 141 48t41 167v92h-81h-136v512h-270z" />
<glyph unicode="&#x4fc;" horiz-adv-x="1421" d="M86 0l451 758l-441 737h260l326 -584h4l326 584h252l-441 -737l340 -574h172v-276q0 -201 -90 -290t-291 -89q-106 0 -204 31l41 164q78 -31 159 -31q100 0 140 48t40 167v92h-81h-39l-332 604h-4l-332 -604h-256z" />
<glyph unicode="&#x4fd;" horiz-adv-x="1155" d="M96 0l359 543l-349 522h240l234 -389h4l233 389h232l-349 -522l248 -375h142v-260q0 -205 -82 -292t-263 -87q-106 0 -204 31l41 164q70 -31 143 -31q100 0 140 48t40 167v92h-82h-4l-244 410h-4l-243 -410h-232z" />
<glyph unicode="&#x4fe;" horiz-adv-x="1400" d="M106 0l402 676h-391v164h391l-391 655h260l325 -584h5l325 584h252l-391 -655h391v-164h-391l401 -676h-264l-332 604h-4l-332 -604h-256z" />
<glyph unicode="&#x4ff;" horiz-adv-x="1196" d="M117 0l305 461h-295v164h293l-293 440h240l233 -389h4l234 389h231l-293 -440h293v-164h-295l305 -461h-239l-244 410h-4l-244 -410h-231z" />
<glyph unicode="&#x2000;" horiz-adv-x="1067" vert-adv-y="0" />
<glyph unicode="&#x2001;" horiz-adv-x="2134" vert-adv-y="0" />
<glyph unicode="&#x2002;" horiz-adv-x="1067" vert-adv-y="0" />
<glyph unicode="&#x2003;" horiz-adv-x="2134" vert-adv-y="0" />
<glyph unicode="&#x2004;" horiz-adv-x="711" vert-adv-y="0" />
<glyph unicode="&#x2005;" horiz-adv-x="533" vert-adv-y="0" />
<glyph unicode="&#x2006;" horiz-adv-x="355" vert-adv-y="0" />
<glyph unicode="&#x2007;" horiz-adv-x="355" vert-adv-y="0" />
<glyph unicode="&#x2008;" horiz-adv-x="266" vert-adv-y="0" />
<glyph unicode="&#x2009;" horiz-adv-x="426" vert-adv-y="0" />
<glyph unicode="&#x200a;" horiz-adv-x="118" vert-adv-y="0" />
<glyph unicode="&#x2010;" horiz-adv-x="950" d="M158 508v172h635v-172h-635z" />
<glyph unicode="&#x2011;" horiz-adv-x="950" d="M158 508v172h635v-172h-635z" />
<glyph unicode="&#x2012;" horiz-adv-x="950" d="M158 508v172h635v-172h-635z" />
<glyph unicode="&#x2013;" horiz-adv-x="964" d="M-4 522v144h973v-144h-973z" />
<glyph unicode="&#x2014;" horiz-adv-x="1937" d="M-4 522v144h1946v-144h-1946z" />
<glyph unicode="&#x2018;" horiz-adv-x="653" d="M86 1044l225 533h205l-143 -533h-287z" />
<glyph unicode="&#x2019;" horiz-adv-x="653" d="M137 1044l144 533h286l-225 -533h-205z" />
<glyph unicode="&#x201a;" horiz-adv-x="684" d="M117 -225l143 532h287l-225 -532h-205z" />
<glyph unicode="&#x201c;" horiz-adv-x="1021" d="M76 1044l225 533h184l-143 -533h-266zM485 1044l226 533h184l-143 -533h-267z" />
<glyph unicode="&#x201d;" horiz-adv-x="1021" d="M127 1044l143 533h267l-226 -533h-184zM537 1044l143 533h266l-225 -533h-184z" />
<glyph unicode="&#x201e;" horiz-adv-x="1052" d="M106 -225l144 532h266l-225 -532h-185zM516 -225l143 532h267l-226 -532h-184z" />
<glyph unicode="&#x2020;" horiz-adv-x="1134" d="M117 901v164h348v430h205v-430h348v-164h-348v-1147h-205v1147h-348z" />
<glyph unicode="&#x2021;" horiz-adv-x="1175" d="M137 307v164h348v430h-348v164h348v430h205v-430h348v-164h-348v-430h348v-164h-348v-553h-205v553h-348z" />
<glyph unicode="&#x2022;" horiz-adv-x="991" d="M250 747.5q0 100.5 71.5 173t174 72.5t174 -72.5t71.5 -173t-71.5 -173t-174 -72.5t-174 72.5t-71.5 173z" />
<glyph unicode="&#x2026;" horiz-adv-x="2048" d="M209 584v307h266v-307h-266zM891 584v307h266v-307h-266zM1573 584v307h266v-307h-266z" />
<glyph unicode="&#x202f;" horiz-adv-x="426" vert-adv-y="0" />
<glyph unicode="&#x2030;" horiz-adv-x="2117" d="M76 1116.5q0 192.5 78.5 296t222 103.5t223.5 -103.5t80 -296t-80 -296t-223.5 -103.5t-222 103.5t-78.5 296zM268 1116.5q0 -235.5 108.5 -235.5t108.5 235.5t-108.5 235.5t-108.5 -235.5zM291 0l708 1495h189l-707 -1495h-190zM801 378.5q0 192.5 78.5 296t222 103.5 t222.5 -103.5t79 -296t-79 -295.5t-222.5 -103t-222 103t-78.5 295.5zM993 378.5q0 -235.5 108.5 -235.5t108.5 235.5t-108.5 235.5t-108.5 -235.5zM1438 378.5q0 192.5 79.5 296t223 103.5t222.5 -103.5t79 -296t-79 -295.5t-222.5 -103t-223 103t-79.5 295.5zM1632 378.5 q0 -235.5 108.5 -235.5t108.5 235.5t-108.5 235.5t-108.5 -235.5z" />
<glyph unicode="&#x2039;" horiz-adv-x="843" d="M127 594l328 450h221l-334 -450l334 -451h-221z" />
<glyph unicode="&#x203a;" horiz-adv-x="843" d="M168 143l332 451l-332 450h221l328 -450l-328 -451h-221z" />
<glyph unicode="&#x2044;" horiz-adv-x="1421" d="M96 -31l1010 1557h219l-1010 -1557h-219z" />
<glyph unicode="&#x205f;" horiz-adv-x="533" vert-adv-y="0" />
<glyph unicode="&#x20ac;" horiz-adv-x="1548" d="M96 512v143h152q-2 31 -2 92.5t2 92.5h-152v143h174q59 250 242.5 391.5t452.5 141.5q254 0 448 -130l-70 -167q-172 113 -360 112q-176 0 -304 -92t-181 -256h735v-143h-766q-4 -29 -4 -92.5t4 -92.5h766v-143h-733q55 -164 183 -256t300 -92q188 0 360 112l70 -167 q-195 -129 -448 -129q-264 0 -447.5 141t-245.5 391h-176z" />
<glyph unicode="&#x2122;" horiz-adv-x="1773" d="M117 1376v119h669v-119h-262v-628h-145v628h-262zM868 748v747h144l221 -440h2l223 440h148v-747h-142v505h-2l-164 -317h-129l-163 317h-2v-505h-136z" />
<glyph unicode="&#x2202;" horiz-adv-x="1247" d="M76 512q0 238 130 370t361 132q205 0 342 -115l2 4q-18 223 -103 320.5t-247 97.5q-160 0 -377 -117l-63 176q94 55 227 95.5t225 40.5q297 0 442.5 -205t145.5 -660q0 -672 -543 -671q-248 0 -395 144t-147 388zM301 512q0 -172 81.5 -260t235.5 -88q150 0 232 89 t82 259q0 154 -85 243t-229 89q-150 0 -233.5 -87t-83.5 -245z" />
<glyph unicode="&#x2206;" horiz-adv-x="1441" d="M66 0l532 1495h246l532 -1495h-164h-77h-836h-70h-163zM358 180h717l-356 1110h-4z" />
<glyph unicode="&#x220f;" horiz-adv-x="1718" d="M168 -451v1946h1382v-1946h-231v1758h-922v-1758h-229z" />
<glyph unicode="&#x2211;" horiz-adv-x="1441" d="M137 -262l539 825l-539 744v188h1168v-188h-912l537 -744l-539 -825h914v-189h-1168v189z" />
<glyph unicode="&#x221a;" horiz-adv-x="1554" d="M86 748v153h403l285 -942h4l541 1700h201l-605 -1823h-286l-316 912h-227z" />
<glyph unicode="&#x221e;" horiz-adv-x="1728" d="M76 532.5q0 196.5 113.5 318.5t289.5 122q254 0 393 -271h5q125 270 372 271q178 0 291 -122t113 -319q0 -184 -115 -312t-289 -128q-254 0 -393 270h-4q-125 -270 -373 -270q-178 0 -290.5 122t-112.5 318.5zM260 532q0 -117 63.5 -186.5t172.5 -69.5q204 0 286 246 q-39 127 -115.5 196.5t-170.5 69.5q-109 0 -172.5 -68.5t-63.5 -187.5zM946 543q39 -127 116 -197t171 -70q104 0 169.5 75t65.5 181q0 117 -63.5 186.5t-171.5 69.5q-205 1 -287 -245z" />
<glyph unicode="&#x222b;" horiz-adv-x="1222" d="M86 -440l27 188q94 -25 182 -24q142 0 154 170l92 1284q10 160 106 249t262 89q115 0 228 -31l-27 -189q-94 25 -180 25q-141 0 -154 -170l-92 -1284q-10 -160 -106.5 -249t-262.5 -89q-115 0 -229 31z" />
<glyph unicode="&#x2248;" horiz-adv-x="1585" d="M178 346q141 227 367 227q160 0 295 -133q100 -98 200 -98q70 0 124.5 34t115.5 118l127 -103q-141 -227 -367 -227q-160 0 -295 133q-100 98 -200 98q-70 0 -124 -33.5t-116 -117.5zM178 797q141 227 367 227q160 0 295 -133q100 -98 200 -98q70 0 124.5 33.5 t115.5 117.5l127 -102q-141 -227 -367 -228q-160 0 -295 134q-100 98 -200 98q-70 0 -124 -34t-116 -118z" />
<glyph unicode="&#x2260;" horiz-adv-x="1544" d="M178 266v174h438l107 308h-545v174h604l103 297l184 -62l-82 -235h379v-174h-438l-107 -308h545v-174h-604l-103 -297l-184 62l82 235h-379z" />
<glyph unicode="&#x2264;" horiz-adv-x="1544" d="M178 -82v174h1188v-174h-1188zM178 645v225l1188 420v-184l-1044 -346v-4l1044 -346v-185z" />
<glyph unicode="&#x2265;" horiz-adv-x="1544" d="M178 -82v174h1188v-174h-1188zM178 225v185l1045 346v4l-1045 346v184l1188 -420v-225z" />
<glyph unicode="&#x25ca;" horiz-adv-x="1523" d="M86 666l676 921l676 -921l-676 -922zM238 666l524 -715l524 715l-524 714z" />
<glyph unicode="&#x25fc;" horiz-adv-x="1064" vert-adv-y="2129" d="M0 0v1065h1065v-1065h-1065z" />
</font>
</defs>
</svg>
