<?xml version="1.0" standalone="no"?>
<!DOCTYPE svg PUBLIC "-//W3C//DTD SVG 1.1//EN" "http://www.w3.org/Graphics/SVG/1.1/DTD/svg11.dtd" >
<svg xmlns="http://www.w3.org/2000/svg" xmlns:xlink="http://www.w3.org/1999/xlink" version="1.1">
<metadata></metadata>
<defs>
<font id="mplus_1pregular" horiz-adv-x="1419" vert-adv-y="2048" >
<font-face units-per-em="2048" ascent="1761" descent="-287" />
<missing-glyph horiz-adv-x="593" />
<glyph unicode="&#xfb01;" horiz-adv-x="1304" d="M113 901v123h211v137q0 354 342 355q92 0 190 -31l-31 -123q-76 31 -145 31q-111 0 -157 -52.5t-46 -179.5v-137h664v-1024h-160v901h-504v-901h-153v901h-211zM981 1311v225h160v-225h-160z" />
<glyph unicode="&#xfb02;" horiz-adv-x="1304" d="M113 901v123h211v137q0 354 387 355q225 0 430 -56v-1460h-160v1364q-154 29 -270 29q-127 0 -180.5 -52.5t-53.5 -179.5v-137h354v-123h-354v-901h-153v901h-211z" />
<glyph horiz-adv-x="0" vert-adv-y="0" />
<glyph horiz-adv-x="682" />
<glyph unicode=" "  horiz-adv-x="593" />
<glyph unicode="&#x09;" horiz-adv-x="593" />
<glyph unicode="&#xa0;" horiz-adv-x="593" />
<glyph unicode="!" horiz-adv-x="743" d="M276 1495h191l-21 -1079h-149zM283 0v252h178v-252h-178z" />
<glyph unicode="&#x22;" horiz-adv-x="819" d="M143 1577h164l-20 -506h-123zM512 1577h164l-21 -506h-123z" />
<glyph unicode="#" horiz-adv-x="1388" d="M102 393v131h250l86 488h-231v131h256l61 352h152l-64 -352h301l62 352h151l-63 -352h223v-131h-246l-86 -488h228v-131h-252l-70 -393h-149l69 393h-301l-69 -393h-150l70 393h-228zM504 524h299l86 488h-299z" />
<glyph unicode="$" horiz-adv-x="1239" d="M113 143l41 133q184 -98 389 -110v547q-225 59 -324.5 154.5t-99.5 244.5q0 156 107.5 247t316.5 103v207h129v-207q207 -10 397 -80l-39 -133q-172 70 -358 80v-504q242 -61 338 -156.5t96 -258.5q0 -166 -110.5 -264.5t-323.5 -112.5v-207h-129v207q-227 8 -430 110z M274 1112q0 -96 61.5 -155.5t207.5 -98.5v471q-268 -18 -269 -217zM672 168q276 27 276 242q0 106 -61.5 167.5t-214.5 104.5v-514z" />
<glyph unicode="%" horiz-adv-x="1734" d="M82 1122.5q0 186.5 90 290t254 103.5t255 -103.5t91 -290t-91 -289t-255 -102.5t-254 102.5t-90 289zM240 1122q0 -268 186 -268q188 0 188 268q0 271 -188 271q-186 0 -186 -271zM360 0l848 1495h166l-848 -1495h-166zM963 372.5q0 186.5 90 289t253.5 102.5t255 -102.5 t91.5 -289t-91.5 -289.5t-255 -103t-253.5 103t-90 289.5zM1120 373q0 -270 187 -271q188 0 188 271q0 268 -188 268q-186 0 -187 -268z" />
<glyph unicode="&#x26;" horiz-adv-x="1458" d="M102 348q0 115 84 223.5t289 243.5l-24 27q-113 117 -159 202.5t-46 169.5q0 135 105.5 218.5t287.5 83.5q186 0 285.5 -78t99.5 -215q0 -113 -72 -208t-256 -218l365 -387v446h153v-610l234 -246h-197l-137 145q-258 -166 -534 -165q-236 0 -357 95t-121 273zM266 354 q0 -117 83 -180t239 -63q125 0 220 32.5t202 110.5l-441 463q-166 -109 -234.5 -194t-68.5 -169zM408 1214q0 -66 34.5 -125t159.5 -192q164 111 216 175.5t52 141.5q0 172 -231 172q-109 0 -170 -47t-61 -125z" />
<glyph unicode="'" horiz-adv-x="485" d="M154 1577h178l-21 -506h-137z" />
<glyph unicode="(" horiz-adv-x="788" d="M143 645.5q0 274.5 102.5 514t295.5 417.5h155q-395 -373 -395 -932t395 -932h-155q-193 178 -295.5 418t-102.5 514.5z" />
<glyph unicode=")" horiz-adv-x="788" d="M92 -287q395 373 395 932t-395 932h156q193 -178 295 -417.5t102 -514t-102.5 -514.5t-294.5 -418h-156z" />
<glyph unicode="*" horiz-adv-x="1079" d="M102 1171l41 125l336 -114l-6 354h131l-4 -354l336 114l41 -125l-338 -106l211 -283l-107 -77l-204 288l-203 -288l-107 77l211 283z" />
<glyph unicode="+" horiz-adv-x="1501" d="M164 528v131h518v529h137v-529h518v-131h-518v-528h-137v528h-518z" />
<glyph unicode="," horiz-adv-x="622" d="M123 -225l149 506h207l-205 -506h-151z" />
<glyph unicode="-" horiz-adv-x="935" d="M164 528v131h608v-131h-608z" />
<glyph unicode="." horiz-adv-x="579" d="M195 0v287h190v-287h-190z" />
<glyph unicode="/" horiz-adv-x="1038" d="M72 -82l704 1577h160l-707 -1577h-157z" />
<glyph unicode="0" horiz-adv-x="1269" d="M94 747.5q0 411.5 141.5 590t397.5 178.5q541 0 541 -768t-541 -768q-256 0 -397.5 178t-141.5 589.5zM258 747.5q0 -333.5 93 -484t281.5 -150.5t283 150.5t94.5 484t-94.5 484t-283 150.5t-281.5 -150.5t-93 -484z" />
<glyph unicode="1" horiz-adv-x="1269" d="M166 1059l471 436h164v-1495h-164v1298h-4l-404 -372z" />
<glyph unicode="2" horiz-adv-x="1269" d="M150 1366q209 150 475 150q219 0 339.5 -112t120.5 -312.5t-145 -405.5t-545 -545v-4h697v-137h-922v137q436 360 590.5 562t154.5 380q0 145 -78.5 221t-232.5 76q-203 0 -405 -141z" />
<glyph unicode="3" horiz-adv-x="1269" d="M170 86l49 133q172 -102 340 -102q180 0 274.5 88t94.5 260q0 145 -97.5 216t-310.5 71h-149v127l489 475v4h-686v137h897v-137l-491 -481v-5h63q217 0 333 -104t116 -303q0 -233 -138.5 -359t-394.5 -126q-221 0 -389 106z" />
<glyph unicode="4" horiz-adv-x="1269" d="M31 348v133l717 1014h161v-1014h254v-133h-254v-348h-161v348h-717zM199 481h549v774h-5l-544 -770v-4z" />
<glyph unicode="5" horiz-adv-x="1269" d="M174 78l41 135q172 -96 344 -96q387 0 387 375q0 158 -84 240.5t-241 82.5q-162 0 -269 -94h-143l45 774h795v-137h-648l-28 -484h4q121 72 272 72q219 0 340 -118.5t121 -335.5q0 -250 -140.5 -381t-410.5 -131q-209 0 -385 98z" />
<glyph unicode="6" horiz-adv-x="1269" d="M113 559q0 416 201.5 670t555.5 287l29 -138q-471 -53 -598 -530l2 -2q141 158 373 158q227 0 361 -132.5t134 -359.5q0 -244 -145 -388t-385 -144q-248 0 -388 149.5t-140 429.5zM279 512q0 -190 96 -292.5t266 -102.5q174 0 270.5 102.5t96.5 292.5q0 168 -99.5 266.5 t-267.5 98.5q-158 0 -260 -102.5t-102 -262.5z" />
<glyph unicode="7" horiz-adv-x="1269" d="M160 1358v137h962v-137q-358 -588 -594 -1358h-170q238 748 605 1354v4h-803z" />
<glyph unicode="8" horiz-adv-x="1269" d="M94 403q0 131 88 233.5t252 154.5v4q-137 51 -212 145t-75 217q0 162 130.5 260.5t355.5 98.5t355 -98.5t130 -260.5q0 -248 -287 -350v-4q342 -100 343 -400q0 -195 -144.5 -309t-396.5 -114t-395.5 114.5t-143.5 308.5zM250 410q0 -139 102.5 -219t280.5 -80 t278.5 80.5t100.5 218.5q0 247 -385 321q-186 -37 -281.5 -121t-95.5 -200zM307 1143q0 -102 85 -177t241 -106q158 33 246 107.5t88 175.5q0 111 -88 176t-246 65q-156 0 -241 -64.5t-85 -176.5z" />
<glyph unicode="9" horiz-adv-x="1269" d="M98 993q0 238 144.5 380.5t384.5 142.5q250 0 390 -148.5t140 -421.5q0 -428 -206 -680t-572 -286l-29 137q250 27 401.5 159t217.5 373l-4 2q-143 -160 -373 -159q-227 0 -360.5 134t-133.5 367zM262 993q0 -176 98.5 -275.5t266.5 -99.5q158 0 260 104.5t102 270.5 q0 182 -96 283.5t-266 101.5q-174 0 -269.5 -100t-95.5 -285z" />
<glyph unicode=":" horiz-adv-x="743" d="M276 0v287h191v-287h-191zM276 793v286h191v-286h-191z" />
<glyph unicode=";" horiz-adv-x="786" d="M164 -225l149 506h207l-205 -506h-151zM303 793v286h193v-286h-193z" />
<glyph unicode="&#x3c;" horiz-adv-x="1366" d="M133 510v168l1038 475v-143l-938 -414v-4l938 -414v-143z" />
<glyph unicode="=" horiz-adv-x="1542" d="M184 293v131h1174v-131h-1174zM184 764v131h1174v-131h-1174z" />
<glyph unicode="&#x3e;" horiz-adv-x="1366" d="M195 35v143l935 414v4l-935 414v143l1038 -475v-168z" />
<glyph unicode="?" horiz-adv-x="1251" d="M133 1444q242 72 488 72q240 0 368.5 -89.5t128.5 -244.5q0 -96 -43 -173t-86 -112t-127 -92q-66 -43 -98.5 -69.5t-76.5 -74t-62.5 -105.5t-18.5 -132h-164q0 90 22.5 160.5t73 127t86 85t105.5 75.5q57 39 85 60.5t66 59.5t53 80t15 95q0 209 -348 209q-213 0 -436 -71 zM436 0v252h176v-252h-176z" />
<glyph unicode="@" horiz-adv-x="1685" d="M82 532q0 334 216 548t546 214q336 0 548 -211t212 -551q0 -236 -113 -419h-447l-4 118h-4q-100 -135 -268 -135q-152 0 -245 115t-93 321q0 209 91 323t247 114q166 0 270 -133h2v116h160v-716h215q66 131 66 296q0 287 -176.5 463t-460.5 176q-283 0 -461 -178 t-178 -460.5t178 -460.5t461 -178q217 0 379 114l71 -98q-193 -139 -450 -139q-328 0 -545 213t-217 548zM592 532.5q0 -145.5 60.5 -224.5t160.5 -79q102 0 160.5 74t58.5 211v37q0 135 -59.5 210t-159.5 75q-104 0 -162.5 -79t-58.5 -224.5z" />
<glyph unicode="A" d="M72 0l546 1495h185l545 -1495h-174l-152 436h-631l-149 -436h-170zM436 567h541l-268 781h-4z" />
<glyph unicode="B" horiz-adv-x="1224" d="M174 12v1471q180 33 363 33q538 0 538 -362q0 -128 -82 -218t-225 -121v-4q180 -27 277.5 -127t97.5 -254q0 -450 -583 -450h-3q-193 0 -383 32zM338 131q100 -18 219 -18h3q423 0 423 331q0 152 -120 223.5t-388 71.5h-137v-608zM338 870h137q446 0 447 263 q0 127 -92 188t-293 61q-106 0 -199 -18v-494z" />
<glyph unicode="C" horiz-adv-x="1423" d="M82 748q0 354 200.5 561t542.5 207q264 0 465 -132l-55 -122q-182 116 -395 116q-270 0 -431 -171t-161 -459.5t165 -459.5t427 -171q213 0 395 116l55 -122q-201 -131 -465 -131q-338 0 -540.5 208.5t-202.5 559.5z" />
<glyph unicode="D" horiz-adv-x="1396" d="M174 12v1471q184 33 363 33q375 0 576.5 -194t201.5 -554q0 -387 -201 -587.5t-577 -200.5q-182 0 -363 32zM338 135q92 -18 199 -18q620 0 620 649q0 305 -157.5 458.5t-462.5 153.5q-106 0 -199 -18v-1225z" />
<glyph unicode="E" horiz-adv-x="1202" d="M174 0v1495h875v-137h-711v-488h670v-131h-670v-602h711v-137h-875z" />
<glyph unicode="F" horiz-adv-x="1171" d="M174 0v1495h854v-137h-690v-508h649v-131h-649v-719h-164z" />
<glyph unicode="G" horiz-adv-x="1525" d="M82 747.5q0 350.5 209 559.5t563 209q260 0 463 -123l-55 -121q-185 110 -396 110q-289 0 -453.5 -172t-164.5 -462q0 -293 171 -464t462 -171q182 0 333 67v559h-518v131h676v-778q-229 -112 -501 -112h-5q-356 0 -570 208.5t-214 559z" />
<glyph unicode="H" horiz-adv-x="1454" d="M174 0v1495h164v-625h778v625h164v-1495h-164v739h-778v-739h-164z" />
<glyph unicode="I" horiz-adv-x="649" d="M236 0v1495h178v-1495h-178z" />
<glyph unicode="J" horiz-adv-x="1079" d="M51 55l39 138q145 -76 283 -76q381 0 381 456v922h172v-948q0 -295 -136.5 -431t-416.5 -136q-174 0 -322 75z" />
<glyph unicode="K" horiz-adv-x="1296" d="M174 0v1495h164v-666h4l664 666h198l-719 -717l740 -778h-197l-686 729h-4v-729h-164z" />
<glyph unicode="L" horiz-adv-x="1198" d="M174 0v1495h170v-1356h731v-139h-901z" />
<glyph unicode="M" horiz-adv-x="1755" d="M174 0v1495h166l532 -901h5l532 901h172v-1495h-164v1221h-4l-463 -777h-151l-463 777h-4v-1221h-158z" />
<glyph unicode="N" horiz-adv-x="1460" d="M174 0v1495h170l778 -1229h4v1229h160v-1495h-168l-778 1229h-4v-1229h-162z" />
<glyph unicode="O" horiz-adv-x="1624" d="M82 747.5q0 348.5 200.5 558.5t530.5 210t529.5 -210t199.5 -558.5t-199.5 -558t-529.5 -209.5t-530.5 209.5t-200.5 558zM248 747.5q0 -288.5 154.5 -459.5t410.5 -171q254 0 408.5 171t154.5 459.5t-154.5 459.5t-408.5 171q-256 0 -410.5 -171t-154.5 -459.5z" />
<glyph unicode="P" horiz-adv-x="1228" d="M174 0v1483q213 33 416 33q279 0 423 -118t144 -337q0 -238 -145.5 -360.5t-421.5 -122.5q-135 0 -252 12v-590h-164zM338 725q119 -16 240 -16q203 0 310 88t107 251.5t-105.5 248.5t-311.5 85q-113 0 -240 -20v-637z" />
<glyph unicode="Q" horiz-adv-x="1607" d="M82 747.5q0 348.5 200.5 558.5t530.5 210t529.5 -210t199.5 -558q0 -244 -109.5 -423.5t-304.5 -265.5v-4q154 -43 281 -137t209 -225h-195q-109 162 -241.5 224.5t-368.5 62.5q-330 0 -530.5 209.5t-200.5 558zM248 747.5q0 -288.5 154.5 -459.5t410.5 -171 q254 0 408.5 171t154.5 459.5t-154.5 459.5t-408.5 171q-256 0 -410.5 -171t-154.5 -459.5z" />
<glyph unicode="R" horiz-adv-x="1269" d="M174 0v1485q178 31 383 31q287 0 433.5 -105.5t146.5 -300.5q0 -156 -84 -260.5t-238 -142.5v-5q92 -49 182 -266l181 -436h-170l-177 432q-61 147 -115 183t-214 36h-164v-651h-164zM338 782h164q244 0 358.5 79t114.5 235q0 286 -429 286h-3q-109 0 -205 -18v-582z" />
<glyph unicode="S" horiz-adv-x="1173" d="M123 109l49 135q178 -127 401 -127q152 0 233 69.5t81 202.5q0 123 -68.5 195.5t-240.5 126.5q-449 133 -449 436q0 168 122 268.5t337 100.5q231 0 430 -97l-41 -127q-178 90 -389 90q-141 0 -219 -62.5t-78 -172.5q0 -199 291 -287q254 -74 361.5 -184.5t107.5 -286.5 q0 -199 -124 -304t-354 -105q-254 0 -450 129z" />
<glyph unicode="T" horiz-adv-x="1337" d="M123 1356v139h1091v-139h-462v-1356h-164v1356h-465z" />
<glyph unicode="U" horiz-adv-x="1398" d="M154 588v907h165v-915q0 -461 383 -461t383 461v915h160v-907q0 -299 -140 -453.5t-404.5 -154.5t-405.5 154.5t-141 453.5z" />
<glyph unicode="V" d="M72 1495h176l463 -1333h4l463 1333h170l-545 -1495h-185z" />
<glyph unicode="W" horiz-adv-x="1951" d="M92 1495h168l301 -1319h4l307 1319h213l308 -1319h4l301 1319h162l-367 -1495h-207l-307 1319h-4l-309 -1319h-205z" />
<glyph unicode="X" horiz-adv-x="1331" d="M92 0l469 758l-459 737h191l373 -623h4l374 623h185l-459 -737l469 -758h-192l-381 643h-4l-383 -643h-187z" />
<glyph unicode="Y" horiz-adv-x="1372" d="M61 1495h193l432 -725h4l434 725h187l-539 -862v-633h-172v633z" />
<glyph unicode="Z" horiz-adv-x="1304" d="M154 0v137l804 1217v4h-804v137h997v-137l-805 -1217v-4h805v-137h-997z" />
<glyph unicode="[" horiz-adv-x="962" d="M236 -287v1864h552v-123h-403v-1618h403v-123h-552z" />
<glyph unicode="\" horiz-adv-x="1038" d="M102 1495h158l707 -1577h-160z" />
<glyph unicode="]" horiz-adv-x="962" d="M174 -164h404v1618h-404v123h553v-1864h-553v123z" />
<glyph unicode="^" horiz-adv-x="1337" d="M82 573l487 922h199l487 -922h-168l-417 818h-2l-418 -818h-168z" />
<glyph unicode="_" horiz-adv-x="1193" d="M-4 -164h1202v-123h-1202v123z" />
<glyph unicode="`" horiz-adv-x="569" d="M31 1659h221l235 -506h-137z" />
<glyph unicode="a" horiz-adv-x="1122" d="M102 287q0 178 156 283.5t442 105.5h109v10q0 156 -58.5 216.5t-207.5 60.5q-193 0 -359 -95l-26 121q176 96 385 96q223 0 319 -92t96 -303v-403q0 -145 31 -287h-143q-16 80 -21 188h-4q-55 -98 -159.5 -153t-235.5 -55q-147 0 -235.5 82.5t-88.5 224.5zM250 293 q0 -92 57.5 -144.5t153.5 -52.5q141 0 244.5 101.5t103.5 248.5v115h-109q-215 0 -332.5 -72.5t-117.5 -195.5z" />
<glyph unicode="b" horiz-adv-x="1183" d="M164 0v1536h149v-645h4q112 194 343 194h2q201 0 315.5 -142t114.5 -411q0 -264 -116.5 -408t-313.5 -144q-236 0 -349 200h-4l-2 -180h-143zM313 518q0 -199 88 -307.5t228 -108.5q145 0 230 111.5t85 318.5q0 209 -83 320t-232 111q-139 0 -227.5 -111t-88.5 -305v-29z " />
<glyph unicode="c" horiz-adv-x="1069" d="M82 532q0 260 141.5 406.5t390.5 146.5q168 0 322 -71l-41 -125q-137 72 -274 72q-180 0 -280.5 -112t-100.5 -317q0 -197 105.5 -313.5t275.5 -116.5q143 0 274 70l41 -121q-152 -71 -317 -71h-5q-238 0 -385 150.5t-147 401.5z" />
<glyph unicode="d" horiz-adv-x="1183" d="M92 532q0 268 115 410.5t315 142.5q231 0 344 -194h4v645h150v-1536h-143l-3 180h-4q-112 -200 -346 -200h-2q-197 0 -313.5 144t-116.5 408zM240 532.5q0 -206.5 86 -318.5t231 -112q139 0 226 108.5t87 307.5v29q0 195 -87 305.5t-226 110.5q-150 0 -233.5 -112 t-83.5 -318.5z" />
<glyph unicode="e" horiz-adv-x="1130" d="M82 532q0 258 132 405.5t359 147.5q221 0 343 -140t122 -402q0 -27 -4 -68h-798q4 -174 106 -274.5t266 -100.5q158 0 314 82l41 -116q-172 -86 -369 -86q-229 0 -370.5 149.5t-141.5 402.5zM236 594h655q-2 178 -86 274.5t-232 96.5q-154 0 -242.5 -97.5t-94.5 -273.5z " />
<glyph unicode="f" horiz-adv-x="1069" d="M113 901v123h280v137q0 354 340 355q94 0 193 -31l-33 -123q-76 31 -145 31q-111 0 -157 -52.5t-46 -179.5v-137h366v-123h-366v-901h-152v901h-280z" />
<glyph unicode="g" horiz-adv-x="1173" d="M92 553q0 256 112.5 394t311.5 138q240 0 354 -198h4l3 178h143v-977q0 -559 -498 -559q-174 0 -332 65l35 121q145 -63 297 -63q180 0 264 100.5t84 329.5v131h-4q-111 -193 -350 -193q-186 0 -305 144.5t-119 388.5zM240 553q0 -190 85 -300t224 -110q141 0 231 106.5 t90 293.5v20q0 184 -90 292t-231 108q-145 0 -227 -105.5t-82 -304.5z" />
<glyph unicode="h" horiz-adv-x="1173" d="M164 0v1536h149v-653h4q134 202 357 202h2q180 0 267 -111.5t87 -352.5v-621h-147v608q0 199 -57.5 276t-196.5 77q-123 0 -219.5 -120t-96.5 -272v-569h-149z" />
<glyph unicode="i" horiz-adv-x="628" d="M236 0v1065h157v-1065h-157zM236 1311v225h157v-225h-157z" />
<glyph unicode="j" horiz-adv-x="710" d="M-51 -346q223 0 294.5 68.5t71.5 289.5v1053h160v-1045q0 -287 -108.5 -389t-411.5 -102zM315 1311v225h160v-225h-160z" />
<glyph unicode="k" horiz-adv-x="1150" d="M164 0v1536h149v-920h4l537 449h195l-609 -506l619 -559h-195l-547 502h-4v-502h-149z" />
<glyph unicode="l" horiz-adv-x="628" d="M236 0v1536h157v-1536h-157z" />
<glyph unicode="m" horiz-adv-x="1648" d="M154 0v1065h143l2 -176h4q112 196 279 196h2q205 0 286 -204h4q108 204 308 204h2q166 0 243.5 -97t77.5 -312v-676h-147v635q0 186 -47 257t-160 71q-98 0 -172 -98.5t-74 -239.5v-625h-147v635q0 184 -48 256t-161 72q-92 0 -169 -107.5t-77 -257.5v-598h-149z" />
<glyph unicode="n" horiz-adv-x="1163" d="M154 0v1065h143l2 -191h4q61 98 156.5 154.5t206.5 56.5q180 0 267 -111.5t87 -352.5v-621h-148v608q0 199 -57 276t-197 77q-119 0 -217 -118t-98 -274v-569h-149z" />
<glyph unicode="o" horiz-adv-x="1167" d="M82 532.5q0 253.5 137 403t364.5 149.5t364.5 -149.5t137 -403t-137 -403t-364.5 -149.5t-364.5 149.5t-137 403zM236 532.5q0 -202.5 93 -316.5t254.5 -114t255 114t93.5 316.5t-93.5 316.5t-255 114t-254.5 -114t-93 -316.5z" />
<glyph unicode="p" horiz-adv-x="1173" d="M154 -451v1516h143l2 -180h4q112 200 346 200h2q201 0 315.5 -142t114.5 -411q0 -262 -117.5 -407t-312.5 -145q-231 0 -344 186h-4v-617h-149zM303 518q0 -199 88 -307.5t227 -108.5q145 0 230.5 111.5t85.5 318.5q0 209 -83 320t-233 111q-141 0 -228 -111t-87 -305 v-29z" />
<glyph unicode="q" horiz-adv-x="1173" d="M92 532q0 268 115 410.5t315 142.5q236 0 348 -200h4l3 180h143v-1516h-150v617h-4q-113 -186 -344 -186q-195 0 -312.5 145t-117.5 407zM240 532.5q0 -206.5 86 -318.5t231 -112q139 0 226 108.5t87 307.5v29q0 195 -86 305.5t-227 110.5q-150 0 -233.5 -112 t-83.5 -318.5z" />
<glyph unicode="r" horiz-adv-x="927" d="M154 0v1065h145l4 -227h4q179 247 505 247h3v-129q-227 0 -367.5 -124.5t-140.5 -323.5v-508h-153z" />
<glyph unicode="s" horiz-adv-x="1017" d="M113 82l34 121q168 -100 359 -101q119 0 182.5 46.5t63.5 132.5q0 82 -56.5 127t-197.5 69q-203 35 -294 112t-91 210q0 131 103.5 208.5t289.5 77.5q195 0 360 -81l-32 -121q-158 80 -328 80q-119 0 -181.5 -43t-62.5 -121q0 -74 54.5 -117t197.5 -68 q209 -35 300 -114.5t91 -219t-105.5 -220t-293.5 -80.5q-219 0 -393 102z" />
<glyph unicode="t" horiz-adv-x="1048" d="M102 901v123h236v389h154v-389h403v-123h-403v-559q0 -143 38.5 -191.5t145.5 -48.5q94 0 180 35l25 -121q-101 -36 -220 -36h-6q-174 0 -245.5 74.5t-71.5 258.5v588h-236z" />
<glyph unicode="u" horiz-adv-x="1142" d="M143 389v676h148v-662q0 -164 54 -229t181 -65q119 0 216.5 114.5t97.5 272.5v569h149v-1065h-143l-2 190h-4q-61 -98 -156.5 -154t-206.5 -56q-172 0 -253 97t-81 312z" />
<glyph unicode="v" horiz-adv-x="1140" d="M72 1065h168l331 -973h4l330 973h164l-393 -1065h-211z" />
<glyph unicode="w" horiz-adv-x="1658" d="M92 1065h168l236 -930h4l227 930h211l227 -930h4l236 930h162l-303 -1065h-205l-228 915h-4l-227 -915h-205z" />
<glyph unicode="x" horiz-adv-x="1132" d="M102 0l375 541l-364 524h176l278 -424h4l279 424h170l-363 -524l373 -541h-176l-289 442h-4l-287 -442h-172z" />
<glyph unicode="y" horiz-adv-x="1140" d="M72 1065h166l317 -877h4l350 877h160l-635 -1516h-160l201 457z" />
<glyph unicode="z" horiz-adv-x="1120" d="M154 0v123l624 815v4h-624v123h813v-123l-625 -815v-4h625v-123h-813z" />
<glyph unicode="{" horiz-adv-x="1050" d="M123 580v131h88q172 0 172 252v307q0 164 65.5 235.5t213.5 71.5h204v-123h-135q-111 0 -155 -43t-44 -182v-273q0 -231 -170 -309v-4q170 -78 170 -309v-273q0 -139 44.5 -182t154.5 -43h135v-123h-204q-147 0 -213 72t-66 235v308q0 252 -172 252h-88z" />
<glyph unicode="|" horiz-adv-x="702" d="M276 -451v2110h150v-2110h-150z" />
<glyph unicode="}" horiz-adv-x="1050" d="M184 -164h138q111 0 153.5 43t42.5 182v273q0 231 172 309v4q-172 78 -172 309v273q0 139 -43 182t-153 43h-138v123h205q147 0 214 -71.5t67 -235.5v-307q0 -252 170 -252h88v-131h-88q-170 0 -170 -252v-308q0 -164 -66.5 -235.5t-214.5 -71.5h-205v123z" />
<glyph unicode="~" horiz-adv-x="1413" d="M113 451q0 342 252 342q135 0 380 -115q195 -90 283 -90q70 0 102.5 44t32.5 140h137q0 -322 -251 -321q-135 -1 -381 114q-195 90 -283 90q-70 0 -102.5 -47t-32.5 -157h-137z" />
<glyph unicode="&#xa1;" horiz-adv-x="661" d="M236 -451l20 1100h150l20 -1100h-190zM242 813v252h178v-252h-178z" />
<glyph unicode="&#xa2;" horiz-adv-x="1122" d="M82 532q0 240 127 383t354 166v332h123v-330q156 -10 285 -69l-23 -125q-125 63 -262 69v-856q127 6 262 72l41 -123q-135 -59 -303 -69v-351h-123v353q-219 25 -350 171t-131 377zM240 532q0 -170 88 -282t235 -139v843q-156 -25 -239.5 -133t-83.5 -289z" />
<glyph unicode="&#xa3;" horiz-adv-x="1316" d="M154 0v137q90 6 154.5 98.5t64.5 241.5v215h-183v123h183v291q0 195 116.5 302.5t335.5 107.5q141 0 277 -54l-29 -135q-106 49 -229 49q-307 0 -307 -286v-275h501v-123h-501v-215q0 -115 -43 -205t-111 -131v-4h780v-137h-1009z" />
<glyph unicode="&#xa5;" horiz-adv-x="1392" d="M72 1495h192l432 -725h4l435 725h186l-483 -772h385v-109h-441v-194h441v-109h-441v-311h-172v311h-440v109h440v194h-440v109h385z" />
<glyph unicode="&#xa7;" horiz-adv-x="1064" d="M123 616q0 190 164 283q-154 93 -154 279q0 147 110.5 242.5t288.5 95.5q201 0 383 -91l-36 -131q-174 88 -332 88q-123 0 -193.5 -56t-70.5 -148q0 -86 56 -139.5t200 -82.5q215 -43 309 -132t94 -232q0 -190 -164 -283q154 -92 154 -278q0 -147 -110.5 -242.5 t-289.5 -95.5q-201 0 -382 90l36 131q174 -88 332 -88q123 0 193.5 56.5t70.5 148.5q0 86 -56 139t-200 82q-215 43 -309 132t-94 232zM256 639q0 -98 65.5 -156.5t223.5 -91.5q72 -14 112 -29q152 57 152 207q0 98 -65.5 156.5t-223.5 91.5q-71 15 -112 29 q-152 -57 -152 -207z" />
<glyph unicode="&#xa8;" horiz-adv-x="907" d="M174 1249v260h150v-260h-150zM584 1249v260h149v-260h-149z" />
<glyph unicode="&#xa9;" horiz-adv-x="1673" d="M82 747.5q0 311.5 221 532.5t532.5 221t533.5 -221t222 -532.5t-222 -532.5t-533.5 -221t-532.5 221t-221 532.5zM190 747.5q0 -268.5 189.5 -457t456 -188.5t456 188.5t189.5 457t-189.5 457t-456 188.5t-456 -188.5t-189.5 -457zM408 748q0 207 124.5 325.5 t344.5 118.5q171 0 292 -78l-47 -100q-113 68 -233 67q-156 0 -245 -89t-89 -244q0 -154 92 -244t242 -90q119 0 233 67l47 -100q-121 -78 -292 -78q-213 0 -341 120t-128 325z" />
<glyph unicode="&#xaa;" horiz-adv-x="1329" d="M184 416v100h961v-100h-961zM285 879q0 143 125 227t354 84h80v6q0 117 -43 162t-154 45q-154 0 -293 -76l-24 113q141 76 319 76q182 0 261 -74t79 -248v-317q0 -115 25 -230h-140q-14 68 -16 131h-4q-100 -150 -305 -149q-121 0 -192.5 66.5t-71.5 183.5zM422 889 q0 -70 43 -110t117 -40q111 0 186.5 74t75.5 184v90h-80q-164 0 -253 -53t-89 -145z" />
<glyph unicode="&#xab;" horiz-adv-x="1474" d="M133 532v123l547 430v-147l-447 -342v-4l447 -342v-148zM733 532v123l547 430v-147l-444 -342v-4l444 -342v-148z" />
<glyph unicode="&#xac;" horiz-adv-x="1345" d="M123 764v131h1038v-582h-143v451h-895z" />
<glyph unicode="&#xad;" horiz-adv-x="935" d="M164 528v131h608v-131h-608z" />
<glyph unicode="&#xae;" horiz-adv-x="1673" d="M82 747.5q0 311.5 221 532.5t532.5 221t533.5 -221t222 -532.5t-222 -532.5t-533.5 -221t-532.5 221t-221 532.5zM190 747.5q0 -268.5 189.5 -457t456 -188.5t456 188.5t189.5 457t-189.5 457t-456 188.5t-456 -188.5t-189.5 -457zM532 313v863q109 16 269 16 q375 0 375 -244q0 -86 -53.5 -147.5t-149.5 -83.5v-2q63 -29 119 -154l110 -248h-149l-103 238q-37 80 -67.5 100.5t-112.5 20.5h-96v-359h-142zM674 776h100q258 0 258 160q0 150 -239 149q-57 0 -119 -10v-299z" />
<glyph unicode="&#xaf;" horiz-adv-x="956" d="M123 1317v123h711v-123h-711z" />
<glyph unicode="&#xb0;" horiz-adv-x="813" d="M92 1202q0 131 91 222.5t222.5 91.5t223.5 -91.5t92 -222.5t-92 -223t-223.5 -92t-222.5 92t-91 223zM215 1202q0 -80 55.5 -136t135 -56t136 56t56.5 136t-56.5 135.5t-136 55.5t-135 -55.5t-55.5 -135.5z" />
<glyph unicode="&#xb1;" horiz-adv-x="1542" d="M184 47h1174v-129h-1174v129zM184 700v129h518v502h138v-502h518v-129h-518v-501h-138v501h-518z" />
<glyph unicode="&#xb4;" horiz-adv-x="552" d="M82 1208l231 342h209l-286 -342h-154z" />
<glyph unicode="&#xb5;" horiz-adv-x="1153" d="M154 -451v1516h147v-662q0 -164 54.5 -229t181.5 -65q123 0 218 111.5t95 264.5v580h149v-1065h-143l-2 172h-4q-57 -90 -147.5 -141t-190.5 -51q-147 0 -211 81v-512h-147z" />
<glyph unicode="&#xb6;" horiz-adv-x="1290" d="M72 1024q0 195 138 333t333 138h573v-1782h-143v1653h-287v-1653h-143v840q-195 0 -333 138t-138 333z" />
<glyph unicode="&#xb7;" horiz-adv-x="579" d="M195 451v286h190v-286h-190z" />
<glyph unicode="&#xb8;" horiz-adv-x="851" d="M92 -401l23 122q94 -49 211 -49q223 0 223 156q0 98 -82 172h147q84 -98 84 -209q0 -106 -87 -174t-271 -68q-137 0 -248 50z" />
<glyph unicode="&#xba;" horiz-adv-x="1329" d="M184 416v100h961v-100h-961zM258 1073q0 205 109.5 324t298 119t298 -119t109.5 -324t-109.5 -323.5t-298 -118.5t-298 118.5t-109.5 323.5zM403 1073.5q0 -155.5 70 -242t192.5 -86.5t192.5 86.5t70 242t-70 241.5t-192.5 86t-192.5 -86t-70 -241.5z" />
<glyph unicode="&#xbb;" horiz-adv-x="1474" d="M195 102v148l444 342v4l-444 342v147l546 -430v-123zM795 102v148l446 342v4l-446 342v147l546 -430v-123z" />
<glyph unicode="&#xbf;" horiz-adv-x="1251" d="M133 -137q0 72 19.5 130t63.5 106t78 75t95 70q53 37 78 55t66.5 58t60 75t35 90.5t16.5 118.5h164q0 -94 -22.5 -169t-71.5 -131t-87 -87t-106 -78q-57 -41 -84.5 -62.5t-65.5 -59.5t-53.5 -81t-15.5 -96q0 -209 348 -209q213 0 436 72l31 -139q-242 -72 -487 -72 q-240 0 -369 89t-129 245zM639 813v252h176v-252h-176z" />
<glyph unicode="&#xc0;" d="M72 0l546 1495h185l545 -1495h-174l-152 436h-631l-149 -436h-170zM395 1960h207l234 -342h-154zM436 567h541l-268 781h-4z" />
<glyph unicode="&#xc1;" d="M72 0l546 1495h185l545 -1495h-174l-152 436h-631l-149 -436h-170zM436 567h541l-268 781h-4zM586 1618l231 342h209l-287 -342h-153z" />
<glyph unicode="&#xc2;" d="M72 0l546 1495h185l545 -1495h-174l-152 436h-631l-149 -436h-170zM317 1618l281 342h225l279 -342h-184l-205 270h-4l-205 -270h-187zM436 567h541l-268 781h-4z" />
<glyph unicode="&#xc3;" d="M72 0l546 1495h185l545 -1495h-174l-152 436h-631l-149 -436h-170zM332 1638q0 287 166 287q96 0 233 -92q113 -76 160 -76q67 1 67 148h132q0 -266 -168 -267q-92 0 -234 95q-109 74 -160 73q-68 0 -67 -168h-129zM436 567h541l-268 781h-4z" />
<glyph unicode="&#xc4;" d="M72 0l546 1495h185l545 -1495h-174l-152 436h-631l-149 -436h-170zM430 1659v260h150v-260h-150zM436 567h541l-268 781h-4zM840 1659v260h149v-260h-149z" />
<glyph unicode="&#xc5;" d="M72 0l546 1495h185l545 -1495h-174l-152 436h-631l-149 -436h-170zM436 567h541l-268 781h-4zM457 1822.5q0 104.5 74.5 178.5t179 74t178.5 -74t74 -178.5t-74 -178t-178.5 -73.5t-179 73.5t-74.5 178zM553 1822.5q0 -65.5 47 -111.5t110.5 -46t109.5 46t46 111.5 t-46 111.5t-109.5 46t-110.5 -46t-47 -111.5z" />
<glyph unicode="&#xc6;" horiz-adv-x="1746" d="M72 0l546 1495h975v-137h-614v-488h573v-131h-573v-602h614v-137h-770v436h-438l-149 -436h-164zM430 567h393v791h-118z" />
<glyph unicode="&#xc7;" horiz-adv-x="1423" d="M82 748q0 354 200.5 561t542.5 207q264 0 465 -132l-55 -122q-182 116 -395 116q-270 0 -431 -171t-161 -459.5t165 -459.5t427 -171q213 0 395 116l55 -122q-168 -109 -385 -127q72 -92 72 -193q0 -106 -87 -174t-272 -68q-139 0 -249 50l22 122q94 -49 211 -49 q225 0 225 156q0 84 -65 154q-311 20 -495.5 226t-184.5 540z" />
<glyph unicode="&#xc8;" horiz-adv-x="1202" d="M174 0v1495h875v-137h-711v-488h670v-131h-670v-602h711v-137h-875zM360 1960h209l232 -342h-154z" />
<glyph unicode="&#xc9;" horiz-adv-x="1202" d="M174 0v1495h875v-137h-711v-488h670v-131h-670v-602h711v-137h-875zM428 1618l231 342h209l-286 -342h-154z" />
<glyph unicode="&#xca;" horiz-adv-x="1202" d="M174 0v1495h875v-137h-711v-488h670v-131h-670v-602h711v-137h-875zM221 1618l281 342h225l281 -342h-187l-205 270h-4l-204 -270h-187z" />
<glyph unicode="&#xcb;" horiz-adv-x="1202" d="M174 0v1495h875v-137h-711v-488h670v-131h-670v-602h711v-137h-875zM334 1659v260h151v-260h-151zM743 1659v260h152v-260h-152z" />
<glyph unicode="&#xcc;" horiz-adv-x="649" d="M-27 1960h209l232 -342h-154zM236 0v1495h178v-1495h-178z" />
<glyph unicode="&#xcd;" horiz-adv-x="649" d="M236 0v1495h178v-1495h-178zM236 1618l231 342h209l-287 -342h-153z" />
<glyph unicode="&#xce;" horiz-adv-x="645" d="M-70 1618l281 342h225l279 -342h-185l-204 270h-4l-205 -270h-187zM233 0v1495h179v-1495h-179z" />
<glyph unicode="&#xcf;" horiz-adv-x="649" d="M45 1659v260h150v-260h-150zM236 0v1495h178v-1495h-178zM455 1659v260h149v-260h-149z" />
<glyph unicode="&#xd0;" horiz-adv-x="1531" d="M72 715v131h239v637q184 33 361 33q375 0 576.5 -194t201.5 -554q0 -387 -200.5 -587.5t-577.5 -200.5q-180 0 -361 32v703h-239zM475 135q92 -18 197 -18q623 0 622 651q0 301 -157.5 455.5t-464.5 154.5q-104 0 -197 -18v-514h375v-131h-375v-580z" />
<glyph unicode="&#xd1;" horiz-adv-x="1460" d="M174 0v1495h170l778 -1229h4v1229h160v-1495h-168l-778 1229h-4v-1229h-162zM352 1638q0 287 166 287q97 0 234 -92q115 -76 159 -76q68 0 68 148h131q0 -266 -168 -267q-92 0 -233 95q-109 74 -160 73q-68 0 -68 -168h-129z" />
<glyph unicode="&#xd2;" horiz-adv-x="1624" d="M82 747.5q0 348.5 200.5 558.5t530.5 210t529.5 -210t199.5 -558.5t-199.5 -558t-529.5 -209.5t-530.5 209.5t-200.5 558zM248 747.5q0 -288.5 154.5 -459.5t410.5 -171q254 0 408.5 171t154.5 459.5t-154.5 459.5t-408.5 171q-256 0 -410.5 -171t-154.5 -459.5z M498 1960h207l233 -342h-154z" />
<glyph unicode="&#xd3;" horiz-adv-x="1624" d="M82 747.5q0 348.5 200.5 558.5t530.5 210t529.5 -210t199.5 -558.5t-199.5 -558t-529.5 -209.5t-530.5 209.5t-200.5 558zM248 747.5q0 -288.5 154.5 -459.5t410.5 -171q254 0 408.5 171t154.5 459.5t-154.5 459.5t-408.5 171q-256 0 -410.5 -171t-154.5 -459.5z M688 1618l232 342h208l-286 -342h-154z" />
<glyph unicode="&#xd4;" horiz-adv-x="1624" d="M82 747.5q0 348.5 200.5 558.5t530.5 210t529.5 -210t199.5 -558.5t-199.5 -558t-529.5 -209.5t-530.5 209.5t-200.5 558zM248 747.5q0 -288.5 154.5 -459.5t410.5 -171q254 0 408.5 171t154.5 459.5t-154.5 459.5t-408.5 171q-256 0 -410.5 -171t-154.5 -459.5z M420 1618l280 342h226l278 -342h-184l-205 270h-4l-205 -270h-186z" />
<glyph unicode="&#xd5;" horiz-adv-x="1624" d="M82 747.5q0 348.5 200.5 558.5t530.5 210t529.5 -210t199.5 -558.5t-199.5 -558t-529.5 -209.5t-530.5 209.5t-200.5 558zM248 747.5q0 -288.5 154.5 -459.5t410.5 -171q254 0 408.5 171t154.5 459.5t-154.5 459.5t-408.5 171q-256 0 -410.5 -171t-154.5 -459.5z M434 1638q0 287 166 287q96 0 234 -92q113 -76 159 -76q68 0 68 148h131q0 -266 -168 -267q-92 0 -233 95q-109 74 -160 73q-68 0 -68 -168h-129z" />
<glyph unicode="&#xd6;" horiz-adv-x="1624" d="M82 747.5q0 348.5 200.5 558.5t530.5 210t529.5 -210t199.5 -558.5t-199.5 -558t-529.5 -209.5t-530.5 209.5t-200.5 558zM248 747.5q0 -288.5 154.5 -459.5t410.5 -171q254 0 408.5 171t154.5 459.5t-154.5 459.5t-408.5 171q-256 0 -410.5 -171t-154.5 -459.5z M532 1659v260h150v-260h-150zM942 1659v260h150v-260h-150z" />
<glyph unicode="&#xd8;" horiz-adv-x="1644" d="M92 748q0 348 201 558t530 210q231 0 404 -107l112 150l115 -86l-115 -152q213 -213 213 -573q0 -348 -199.5 -558t-529.5 -210q-233 0 -405 106l-111 -149l-114 86l112 151q-213 214 -213 574zM258 748q0 -275 143 -447l738 989q-135 88 -316 88q-256 0 -410.5 -171 t-154.5 -459zM508 205q135 -88 315 -88q254 0 408.5 171t154.5 460q0 276 -141 446z" />
<glyph unicode="&#xd9;" horiz-adv-x="1398" d="M154 588v907h165v-915q0 -461 383 -461t383 461v915h160v-907q0 -299 -140 -453.5t-404.5 -154.5t-405.5 154.5t-141 453.5zM446 1960h207l234 -342h-154z" />
<glyph unicode="&#xda;" horiz-adv-x="1398" d="M154 588v907h165v-915q0 -461 383 -461t383 461v915h160v-907q0 -299 -140 -453.5t-404.5 -154.5t-405.5 154.5t-141 453.5zM514 1618l231 342h209l-286 -342h-154z" />
<glyph unicode="&#xdb;" horiz-adv-x="1398" d="M154 588v907h165v-915q0 -461 383 -461t383 461v915h160v-907q0 -299 -140 -453.5t-404.5 -154.5t-405.5 154.5t-141 453.5zM307 1618l281 342h225l279 -342h-185l-205 270h-4l-204 -270h-187z" />
<glyph unicode="&#xdc;" horiz-adv-x="1398" d="M154 588v907h165v-915q0 -461 383 -461t383 461v915h160v-907q0 -299 -140 -453.5t-404.5 -154.5t-405.5 154.5t-141 453.5zM420 1659v260h149v-260h-149zM829 1659v260h150v-260h-150z" />
<glyph unicode="&#xdd;" horiz-adv-x="1372" d="M61 1495h193l432 -725h4l434 725h187l-539 -862v-633h-172v633zM500 1618l231 342h209l-287 -342h-153z" />
<glyph unicode="&#xde;" horiz-adv-x="1249" d="M174 0v1495h164v-240q117 14 252 15q279 0 423 -118t144 -337q0 -238 -145.5 -360.5t-421.5 -122.5q-135 0 -252 12v-344h-164zM338 479q119 -16 240 -16q203 0 310 88t107 252t-105.5 249t-311.5 85q-113 0 -240 -21v-637z" />
<glyph unicode="&#xdf;" horiz-adv-x="1214" d="M164 0v1112q0 238 103.5 341t346.5 103q215 0 326 -72.5t111 -207.5q0 -68 -36 -143.5t-79 -129t-79 -104t-36 -70.5q0 -23 48.5 -76t107.5 -112t107.5 -148.5t48.5 -175.5q0 -338 -390 -337q-133 0 -292 40l14 140q154 -41 262 -41q244 0 244 223q0 61 -50.5 136 t-109.5 132.5t-109.5 119t-50.5 99.5q0 41 61.5 116t123 162t61.5 157q0 160 -276 159q-170 0 -231.5 -64.5t-61.5 -242.5v-1116h-164z" />
<glyph unicode="&#xe0;" horiz-adv-x="1122" d="M102 287q0 178 156 283.5t442 105.5h109v10q0 156 -58.5 216.5t-207.5 60.5q-193 0 -359 -95l-26 121q176 96 385 96q223 0 319 -92t96 -303v-403q0 -145 31 -287h-143q-16 80 -21 188h-4q-55 -98 -159.5 -153t-235.5 -55q-147 0 -235.5 82.5t-88.5 224.5zM250 293 q0 -92 57.5 -144.5t153.5 -52.5q141 0 244.5 101.5t103.5 248.5v115h-109q-215 0 -332.5 -72.5t-117.5 -195.5zM254 1550h209l231 -342h-153z" />
<glyph unicode="&#xe1;" horiz-adv-x="1122" d="M102 287q0 178 156 283.5t442 105.5h109v10q0 156 -58.5 216.5t-207.5 60.5q-193 0 -359 -95l-26 121q176 96 385 96q223 0 319 -92t96 -303v-403q0 -145 31 -287h-143q-16 80 -21 188h-4q-55 -98 -159.5 -153t-235.5 -55q-147 0 -235.5 82.5t-88.5 224.5zM250 293 q0 -92 57.5 -144.5t153.5 -52.5q141 0 244.5 101.5t103.5 248.5v115h-109q-215 0 -332.5 -72.5t-117.5 -195.5zM444 1208l234 342h207l-287 -342h-154z" />
<glyph unicode="&#xe2;" horiz-adv-x="1122" d="M102 287q0 178 156 283.5t442 105.5h109v10q0 156 -58.5 216.5t-207.5 60.5q-193 0 -359 -95l-26 121q176 96 385 96q223 0 319 -92t96 -303v-403q0 -145 31 -287h-143q-16 80 -21 188h-4q-55 -98 -159.5 -153t-235.5 -55q-147 0 -235.5 82.5t-88.5 224.5zM178 1208 l279 342h225l281 -342h-187l-205 271h-4l-205 -271h-184zM250 293q0 -92 57.5 -144.5t153.5 -52.5q141 0 244.5 101.5t103.5 248.5v115h-109q-215 0 -332.5 -72.5t-117.5 -195.5z" />
<glyph unicode="&#xe3;" horiz-adv-x="1122" d="M102 287q0 178 156 283.5t442 105.5h109v10q0 156 -58.5 216.5t-207.5 60.5q-193 0 -359 -95l-26 121q176 96 385 96q223 0 319 -92t96 -303v-403q0 -145 31 -287h-143q-16 80 -21 188h-4q-55 -98 -159.5 -153t-235.5 -55q-147 0 -235.5 82.5t-88.5 224.5zM190 1208 q0 287 168 287q93 0 232 -92q115 -76 162 -76q68 0 67 148h129q0 -266 -166 -267q-92 0 -233 95q-109 74 -160 73q-68 0 -67 -168h-132zM250 293q0 -92 57.5 -144.5t153.5 -52.5q141 0 244.5 101.5t103.5 248.5v115h-109q-215 0 -332.5 -72.5t-117.5 -195.5z" />
<glyph unicode="&#xe4;" horiz-adv-x="1122" d="M102 287q0 178 156 283.5t442 105.5h109v10q0 156 -58.5 216.5t-207.5 60.5q-193 0 -359 -95l-26 121q176 96 385 96q223 0 319 -92t96 -303v-403q0 -145 31 -287h-143q-16 80 -21 188h-4q-55 -98 -159.5 -153t-235.5 -55q-147 0 -235.5 82.5t-88.5 224.5zM250 293 q0 -92 57.5 -144.5t153.5 -52.5q141 0 244.5 101.5t103.5 248.5v115h-109q-215 0 -332.5 -72.5t-117.5 -195.5zM291 1249v260h149v-260h-149zM700 1249v260h150v-260h-150z" />
<glyph unicode="&#xe5;" horiz-adv-x="1122" d="M102 287q0 178 156 283.5t442 105.5h109v10q0 156 -58.5 216.5t-207.5 60.5q-193 0 -359 -95l-26 121q176 96 385 96q223 0 319 -92t96 -303v-403q0 -145 31 -287h-143q-16 80 -21 188h-4q-55 -98 -159.5 -153t-235.5 -55q-147 0 -235.5 82.5t-88.5 224.5zM250 293 q0 -92 57.5 -144.5t153.5 -52.5q141 0 244.5 101.5t103.5 248.5v115h-109q-215 0 -332.5 -72.5t-117.5 -195.5zM317 1392.5q0 104.5 74 178.5t178.5 74t179 -74t74.5 -178.5t-74.5 -178t-179 -73.5t-178.5 73.5t-74 178zM414 1392.5q0 -65.5 46 -111.5t109 -46q66 0 112 46 t46 111.5t-46 111.5t-112 46q-63 0 -109 -46t-46 -111.5z" />
<glyph unicode="&#xe6;" horiz-adv-x="1818" d="M102 287q0 170 157 279.5t441 109.5h119v6q-2 164 -63.5 222.5t-212.5 58.5q-193 0 -359 -95l-26 121q176 96 385 96q299 0 381 -176q125 176 350 176q217 0 334.5 -139t117.5 -403q0 -47 -2 -68h-759q4 -170 100 -272.5t242 -102.5q162 0 307 80l41 -114 q-166 -86 -361 -86q-133 0 -239.5 64.5t-167.5 182.5q-125 -248 -461 -247q-147 0 -235.5 82.5t-88.5 224.5zM250 293q0 -92 57.5 -144.5t153.5 -52.5q162 0 260 105.5t98 290.5v69h-119q-211 0 -330.5 -76.5t-119.5 -191.5zM965 594h616q-2 178 -83 274.5t-224 96.5 q-135 0 -220 -98.5t-89 -272.5z" />
<glyph unicode="&#xe7;" horiz-adv-x="1069" d="M82 532q0 260 141.5 406.5t390.5 146.5q168 0 322 -71l-41 -125q-137 72 -274 72q-180 0 -280.5 -112t-100.5 -317q0 -197 105.5 -313.5t275.5 -116.5q143 0 274 70l41 -121q-102 -49 -209 -63q76 -96 76 -197q0 -106 -87 -174t-272 -68q-139 0 -249 50l22 122 q94 -49 211 -49q225 0 225 156q0 86 -63 152q-227 8 -367.5 157.5t-140.5 394.5z" />
<glyph unicode="&#xe8;" horiz-adv-x="1130" d="M82 532q0 258 132 405.5t359 147.5q221 0 343 -140t122 -402q0 -27 -4 -68h-798q4 -174 106 -274.5t266 -100.5q158 0 314 82l41 -116q-172 -86 -369 -86q-229 0 -370.5 149.5t-141.5 402.5zM236 594h655q-2 178 -86 274.5t-232 96.5q-154 0 -242.5 -97.5t-94.5 -273.5z M326 1550h209l231 -342h-154z" />
<glyph unicode="&#xe9;" horiz-adv-x="1130" d="M82 532q0 258 132 405.5t359 147.5q221 0 343 -140t122 -402q0 -27 -4 -68h-798q4 -174 106 -274.5t266 -100.5q158 0 314 82l41 -116q-172 -86 -369 -86q-229 0 -370.5 149.5t-141.5 402.5zM236 594h655q-2 178 -86 274.5t-232 96.5q-154 0 -242.5 -97.5t-94.5 -273.5z M393 1208l234 342h207l-287 -342h-154z" />
<glyph unicode="&#xea;" horiz-adv-x="1130" d="M82 532q0 258 132 405.5t359 147.5q221 0 343 -140t122 -402q0 -27 -4 -68h-798q4 -174 106 -274.5t266 -100.5q158 0 314 82l41 -116q-172 -86 -369 -86q-229 0 -370.5 149.5t-141.5 402.5zM188 1208l279 342h225l281 -342h-187l-204 271h-4l-205 -271h-185zM236 594 h655q-2 178 -86 274.5t-232 96.5q-154 0 -242.5 -97.5t-94.5 -273.5z" />
<glyph unicode="&#xeb;" horiz-adv-x="1130" d="M82 532q0 258 132 405.5t359 147.5q221 0 343 -140t122 -402q0 -27 -4 -68h-798q4 -174 106 -274.5t266 -100.5q158 0 314 82l41 -116q-172 -86 -369 -86q-229 0 -370.5 149.5t-141.5 402.5zM236 594h655q-2 178 -86 274.5t-232 96.5q-154 0 -242.5 -97.5t-94.5 -273.5z M301 1249v260h150v-260h-150zM711 1249v260h149v-260h-149z" />
<glyph unicode="&#xec;" horiz-adv-x="651" d="M-25 1550h209l232 -342h-154zM258 0v1065h158v-1065h-158z" />
<glyph unicode="&#xed;" horiz-adv-x="651" d="M236 0v1065h157v-1065h-157zM236 1208l231 342h209l-287 -342h-153z" />
<glyph unicode="&#xee;" horiz-adv-x="628" d="M-78 1208l281 342h225l279 -342h-185l-205 271h-4l-204 -271h-187zM236 0v1065h157v-1065h-157z" />
<glyph unicode="&#xef;" horiz-adv-x="628" d="M35 1249v260h149v-260h-149zM236 0v1065h157v-1065h-157zM444 1249v260h150v-260h-150z" />
<glyph unicode="&#xf0;" horiz-adv-x="1146" d="M92 532q0 244 131 391.5t350 147.5q145 0 248 -92l2 2q-66 154 -188 256l-367 -158l-41 103l299 129q-115 59 -270 82l43 123q219 -27 381 -140l299 129l41 -100l-244 -107q279 -266 279 -766q0 -252 -138.5 -402t-343.5 -150q-211 0 -346 149.5t-135 402.5zM246 532.5 q0 -200.5 94 -315.5t233 -115q135 0 231.5 116t96.5 314q0 201 -87 312.5t-240.5 111.5t-240.5 -111.5t-87 -312z" />
<glyph unicode="&#xf1;" horiz-adv-x="1163" d="M154 0v1065h143l2 -191h4q61 98 156.5 154.5t206.5 56.5q180 0 267 -111.5t87 -352.5v-621h-148v608q0 199 -57 276t-197 77q-119 0 -217 -118t-98 -274v-569h-149zM205 1208q0 287 168 287q94 0 231 -92q113 -76 160 -76q70 0 70 148h129q0 -266 -168 -267 q-92 0 -234 95q-109 74 -158 73q-70 0 -69 -168h-129z" />
<glyph unicode="&#xf2;" horiz-adv-x="1167" d="M82 532.5q0 253.5 137 403t364.5 149.5t364.5 -149.5t137 -403t-137 -403t-364.5 -149.5t-364.5 149.5t-137 403zM236 532.5q0 -202.5 93 -316.5t254.5 -114t255 114t93.5 316.5t-93.5 316.5t-255 114t-254.5 -114t-93 -316.5zM268 1550h209l232 -342h-154z" />
<glyph unicode="&#xf3;" horiz-adv-x="1167" d="M82 532.5q0 253.5 137 403t364.5 149.5t364.5 -149.5t137 -403t-137 -403t-364.5 -149.5t-364.5 149.5t-137 403zM236 532.5q0 -202.5 93 -316.5t254.5 -114t255 114t93.5 316.5t-93.5 316.5t-255 114t-254.5 -114t-93 -316.5zM459 1208l231 342h209l-287 -342h-153z" />
<glyph unicode="&#xf4;" horiz-adv-x="1167" d="M82 532.5q0 253.5 137 403t364.5 149.5t364.5 -149.5t137 -403t-137 -403t-364.5 -149.5t-364.5 149.5t-137 403zM190 1208l281 342h225l281 -342h-186l-205 271h-4l-205 -271h-187zM236 532.5q0 -202.5 93 -316.5t254.5 -114t255 114t93.5 316.5t-93.5 316.5t-255 114 t-254.5 -114t-93 -316.5z" />
<glyph unicode="&#xf5;" horiz-adv-x="1167" d="M82 532.5q0 253.5 137 403t364.5 149.5t364.5 -149.5t137 -403t-137 -403t-364.5 -149.5t-364.5 149.5t-137 403zM205 1208q0 287 168 287q94 0 231 -92q113 -76 160 -76q70 0 70 148h129q0 -266 -168 -267q-92 0 -234 95q-109 74 -158 73q-70 0 -69 -168h-129z M236 532.5q0 -202.5 93 -316.5t254.5 -114t255 114t93.5 316.5t-93.5 316.5t-255 114t-254.5 -114t-93 -316.5z" />
<glyph unicode="&#xf6;" horiz-adv-x="1167" d="M82 532.5q0 253.5 137 403t364.5 149.5t364.5 -149.5t137 -403t-137 -403t-364.5 -149.5t-364.5 149.5t-137 403zM236 532.5q0 -202.5 93 -316.5t254.5 -114t255 114t93.5 316.5t-93.5 316.5t-255 114t-254.5 -114t-93 -316.5zM303 1249v260h152v-260h-152zM713 1249v260 h151v-260h-151z" />
<glyph unicode="&#xf7;" horiz-adv-x="1501" d="M164 528v131h1173v-131h-1173zM662 0v281h178v-281h-178zM662 907v281h178v-281h-178z" />
<glyph unicode="&#xf8;" horiz-adv-x="1187" d="M92 532q0 254 137.5 403.5t364.5 149.5q162 0 283 -79l84 112l86 -65l-86 -117q135 -152 135 -404q0 -254 -137.5 -403t-364.5 -149q-162 0 -283 79l-84 -112l-86 65l86 117q-135 151 -135 403zM246 532q-1 -173 69 -284l482 651q-86 63 -203 64q-162 0 -255 -114 t-93 -317zM391 166q86 -63 203 -64q162 0 255 114t93 316q0 174 -70 285z" />
<glyph unicode="&#xf9;" horiz-adv-x="1142" d="M143 389v676h148v-662q0 -164 54 -229t181 -65q119 0 216.5 114.5t97.5 272.5v569h149v-1065h-143l-2 190h-4q-61 -98 -156.5 -154t-206.5 -56q-172 0 -253 97t-81 312zM324 1550h206l234 -342h-154z" />
<glyph unicode="&#xfa;" horiz-adv-x="1142" d="M143 389v676h148v-662q0 -164 54 -229t181 -65q119 0 216.5 114.5t97.5 272.5v569h149v-1065h-143l-2 190h-4q-61 -98 -156.5 -154t-206.5 -56q-172 0 -253 97t-81 312zM391 1208l232 342h208l-286 -342h-154z" />
<glyph unicode="&#xfb;" horiz-adv-x="1142" d="M143 389v676h148v-662q0 -164 54 -229t181 -65q119 0 216.5 114.5t97.5 272.5v569h149v-1065h-143l-2 190h-4q-61 -98 -156.5 -154t-206.5 -56q-172 0 -253 97t-81 312zM184 1208l281 342h225l279 -342h-185l-204 271h-5l-204 -271h-187z" />
<glyph unicode="&#xfc;" horiz-adv-x="1142" d="M143 389v676h148v-662q0 -164 54 -229t181 -65q119 0 216.5 114.5t97.5 272.5v569h149v-1065h-143l-2 190h-4q-61 -98 -156.5 -154t-206.5 -56q-172 0 -253 97t-81 312zM297 1249v260h149v-260h-149zM707 1249v260h149v-260h-149z" />
<glyph unicode="&#xfd;" horiz-adv-x="1140" d="M72 1065h166l317 -877h4l350 877h160l-635 -1516h-160l201 457zM381 1208l231 342h209l-286 -342h-154z" />
<glyph unicode="&#xfe;" horiz-adv-x="1173" d="M154 -451v1987h149v-651h4q113 200 344 200q201 0 315.5 -142t114.5 -411q0 -262 -117.5 -407t-312.5 -145q-231 0 -344 186h-4v-617h-149zM303 518q0 -199 88 -307.5t227 -108.5q145 0 230.5 111.5t85.5 318.5q0 209 -83 320t-233 111q-141 0 -228 -111t-87 -305v-29z " />
<glyph unicode="&#xff;" horiz-adv-x="1140" d="M72 1065h166l317 -877h4l350 877h160l-635 -1516h-160l201 457zM287 1249v260h149v-260h-149zM696 1249v260h150v-260h-150z" />
<glyph unicode="&#x131;" horiz-adv-x="628" d="M236 0v1065h157v-1065h-157z" />
<glyph unicode="&#x152;" horiz-adv-x="1792" d="M82 747.5q0 348.5 192.5 558.5t513.5 210q101 -1 183 -21h667v-137h-614v-488h573v-131h-573v-602h614v-137h-667q-82 -20 -183 -20q-322 0 -514 209.5t-192 558zM248 747.5q0 -288.5 148.5 -459.5t391.5 -171q53 0 78 4v1253q-25 4 -78 4q-244 0 -392 -171t-148 -459.5z " />
<glyph unicode="&#x153;" horiz-adv-x="1878" d="M82 532.5q0 251.5 132 402t345 150.5q262 0 389 -229q121 229 383 229q217 0 336 -139t119 -403q0 -47 -2 -68h-760q4 -170 100.5 -272.5t241.5 -102.5q162 0 307 80l41 -114q-166 -86 -362 -86q-131 0 -234.5 61t-165.5 174q-59 -113 -161.5 -174t-231.5 -61 q-213 0 -345 150.5t-132 402zM236 532.5q0 -202.5 88 -316.5t235 -114q141 0 230.5 116t89.5 314.5t-89.5 314.5t-230.5 116q-147 0 -235 -114t-88 -316.5zM1024 594h616q-2 178 -83.5 274.5t-225.5 96.5q-135 0 -219 -98.5t-88 -272.5z" />
<glyph unicode="&#x178;" horiz-adv-x="1372" d="M61 1495h193l432 -725h4l434 725h187l-539 -862v-633h-172v633zM406 1659v260h151v-260h-151zM815 1659v260h152v-260h-152z" />
<glyph unicode="&#x192;" horiz-adv-x="1069" d="M14 -440l33 123q76 -31 146 -31q111 0 155.5 52t44.5 179v1018h-278v123h278v137q0 354 342 355q92 0 191 -31l-31 -123q-76 31 -145 31q-111 0 -157 -52.5t-46 -179.5v-137h366v-123h-366v-1018q0 -186 -83 -270t-259 -84q-92 0 -191 31z" />
<glyph unicode="&#x2c6;" horiz-adv-x="948" d="M82 1208l280 342h226l278 -342h-184l-205 271h-4l-205 -271h-186z" />
<glyph unicode="&#x2c7;" horiz-adv-x="948" d="M82 1550h186l205 -270h4l205 270h184l-278 -342h-226z" />
<glyph unicode="&#x2d8;" horiz-adv-x="921" d="M82 1509h129q4 -76 75.5 -130t174 -54t174.5 54.5t76 129.5h129q0 -125 -107.5 -213t-271.5 -88t-271.5 88t-107.5 213z" />
<glyph unicode="&#x2d9;" horiz-adv-x="579" d="M195 1235v287h190v-287h-190z" />
<glyph unicode="&#x2da;" horiz-adv-x="669" d="M82 1392.5q0 104.5 73.5 178.5t178 74t179.5 -74t75 -178.5t-75 -178t-179.5 -73.5t-178 73.5t-73.5 178zM178 1392.5q0 -65.5 46 -111.5t109.5 -46t111 46t47.5 111.5t-47.5 111.5t-111 46t-109.5 -46t-46 -111.5z" />
<glyph unicode="&#x2db;" horiz-adv-x="778" d="M154 -250q0 133 127 250h182q-160 -90 -160 -211q0 -117 174 -117q100 0 187 41l22 -121q-106 -43 -223 -43q-158 0 -233.5 56.5t-75.5 144.5z" />
<glyph unicode="&#x2dc;" horiz-adv-x="1003" d="M123 1208q0 287 168 287q94 0 231 -92q113 -76 160 -76q70 0 70 148h129q0 -266 -168 -267q-92 0 -234 95q-109 74 -157 73q-70 0 -70 -168h-129z" />
<glyph unicode="&#x2dd;" horiz-adv-x="905" d="M82 1208l231 342h195l-287 -342h-139zM446 1208l234 342h194l-286 -342h-142z" />
<glyph unicode="&#x3a9;" horiz-adv-x="1740" d="M113 0v133h329v4q-303 215 -303 651q0 319 203 523.5t528.5 204.5t528.5 -204t203 -524q0 -436 -304 -651v-4h330v-133h-641v133q203 39 325 207t122 422q0 281 -155 448.5t-409 167.5t-408.5 -168t-154.5 -448q0 -254 122 -422t325 -207v-133h-641z" />
<glyph unicode="&#x3c0;" horiz-adv-x="1310" d="M113 942v123h1085v-123h-188v-942h-150v942h-409v-942h-150v942h-188z" />
<glyph unicode="&#x400;" horiz-adv-x="1202" d="M174 0v1495h875v-137h-711v-488h670v-131h-670v-602h711v-137h-875zM360 1960h209l232 -342h-154z" />
<glyph unicode="&#x401;" horiz-adv-x="1202" d="M174 0v1495h875v-137h-711v-488h670v-131h-670v-602h711v-137h-875zM334 1659v260h151v-260h-151zM743 1659v260h152v-260h-152z" />
<glyph unicode="&#x402;" horiz-adv-x="1658" d="M123 1358v137h1079v-137h-459v-498q134 78 308 78q236 0 370.5 -123t134.5 -334q0 -227 -151.5 -356t-435.5 -139l-15 137q211 8 327 99t116 251q0 156 -97.5 243t-275.5 87q-162 0 -281 -82v-721h-163v1358h-457z" />
<glyph unicode="&#x403;" horiz-adv-x="1140" d="M174 0v1495h854v-143h-684v-1352h-170zM414 1618l233 342h207l-287 -342h-153z" />
<glyph unicode="&#x404;" horiz-adv-x="1433" d="M82 748q0 354 200.5 561t542.5 207q264 0 465 -132l-55 -122q-182 117 -395 116q-246 0 -402.5 -144t-183.5 -392h920v-131h-924q10 -272 173 -433t417 -161q213 0 395 116l55 -122q-201 -131 -465 -131q-338 0 -540.5 208.5t-202.5 559.5z" />
<glyph unicode="&#x405;" horiz-adv-x="1173" d="M123 109l49 135q178 -127 401 -127q152 0 233 69.5t81 202.5q0 123 -68.5 195.5t-240.5 126.5q-449 133 -449 436q0 168 122 268.5t337 100.5q231 0 430 -97l-41 -127q-178 90 -389 90q-141 0 -219 -62.5t-78 -172.5q0 -199 291 -287q254 -74 361.5 -184.5t107.5 -286.5 q0 -199 -124 -304t-354 -105q-254 0 -450 129z" />
<glyph unicode="&#x406;" horiz-adv-x="649" d="M236 0v1495h178v-1495h-178z" />
<glyph unicode="&#x407;" horiz-adv-x="649" d="M45 1659v260h150v-260h-150zM236 0v1495h178v-1495h-178zM455 1659v260h149v-260h-149z" />
<glyph unicode="&#x408;" horiz-adv-x="1079" d="M51 55l39 138q152 -76 283 -76q381 0 381 456v922h172v-948q0 -295 -136.5 -431t-416.5 -136q-174 0 -322 75z" />
<glyph unicode="&#x409;" horiz-adv-x="2072" d="M61 113q137 10 202 55t95.5 170t30.5 385v772h854v-588q98 16 197 17q268 0 404 -116t136 -337q0 -492 -542 -491q-188 0 -359 32v1346h-526v-635q0 -221 -21.5 -356.5t-79 -221.5t-146.5 -120.5t-236 -44.5zM1243 133q88 -20 197 -20q387 0 387 356q0 324 -400 324 q-96 0 -184 -17v-643z" />
<glyph unicode="&#x40a;" horiz-adv-x="2007" d="M174 0v1495h164v-584h676v584h164v-588q98 16 198 17q268 0 403.5 -116t135.5 -337q0 -492 -543 -491q-188 0 -358 32v768h-676v-780h-164zM1178 133q88 -20 198 -20q195 0 290 88t95 268q0 324 -399 324q-96 -1 -184 -17v-643z" />
<glyph unicode="&#x40b;" horiz-adv-x="1689" d="M123 1358v137h1079v-137h-459v-498q133 78 308 78q248 0 366.5 -122t118.5 -382v-434h-160v420q0 205 -83 294t-269 89q-162 0 -281 -82v-721h-163v1358h-457z" />
<glyph unicode="&#x40c;" horiz-adv-x="1296" d="M174 0v1495h164v-666h4l664 666h198l-719 -717l740 -778h-197l-686 729h-4v-729h-164zM520 1618l232 342h209l-287 -342h-154z" />
<glyph unicode="&#x40d;" horiz-adv-x="1460" d="M174 0v1495h162v-1229h4l778 1229h168v-1495h-160v1229h-4l-778 -1229h-170zM477 1960h207l234 -342h-154z" />
<glyph unicode="&#x40e;" horiz-adv-x="1392" d="M82 1495h192l439 -907h4l428 907h186l-516 -1051q-133 -268 -285.5 -366t-431.5 -98l-10 137q227 0 340 64.5t203 248.5zM317 1919h129q4 -76 76 -130t174.5 -54t174 54t75.5 130h129q0 -125 -107.5 -213t-271.5 -88t-271.5 88t-107.5 213z" />
<glyph unicode="&#x40f;" horiz-adv-x="1454" d="M174 0v1495h164v-1358h778v1358h164v-1495h-477v-328h-152v328h-477z" />
<glyph unicode="&#x410;" d="M72 0l546 1495h185l545 -1495h-174l-152 436h-631l-149 -436h-170zM436 567h541l-268 781h-4z" />
<glyph unicode="&#x411;" horiz-adv-x="1234" d="M174 12v1483h881v-133h-717v-455q102 16 219 17q293 0 439.5 -117t146.5 -336q0 -492 -594 -491q-205 0 -375 32zM338 135q102 -23 219 -22q432 0 432 356q0 324 -446 324q-111 0 -205 -17v-641z" />
<glyph unicode="&#x412;" horiz-adv-x="1224" d="M174 12v1471q180 33 363 33q539 0 538 -363q0 -127 -82 -217t-225 -121v-4q180 -27 277.5 -127t97.5 -254q0 -451 -586 -450q-193 0 -383 32zM338 131q100 -18 219 -18q426 -1 426 331q0 152 -120 223.5t-388 71.5h-137v-608zM338 870h137q446 0 447 263q0 127 -92.5 188 t-292.5 61q-106 0 -199 -18v-494z" />
<glyph unicode="&#x413;" horiz-adv-x="1140" d="M174 0v1495h854v-143h-684v-1352h-170z" />
<glyph unicode="&#x414;" horiz-adv-x="1509" d="M92 137h117q92 133 124 233.5t44 296t12 691.5v137h856v-1358h172v-465h-151v328h-1024v-328h-150v465zM397 137h684v1221h-532q0 -506 -8.5 -689.5t-36 -291t-107.5 -240.5z" />
<glyph unicode="&#x415;" horiz-adv-x="1202" d="M174 0v1495h875v-137h-711v-488h670v-131h-670v-602h711v-137h-875z" />
<glyph unicode="&#x416;" horiz-adv-x="1843" d="M82 0l481 801l-465 694h174l424 -625h144v625h164v-625h143l424 625h174l-465 -694l481 -801h-176l-438 731h-143v-731h-164v731h-144l-438 -731h-176z" />
<glyph unicode="&#x417;" horiz-adv-x="1175" d="M72 106l49 132q203 -121 411 -121q397 0 398 319q0 147 -123 221t-393 74h-97v135h97q238 0 362.5 74t124.5 207q0 111 -86 171t-252 60q-186 0 -399 -116l-47 131q225 123 467 123q223 0 351 -93.5t128 -248.5q0 -283 -344 -365v-4q375 -57 375 -375 q0 -217 -143.5 -333.5t-409.5 -116.5q-252 0 -469 126z" />
<glyph unicode="&#x418;" horiz-adv-x="1460" d="M174 0v1495h162v-1229h4l778 1229h168v-1495h-160v1229h-4l-778 -1229h-170z" />
<glyph unicode="&#x419;" horiz-adv-x="1460" d="M174 0v1495h162v-1229h4l778 1229h168v-1495h-160v1229h-4l-778 -1229h-170zM352 1919h129q4 -76 76 -130t174.5 -54t173 54t74.5 130h131q0 -125 -107.5 -213t-271.5 -88t-271.5 88t-107.5 213z" />
<glyph unicode="&#x41a;" horiz-adv-x="1296" d="M174 0v1495h164v-666h4l664 666h198l-719 -717l740 -778h-197l-686 729h-4v-729h-164z" />
<glyph unicode="&#x41b;" horiz-adv-x="1474" d="M51 113q82 6 133.5 21.5t94.5 52t63 105t31.5 171t11.5 260.5v772h915v-1495h-163v1358h-588v-635q0 -293 -45 -445.5t-146.5 -218t-298.5 -79.5z" />
<glyph unicode="&#x41c;" horiz-adv-x="1755" d="M174 0v1495h166l532 -901h5l532 901h172v-1495h-164v1221h-4l-463 -777h-151l-463 777h-4v-1221h-158z" />
<glyph unicode="&#x41d;" horiz-adv-x="1454" d="M174 0v1495h164v-625h778v625h164v-1495h-164v739h-778v-739h-164z" />
<glyph unicode="&#x41e;" horiz-adv-x="1624" d="M82 747.5q0 348.5 200.5 558.5t530.5 210t529.5 -210t199.5 -558.5t-199.5 -558t-529.5 -209.5t-530.5 209.5t-200.5 558zM248 747.5q0 -288.5 154.5 -459.5t410.5 -171q254 0 408.5 171t154.5 459.5t-154.5 459.5t-408.5 171q-256 0 -410.5 -171t-154.5 -459.5z" />
<glyph unicode="&#x41f;" horiz-adv-x="1454" d="M174 0v1495h1106v-1495h-164v1358h-778v-1358h-164z" />
<glyph unicode="&#x420;" horiz-adv-x="1228" d="M174 0v1483q213 33 416 33q279 0 423 -118t144 -337q0 -238 -145.5 -360.5t-421.5 -122.5q-135 0 -252 12v-590h-164zM338 725q119 -16 240 -16q203 0 310 88t107 251.5t-105.5 248.5t-311.5 85q-113 0 -240 -20v-637z" />
<glyph unicode="&#x421;" horiz-adv-x="1423" d="M82 748q0 354 200.5 561t542.5 207q264 0 465 -132l-55 -122q-182 117 -395 116q-270 0 -431 -171t-161 -459.5t165 -459.5t427 -171q213 0 395 116l55 -122q-201 -131 -465 -131q-338 0 -540.5 208.5t-202.5 559.5z" />
<glyph unicode="&#x422;" horiz-adv-x="1337" d="M123 1356v139h1091v-139h-462v-1356h-164v1356h-465z" />
<glyph unicode="&#x423;" horiz-adv-x="1392" d="M82 1495h192l439 -907h4l428 907h186l-516 -1051q-133 -268 -285.5 -366t-431.5 -98l-10 137q227 0 340 64.5t203 248.5z" />
<glyph unicode="&#x424;" horiz-adv-x="1495" d="M72 757.5q0 237.5 158.5 387t435.5 170.5v180h163v-180q276 -20 435 -170t159 -387.5t-158.5 -387t-435.5 -169.5v-201h-163v201q-276 20 -435 169.5t-159 387zM236 757.5q0 -182.5 113.5 -292t316.5 -127.5v840q-203 -18 -316.5 -128t-113.5 -292.5zM829 338 q203 18 317 127.5t114 292t-114 292t-317 128.5v-840z" />
<glyph unicode="&#x425;" horiz-adv-x="1331" d="M92 0l469 758l-459 737h191l373 -623h4l374 623h185l-459 -737l469 -758h-192l-381 643h-4l-383 -643h-187z" />
<glyph unicode="&#x426;" horiz-adv-x="1562" d="M174 0v1495h164v-1358h778v1358h164v-1358h190v-465h-149v328h-1147z" />
<glyph unicode="&#x427;" horiz-adv-x="1345" d="M154 977v518h159v-502q0 -217 90.5 -300t323.5 -83q162 0 281 82v803h163v-1495h-163v551q-137 -80 -308 -80q-293 0 -419.5 117t-126.5 389z" />
<glyph unicode="&#x428;" horiz-adv-x="1918" d="M174 0v1495h160v-1358h547v1358h157v-1358h545v1358h162v-1495h-1571z" />
<glyph unicode="&#x429;" horiz-adv-x="2021" d="M174 0v1495h160v-1358h547v1358h157v-1358h545v1358h162v-1358h184v-465h-151v328h-1604z" />
<glyph unicode="&#x42a;" horiz-adv-x="1587" d="M82 1362v133h608v-588q102 16 217 17q293 0 440.5 -117t147.5 -336q0 -492 -594 -491q-205 0 -375 32v1350h-444zM690 135q102 -23 217 -22q434 0 434 356q0 324 -446 324q-111 -1 -205 -17v-641z" />
<glyph unicode="&#x42b;" horiz-adv-x="1724" d="M174 12v1483h164v-588q102 16 219 17q293 0 439.5 -117t146.5 -336q0 -492 -594 -491q-205 0 -375 32zM338 135q102 -23 219 -22q432 0 432 356q0 324 -446 324q-111 -1 -205 -17v-641zM1386 0v1495h164v-1495h-164z" />
<glyph unicode="&#x42c;" horiz-adv-x="1234" d="M174 12v1483h164v-588q102 16 219 17q293 0 439.5 -117t146.5 -336q0 -492 -594 -491q-205 0 -375 32zM338 135q102 -23 219 -22q432 0 432 356q0 324 -446 324q-111 -1 -205 -17v-641z" />
<glyph unicode="&#x42d;" horiz-adv-x="1433" d="M143 111l56 122q182 -117 395 -116q254 0 417 160.5t173 433.5h-924v131h920q-27 248 -183.5 392t-402.5 144q-213 0 -395 -116l-56 122q201 131 465 132q342 0 543 -207t201 -561q0 -350 -203 -559t-541 -209q-264 0 -465 131z" />
<glyph unicode="&#x42e;" horiz-adv-x="2054" d="M174 0v1495h164v-625h328q31 297 204 471.5t441 174.5q295 0 473 -210t178 -558.5t-178 -558t-473 -209.5q-293 0 -470 206.5t-182 552.5h-321v-739h-164zM825 747.5q0 -288.5 133.5 -459.5t352.5 -171t352 171t133 459.5t-133 459.5t-352 171t-352.5 -171t-133.5 -459.5 z" />
<glyph unicode="&#x42f;" horiz-adv-x="1269" d="M92 0l180 436q90 217 183 266v5q-154 39 -238 143t-84 260q0 195 146.5 300.5t433.5 105.5q205 0 383 -31v-1485h-164v651h-164q-160 0 -214 -35.5t-116 -183.5l-176 -432h-170zM295 1096q0 -156 114.5 -235t358.5 -79h164v582q-96 18 -205 18q-432 0 -432 -286z" />
<glyph unicode="&#x430;" horiz-adv-x="1122" d="M102 287q0 178 156 283.5t442 105.5h109v10q0 156 -58.5 216.5t-207.5 60.5q-193 0 -359 -95l-26 121q176 96 385 96q223 0 319 -92t96 -303v-403q0 -145 31 -287h-143q-16 80 -21 188h-4q-55 -98 -159.5 -153t-235.5 -55q-147 0 -235.5 82.5t-88.5 224.5zM250 293 q0 -92 57.5 -144.5t153.5 -52.5q141 0 244.5 101.5t103.5 248.5v115h-109q-215 0 -332.5 -72.5t-117.5 -195.5z" />
<glyph unicode="&#x431;" horiz-adv-x="1193" d="M143 526v451q0 285 138.5 412t441.5 127q156 0 297 20v-123q-131 -20 -297 -20q-240 0 -335 -91.5t-95 -318.5v-117h4q111 178 352 178q186 0 304 -144t118 -388q0 -254 -121 -393t-336 -139q-223 0 -347 142t-124 404zM293 506q0 -184 87 -294t228 -110 q147 0 231.5 107.5t84.5 302.5q0 190 -85 300t-225 110q-147 0 -234 -102.5t-87 -287.5v-26z" />
<glyph unicode="&#x432;" horiz-adv-x="1060" d="M154 8v1049q145 23 299 22q248 0 353 -72.5t105 -185.5q0 -92 -63.5 -154.5t-177.5 -86.5v-2q145 -23 222 -94t77 -177q0 -322 -500 -321q-182 0 -315 22zM309 106q76 -12 166 -12q342 0 342 223q0 203 -362 203h-146v-414zM309 623h144q147 0 229 49t82 135 q0 164 -301 164q-80 0 -154 -13v-335z" />
<glyph unicode="&#x433;" horiz-adv-x="1013" d="M154 0v1065h778v-129h-621v-936h-157z" />
<glyph unicode="&#x434;" horiz-adv-x="1296" d="M82 123h98q45 55 63.5 78.5t41 78t27.5 84t12.5 129t7.5 180.5v269v123h739v-942h143v-369h-149v246h-834v-246h-149v369zM358 123h564v819h-441v-272.5t-5 -181t-10 -133t-21.5 -83t-34 -77t-52.5 -72.5z" />
<glyph unicode="&#x435;" horiz-adv-x="1130" d="M82 532q0 258 132 405.5t359 147.5q221 0 343 -140t122 -402q0 -27 -4 -68h-798q4 -174 106 -274.5t266 -100.5q158 0 314 82l41 -116q-172 -86 -369 -86q-229 0 -370.5 149.5t-141.5 402.5zM236 594h655q-2 178 -86 274.5t-232 96.5q-154 0 -242.5 -97.5t-94.5 -273.5z " />
<glyph unicode="&#x436;" horiz-adv-x="1556" d="M102 0l375 557l-364 508h161l320 -447h108v447h152v-447h109l319 447h162l-365 -508l375 -557h-160l-331 492h-109v-492h-152v492h-108l-332 -492h-160z" />
<glyph unicode="&#x437;" horiz-adv-x="1073" d="M92 55l37 115q186 -68 360 -68q334 0 334 201q0 102 -104.5 153.5t-343.5 51.5h-90v121h90q432 0 432 174q0 164 -324 164q-158 0 -340 -72l-37 115q193 76 390 75q219 0 344 -73.5t125 -188.5q0 -84 -69 -153.5t-198 -98.5v-4q141 -25 212 -103.5t71 -176.5 q0 -143 -126 -225t-359 -82q-201 0 -404 75z" />
<glyph unicode="&#x438;" horiz-adv-x="1241" d="M154 0v1065h155v-856h4l607 856h167v-1065h-155v856h-2l-608 -856h-168z" />
<glyph unicode="&#x439;" horiz-adv-x="1241" d="M154 0v1065h155v-856h4l607 856h167v-1065h-155v856h-2l-608 -856h-168zM242 1509h131q4 -76 74.5 -130t173 -54t174 54.5t75.5 129.5h129q0 -125 -107.5 -213t-271 -88t-271 88t-107.5 213z" />
<glyph unicode="&#x43a;" horiz-adv-x="1134" d="M154 0v1065h159v-451h2l514 451h197l-592 -510l608 -555h-194l-533 494h-2v-494h-159z" />
<glyph unicode="&#x43b;" horiz-adv-x="1267" d="M41 106q119 6 175 39t83 122.5t27 273.5v524h788v-1065h-151v938h-490v-422q0 -305 -88 -413.5t-336 -122.5z" />
<glyph unicode="&#x43c;" horiz-adv-x="1499" d="M154 0v1065h180l414 -635h2l413 635h183v-1065h-154v860h-4l-371 -545h-137l-371 545h-4v-860h-151z" />
<glyph unicode="&#x43d;" horiz-adv-x="1230" d="M154 0v1065h159v-434h605v434h159v-1065h-159v512h-605v-512h-159z" />
<glyph unicode="&#x43e;" horiz-adv-x="1167" d="M82 532.5q0 253.5 137 403t364.5 149.5t364.5 -149.5t137 -403t-137 -403t-364.5 -149.5t-364.5 149.5t-137 403zM236 532.5q0 -202.5 93 -316.5t254.5 -114t255 114t93.5 316.5t-93.5 316.5t-255 114t-254.5 -114t-93 -316.5z" />
<glyph unicode="&#x43f;" horiz-adv-x="1208" d="M154 0v1065h901v-1065h-150v938h-602v-938h-149z" />
<glyph unicode="&#x440;" horiz-adv-x="1173" d="M154 -451v1516h143l2 -180h4q113 201 348 200q201 0 315.5 -142t114.5 -411q0 -262 -117.5 -407t-312.5 -145q-231 0 -344 186h-4v-617h-149zM303 518q0 -199 88 -307.5t227 -108.5q145 0 230.5 111.5t85.5 318.5q0 209 -83 320t-233 111q-141 0 -228 -111t-87 -305v-29z " />
<glyph unicode="&#x441;" horiz-adv-x="1069" d="M82 532q0 260 141.5 406.5t390.5 146.5q168 0 322 -71l-41 -125q-137 72 -274 72q-180 0 -280.5 -112t-100.5 -317q0 -197 105.5 -313.5t275.5 -116.5q143 0 274 70l41 -121q-154 -72 -322 -71q-238 0 -385 150.5t-147 401.5z" />
<glyph unicode="&#x442;" horiz-adv-x="1124" d="M92 940v125h940v-125h-389v-940h-162v940h-389z" />
<glyph unicode="&#x443;" horiz-adv-x="1150" d="M82 1065h168l342 -883h4l319 883h164l-413 -1065q-106 -274 -227.5 -372.5t-342.5 -98.5l-8 125q166 0 256 70.5t170 275.5z" />
<glyph unicode="&#x444;" horiz-adv-x="1509" d="M92 532.5q0 272.5 97.5 412.5t265.5 140q129 0 221 -96h4v547h149v-547h5q92 96 221 96q168 0 265 -140t97 -412.5t-97 -412.5t-265 -140q-129 0 -221 96h-5v-527h-149v527h-4q-92 -96 -221 -96q-168 0 -265.5 140t-97.5 412.5zM242 532.5q0 -208.5 63.5 -317.5 t179.5 -109q111 0 195 113v627q-84 113 -195 112q-117 0 -180 -108.5t-63 -317zM829 219q84 -113 195 -113q117 0 179.5 109t62.5 317.5t-62.5 317t-179.5 108.5q-111 0 -195 -112v-627z" />
<glyph unicode="&#x445;" horiz-adv-x="1132" d="M102 0l375 541l-364 524h176l278 -424h4l279 424h170l-363 -524l373 -541h-176l-289 442h-4l-287 -442h-172z" />
<glyph unicode="&#x446;" horiz-adv-x="1304" d="M154 0v1065h149v-938h602v938h150v-938h178v-373h-137v246h-942z" />
<glyph unicode="&#x447;" horiz-adv-x="1153" d="M133 649v416h148v-387q0 -154 56 -206t216 -52q174 0 297 63v582h149v-1065h-149v358q-137 -66 -322 -65q-221 0 -308 79t-87 277z" />
<glyph unicode="&#x448;" horiz-adv-x="1556" d="M154 0v1065h147v-938h406v938h143v-938h405v938h148v-1065h-1249z" />
<glyph unicode="&#x449;" horiz-adv-x="1638" d="M154 0v1065h147v-938h406v938h143v-938h405v938h148v-938h164v-373h-137v246h-1276z" />
<glyph unicode="&#x44a;" horiz-adv-x="1296" d="M72 938v127h465v-328q88 16 186 17q242 0 366.5 -99.5t124.5 -275.5q0 -399 -512 -399q-170 0 -317 30v928h-313zM537 121q84 -18 176 -19q354 1 354 277q0 252 -365 252q-88 0 -165 -17v-493z" />
<glyph unicode="&#x44b;" horiz-adv-x="1458" d="M154 10v1055h149v-328q88 16 189 17q242 0 366.5 -99.5t124.5 -275.5q0 -399 -512 -399q-170 0 -317 30zM303 121q82 -18 178 -19q354 0 355 277q0 252 -365 252q-90 -1 -168 -17v-493zM1157 0v1065h148v-1065h-148z" />
<glyph unicode="&#x44c;" horiz-adv-x="1064" d="M154 10v1055h149v-328q88 16 189 17q242 0 366.5 -99.5t124.5 -275.5q0 -399 -512 -399q-170 0 -317 30zM303 121q82 -18 178 -19q354 0 355 277q0 252 -365 252q-90 -1 -168 -17v-493z" />
<glyph unicode="&#x44d;" horiz-adv-x="1079" d="M143 51l41 121q131 -70 273 -70q156 0 260 99.5t121 269.5h-627v123h627q-14 176 -114.5 271.5t-266.5 95.5q-135 0 -273 -72l-41 125q154 72 322 71q250 0 391 -146t141 -407q0 -252 -147.5 -402t-384.5 -150q-168 0 -322 71z" />
<glyph unicode="&#x44e;" horiz-adv-x="1611" d="M154 0v1065h147v-471h258q14 231 143 361t336 130q221 0 351.5 -147t130.5 -405.5t-130 -405.5t-352 -147q-207 0 -336 130t-143 361h-258v-471h-147zM709 532.5q0 -204.5 88 -317.5t241.5 -113t240.5 113t87 317.5t-87 317.5t-240.5 113t-241.5 -113t-88 -317.5z" />
<glyph unicode="&#x44f;" horiz-adv-x="1083" d="M82 0l149 301q49 98 85 141t81 62v4q-123 27 -201.5 93.5t-78.5 178.5q0 299 481 299q170 0 332 -22v-1057h-156v457h-141q-113 0 -157 -28t-99 -140l-137 -289h-158zM266 768q0 -197 361 -197h147v379q-82 12 -170 13q-338 0 -338 -195z" />
<glyph unicode="&#x450;" horiz-adv-x="1130" d="M82 532q0 258 132 405.5t359 147.5q221 0 343 -140t122 -402q0 -27 -4 -68h-798q4 -174 106 -274.5t266 -100.5q158 0 314 82l41 -116q-172 -86 -369 -86q-229 0 -370.5 149.5t-141.5 402.5zM236 594h655q-2 178 -86 274.5t-232 96.5q-154 0 -242.5 -97.5t-94.5 -273.5z M326 1550h209l231 -342h-154z" />
<glyph unicode="&#x451;" horiz-adv-x="1130" d="M82 532q0 258 132 405.5t359 147.5q221 0 343 -140t122 -402q0 -27 -4 -68h-798q4 -174 106 -274.5t266 -100.5q158 0 314 82l41 -116q-172 -86 -369 -86q-229 0 -370.5 149.5t-141.5 402.5zM236 594h655q-2 178 -86 274.5t-232 96.5q-154 0 -242.5 -97.5t-94.5 -273.5z M301 1249v260h150v-260h-150zM711 1249v260h149v-260h-149z" />
<glyph unicode="&#x452;" horiz-adv-x="1320" d="M72 1112v123h239v301h150v-301h389v-123h-389v-352h4q135 203 358 203q180 0 267.5 -112t87.5 -353v-615q0 -186 -80 -270t-256 -84q-92 0 -191 31l31 123q76 -31 145 -31q111 0 157 52t46 179v602q0 199 -57.5 276t-198.5 77q-123 0 -218 -120t-95 -272v-446h-150v1112 h-239z" />
<glyph unicode="&#x453;" horiz-adv-x="1013" d="M154 0v1065h778v-129h-621v-936h-157zM291 1208l233 342h207l-287 -342h-153z" />
<glyph unicode="&#x454;" horiz-adv-x="1079" d="M82 532q0 260 141.5 406.5t390.5 146.5q168 0 322 -71l-41 -125q-137 72 -274 72q-166 0 -265.5 -95.5t-113.5 -271.5h624v-123h-624q16 -170 119.5 -269.5t259.5 -99.5q143 0 274 70l41 -121q-154 -72 -322 -71q-238 0 -385 150.5t-147 401.5z" />
<glyph unicode="&#x455;" horiz-adv-x="1017" d="M113 82l34 121q168 -100 359 -101q119 0 182.5 46.5t63.5 132.5q0 82 -56.5 127t-197.5 69q-203 35 -294 112t-91 210q0 131 103.5 208.5t289.5 77.5q195 0 360 -81l-32 -121q-158 80 -328 80q-119 0 -181.5 -43t-62.5 -121q0 -74 54.5 -117t197.5 -68 q209 -35 300 -114.5t91 -219t-105.5 -220t-293.5 -80.5q-219 0 -393 102z" />
<glyph unicode="&#x456;" horiz-adv-x="628" d="M236 0v1065h157v-1065h-157zM236 1311v225h157v-225h-157z" />
<glyph unicode="&#x457;" horiz-adv-x="628" d="M35 1249v260h149v-260h-149zM236 0v1065h157v-1065h-157zM444 1249v260h150v-260h-150z" />
<glyph unicode="&#x458;" horiz-adv-x="710" d="M-51 -326q223 0 294.5 69t71.5 290v1032h160v-1024q0 -287 -108.5 -389.5t-411.5 -102.5zM315 1311v225h160v-225h-160z" />
<glyph unicode="&#x459;" horiz-adv-x="1765" d="M41 109q117 6 171 36.5t78.5 118.5t24.5 275v526h689v-328q88 16 188 17q242 0 366.5 -99.5t124.5 -275.5q0 -399 -512 -399q-170 0 -317 30v928h-393v-426q0 -303 -84 -410.5t-322 -121.5zM1004 121q82 -18 178 -19q354 0 354 277q0 252 -365 252q-89 -1 -167 -17v-493z " />
<glyph unicode="&#x45a;" horiz-adv-x="1751" d="M154 0v1065h147v-434h539v434h149v-328q88 16 189 17q242 0 366.5 -99.5t124.5 -275.5q0 -399 -512 -399q-170 -1 -317 30v502h-539v-512h-147zM989 121q84 -18 178 -19q354 0 355 277q0 252 -365 252q-90 -1 -168 -17v-493z" />
<glyph unicode="&#x45b;" horiz-adv-x="1320" d="M72 1112v123h239v301h150v-301h389v-123h-389v-352h4q135 203 358 203q180 0 267.5 -112t87.5 -353v-498h-148v485q0 199 -57.5 276t-198.5 77q-123 0 -218 -120t-95 -272v-446h-150v1112h-239z" />
<glyph unicode="&#x45c;" horiz-adv-x="1134" d="M154 0v1065h159v-451h2l514 451h197l-592 -510l608 -555h-194l-533 494h-2v-494h-159zM422 1208l231 342h209l-287 -342h-153z" />
<glyph unicode="&#x45d;" horiz-adv-x="1241" d="M154 0v1065h155v-856h4l607 856h167v-1065h-155v856h-2l-608 -856h-168zM305 1550h209l231 -342h-153z" />
<glyph unicode="&#x45e;" horiz-adv-x="1150" d="M82 1065h168l342 -883h4l319 883h164l-413 -1065q-106 -274 -227.5 -372.5t-342.5 -98.5l-8 125q166 0 256 70.5t170 275.5zM188 1509h129q4 -76 76 -130t174.5 -54t173 54.5t74.5 129.5h131q0 -125 -107.5 -213t-271.5 -88t-271.5 88t-107.5 213z" />
<glyph unicode="&#x45f;" horiz-adv-x="1208" d="M154 0v1065h149v-938h602v938h150v-1065h-383v-246h-135v246h-383z" />
<glyph unicode="&#x460;" horiz-adv-x="1849" d="M92 702q0 489 201 814l174 -35q-205 -334 -205 -779q0 -274 87 -423.5t210 -149.5q125 0 205 184.5t80 560.5v447h164v-447q0 -377 78.5 -561t203.5 -184q123 0 210 149.5t87 423.5q0 449 -203 779l172 35q201 -324 201 -814q0 -348 -127 -535t-330 -187q-141 0 -239 102 t-133 307h-4q-35 -205 -134.5 -307t-240.5 -102q-203 0 -330 187t-127 535z" />
<glyph unicode="&#x461;" horiz-adv-x="1597" d="M113 1065h151q0 -575 240 -940h6q152 178 225 467q-63 238 -63 473h151q0 -287 72 -535.5t197 -404.5h4q240 365 239 940h150q0 -307 -77 -584.5t-214 -480.5h-170q-133 158 -225 395q-90 -231 -226 -395h-170q-137 203 -213.5 480.5t-76.5 584.5z" />
<glyph unicode="&#x462;" horiz-adv-x="1587" d="M82 1169v136h444v190h164v-190h443v-136h-443v-262q102 16 217 17q293 0 440.5 -117t147.5 -336q0 -492 -594 -491q-205 0 -375 32v1157h-444zM690 135q102 -23 217 -22q434 0 434 356q0 324 -446 324q-111 -1 -205 -17v-641z" />
<glyph unicode="&#x463;" horiz-adv-x="1296" d="M72 1055v127h313v395h152v-395h313v-127h-313v-318q88 16 186 17q242 0 366.5 -99.5t124.5 -275.5q0 -399 -512 -399q-170 0 -317 30v1045h-313zM537 121q84 -18 176 -19q354 0 354 277q0 252 -365 252q-87 -1 -165 -17v-493z" />
<glyph unicode="&#x46e;" horiz-adv-x="1126" d="M31 -170q0 143 108.5 215t356.5 72q184 0 279 81t95 238q0 147 -115.5 221t-369.5 74h-94v135h94q225 0 341 74t116 207q0 231 -316 231q-186 0 -383 -94l-41 129q219 102 445 103q213 0 335 -93.5t122 -248.5q0 -283 -330 -365v-4q360 -59 360 -375q0 -215 -139 -332.5 t-393 -117.5q-188 0 -255 -38t-67 -110q0 -176 250 -176q135 0 260 41l23 -121q-135 -47 -287 -47q-395 0 -395 301zM154 1960h186l205 -270h4l205 270h184l-279 -342h-225z" />
<glyph unicode="&#x46f;" horiz-adv-x="1009" d="M31 -170q0 272 395 272q336 0 336 201q0 102 -105.5 153.5t-345.5 51.5h-90v121h90q432 0 432 174q0 164 -323 164q-158 0 -340 -72l-37 115q193 76 391 75q219 0 343 -72.5t124 -189.5q0 -84 -68.5 -153.5t-197.5 -98.5v-4q141 -25 212 -103.5t71 -176.5 q0 -143 -125 -225t-359 -82q-256 0 -256 -150q0 -178 252 -178q127 0 260 43l23 -119q-135 -47 -287 -47q-395 0 -395 301zM68 1550h186l205 -270h4l205 270h186l-281 -342h-225z" />
<glyph unicode="&#x470;" horiz-adv-x="1624" d="M143 928v567h160v-577q0 -420 428 -457v1034h164v-1034q426 37 426 457v577h160v-567q0 -567 -586 -604v-324h-164v324q-588 37 -588 604z" />
<glyph unicode="&#x471;" horiz-adv-x="1454" d="M133 588v477h148v-502q0 -221 89 -331.5t281 -127.5v1309h152v-1309q193 16 282 127t89 332v502h147v-477q0 -291 -128 -440.5t-390 -165.5v-433h-152v433q-262 16 -390 165.5t-128 440.5z" />
<glyph unicode="&#x472;" horiz-adv-x="1624" d="M82 747.5q0 348.5 200.5 558.5t530.5 210t529.5 -210t199.5 -558.5t-199.5 -558t-529.5 -209.5t-530.5 209.5t-200.5 558zM260 897q61 31 148 31q166 0 450 -123q238 -100 334 -100q86 0 126 51t40 172q-45 211 -189.5 330.5t-355.5 119.5q-219 0 -366.5 -129 t-186.5 -352zM266 567q45 -211 190.5 -330.5t356.5 -119.5q219 0 365.5 129t185.5 352q-61 -31 -147 -31q-164 0 -449 123q-238 100 -336 101q-86 0 -126 -51.5t-40 -172.5z" />
<glyph unicode="&#x473;" horiz-adv-x="1167" d="M82 532.5q0 253.5 137 403t364.5 149.5t364.5 -149.5t137 -403t-137 -403t-364.5 -149.5t-364.5 149.5t-137 403zM248 397q29 -141 117 -218t219 -77q133 0 221 78t115 221q-39 -14 -78 -14q-106 0 -291 92q-143 72 -209 72q-49 0 -70.5 -35t-23.5 -119zM248 664 q39 14 78 14q106 0 290 -92q143 -72 209 -72q49 0 71 35t24 119q-29 141 -117 218t-219 77q-133 0 -221 -78t-115 -221z" />
<glyph unicode="&#x474;" horiz-adv-x="1734" d="M72 1495h174l465 -1333h4l366 1063q51 160 137.5 225.5t241.5 65.5q106 0 223 -31l-22 -135q-92 28 -172 28q-111 0 -165 -42t-97 -160l-424 -1176h-185z" />
<glyph unicode="&#x475;" horiz-adv-x="1433" d="M72 1065h168l331 -973h2l252 694q53 164 134 231.5t223 67.5q102 0 200 -30l-26 -127q-74 29 -152 28q-98 0 -146 -39.5t-95 -162.5l-287 -754h-211z" />
<glyph unicode="&#x476;" horiz-adv-x="1734" d="M72 1495h174l465 -1333h4l366 1063q51 160 137.5 225.5t241.5 65.5q106 0 223 -31l-22 -135q-92 28 -172 28q-111 0 -165 -42t-97 -160l-424 -1176h-185zM281 1960h194l232 -342h-140zM645 1960h195l233 -342h-141z" />
<glyph unicode="&#x477;" horiz-adv-x="1433" d="M72 1065h168l331 -973h2l252 694q53 164 134 231.5t223 67.5q102 0 200 -30l-26 -127q-74 29 -152 28q-98 0 -146 -39.5t-95 -162.5l-287 -754h-211zM121 1550h194l232 -342h-139zM485 1550h195l231 -342h-139z" />
<glyph unicode="&#x478;" horiz-adv-x="2924" d="M82 747.5q0 348.5 200.5 558.5t530.5 210t529.5 -210t199.5 -558.5t-199.5 -558t-529.5 -209.5t-530.5 209.5t-200.5 558zM248 747.5q0 -288.5 154.5 -459.5t410.5 -171q254 0 408.5 171t154.5 459.5t-154.5 459.5t-408.5 171q-256 0 -410.5 -171t-154.5 -459.5z M1587 1065h166l318 -877h4l241 600q70 176 144.5 236.5t212.5 60.5q102 0 200 -30l-26 -127q-74 29 -150 28q-98 0 -144 -37.5t-99 -164.5l-504 -1205h-160l201 457z" />
<glyph unicode="&#x479;" horiz-adv-x="2390" d="M82 532.5q0 253.5 137 403t364.5 149.5t364.5 -149.5t137 -403t-137 -403t-364.5 -149.5t-364.5 149.5t-137 403zM236 532.5q0 -202.5 93 -316.5t254.5 -114t255 114t93.5 316.5t-93.5 316.5t-255 114t-254.5 -114t-93 -316.5zM1051 1065h166l319 -877h4l240 600 q70 176 144.5 236.5t211.5 60.5q104 0 203 -30l-29 -127q-74 29 -149 28q-98 0 -143.5 -37.5t-98.5 -164.5l-506 -1205h-160l201 457z" />
<glyph unicode="&#x47a;" horiz-adv-x="1624" d="M82 747.5q0 325.5 176 531.5t473 232v189h164v-189q297 -27 472 -232.5t175 -531t-175 -531.5t-472 -232v-189h-164v189q-297 27 -473 232.5t-176 531zM248 747.5q0 -264.5 131 -431t352 -195.5v207h164v-207q221 29 351 195.5t130 431t-130 431.5t-351 195v-207h-164 v207q-221 -29 -352 -195.5t-131 -431z" />
<glyph unicode="&#x47b;" horiz-adv-x="1167" d="M82 532.5q0 231.5 114.5 378t311.5 170.5v189h151v-189q197 -25 311.5 -171t114.5 -377.5t-114.5 -378t-311.5 -170.5v-189h-151v189q-197 25 -311.5 171t-114.5 377.5zM236 532.5q0 -176.5 71.5 -287.5t200.5 -136v151h151v-151q129 25 201 136t72 287.5t-72 288 t-201 135.5v-151h-151v151q-129 -25 -200.5 -136t-71.5 -287.5z" />
<glyph unicode="&#x47c;" horiz-adv-x="1849" d="M92 702q0 489 201 814l174 -35q-205 -334 -205 -779q0 -274 87 -423.5t210 -149.5q125 0 205 184.5t80 560.5v447h164v-447q0 -377 78.5 -561t203.5 -184q123 0 210 149.5t87 423.5q0 449 -203 779l172 35q201 -324 201 -814q0 -348 -127 -535t-330 -187 q-137 0 -236 100.5t-136 329.5h-4q-37 -229 -137.5 -329.5t-237.5 -100.5q-203 0 -330 187t-127 535zM522 1597v332h670v215h135v-332h-668v-215h-137z" />
<glyph unicode="&#x47d;" horiz-adv-x="1597" d="M113 1065h151q0 -276 63.5 -520t178.5 -420h2q154 182 227 467q-63 238 -63 473h151q0 -287 72 -535.5t197 -404.5h4q240 365 239 940h150q0 -307 -77 -584.5t-214 -480.5h-170q-133 158 -225 395q-90 -231 -226 -395h-170q-137 203 -213.5 480.5t-76.5 584.5zM395 1188 v332h670v215h137v-332h-670v-215h-137z" />
<glyph unicode="&#x47e;" horiz-adv-x="1849" d="M92 702q0 489 201 814l174 -35q-205 -334 -205 -779q0 -274 87 -423.5t210 -149.5q125 0 205 184.5t80 560.5v447h164v-447q0 -377 78.5 -561t203.5 -184q123 0 210 149.5t87 423.5q0 449 -203 779l172 35q201 -324 201 -814q0 -348 -127 -535t-330 -187q-137 0 -236 100 t-136 330h-4q-37 -229 -137.5 -329.5t-237.5 -100.5q-203 0 -330 187t-127 535zM487 1632v379h875v-379h-129v262h-246v-262h-123v262h-246v-262h-131z" />
<glyph unicode="&#x47f;" horiz-adv-x="1597" d="M113 1065h151q0 -575 240 -940h6q152 178 225 467q-63 238 -63 473h151q0 -287 72 -535.5t197 -404.5h4q240 365 239 940h150q0 -307 -77 -584.5t-214 -480.5h-170q-133 158 -225 395q-90 -231 -226 -395h-170q-137 203 -213.5 480.5t-76.5 584.5zM362 1223v379h873v-379 h-129v262h-246v-262h-123v262h-245v-262h-130z" />
<glyph unicode="&#x480;" horiz-adv-x="1361" d="M82 748q0 354 200.5 561t542.5 207q264 0 465 -132l-55 -122q-182 117 -395 116q-270 0 -431 -171t-161 -459q0 -291 166 -461t436 -170q43 0 82 6v-574h-150v435q-319 14 -509.5 220t-190.5 544z" />
<glyph unicode="&#x481;" horiz-adv-x="1007" d="M82 532q0 260 141.5 406.5t390.5 146.5q168 0 322 -71l-41 -125q-137 72 -274 72q-180 0 -280.5 -112t-100.5 -317q0 -201 109.5 -315.5t291.5 -114.5q47 0 111 15v-486h-138v349q-242 4 -387 153.5t-145 398.5z" />
<glyph unicode="&#x483;" horiz-adv-x="0" d="M621 1188v332h669v215h135v-332h-667v-215h-137z" />
<glyph unicode="&#x484;" horiz-adv-x="0" d="M645 1208v113q283 209 461 209q127 0 212 -88t85 -213h-129q-4 78 -60.5 131t-138.5 53q-76 0 -169 -43t-261 -162z" />
<glyph unicode="&#x485;" horiz-adv-x="0" d="M641 1188v547h137v-215h668v-117h-668v-215h-137z" />
<glyph unicode="&#x486;" horiz-adv-x="0" d="M600 1403v117h670v215h135v-547h-135v215h-670z" />
<glyph unicode="&#x48a;" horiz-adv-x="1529" d="M174 0v1495h162v-1229h4l778 1229h168v-1358h213l-125 -465h-151l88 328h-25h-80h-80v1229h-4l-778 -1229h-170zM352 1919h129q4 -76 76 -130t174.5 -54t173 54t74.5 130h131q0 -125 -107.5 -213t-271.5 -88t-271.5 88t-107.5 213z" />
<glyph unicode="&#x48b;" horiz-adv-x="1302" d="M154 0v1065h155v-856h4l607 856h167v-938h185l-121 -455h-137l88 328h-15h-90h-65v856h-2l-608 -856h-168zM242 1509h131q4 -76 74.5 -130t173 -54t174 54.5t75.5 129.5h129q0 -125 -107.5 -213t-271 -88t-271 88t-107.5 213z" />
<glyph unicode="&#x48c;" horiz-adv-x="1464" d="M82 1184v121h321v190h164v-190h443v-121h-443v-277q102 16 217 17q293 0 440.5 -117t147.5 -336q0 -492 -594 -491q-205 0 -375 32v1172h-321zM567 135q102 -23 217 -22q434 0 435 356q0 324 -447 324q-111 -1 -205 -17v-641z" />
<glyph unicode="&#x48d;" horiz-adv-x="1234" d="M72 1069v113h252v272h151v-272h313v-113h-313v-332q88 16 187 17q242 0 366.5 -99.5t124.5 -275.5q0 -399 -512 -399q-170 0 -317 30v1059h-252zM475 121q82 -18 176 -19q354 0 355 277q0 252 -365 252q-88 -1 -166 -17v-493z" />
<glyph unicode="&#x48e;" horiz-adv-x="1228" d="M174 0v1483q213 33 416 33q279 0 423 -118t144 -337q0 -332 -276 -438l159 -336h-131l-147 303q-61 -12 -172 -12q-135 0 -252 12v-590h-164zM338 725q119 -16 240 -16q71 0 120 8l-108 225h137l90 -188q178 82 178 295q0 164 -105.5 248.5t-311.5 84.5q-113 0 -240 -20 v-637z" />
<glyph unicode="&#x48f;" horiz-adv-x="1173" d="M154 -451v1516h143l2 -180h4q113 201 348 200q201 0 315.5 -142t114.5 -411q0 -369 -219 -497l115 -240h-131l-96 195q-52 -10 -99 -10q-231 0 -344 186h-4v-617h-149zM303 518q0 -199 88 -307.5t227 -108.5q41 0 72 9l-166 340h138l137 -287q135 108 135 368 q0 209 -83 320t-233 111q-141 0 -228 -111t-87 -305v-29z" />
<glyph unicode="&#x490;" horiz-adv-x="1153" d="M174 0v1495h717v328h149v-471h-696v-1352h-170z" />
<glyph unicode="&#x491;" horiz-adv-x="1034" d="M154 0v1065h641v328h137v-457h-621v-936h-157z" />
<glyph unicode="&#x492;" horiz-adv-x="1335" d="M92 532v123h277v840h854v-143h-684v-697h440v-123h-440v-532h-170v532h-277z" />
<glyph unicode="&#x493;" horiz-adv-x="1255" d="M92 532v123h293v410h778v-129h-620v-281h424v-123h-424v-532h-158v532h-293z" />
<glyph unicode="&#x494;" horiz-adv-x="1253" d="M174 0v1495h854v-137h-690v-498q133 78 307 78q506 0 506 -539q0 -274 -151.5 -420.5t-436.5 -156.5l-14 137q215 8 327.5 117.5t112.5 314.5q0 213 -90.5 310.5t-280.5 97.5q-162 0 -280 -82v-717h-164z" />
<glyph unicode="&#x495;" horiz-adv-x="1071" d="M154 0v1065h723v-123h-574v-375q115 58 254 58q422 0 422 -375q0 -201 -126 -310.5t-368 -117.5l-18 127q178 4 272.5 80.5t94.5 216.5q0 137 -72 198.5t-234 61.5q-129 0 -225 -66v-440h-149z" />
<glyph unicode="&#x496;" horiz-adv-x="1914" d="M82 0l481 801l-465 694h174l424 -625h144v625h164v-625h143l424 625h174l-465 -694l399 -664h154v-465h-150v328h-30h-68l-438 731h-143v-731h-164v731h-144l-438 -731h-176z" />
<glyph unicode="&#x497;" horiz-adv-x="1572" d="M102 0l375 557l-364 508h161l320 -447h108v447h152v-447h109l319 447h162l-365 -508l289 -430h133v-373h-135v246h-29h-43l-331 492h-109v-492h-152v492h-108l-332 -492h-160z" />
<glyph unicode="&#x498;" horiz-adv-x="1175" d="M72 106l49 132q203 -121 411 -121q397 0 398 319q0 147 -123 221t-393 74h-97v135h97q238 0 362.5 74t124.5 207q0 111 -86 171t-252 60q-186 0 -399 -116l-47 131q225 123 467 123q223 0 351 -93.5t128 -248.5q0 -283 -344 -365v-4q375 -57 375 -375 q0 -170 -90.5 -279.5t-260.5 -150.5q86 -100 86 -209q0 -106 -87 -174t-271 -68q-137 0 -248 50l23 122q94 -49 211 -49q223 0 223 156q0 84 -66 154q-25 -2 -73 -2q-252 0 -469 126z" />
<glyph unicode="&#x499;" horiz-adv-x="1073" d="M92 55l37 115q186 -68 360 -68q334 0 334 201q0 102 -104.5 153.5t-343.5 51.5h-90v121h90q432 0 432 174q0 164 -324 164q-158 0 -340 -72l-37 115q193 76 392 75q219 0 343 -72.5t124 -189.5q0 -84 -69 -153.5t-198 -98.5v-4q141 -25 212 -103.5t71 -176.5 q0 -111 -76 -186.5t-221 -104.5q82 -96 82 -205q0 -106 -87 -174t-271 -68q-137 0 -248 50l22 122q94 -49 211 -49q223 0 223 156q0 88 -63 154q-8 0 -26.5 -1t-28.5 -1q-203 0 -406 75z" />
<glyph unicode="&#x49a;" horiz-adv-x="1388" d="M174 0v1495h164v-666h4l664 666h198l-719 -717l615 -645v4h196v-465h-149v328h-47h-72l-686 729h-4v-729h-164z" />
<glyph unicode="&#x49b;" horiz-adv-x="1161" d="M154 0v1065h159v-451h2l514 451h197l-592 -510l471 -430v2h185v-373h-136v246h-49h-57l-533 494h-2v-494h-159z" />
<glyph unicode="&#x49c;" horiz-adv-x="1429" d="M174 0v1495h164v-655h180v389h152v-389h65l424 655h172l-465 -723l482 -772h-177l-436 702h-65v-374h-152v374h-180v-702h-164z" />
<glyph unicode="&#x49d;" horiz-adv-x="1253" d="M154 0v1065h149v-455h164v312h143v-312h49l320 455h162l-367 -516l377 -549h-162l-330 485h-49v-301h-143v301h-164v-485h-149z" />
<glyph unicode="&#x49e;" horiz-adv-x="1427" d="M72 1194v123h231v178h164v-178h260v-123h-260v-365h4l666 666h198l-721 -717l742 -778h-199l-686 729h-4v-729h-164v1194h-231z" />
<glyph unicode="&#x49f;" horiz-adv-x="1284" d="M72 1194v123h231v219h160v-219h373v-123h-373v-580h4l512 451h197l-592 -510l608 -555h-193l-532 494h-4v-494h-160v1194h-231z" />
<glyph unicode="&#x4a0;" horiz-adv-x="1560" d="M82 1372v123h518v-666h4l666 666h198l-720 -717l741 -778h-199l-686 729h-4v-729h-164v1372h-354z" />
<glyph unicode="&#x4a1;" horiz-adv-x="1376" d="M82 942v123h473v-451h4l512 451h197l-592 -510l608 -555h-192l-533 494h-4v-494h-160v942h-313z" />
<glyph unicode="&#x4a2;" horiz-adv-x="1562" d="M174 0v1495h164v-625h778v625h164v-1358h190v-465h-149v328h-41h-61h-103v739h-778v-739h-164z" />
<glyph unicode="&#x4a3;" horiz-adv-x="1325" d="M154 0v1065h159v-434h605v434h159v-938h176v-373h-135v246h-41h-61h-98v512h-605v-512h-159z" />
<glyph unicode="&#x4a4;" horiz-adv-x="2033" d="M174 0v1495h164v-625h778v625h805v-143h-641v-1352h-164v739h-778v-739h-164z" />
<glyph unicode="&#x4a5;" horiz-adv-x="1691" d="M154 0v1065h159v-434h605v434h681v-129h-522v-936h-159v512h-605v-512h-159z" />
<glyph unicode="&#x4a6;" horiz-adv-x="2154" d="M174 0v1495h1065v-635q133 78 307 78q506 0 506 -539q0 -274 -151.5 -420.5t-436.5 -156.5l-14 137q215 8 327.5 117.5t112.5 314.5q0 213 -90 310.5t-280 97.5q-162 0 -281 -82v-717h-164v1358h-737v-1358h-164z" />
<glyph unicode="&#x4a7;" horiz-adv-x="1751" d="M154 0v1065h839v-498q115 57 252 58q424 0 424 -375q0 -201 -127 -310.5t-368 -117.5l-17 127q178 4 271.5 80.5t93.5 216.5q0 137 -71 198.5t-232 61.5q-129 0 -226 -66v-440h-149v938h-541v-938h-149z" />
<glyph unicode="&#x4aa;" horiz-adv-x="1423" d="M82 748q0 354 200.5 561t542.5 207q264 0 465 -132l-55 -122q-182 116 -395 116q-270 0 -431 -171t-161 -459.5t165 -459.5t427 -171q213 0 395 116l55 -122q-168 -109 -385 -127q72 -92 72 -193q0 -106 -87 -174t-272 -68q-139 0 -249 50l22 122q94 -49 211 -49 q225 0 225 156q0 84 -65 154q-311 20 -495.5 226t-184.5 540z" />
<glyph unicode="&#x4ab;" horiz-adv-x="1069" d="M82 532q0 260 141.5 406.5t390.5 146.5q168 0 322 -71l-41 -125q-137 72 -274 72q-180 0 -280.5 -112t-100.5 -317q0 -197 105.5 -313.5t275.5 -116.5q143 0 274 70l41 -121q-102 -49 -209 -63q76 -96 76 -197q0 -106 -87 -174t-272 -68q-139 0 -249 50l22 122 q94 -49 211 -49q225 0 225 156q0 86 -63 152q-227 8 -367.5 157.5t-140.5 394.5z" />
<glyph unicode="&#x4ac;" horiz-adv-x="1347" d="M123 1356v139h1091v-139h-462v-1219h190v-465h-149v328h-41h-62h-102v1356h-465z" />
<glyph unicode="&#x4ad;" horiz-adv-x="1144" d="M102 940v125h940v-125h-389v-813h178v-373h-137v246h-41h-61h-100v940h-390z" />
<glyph unicode="&#x4ae;" horiz-adv-x="1372" d="M61 1495h193l432 -725h4l434 725h187l-539 -862v-633h-172v633z" />
<glyph unicode="&#x4af;" horiz-adv-x="1181" d="M72 1065h184l336 -717h4l334 717h180l-440 -860v-656h-158v656z" />
<glyph unicode="&#x4b0;" horiz-adv-x="1372" d="M61 1495h193l432 -725h4l434 725h187l-525 -840h344v-123h-358v-532h-172v532h-358v123h344z" />
<glyph unicode="&#x4b1;" horiz-adv-x="1202" d="M82 1065h184l336 -717h4l334 717h180l-440 -860v-158h371v-119h-371v-379h-158v379h-372v119h372v158z" />
<glyph unicode="&#x4b2;" horiz-adv-x="1402" d="M92 0l469 758l-459 737h191l373 -623h4l374 623h185l-459 -737l385 -621h156v-465h-150v328h-35h-79l-381 643h-4l-383 -643h-187z" />
<glyph unicode="&#x4b3;" horiz-adv-x="1150" d="M102 -41l375 541l-364 524h176l278 -424h4l279 424h170l-363 -524l287 -414h135v-373h-137v246h-35h-53l-289 442h-4l-287 -442h-172z" />
<glyph unicode="&#x4b4;" horiz-adv-x="1847" d="M82 1358v137h956v-137h-397v-1221h758v1358h164v-1358h192v-465h-151v328h-1127v1358h-395z" />
<glyph unicode="&#x4b5;" horiz-adv-x="1437" d="M82 938v127h682v-127h-266v-811h540v938h150v-938h178v-373h-137v246h-881v938h-266z" />
<glyph unicode="&#x4b6;" horiz-adv-x="1454" d="M154 977v518h159v-502q0 -217 90.5 -300t323.5 -83q162 0 281 82v803h163v-1358h191v-465h-150v328h-41h-61h-102v551q-137 -80 -308 -80q-293 0 -419.5 117t-126.5 389z" />
<glyph unicode="&#x4b7;" horiz-adv-x="1249" d="M133 649v416h148v-387q0 -154 56 -206t216 -52q174 0 297 63v582h149v-938h179v-373h-138v246h-41h-61h-88v358q-137 -66 -322 -65q-221 0 -308 79t-87 277z" />
<glyph unicode="&#x4b8;" horiz-adv-x="1345" d="M154 977v518h159v-502q0 -182 61.5 -268t213.5 -107v386h149v-394q160 4 271 82v803h163v-1495h-163v551q-115 -68 -271 -78v-371h-149v373q-231 20 -332.5 138t-101.5 364z" />
<glyph unicode="&#x4b9;" horiz-adv-x="1153" d="M133 649v416h148v-387q0 -137 45 -192.5t166 -63.5v356h143v-354q137 16 215 59v582h149v-1065h-149v358q-88 -41 -215 -57v-260h-143v254q-199 6 -279 85t-80 269z" />
<glyph unicode="&#x4ba;" horiz-adv-x="1345" d="M174 0v1495h164v-551q137 80 307 80q293 0 420 -116.5t127 -389.5v-518h-162v502q0 217 -89 300t-323 83q-162 0 -280 -82v-803h-164z" />
<glyph unicode="&#x4bb;" horiz-adv-x="1153" d="M154 0v1065h149v-358q137 66 322 65q221 0 308 -79t87 -277v-416h-148v387q0 154 -56 206t-216 52q-174 0 -297 -63v-582h-149z" />
<glyph unicode="&#x4bc;" horiz-adv-x="1837" d="M31 1038v170h129v-168q0 -133 49 -179t184 -46h2q18 330 202.5 515.5t492.5 185.5q309 0 482 -199t173 -563q0 -33 -4 -70h-1184q8 -268 167 -419.5t429 -151.5q244 0 449 120l47 -124q-238 -129 -523 -129q-322 0 -517 188t-214 516h-2q-197 0 -279.5 81t-82.5 273z M557 815h1030q-6 567 -495 567q-248 0 -387.5 -147.5t-147.5 -419.5z" />
<glyph unicode="&#x4bd;" horiz-adv-x="1357" d="M31 731v129h127v-127q0 -88 25.5 -113.5t107.5 -25.5h22q16 231 146.5 361t343.5 130q221 0 342 -139t121 -403q0 -47 -2 -68h-801q4 -174 106.5 -274.5t266.5 -100.5q160 0 315 82l41 -116q-172 -86 -369 -86q-215 0 -354 133t-156 362h-22q-145 0 -202.5 56.5 t-57.5 199.5zM463 594h657q-2 178 -86 274.5t-231 96.5q-154 0 -244 -97.5t-96 -273.5z" />
<glyph unicode="&#x4be;" horiz-adv-x="1837" d="M31 1038v170h129v-168q0 -133 49 -179t184 -46h2q18 330 202.5 515.5t492.5 185.5q309 0 482 -199t173 -563q0 -33 -4 -70h-1184q8 -268 167 -419.5t429 -151.5q244 0 449 120l47 -124q-238 -129 -523 -129q-45 0 -65 2q-66 -70 -66 -154q0 -156 226 -156q117 0 211 49 l22 -122q-111 -49 -250 -50q-184 0 -271 68t-87 174q0 109 86 209q-240 53 -381 231.5t-156 452.5h-2q-197 0 -279.5 81t-82.5 273zM557 815h1030q-6 567 -495 567q-248 0 -387.5 -147.5t-147.5 -419.5z" />
<glyph unicode="&#x4bf;" horiz-adv-x="1357" d="M31 731v129h127v-127q0 -88 25.5 -113.5t107.5 -25.5h22q16 231 146.5 361t343.5 130q221 0 342 -139t121 -403q0 -47 -2 -68h-801q4 -174 106.5 -274.5t266.5 -100.5q160 0 315 82l41 -116q-172 -86 -369 -86h-30q-63 -66 -64 -152q0 -156 225 -156q117 0 211 49 l23 -122q-111 -49 -250 -50q-184 0 -271 68t-87 174q0 109 86 209q-152 43 -245 167t-108 308h-22q-145 0 -202.5 56.5t-57.5 199.5zM463 594h657q-2 178 -86 274.5t-231 96.5q-154 0 -244 -97.5t-96 -273.5z" />
<glyph unicode="&#x4c0;" horiz-adv-x="649" d="M236 0v1495h178v-1495h-178z" />
<glyph unicode="&#x4c1;" horiz-adv-x="1843" d="M82 0l481 801l-465 694h174l424 -625h144v625h164v-625h143l424 625h174l-465 -694l481 -801h-176l-438 731h-143v-731h-164v731h-144l-438 -731h-176zM543 1919h129q4 -76 75.5 -130t174 -54t174 54t75.5 130h129q0 -125 -107.5 -213t-271 -88t-271 88t-107.5 213z" />
<glyph unicode="&#x4c2;" horiz-adv-x="1556" d="M102 0l375 557l-364 508h161l320 -447h108v447h152v-447h109l319 447h162l-365 -508l375 -557h-160l-331 492h-109v-492h-152v492h-108l-332 -492h-160zM399 1509h129q4 -76 76 -130t174.5 -54t174 54.5t75.5 129.5h129q0 -125 -107.5 -213t-271.5 -88t-271.5 88 t-107.5 213z" />
<glyph unicode="&#x4c3;" horiz-adv-x="1337" d="M174 0v1495h164v-666h4l664 666h198l-620 -614l2 -2q66 16 125 16q264 0 404 -128t140 -361q0 -270 -176 -426t-489 -158l-12 137q238 2 376 120t138 314q0 375 -474 375q-133 0 -280 -72v-696h-164z" />
<glyph unicode="&#x4c4;" horiz-adv-x="1155" d="M154 0v1065h159v-449h4l535 449h195l-512 -422l2 -4q57 12 116 12q203 0 311.5 -100t108.5 -281q0 -207 -150.5 -326.5t-422.5 -121.5l-11 123q201 0 316 85t115 232q0 281 -355 281q-143 0 -252 -66v-477h-159z" />
<glyph unicode="&#x4c5;" horiz-adv-x="1542" d="M51 113q82 6 133.5 21.5t94.5 52t63 105t31.5 171t11.5 260.5v772h915v-1358h211l-125 -465h-149l88 328h-25h-81h-82v1358h-588v-635q0 -293 -45 -445.5t-146.5 -218t-298.5 -79.5z" />
<glyph unicode="&#x4c6;" horiz-adv-x="1341" d="M41 106q119 6 175 39t83 122.5t27 273.5v524h788v-938h197l-121 -455h-137l88 328h-27h-78h-73v938h-490v-422q0 -305 -88 -413.5t-336 -122.5z" />
<glyph unicode="&#x4c7;" horiz-adv-x="1454" d="M174 0v1495h164v-625h778v625h164v-1612q0 -186 -83 -270t-259 -84q-102 0 -201 31l31 131q76 -31 145 -31q111 0 157 52t46 179v848h-778v-739h-164z" />
<glyph unicode="&#x4c8;" horiz-adv-x="1230" d="M154 0v1065h159v-434h605v434h159v-1182q0 -186 -83 -270t-259 -84q-92 0 -190 31l35 123q76 -31 145 -31q106 0 149.5 50t43.5 181v629h-605v-512h-159z" />
<glyph unicode="&#x4c9;" horiz-adv-x="1521" d="M174 0v1495h164v-625h778v625h164v-1358h211l-125 -465h-149l88 328h-25h-82h-82v739h-778v-739h-164z" />
<glyph unicode="&#x4ca;" horiz-adv-x="1304" d="M154 0v1065h159v-434h605v434h159v-938h197l-121 -455h-137l88 328h-27h-78h-81v512h-605v-512h-159z" />
<glyph unicode="&#x4cb;" horiz-adv-x="1345" d="M154 977v518h159v-502q0 -217 90.5 -300t323.5 -83q162 0 281 82v803h163v-1495h-102h-61h-41v-328h-152v465h193v414q-137 -80 -308 -80q-293 0 -419.5 117t-126.5 389z" />
<glyph unicode="&#x4cc;" horiz-adv-x="1153" d="M133 649v416h148v-387q0 -154 56 -206t216 -52q174 0 297 63v582h149v-1065h-88h-61h-41v-246h-137v365h178v239q-137 -66 -322 -65q-221 0 -308 79t-87 277z" />
<glyph unicode="&#x4cd;" horiz-adv-x="1822" d="M174 0v1495h166l532 -901h5l532 901h172v-1358h211l-125 -465h-149l86 328h-23h-82h-82v1221h-4l-463 -777h-151l-463 777h-4v-1221h-158z" />
<glyph unicode="&#x4ce;" horiz-adv-x="1574" d="M154 0v1065h180l414 -635h2l413 635h183v-938h198l-121 -455h-137l88 328h-28h-78h-76v860h-4l-371 -545h-137l-371 545h-4v-860h-151z" />
<glyph unicode="&#x4cf;" horiz-adv-x="628" d="M236 0v1536h157v-1536h-157z" />
<glyph unicode="&#x4d0;" d="M72 0l546 1495h185l545 -1495h-174l-152 436h-631l-149 -436h-170zM332 1919h129q4 -76 75.5 -130t174 -54t173 54t74.5 130h132q0 -125 -108 -213t-271.5 -88t-271 88t-107.5 213zM436 567h541l-268 781h-4z" />
<glyph unicode="&#x4d1;" horiz-adv-x="1122" d="M102 287q0 178 156 283.5t442 105.5h109v10q0 156 -58.5 216.5t-207.5 60.5q-193 0 -359 -95l-26 121q176 96 385 96q223 0 319 -92t96 -303v-403q0 -145 31 -287h-143q-16 80 -21 188h-4q-55 -98 -159.5 -153t-235.5 -55q-147 0 -235.5 82.5t-88.5 224.5zM190 1509h132 q4 -76 74.5 -130t173 -54t174 54.5t75.5 129.5h129q0 -125 -107.5 -213t-271 -88t-271.5 88t-108 213zM250 293q0 -92 57.5 -144.5t153.5 -52.5q141 0 244.5 101.5t103.5 248.5v115h-109q-215 0 -332.5 -72.5t-117.5 -195.5z" />
<glyph unicode="&#x4d2;" d="M72 0l546 1495h185l545 -1495h-174l-152 436h-631l-149 -436h-170zM430 1659v260h150v-260h-150zM436 567h541l-268 781h-4zM840 1659v260h149v-260h-149z" />
<glyph unicode="&#x4d3;" horiz-adv-x="1122" d="M102 287q0 178 156 283.5t442 105.5h109v10q0 156 -58.5 216.5t-207.5 60.5q-193 0 -359 -95l-26 121q176 96 385 96q223 0 319 -92t96 -303v-403q0 -145 31 -287h-143q-16 80 -21 188h-4q-55 -98 -159.5 -153t-235.5 -55q-147 0 -235.5 82.5t-88.5 224.5zM250 293 q0 -92 57.5 -144.5t153.5 -52.5q141 0 244.5 101.5t103.5 248.5v115h-109q-215 0 -332.5 -72.5t-117.5 -195.5zM291 1249v260h149v-260h-149zM700 1249v260h150v-260h-150z" />
<glyph unicode="&#x4d4;" horiz-adv-x="1746" d="M72 0l546 1495h975v-137h-614v-488h573v-131h-573v-602h614v-137h-770v436h-438l-149 -436h-164zM430 567h393v791h-118z" />
<glyph unicode="&#x4d5;" horiz-adv-x="1818" d="M102 287q0 170 157 279.5t441 109.5h119v6q-2 164 -63.5 222.5t-212.5 58.5q-193 0 -359 -95l-26 121q176 96 385 96q299 0 381 -176q125 176 350 176q217 0 334.5 -139t117.5 -403q0 -47 -2 -68h-759q4 -170 100 -272.5t242 -102.5q162 0 307 80l41 -114 q-166 -86 -361 -86q-133 0 -239.5 64.5t-167.5 182.5q-125 -248 -461 -247q-147 0 -235.5 82.5t-88.5 224.5zM250 293q0 -92 57.5 -144.5t153.5 -52.5q162 0 260 105.5t98 290.5v69h-119q-211 0 -330.5 -76.5t-119.5 -191.5zM965 594h616q-2 178 -83 274.5t-224 96.5 q-135 0 -220 -98.5t-89 -272.5z" />
<glyph unicode="&#x4d6;" horiz-adv-x="1202" d="M174 0v1495h875v-137h-711v-488h670v-131h-670v-602h711v-137h-875zM236 1919h129q4 -76 75.5 -130t174 -54t174 54t75.5 130h129q0 -125 -107.5 -213t-271 -88t-271 88t-107.5 213z" />
<glyph unicode="&#x4d7;" horiz-adv-x="1130" d="M82 532q0 258 132 405.5t359 147.5q221 0 343 -140t122 -402q0 -27 -4 -68h-798q4 -174 106 -274.5t266 -100.5q158 0 314 82l41 -116q-172 -86 -369 -86q-229 0 -370.5 149.5t-141.5 402.5zM201 1509h131q4 -76 74.5 -130t173 -54t174 54.5t75.5 129.5h129 q0 -125 -107.5 -213t-271 -88t-271 88t-107.5 213zM236 594h655q-2 178 -86 274.5t-232 96.5q-154 0 -242.5 -97.5t-94.5 -273.5z" />
<glyph unicode="&#x4d8;" horiz-adv-x="1525" d="M92 741q0 33 4 70h1184q-8 268 -168 419.5t-430 151.5q-242 0 -446 -120l-48 124q238 129 523 130q338 0 535.5 -206t197.5 -562q0 -360 -186.5 -564t-509.5 -204q-309 0 -482.5 198.5t-173.5 562.5zM250 680q2 -289 125 -428t368 -139q248 0 388.5 147.5t148.5 419.5 h-1030z" />
<glyph unicode="&#x4d9;" horiz-adv-x="1130" d="M92 522q0 47 2 68h801q-4 174 -106.5 274.5t-266.5 100.5q-158 0 -313 -82l-41 116q172 86 369 86q229 0 370.5 -149.5t141.5 -403.5q0 -258 -132.5 -405t-359.5 -147q-221 0 -343 140t-122 402zM240 471q2 -178 86 -274.5t231 -96.5q154 0 243 97.5t95 273.5h-655z" />
<glyph unicode="&#x4da;" horiz-adv-x="1525" d="M92 741q0 33 4 70h1184q-8 268 -168 419.5t-430 151.5q-242 0 -446 -120l-48 124q238 129 523 130q338 0 535.5 -206t197.5 -562q0 -360 -186.5 -564t-509.5 -204q-309 0 -482.5 198.5t-173.5 562.5zM250 680q2 -289 125 -428t368 -139q248 0 388.5 147.5t148.5 419.5 h-1030zM498 1659v260h151v-260h-151zM907 1659v260h152v-260h-152z" />
<glyph unicode="&#x4db;" horiz-adv-x="1130" d="M92 522q0 47 2 68h801q-4 174 -106.5 274.5t-266.5 100.5q-158 0 -313 -82l-41 116q172 86 369 86q229 0 370.5 -149.5t141.5 -403.5q0 -258 -132.5 -405t-359.5 -147q-221 0 -343 140t-122 402zM240 471q2 -178 86 -274.5t231 -96.5q154 0 243 97.5t95 273.5h-655z M311 1249v260h150v-260h-150zM721 1249v260h149v-260h-149z" />
<glyph unicode="&#x4dc;" horiz-adv-x="1843" d="M82 0l481 801l-465 694h174l424 -625h144v625h164v-625h143l424 625h174l-465 -694l481 -801h-176l-438 731h-143v-731h-164v731h-144l-438 -731h-176zM641 1659v260h152v-260h-152zM1051 1659v260h151v-260h-151z" />
<glyph unicode="&#x4dd;" horiz-adv-x="1556" d="M102 0l375 557l-364 508h161l320 -447h108v447h152v-447h109l319 447h162l-365 -508l375 -557h-160l-331 492h-109v-492h-152v492h-108l-332 -492h-160zM498 1249v260h151v-260h-151zM907 1249v260h152v-260h-152z" />
<glyph unicode="&#x4de;" horiz-adv-x="1206" d="M92 106l49 132q203 -121 412 -121q397 0 397 319q0 147 -122.5 221t-393.5 74h-96v135h96q238 0 363 74t125 207q0 111 -86 171t-252 60q-186 0 -400 -116l-47 131q225 123 467 123q223 0 351 -93.5t128 -248.5q0 -283 -344 -365v-4q375 -57 375 -375 q0 -217 -143.5 -333.5t-409.5 -116.5q-252 0 -469 126zM328 1659v260h151v-260h-151zM737 1659v260h152v-260h-152z" />
<glyph unicode="&#x4df;" horiz-adv-x="1073" d="M92 55l37 115q186 -68 360 -68q334 0 334 201q0 102 -104.5 153.5t-343.5 51.5h-90v121h90q432 0 432 174q0 164 -324 164q-158 0 -340 -72l-37 115q193 76 390 75q219 0 344 -73.5t125 -188.5q0 -84 -69 -153.5t-198 -98.5v-4q141 -25 212 -103.5t71 -176.5 q0 -143 -126 -225t-359 -82q-201 0 -404 75zM244 1249v260h149v-260h-149zM653 1249v260h152v-260h-152z" />
<glyph unicode="&#x4e0;" horiz-adv-x="1136" d="M102 86l50 133q172 -102 340 -102q180 0 274 88t94 260q0 145 -97 216t-310 71h-150v127l490 475v4h-687v137h898v-137l-492 -481v-5h63q217 0 333 -104t116 -303q0 -233 -138 -359t-394 -126q-221 0 -390 106z" />
<glyph unicode="&#x4e1;" horiz-adv-x="1228" d="M154 -365l49 134q172 -102 340 -103q180 0 274 88t94 260q0 145 -97 216t-310 71h-150v127l490 496v4h-686v137h897v-137l-492 -502v-4h64q217 0 332.5 -104.5t115.5 -303.5q0 -233 -138 -359t-394 -126q-221 0 -389 106z" />
<glyph unicode="&#x4e2;" d="M154 0v1495h161v-1229h4l779 1229h168v-1495h-160v1229h-4l-778 -1229h-170zM354 1747v123h711v-123h-711z" />
<glyph unicode="&#x4e3;" horiz-adv-x="1241" d="M154 0v1065h155v-856h4l607 856h167v-1065h-155v856h-2l-608 -856h-168zM266 1317v123h711v-123h-711z" />
<glyph unicode="&#x4e4;" d="M154 0v1495h161v-1229h4l779 1229h168v-1495h-160v1229h-4l-778 -1229h-170zM430 1659v260h150v-260h-150zM840 1659v260h149v-260h-149z" />
<glyph unicode="&#x4e5;" horiz-adv-x="1241" d="M154 0v1065h155v-856h4l607 856h167v-1065h-155v856h-2l-608 -856h-168zM342 1249v260h150v-260h-150zM752 1249v260h149v-260h-149z" />
<glyph unicode="&#x4e6;" horiz-adv-x="1624" d="M82 747.5q0 348.5 200.5 558.5t530.5 210t529.5 -210t199.5 -558.5t-199.5 -558t-529.5 -209.5t-530.5 209.5t-200.5 558zM248 747.5q0 -288.5 154.5 -459.5t410.5 -171q254 0 408.5 171t154.5 459.5t-154.5 459.5t-408.5 171q-256 0 -410.5 -171t-154.5 -459.5z M532 1659v260h150v-260h-150zM942 1659v260h150v-260h-150z" />
<glyph unicode="&#x4e7;" horiz-adv-x="1167" d="M82 532.5q0 253.5 137 403t364.5 149.5t364.5 -149.5t137 -403t-137 -403t-364.5 -149.5t-364.5 149.5t-137 403zM236 532.5q0 -202.5 93 -316.5t254.5 -114t255 114t93.5 316.5t-93.5 316.5t-255 114t-254.5 -114t-93 -316.5zM303 1249v260h152v-260h-152zM713 1249v260 h151v-260h-151z" />
<glyph unicode="&#x4e8;" horiz-adv-x="1624" d="M82 747.5q0 348.5 200.5 558.5t530.5 210t529.5 -210t199.5 -558.5t-199.5 -558t-529.5 -209.5t-530.5 209.5t-200.5 558zM252 680q18 -260 169.5 -411.5t391.5 -151.5t391.5 151.5t169.5 411.5h-1122zM252 815h1122q-18 260 -169.5 411.5t-391.5 151.5t-391.5 -151.5 t-169.5 -411.5z" />
<glyph unicode="&#x4e9;" horiz-adv-x="1167" d="M82 532.5q0 253.5 137 403t364.5 149.5t364.5 -149.5t137 -403t-137 -403t-364.5 -149.5t-364.5 149.5t-137 403zM238 471q14 -174 106 -271.5t239.5 -97.5t239.5 97.5t107 271.5h-692zM238 594h692q-14 174 -106.5 271.5t-240 97.5t-239.5 -97.5t-106 -271.5z" />
<glyph unicode="&#x4ea;" horiz-adv-x="1624" d="M82 747.5q0 348.5 200.5 558.5t530.5 210t529.5 -210t199.5 -558.5t-199.5 -558t-529.5 -209.5t-530.5 209.5t-200.5 558zM252 680q18 -260 169.5 -411.5t391.5 -151.5t391.5 151.5t169.5 411.5h-1122zM252 815h1122q-18 260 -169.5 411.5t-391.5 151.5t-391.5 -151.5 t-169.5 -411.5zM532 1659v260h150v-260h-150zM942 1659v260h150v-260h-150z" />
<glyph unicode="&#x4eb;" horiz-adv-x="1167" d="M82 532.5q0 253.5 137 403t364.5 149.5t364.5 -149.5t137 -403t-137 -403t-364.5 -149.5t-364.5 149.5t-137 403zM238 471q14 -174 106 -271.5t239.5 -97.5t239.5 97.5t107 271.5h-692zM238 594h692q-14 174 -106.5 271.5t-240 97.5t-239.5 -97.5t-106 -271.5zM303 1249 v260h152v-260h-152zM713 1249v260h151v-260h-151z" />
<glyph unicode="&#x4ec;" horiz-adv-x="1433" d="M143 111l56 122q182 -117 395 -116q254 0 417 160.5t173 433.5h-924v131h920q-27 248 -183.5 392t-402.5 144q-213 0 -395 -116l-56 122q201 131 465 132q342 0 543 -207t201 -561q0 -350 -203 -559t-541 -209q-264 0 -465 131zM420 1659v260h149v-260h-149zM829 1659 v260h150v-260h-150z" />
<glyph unicode="&#x4ed;" horiz-adv-x="1079" d="M143 51l41 121q131 -70 273 -70q156 0 260 99.5t121 269.5h-627v123h627q-14 176 -114.5 271.5t-266.5 95.5q-135 0 -273 -72l-41 125q154 72 322 71q250 0 391 -146t141 -407q0 -252 -147.5 -402t-384.5 -150q-168 0 -322 71zM246 1249v260h149v-260h-149zM655 1249v260 h150v-260h-150z" />
<glyph unicode="&#x4ee;" horiz-adv-x="1392" d="M82 1495h192l441 -907h2l428 907h186l-516 -1051q-133 -268 -285.5 -366t-431.5 -98l-10 137q227 0 340 64.5t203 248.5zM342 1747v123h709v-123h-709z" />
<glyph unicode="&#x4ef;" horiz-adv-x="1150" d="M82 1065h168l342 -883h4l319 883h164l-413 -1065q-106 -274 -227.5 -372.5t-342.5 -98.5l-8 125q166 0 256 70.5t170 275.5zM211 1317v123h711v-123h-711z" />
<glyph unicode="&#x4f0;" horiz-adv-x="1392" d="M82 1495h192l441 -907h2l428 907h186l-516 -1051q-133 -268 -285.5 -366t-431.5 -98l-10 137q227 0 340 64.5t203 248.5zM416 1659v260h151v-260h-151zM825 1659v260h152v-260h-152z" />
<glyph unicode="&#x4f1;" horiz-adv-x="1150" d="M82 1065h168l342 -883h4l319 883h164l-413 -1065q-106 -274 -227.5 -372.5t-342.5 -98.5l-8 125q166 0 256 70.5t170 275.5zM287 1249v260h149v-260h-149zM696 1249v260h150v-260h-150z" />
<glyph unicode="&#x4f2;" horiz-adv-x="1392" d="M82 1495h192l441 -907h2l428 907h186l-516 -1051q-133 -268 -285.5 -366t-431.5 -98l-10 137q227 0 339 64.5t202 248.5zM395 1618l232 342h194l-286 -342h-140zM760 1618l233 342h195l-287 -342h-141z" />
<glyph unicode="&#x4f3;" horiz-adv-x="1150" d="M82 1065h168l342 -883h4l319 883h164l-413 -1065q-106 -274 -227.5 -372.5t-342.5 -98.5l-8 125q166 0 256 70.5t170 275.5zM266 1208l232 342h194l-286 -342h-140zM631 1208l231 342h195l-287 -342h-139z" />
<glyph unicode="&#x4f4;" horiz-adv-x="1345" d="M154 977v518h159v-502q0 -217 90.5 -300t323.5 -83q162 0 281 82v803h163v-1495h-163v551q-137 -80 -308 -80q-293 0 -419.5 117t-126.5 389zM444 1659v260h150v-260h-150zM854 1659v260h150v-260h-150z" />
<glyph unicode="&#x4f5;" horiz-adv-x="1153" d="M133 649v416h148v-387q0 -154 56 -206t216 -52q174 0 297 63v582h149v-1065h-149v358q-137 -66 -322 -65q-221 0 -308 79t-87 277zM352 1249v260h150v-260h-150zM762 1249v260h149v-260h-149z" />
<glyph unicode="&#x4f6;" horiz-adv-x="1140" d="M174 0v1495h854v-143h-684v-1215h193v-465h-152v328h-41h-61h-109z" />
<glyph unicode="&#x4f7;" horiz-adv-x="1024" d="M154 0v1065h778v-129h-621v-809h176v-373h-135v246h-41h-61h-96z" />
<glyph unicode="&#x4f8;" horiz-adv-x="1724" d="M174 12v1483h164v-588q102 16 219 17q293 0 439.5 -117t146.5 -336q0 -492 -594 -491q-205 0 -375 32zM338 135q102 -23 219 -22q432 0 432 356q0 324 -446 324q-111 -1 -205 -17v-641zM584 1659v260h149v-260h-149zM993 1659v260h150v-260h-150zM1386 0v1495h164v-1495 h-164z" />
<glyph unicode="&#x4f9;" horiz-adv-x="1458" d="M154 10v1055h149v-328q88 16 189 17q242 0 366.5 -99.5t124.5 -275.5q0 -399 -512 -399q-170 0 -317 30zM303 121q82 -18 178 -19q354 0 355 277q0 252 -365 252q-90 -1 -168 -17v-493zM451 1249v260h149v-260h-149zM860 1249v260h150v-260h-150zM1157 0v1065h148v-1065 h-148z" />
<glyph unicode="&#x4fa;" horiz-adv-x="1335" d="M92 532v123h277v840h854v-143h-684v-697h440v-123h-440v-395h192v-254q0 -188 -83 -271t-267 -83q-94 0 -193 31l33 123q78 -31 158 -31q111 0 156 52t45 179v117h-41h-62h-108v532h-277z" />
<glyph unicode="&#x4fb;" horiz-adv-x="1265" d="M92 532v123h293v410h778v-129h-620v-281h424v-123h-424v-405h178v-244q0 -188 -78 -271t-248 -83q-92 0 -190 31l31 123q76 -31 145 -31q111 0 157 52t46 179v117h-41h-62h-96v532h-293z" />
<glyph unicode="&#x4fc;" horiz-adv-x="1402" d="M92 0l469 758l-459 737h191l373 -623h4l374 623h185l-459 -737l385 -621h156v-254q0 -188 -83 -271t-267 -83q-92 0 -191 31l33 123q78 -31 155 -31q111 0 157 52t46 179v117h-86h-28l-381 643h-4l-383 -643h-187z" />
<glyph unicode="&#x4fd;" horiz-adv-x="1150" d="M102 0l375 541l-364 524h176l278 -424h4l279 424h170l-363 -524l287 -414h135v-244q0 -188 -77.5 -271t-247.5 -83q-92 0 -191 31l31 123q76 -31 145 -31q111 0 157 52t46 179v117h-82h-6l-289 442h-4l-287 -442h-172z" />
<glyph unicode="&#x4fe;" horiz-adv-x="1372" d="M113 0l432 696h-422v123h420l-420 676h190l373 -623h4l375 623h184l-420 -676h420v-123h-422l433 -696h-193l-381 643h-4l-383 -643h-186z" />
<glyph unicode="&#x4ff;" horiz-adv-x="1173" d="M123 0l332 481h-322v123h320l-320 461h176l279 -424h4l278 424h170l-319 -461h319v-123h-321l332 -481h-177l-288 442h-4l-287 -442h-172z" />
<glyph unicode="&#x2000;" horiz-adv-x="1072" vert-adv-y="0" />
<glyph unicode="&#x2001;" horiz-adv-x="2144" vert-adv-y="0" />
<glyph unicode="&#x2002;" horiz-adv-x="1072" vert-adv-y="0" />
<glyph unicode="&#x2003;" horiz-adv-x="2144" vert-adv-y="0" />
<glyph unicode="&#x2004;" horiz-adv-x="714" vert-adv-y="0" />
<glyph unicode="&#x2005;" horiz-adv-x="536" vert-adv-y="0" />
<glyph unicode="&#x2006;" horiz-adv-x="357" vert-adv-y="0" />
<glyph unicode="&#x2007;" horiz-adv-x="357" vert-adv-y="0" />
<glyph unicode="&#x2008;" horiz-adv-x="268" vert-adv-y="0" />
<glyph unicode="&#x2009;" horiz-adv-x="428" vert-adv-y="0" />
<glyph unicode="&#x200a;" horiz-adv-x="119" vert-adv-y="0" />
<glyph unicode="&#x2010;" horiz-adv-x="935" d="M164 528v131h608v-131h-608z" />
<glyph unicode="&#x2011;" horiz-adv-x="935" d="M164 528v131h608v-131h-608z" />
<glyph unicode="&#x2012;" horiz-adv-x="935" d="M164 528v131h608v-131h-608z" />
<glyph unicode="&#x2013;" horiz-adv-x="964" d="M-4 539v110h973v-110h-973z" />
<glyph unicode="&#x2014;" horiz-adv-x="1937" d="M-4 539v110h1946v-110h-1946z" />
<glyph unicode="&#x2018;" horiz-adv-x="591" d="M92 1071l205 506h152l-152 -506h-205z" />
<glyph unicode="&#x2019;" horiz-adv-x="591" d="M143 1071l150 506h207l-205 -506h-152z" />
<glyph unicode="&#x201a;" horiz-adv-x="622" d="M123 -225l149 506h207l-205 -506h-151z" />
<glyph unicode="&#x201c;" horiz-adv-x="937" d="M82 1071l205 506h137l-150 -506h-192zM463 1071l205 506h137l-150 -506h-192z" />
<glyph unicode="&#x201d;" horiz-adv-x="937" d="M133 1071l150 506h192l-205 -506h-137zM514 1071l152 506h190l-205 -506h-137z" />
<glyph unicode="&#x201e;" horiz-adv-x="968" d="M113 -225l149 506h193l-205 -506h-137zM494 -225l151 506h191l-205 -506h-137z" />
<glyph unicode="&#x2020;" horiz-adv-x="1132" d="M123 942v123h369v430h149v-430h369v-123h-369v-1182h-149v1182h-369z" />
<glyph unicode="&#x2021;" horiz-adv-x="1173" d="M143 342v123h369v477h-369v123h369v430h150v-430h368v-123h-368v-477h368v-123h-368v-582h-150v582h-369z" />
<glyph unicode="&#x2022;" horiz-adv-x="935" d="M256 747.5q0 88.5 61.5 149.5t149.5 61t150.5 -61t62.5 -149.5t-62.5 -149.5t-150.5 -61t-149.5 61t-61.5 149.5z" />
<glyph unicode="&#x2026;" horiz-adv-x="2048" d="M246 594v287h192v-287h-192zM928 594v287h192v-287h-192zM1610 594v287h192v-287h-192z" />
<glyph unicode="&#x202f;" horiz-adv-x="428" vert-adv-y="0" />
<glyph unicode="&#x2030;" horiz-adv-x="2129" d="M82 1122.5q0 186.5 80 290t223 103.5t224 -103.5t81 -290t-81 -289t-224 -102.5t-223 102.5t-80 289zM225 1122q0 -268 160 -268q162 0 162 268q0 270 -162 271q-160 0 -160 -271zM291 0l749 1495h142l-750 -1495h-141zM782 372.5q0 186.5 81 289t224.5 102.5 t223.5 -102.5t80 -289t-80 -289.5t-223.5 -103t-224.5 103t-81 289.5zM926 373q0 -271 161.5 -271t161.5 271q0 268 -161.5 268t-161.5 -268zM1440 372.5q0 186.5 81 289t224 102.5t223 -102.5t80 -289t-80 -289.5t-223 -103t-224 103t-81 289.5zM1583 373q0 -271 162 -271 q160 0 160 271q0 268 -160 268q-162 0 -162 -268z" />
<glyph unicode="&#x2039;" horiz-adv-x="798" d="M133 594l328 436h164l-330 -436l330 -436h-164z" />
<glyph unicode="&#x203a;" horiz-adv-x="798" d="M174 158l332 436l-332 436h164l328 -436l-328 -436h-164z" />
<glyph unicode="&#x2044;" horiz-adv-x="1378" d="M102 -31l1012 1557h162l-1010 -1557h-164z" />
<glyph unicode="&#x205f;" horiz-adv-x="536" vert-adv-y="0" />
<glyph unicode="&#x20ac;" horiz-adv-x="1544" d="M102 526v109h160q-6 55 -6 112.5t6 112.5h-160v109h177q55 258 234 402.5t448 144.5q248 0 440 -132l-53 -122q-172 117 -375 116q-201 0 -339 -108.5t-192 -300.5h781v-109h-801q-6 -55 -6 -112.5t6 -112.5h801v-109h-779q53 -193 193.5 -301t335.5 -108q203 0 375 116 l53 -122q-193 -131 -440 -131q-264 0 -444.5 145t-237.5 401h-177z" />
<glyph unicode="&#x2122;" horiz-adv-x="1773" d="M123 1403v92h663v-92h-276v-655h-111v655h-276zM883 748v747h112l244 -442h2l244 442h114v-747h-106v565h-2l-201 -355h-100l-201 355h-2v-565h-104z" />
<glyph unicode="&#x2202;" horiz-adv-x="1232" d="M82 512q0 227 133 359.5t360 132.5q238 0 379 -160l4 2q-18 279 -114 402.5t-285 123.5q-72 0 -179.5 -32.5t-197.5 -84.5l-49 129q90 55 218 93.5t216 38.5q293 0 433.5 -212t140.5 -686q0 -319 -138.5 -478.5t-392.5 -159.5q-233 0 -380.5 145t-147.5 387zM246 512 q0 -188 99 -291.5t265 -103.5q168 0 265.5 103.5t97.5 295.5q0 156 -102.5 258.5t-260.5 102.5q-168 0 -266 -98.5t-98 -266.5z" />
<glyph unicode="&#x2206;" d="M72 0l546 1495h185l545 -1495h-119h-55h-932h-52h-118zM289 135h837l-417 1213h-4z" />
<glyph unicode="&#x220f;" horiz-adv-x="1679" d="M174 -451v1946h1331v-1946h-168v1807h-995v-1807h-168z" />
<glyph unicode="&#x2211;" d="M143 -311l574 878l-574 789v139h1133v-139h-944l571 -789l-573 -878h946v-140h-1133v140z" />
<glyph unicode="&#x221a;" horiz-adv-x="1572" d="M92 784v117h352l332 -973h4l604 1731h148l-651 -1823h-211l-353 948h-225z" />
<glyph unicode="&#x221e;" horiz-adv-x="1734" d="M82 532.5q0 192.5 109.5 311.5t283.5 119q266 0 397 -293h5q123 293 383 293q174 0 283.5 -119t109.5 -312q0 -176 -113 -303t-280 -127q-266 0 -398 293h-4q-123 -293 -383 -293q-174 0 -283.5 119t-109.5 311.5zM219 532q0 -133 71.5 -212.5t194.5 -79.5 q113 0 196 74.5t124 211.5q-41 145 -125 222t-195 77q-121 0 -193.5 -78.5t-72.5 -214.5zM928 539q41 -145 125 -222t196 -77q117 0 192 86.5t75 205.5q0 133 -72 213t-195 80q-113 0 -196.5 -74.5t-124.5 -211.5z" />
<glyph unicode="&#x222b;" horiz-adv-x="1189" d="M92 -440l23 139q88 -27 176 -27q154 1 168 187l102 1347q10 150 94 230t230 80q106 0 213 -31l-23 -139q-88 27 -176 26q-154 0 -168 -186l-102 -1348q-10 -150 -94 -229.5t-230 -79.5q-104 0 -213 31z" />
<glyph unicode="&#x2248;" horiz-adv-x="1570" d="M184 348q133 211 351 211q156 0 286 -131q104 -104 215 -104q143 0 254 155l96 -76q-135 -213 -350 -213q-156 0 -288 134q-104 104 -213 104q-143 0 -254 -156zM184 784q135 213 351 213q154 0 286 -133q104 -104 215 -104q143 0 254 155l96 -75q-133 -211 -350 -211 q-158 0 -288 131q-104 104 -213 104q-143 0 -254 -155z" />
<glyph unicode="&#x2260;" horiz-adv-x="1542" d="M184 293v131h451l121 340h-572v131h619l106 297l135 -49l-90 -248h404v-131h-449l-123 -340h572v-131h-619l-104 -297l-135 49l88 248h-404z" />
<glyph unicode="&#x2264;" horiz-adv-x="1542" d="M184 55h1174v-131h-1174v131zM184 659v168l1174 449v-137l-1063 -394v-4l1063 -391v-139z" />
<glyph unicode="&#x2265;" horiz-adv-x="1542" d="M184 55h1174v-131h-1174v131zM184 211v139l1065 391v4l-1065 394v137l1174 -449v-168z" />
<glyph unicode="&#x25ca;" horiz-adv-x="1536" d="M92 666l676 921l676 -921l-676 -922zM211 666l557 -760l557 760l-557 759z" />
<glyph unicode="&#x25fc;" horiz-adv-x="1064" vert-adv-y="2129" d="M0 0v1065h1065v-1065h-1065z" />
</font>
</defs>
</svg>
