<svg width="51" height="40" viewBox="0 0 51 40" fill="none" xmlns="http://www.w3.org/2000/svg">
<path d="M33.9907 17.2648L26.8695 6.52973H26.7718L27.0716 9.81253L27.0781 17.2714L23.4605 17.2746C23.3595 17.2746 23.2748 17.1931 23.2748 17.0888L23.2617 0.0130399L26.9901 0.00977993L33.7136 10.771H33.8114L33.6126 7.95434L33.6061 0.00325998L37.4062 0L37.4225 17.2616L33.9907 17.2648Z" fill="#1DCFFF"/>
<path d="M10.1286 17.275L10.1123 0.013442L21.542 0.00366211L21.5452 3.43642L13.9906 3.44294L13.9939 6.82679L20.4111 6.82027L20.4143 10.2269L13.9971 10.2335L14.0004 13.8488L21.8516 13.8423L21.8548 17.2652L10.1286 17.275Z" fill="#1DCFFF"/>
<path d="M11.696 32.7595C11.7025 38.2819 9.86109 39.951 6.27934 39.9543C5.48412 39.9543 4.16419 39.7815 3.76658 39.6576L3.51562 35.8761C4.26196 36.3227 4.93333 36.4726 5.82958 36.4726C7.07456 36.4726 7.81763 35.5501 7.81763 33.1377L7.80786 22.3602L11.6894 22.3569L11.696 32.7595Z" fill="#1DCFFF"/>
<path d="M21.8274 21.9624C27.5244 21.9559 29.4179 25.4375 29.4211 30.8361C29.4244 36.0846 27.1398 39.9933 21.6449 39.9999C16.1468 40.0031 13.9567 36.2248 13.9502 30.8524C13.9437 25.4506 17.0007 21.9657 21.8274 21.9624ZM21.7166 36.691C24.5032 36.6877 25.52 34.2493 25.5167 30.9143C25.5135 27.5044 24.4673 25.3169 21.6808 25.3202C19.168 25.3234 17.8513 27.5891 17.8546 30.7709C17.8579 34.2069 18.8812 36.6942 21.7166 36.691Z" fill="#1DCFFF"/>
<path d="M34.8987 39.7588L34.8922 33.5388L28.9639 22.3506L33.4321 22.3473L33.4288 22.8982L36.8053 30.0082L40.2306 22.3408L44.3598 22.3375L38.7738 33.5388L38.7803 39.7588H34.8987Z" fill="#1DCFFF"/>
<path d="M7.68631 11.1949L6.16757 10.3147L2.25665 17.0824V15.0971H0.5V24.2967H2.25665V22.3734L5.26806 27.5893L6.79006 26.7124L2.75204 19.7165L7.68631 11.1949Z" fill="#163E97"/>
<path d="M4.34937 21.2125L12.383 16.5246L11.5292 15.0316L10.4537 15.651L8.14621 11.5923L3.46289 19.6542L4.34937 21.2125ZM8.11362 15.0837L8.92188 16.5246L6.49385 17.9525L8.11362 15.0837Z" fill="#163E97"/>
<path d="M17.187 18.6535H17.1837L16.923 18.8068L15.665 19.5337L15.6682 19.537L13.439 20.8279L11.6237 17.6658L10.9197 18.0733L10.8643 18.1059L10.1049 18.5427V18.546L4.54492 21.7733L5.42162 23.2957L10.9784 20.0684L11.9235 21.7114L10.8089 22.3569L11.6889 23.876L16.5482 21.0561L20.3255 27.5891L21.8475 26.7122L17.187 18.6535Z" fill="#163E97"/>
<path d="M26.3739 13.3917L26.1457 13.5253L25.9925 13.6133L19.6992 17.2645L20.5759 18.7869L23.2614 17.2287L30.4934 21.4014L31.4092 22.9825L32.9312 22.1056L27.5145 12.7332L26.3739 13.3917ZM25.0148 16.2115L26.8725 15.1325L28.7367 18.3566L25.0148 16.2115Z" fill="#163E97"/>
<path d="M23.2707 20.9811L21.7258 21.8809L17.854 15.1816L16.332 16.0618L20.6112 23.4555L21.0903 24.2835L23.2707 23.0154V27.5891H25.024L25.0273 18.9274L23.2707 17.8972V20.9811Z" fill="#163E97"/>
<path d="M38.2759 16.8833L39.195 15.3217L29.2971 12.6583L28.8408 14.3535L33.2145 15.5271V26.1448H34.9679V15.9965L38.2759 16.8833Z" fill="#163E97"/>
<path d="M50.7743 19.488H46.9872L44.6439 15.4065L45.6803 13.6201L44.1616 12.7399L39.9834 19.9575L41.2642 21.2451H45.9736L47.7238 24.2932L49.0111 23.0055L48.0008 21.2451H50.7775V19.488H50.7743ZM42.2778 19.488L43.6238 17.1637L44.96 19.488H42.2778Z" fill="#163E97"/>
<path d="M42.0408 15.0905L40.5188 14.2103L37.4227 19.5632V18.0571H35.666V27.5893H37.4227V23.0709L38.2537 21.6333L44.2179 27.5925L45.4596 26.3537L39.1663 20.062L42.0408 15.0905Z" fill="#163E97"/>
</svg>
