<svg width="89" height="70" viewBox="0 0 89 70" fill="none" xmlns="http://www.w3.org/2000/svg">
<path d="M58.7073 30.2135L46.2453 11.4271H46.0742L46.599 17.172L46.6104 30.2249L40.2795 30.2306C40.1027 30.2306 39.9545 30.088 39.9545 29.9055L39.9316 0.0228199L46.4564 0.0171149L58.2225 18.8492H58.3936L58.0457 13.9201L58.0343 0.00570497L64.6845 0L64.7131 30.2078L58.7073 30.2135Z" fill="#FBFBFB"/>
<path d="M16.9475 30.2313L16.9189 0.0234626L36.9209 0.00634766L36.9266 6.01368L23.706 6.02509L23.7117 11.9469L34.9418 11.9354L34.9475 17.8971L23.7174 17.9085L23.7231 24.2354L37.4627 24.2239L37.4684 30.2142L16.9475 30.2313Z" fill="#FBFBFB"/>
<path d="M19.6906 57.3296C19.702 66.9938 16.4796 69.9147 10.2115 69.9204C8.81987 69.9204 6.50998 69.6181 5.81416 69.4013L5.375 62.7835C6.68109 63.5651 7.85599 63.8275 9.42444 63.8275C11.6031 63.8275 12.9035 62.213 12.9035 57.9913L12.8864 39.1307L19.6792 39.125L19.6906 57.3296Z" fill="#FBFBFB"/>
<path d="M37.4219 38.4346C47.3915 38.4232 50.7052 44.5161 50.7109 53.9635C50.7166 63.1485 46.7185 69.9888 37.1025 70.0002C27.4809 70.0059 23.6481 63.3938 23.6367 53.992C23.6253 44.5389 28.9752 38.4403 37.4219 38.4346ZM37.228 64.2096C42.1045 64.2039 43.8839 59.9366 43.8782 54.1004C43.8725 48.133 42.0417 44.305 37.1653 44.3107C32.7679 44.3164 30.4637 48.2814 30.4694 53.8494C30.4752 59.8625 32.266 64.2153 37.228 64.2096Z" fill="#FBFBFB"/>
<path d="M60.2942 69.5782L60.2827 58.6931L49.9082 39.1136L57.7276 39.1079L57.7219 40.0721L63.6307 52.5146L69.625 39.0965L76.8512 39.0908L67.0755 58.6931L67.0869 69.5782H60.2942Z" fill="#FBFBFB"/>
<path d="M12.6757 19.5906L10.0179 18.0503L3.17376 29.8938V26.4195H0.0996094V42.5189H3.17376V39.153L8.44373 48.2809L11.1072 46.7463L4.04068 34.5034L12.6757 19.5906Z" fill="#163E97"/>
<path d="M6.83551 37.1215L20.8945 28.9178L19.4002 26.3049L17.518 27.3888L13.48 20.2861L5.28418 34.3945L6.83551 37.1215ZM13.423 26.3962L14.8374 28.9178L10.5884 31.4165L13.423 26.3962Z" fill="#163E97"/>
<path d="M29.3014 32.6436H29.2957L28.8394 32.9118L26.6378 34.184L26.6436 34.1897L22.7424 36.4489L19.5656 30.915L18.3337 31.6282L18.2367 31.6852L16.9078 32.4497V32.4554L7.17773 38.1033L8.71196 40.7675L18.4363 35.1196L20.0903 37.9949L18.1397 39.1245L19.6797 41.783L28.1835 36.8482L34.7938 48.281L37.4573 46.7463L29.3014 32.6436Z" fill="#163E97"/>
<path d="M45.3799 23.4354L44.9806 23.6693L44.7126 23.8233L33.6992 30.2129L35.2334 32.8771L39.9331 30.1501L52.589 37.4525L54.1917 40.2194L56.8552 38.6848L47.3761 22.283L45.3799 23.4354ZM43.0015 28.3702L46.2525 26.4818L49.5148 32.124L43.0015 28.3702Z" fill="#163E97"/>
<path d="M39.9493 36.717L37.2458 38.2916L30.4701 26.5679L27.8066 28.1082L35.2952 41.0471L36.1337 42.4962L39.9493 40.2769V48.281H43.0177L43.0234 33.1229L39.9493 31.3201V36.717Z" fill="#163E97"/>
<path d="M66.2077 29.5455L67.8161 26.8128L50.4948 22.1519L49.6963 25.1184L57.3503 27.1722V45.7533H60.4187V27.9937L66.2077 29.5455Z" fill="#163E97"/>
<path d="M88.0804 34.1042H81.453L77.3522 26.9616L79.1659 23.8353L76.5081 22.2949L69.1963 34.9257L71.4377 37.1792H79.6792L82.7419 42.5133L84.9948 40.2599L83.2267 37.1792H88.0861V34.1042H88.0804ZM73.2115 34.1042L75.567 30.0366L77.9054 34.1042H73.2115Z" fill="#163E97"/>
<path d="M72.7956 26.4083L70.1321 24.8679L64.7138 34.2355V31.5998H61.6396V48.2811H64.7138V40.374L66.1682 37.8581L76.6055 48.2868L78.7785 46.1189L67.7651 35.1083L72.7956 26.4083Z" fill="#163E97"/>
</svg>
