<svg width="192" height="50" viewBox="0 0 192 50" fill="none" xmlns="http://www.w3.org/2000/svg">
<path d="M27.0622 9.03354L34.0817 18.4313V20.5985H39.2025V0.0385742H34.0817V9.87742L26.7362 0.0385742H21.9414V20.5985H27.0622V9.03354Z" fill="#FBFBFB"/>
<path d="M51.093 20.5983C51.9947 20.5958 52.887 20.4157 53.7191 20.0683C54.5512 19.7209 55.3067 19.213 55.9425 18.5737C56.5783 17.9343 57.0819 17.176 57.4246 16.342C57.7673 15.508 57.9424 14.6147 57.9399 13.713V0H46.6243V4.92901H53.0301V13.7322C53.0301 14.2408 52.828 14.7287 52.4683 15.0883C52.1087 15.448 51.6208 15.6501 51.1122 15.6501C50.6035 15.6501 50.1157 15.448 49.756 15.0883C49.3963 14.7287 49.1943 14.2408 49.1943 13.7322V13.0609H44.2461V13.7322C44.2461 15.5499 44.9668 17.2934 46.2503 18.5805C47.5338 19.8676 49.2753 20.5932 51.093 20.5983Z" fill="#FBFBFB"/>
<path d="M83.5062 10.2993C83.5024 8.26616 82.8958 6.27977 81.763 4.59135C80.6303 2.90293 79.0224 1.58833 77.1425 0.813768C75.2626 0.0392099 73.1953 -0.160509 71.2019 0.239865C69.2085 0.64024 67.3787 1.62273 65.9437 3.06308C64.5087 4.50344 63.533 6.33697 63.1401 8.33183C62.7472 10.3267 62.9546 12.3932 63.7362 14.2702C64.5177 16.1472 65.8383 17.7502 67.531 18.8766C69.2236 20.0031 71.2122 20.6023 73.2454 20.5985C75.9703 20.5883 78.58 19.4988 80.5032 17.5684C82.4264 15.638 83.5062 13.0242 83.5062 10.2993ZM67.7219 10.2993C67.7181 9.20987 68.0377 8.14377 68.6402 7.23606C69.2427 6.32835 70.101 5.61986 71.1065 5.2003C72.1119 4.78075 73.2193 4.669 74.2883 4.87922C75.3573 5.08943 76.3399 5.61216 77.1116 6.38119C77.8833 7.15022 78.4095 8.13097 78.6234 9.19923C78.8373 10.2675 78.7295 11.3752 78.3134 12.3821C77.8974 13.3891 77.1919 14.2499 76.2863 14.8555C75.3807 15.4612 74.3157 15.7845 73.2262 15.7845C71.7697 15.7845 70.3725 15.2073 69.3408 14.1791C68.3091 13.151 67.7269 11.7559 67.7219 10.2993Z" fill="#FBFBFB"/>
<path d="M97.4681 20.5983V16.9926L104.967 0H99.7696L94.8981 10.932L90.065 0H84.8291L92.3473 16.9926V20.5983H97.4681Z" fill="#FBFBFB"/>
<path d="M16.4553 20.5985V15.4777H5.63838V13.0036H12.6004V7.8828H5.63838V5.15937H15.8416V0.0385742H0.517578V2.64692V5.15937V7.8828V20.5985H5.63838H16.4553Z" fill="#FBFBFB"/>
<path d="M107.345 40.6216H99.8073V29.3635H94.6865V49.9426H99.8073V45.7232H107.345V49.9426H112.446V29.3635H107.345V40.6216Z" fill="#FBFBFB"/>
<path d="M138.703 34.4457H144.323V49.9424H149.443V34.4457H155.082V29.325H138.703V34.4457Z" fill="#FBFBFB"/>
<path d="M27.5419 29.4399L19.2949 49.9999H25.0294L29.9009 37.8787L34.7724 49.9999H40.4877L32.2408 29.4399H27.5419Z" fill="#FBFBFB"/>
<path d="M124.952 29.4399L116.686 49.9999H122.439L127.292 37.8787L132.163 49.9999H137.898L129.631 29.4399H124.952Z" fill="#FBFBFB"/>
<path d="M183.524 29.4399H178.844L170.578 49.9999H176.332L181.184 37.8787L186.056 49.9999H191.79L183.524 29.4399Z" fill="#FBFBFB"/>
<path d="M169.351 29.3635H163.348L155.753 41.0436L163.482 49.9426H170.156L162.044 40.6216L169.351 29.3635Z" fill="#FBFBFB"/>
<path d="M80.1107 34.1768C81.1359 34.1812 82.1393 34.4729 83.0071 35.0187C83.875 35.5645 84.5725 36.3425 85.0205 37.2646L89.8728 36.4399C89.1229 34.1016 87.5621 32.1082 85.472 30.8192C83.3819 29.5302 80.9 29.0304 78.4739 29.4099C76.0478 29.7894 73.8371 31.0233 72.2406 32.8891C70.644 34.7549 69.7666 37.1297 69.7666 39.5853C69.7666 42.0409 70.644 44.4157 72.2406 46.2815C73.8371 48.1472 76.0478 49.3811 78.4739 49.7607C80.9 50.1402 83.3819 49.6404 85.472 48.3514C87.5621 47.0624 89.1229 45.069 89.8728 42.7307L85.0205 41.9827C84.5949 42.8673 83.9396 43.6215 83.1231 44.1666C82.3065 44.7116 81.3587 45.0275 80.3784 45.0813C79.3982 45.1351 78.4215 44.9249 77.5502 44.4725C76.6789 44.0201 75.945 43.3422 75.425 42.5095C74.9051 41.6768 74.6181 40.7197 74.5942 39.7383C74.5702 38.7569 74.8101 37.787 75.2888 36.9299C75.7674 36.0728 76.4674 35.3598 77.3155 34.8654C78.1637 34.3711 79.129 34.1134 80.1107 34.1193V34.1768Z" fill="#FBFBFB"/>
<path d="M17.779 29.4402H11.7759L5.1208 39.6818V38.627V29.3635H0V49.9426H5.1208V47.9288V42.1943L11.9294 50.0002H18.6037L10.4717 40.6791L17.779 29.4402Z" fill="#FBFBFB"/>
<path d="M61.987 29.3442H56.9046L51.2467 42.4819L45.5889 29.3442H40.4873L48.6959 48.389H53.7784L59.4745 35.1555V50H64.557V29.3634H61.987V29.3442Z" fill="#FBFBFB"/>
</svg>
