<svg width="165" height="131" viewBox="0 0 165 131" fill="none" xmlns="http://www.w3.org/2000/svg">
<path d="M110.13 56.4589L86.8599 21.3788H86.5404L87.5202 32.1063L87.5415 56.4802L75.72 56.4908C75.3898 56.4908 75.1129 56.2245 75.1129 55.8836L75.0703 0.0836273L87.254 0.0729744L109.225 35.2383H109.544L108.895 26.0341L108.874 0.0516685L121.292 0.0410156L121.345 56.4482L110.13 56.4589Z" fill="#1DCFFF"/>
<path d="M32.1509 56.4919L32.0977 0.0846931L69.4474 0.0527344L69.458 11.2703L44.7712 11.2916L44.7819 22.3493L65.7518 22.328L65.7625 33.4603L44.7925 33.4816L44.8032 45.2957L70.4591 45.2744L70.4698 56.4599L32.1509 56.4919Z" fill="#1DCFFF"/>
<path d="M37.2736 107.093C37.2949 125.139 31.2776 130.593 19.5732 130.604C16.9746 130.604 12.6614 130.039 11.362 129.635L10.542 117.277C12.9809 118.737 15.1748 119.227 18.1035 119.227C22.1718 119.227 24.6001 116.212 24.6001 108.329L24.5681 73.1103L37.2523 73.0996L37.2736 107.093Z" fill="#1DCFFF"/>
<path d="M70.3857 71.8086C89.002 71.7873 95.1897 83.1646 95.2003 100.806C95.211 117.957 87.7453 130.73 69.7893 130.751C51.8227 130.762 44.6659 118.415 44.6446 100.859C44.6233 83.2072 54.613 71.8193 70.3857 71.8086ZM70.0236 119.938C79.1294 119.928 82.4522 111.959 82.4416 101.062C82.4309 89.9186 79.0123 82.7705 69.9065 82.7811C61.6953 82.7918 57.3927 90.1956 57.4033 100.593C57.414 111.821 60.7581 119.949 70.0236 119.938Z" fill="#1DCFFF"/>
<path d="M113.092 129.964L113.071 109.639L93.6982 73.0778L108.299 73.0671L108.289 74.8675L119.322 98.1015L130.515 73.0458L144.009 73.0352L125.755 109.639L125.776 129.964H113.092Z" fill="#1DCFFF"/>
<path d="M24.1738 36.6224L19.2109 33.7461L6.43081 55.8616V49.3739H0.69043V79.4365H6.43081V73.1512L16.2714 90.1959L21.245 87.3303L8.04961 64.4691L24.1738 36.6224Z" fill="#FBFBFB"/>
<path d="M13.2679 69.3586L39.5203 54.0397L36.73 49.1607L33.2154 51.1848L25.6752 37.9219L10.3711 64.2665L13.2679 69.3586ZM25.5687 49.3312L28.2099 54.0397L20.2756 58.7057L25.5687 49.3312Z" fill="#FBFBFB"/>
<path d="M55.2178 60.9974H55.2071L54.3551 61.4981L50.2442 63.8737L50.2549 63.8843L42.9702 68.1029L37.0382 57.7695L34.7377 59.1011L34.5567 59.2077L32.0752 60.6352V60.6458L13.9062 71.1922L16.7711 76.1671L34.9294 65.6207L38.018 70.9898L34.3756 73.0991L37.2512 78.0633L53.1304 68.8486L65.4738 90.197L70.4474 87.3314L55.2178 60.9974Z" fill="#FBFBFB"/>
<path d="M85.2429 43.8023L84.4974 44.239L83.9969 44.5267L63.4316 56.4579L66.2965 61.4329L75.0721 56.3408L98.7046 69.9765L101.697 75.1432L106.671 72.2775L88.9705 41.6504L85.2429 43.8023ZM80.8019 53.0171L86.8724 49.4909L92.9642 60.0267L80.8019 53.0171Z" fill="#FBFBFB"/>
<path d="M75.1027 68.6039L70.0545 71.5441L57.4023 49.6523L52.4287 52.5286L66.4122 76.6894L67.9778 79.3953L75.1027 75.2513V90.1973H80.8324L80.843 61.8925L75.1027 58.5262V68.6039Z" fill="#FBFBFB"/>
<path d="M124.135 55.2124L127.138 50.1097L94.7937 41.4062L93.3027 46.9458L107.595 50.7808V85.4774H113.325V52.3148L124.135 55.2124Z" fill="#FBFBFB"/>
<path d="M164.977 63.7234H152.602L144.944 50.386L148.331 44.5482L143.368 41.6719L129.715 65.2574L133.9 69.4653H149.29L155.009 79.4258L159.215 75.2179L155.914 69.4653H164.988V63.7234H164.977ZM137.212 63.7234L141.611 56.1279L145.977 63.7234H137.212Z" fill="#FBFBFB"/>
<path d="M136.436 49.3548L131.462 46.4785L121.345 63.9706V59.049H115.604V90.1981H121.345V75.4331L124.061 70.7352L143.55 90.2087L147.608 86.1606L127.043 65.6005L136.436 49.3548Z" fill="#FBFBFB"/>
</svg>
