<svg width="1013" height="110" viewBox="0 0 1013 110" fill="none" xmlns="http://www.w3.org/2000/svg">
<path fill-rule="evenodd" clip-rule="evenodd" d="M463.399 65.0739L398.598 0.841797L331.509 65.0883L266.694 0.841797L199.647 65.0478L134.873 0.841797L67.7838 65.0883L2.96875 0.841797L-86.665 86.6776L-64.6044 109.714L2.58502 45.3721L63.6196 105.871L67.2999 109.714L134.489 45.3721L193.888 104.25L199.121 109.714L266.31 45.3721L327.345 105.871L331.025 109.714L398.215 45.3721L458.648 105.275L462.899 109.715L530.089 45.3726L591.123 105.872L594.804 109.715L661.993 45.3726L721.392 104.25L726.625 109.715L793.814 45.3726L854.849 105.872L858.529 109.715L925.718 45.3726L990.437 109.523L1012.89 86.8699L926.102 0.842279L859.013 65.0888L794.198 0.842279L727.151 65.0483L662.377 0.842279L595.288 65.0888L530.473 0.842279L463.399 65.0739Z" fill="#4364F7"/>
</svg>
