<svg width="136" height="27" viewBox="0 0 136 27" fill="none" xmlns="http://www.w3.org/2000/svg">
<path d="M114.731 0.95874L135.25 21.2982L129.941 26.654L114.64 11.487L98.7543 26.6994L97.8842 25.7907L83.4539 11.487L67.5684 26.6994L66.3311 25.4073L52.2875 11.487L36.402 26.6994L35.5319 25.7907L21.1016 11.487L5.21606 26.6994L0.000274658 21.2528L21.1923 0.95874L36.5164 16.1485L52.3783 0.95874L67.6928 16.1389L83.5446 0.95874L98.8688 16.1485L114.731 0.95874Z" fill="white"/>
<path d="M114.731 0.95874L135.25 21.2982L129.941 26.654L114.64 11.487L98.7543 26.6994L97.8842 25.7907L83.4539 11.487L67.5684 26.6994L66.3311 25.4073L52.2875 11.487L36.402 26.6994L35.5319 25.7907L21.1016 11.487L5.21606 26.6994L0.000274658 21.2528L21.1923 0.95874L36.5164 16.1485L52.3783 0.95874L67.6928 16.1389L83.5446 0.95874L98.8688 16.1485L114.731 0.95874Z" fill="#163E97"/>
</svg>
