<svg width="60" height="61" viewBox="0 0 60 61" fill="none" xmlns="http://www.w3.org/2000/svg">
<path d="M33.9479 20.0179C34.9247 20.156 35.8814 20.4014 36.8266 20.6919C38.4767 21.2 40.0338 21.9059 41.4982 22.8217C41.6001 22.8849 41.7361 22.9251 41.8562 22.9251C43.5762 22.9322 45.2956 22.9297 47.0143 22.9311C47.1527 22.9311 47.2905 22.9456 47.4287 22.9535C47.4287 22.9872 47.4336 23.0014 47.4279 23.0092C47.3477 23.1328 47.2664 23.2546 47.1858 23.3778C46.6023 24.2726 46.1038 25.2087 45.8094 26.2434C45.7775 26.3545 45.7707 26.4476 45.846 26.5566C47.3772 28.7553 47.8658 31.1693 47.2259 33.7714C46.6648 36.0536 45.3567 37.8329 43.3689 39.0928C41.9481 39.9937 40.3786 40.4226 38.7019 40.4319C37.9974 40.4361 37.2964 40.3413 36.6082 40.1631C34.9315 39.7281 33.4941 38.8922 32.3095 37.6263C32.1532 37.4601 32.0062 37.2865 31.8397 37.0986C31.2133 38.0322 30.5969 38.9504 29.9655 39.8928C29.3366 38.9533 28.7287 38.0439 28.1222 37.138C28.0803 37.16 28.0682 37.1625 28.0601 37.1703C28.0462 37.1817 28.0345 37.1955 28.0235 37.2087C26.5907 38.9007 24.7882 39.9379 22.5923 40.2849C21.3708 40.4784 20.161 40.4088 18.9747 40.0818C17.2933 39.6198 15.8644 38.7328 14.71 37.4239C13.5818 36.1441 12.8802 34.6584 12.6167 32.9692C12.3152 31.3926 12.6824 29.8725 12.774 29.5035C13.0396 28.4311 13.5027 27.4465 14.1383 26.541C14.183 26.4767 14.1986 26.3631 14.1773 26.2864C13.9181 25.3358 13.4714 24.4711 12.9484 23.6431C12.8156 23.4325 12.6565 23.2375 12.5095 23.0355C12.5095 23.0124 12.5095 22.9886 12.5095 22.9652C12.5389 22.9687 12.5681 22.9744 12.5968 22.9744C14.3567 22.9751 16.1161 22.9758 17.876 22.9723C17.9527 22.9723 18.0379 22.9407 18.1033 22.8988C19.3397 22.1055 20.6571 21.477 22.0412 20.9877C23.0394 20.6354 24.0585 20.3606 25.0979 20.1592C26.1042 19.9646 27.1159 19.8276 28.1382 19.7601C30.6306 19.5684 32.6227 19.8322 33.9479 20.0179ZM31.7417 31.6405C31.7417 35.505 34.8772 38.6621 38.7278 38.6472C42.593 38.6333 45.7143 35.565 45.7114 31.6579C45.7086 27.6315 42.4424 24.6046 38.5779 24.6831C34.7628 24.7623 31.7765 27.8374 31.7417 31.6405ZM21.2625 24.6565C17.5035 24.6238 14.226 27.7611 14.2917 31.7573C14.3528 35.484 17.4243 38.6433 21.3406 38.6095C25.17 38.5769 28.2479 35.4499 28.255 31.6632C28.2611 27.7728 25.1455 24.6565 21.2625 24.6565ZM21.6091 22.8334C23.7326 22.963 25.5979 23.7031 27.1738 25.1362C28.7465 26.5665 29.6679 28.3509 30.0028 30.4491C30.3472 28.3757 31.2446 26.6081 32.7878 25.192C34.3335 23.7744 36.174 23.0305 38.2626 22.8732C35.7841 21.7714 33.1706 21.3033 30.4804 21.2515C27.423 21.1915 24.4491 21.6421 21.6091 22.8334Z" fill="#1DCFFF"/>
<path d="M38.7141 27.2344C41.1056 27.2305 43.0427 29.1572 43.0427 31.5463C43.0427 33.9446 41.1386 35.7985 38.8923 35.8841C36.3836 35.9803 34.3762 33.9815 34.377 31.5569C34.3791 29.1047 36.4006 27.1939 38.7141 27.2344ZM41.5349 31.5569C41.5339 29.9981 40.2736 28.7311 38.7254 28.7311C37.1595 28.7311 35.8847 29.9913 35.8783 31.5456C35.8726 33.0931 37.1538 34.3807 38.7052 34.3849C40.2591 34.3909 41.5356 33.113 41.5349 31.5569Z" fill="#1DCFFF"/>
<path d="M21.1708 27.2344C23.561 27.2319 25.5008 29.1622 25.4948 31.5509C25.4881 33.9688 23.5823 35.7822 21.3754 35.8827C18.8567 35.9978 16.8245 33.9901 16.8291 31.5524C16.8341 29.0827 18.8695 27.1932 21.1708 27.2344ZM23.9885 31.5474C23.9839 29.9789 22.7155 28.7287 21.1321 28.7315C19.6049 28.7343 18.3251 30.0233 18.3287 31.5563C18.3326 33.107 19.6109 34.3821 21.1666 34.3864C22.7127 34.3899 23.9924 33.1023 23.9885 31.5474Z" fill="#1DCFFF"/>
<path d="M38.7154 30.1182C39.508 30.1175 40.1578 30.7676 40.1503 31.5556C40.1425 32.3453 39.5037 32.9852 38.7243 32.9855C37.9218 32.9855 37.2765 32.3513 37.2783 31.5655C37.2797 30.7502 37.9065 30.1189 38.7154 30.1182Z" fill="#1DCFFF"/>
<path d="M21.1632 30.1086C21.9678 30.1079 22.6144 30.7507 22.6176 31.5528C22.6208 32.3482 21.9682 33.0012 21.1674 33.003C20.3475 33.0048 19.7151 32.3713 19.7158 31.5471C19.7158 30.7379 20.3468 30.1097 21.1632 30.1086Z" fill="#1DCFFF"/>
<circle cx="30" cy="30.0625" r="29" stroke="#1DCFFF" stroke-width="2"/>
</svg>
