<svg width="720" height="720" viewBox="0 0 720 720" fill="none" xmlns="http://www.w3.org/2000/svg">
<g opacity="0.3">
<path d="M419.511 40.3593L402.898 47.5055L434.812 121.438L418.398 109.235L407.601 123.759L483.66 180.306L494.458 165.782L478.556 153.96L540.19 161.123L542.295 143.15L459.635 133.533L419.511 40.3593Z" fill="#4364F7"/>
<path d="M481.827 129.524L492.45 34.29L474.857 32.1722L473.367 44.8713L425.628 39.0012L463.495 127.275L481.827 129.524ZM454.294 60.7313L471.175 62.9057L468.056 91.7564L454.294 60.7313Z" fill="#4364F7"/>
<path d="M539.567 7.65904L539.546 7.686L539.211 10.7834L537.488 25.6527L537.535 25.6457L534.506 52.0112L497.204 47.5828L496.246 55.9077L496.175 56.5662L495.119 65.5294L495.146 65.5495L487.654 131.355L505.629 133.465L513.102 67.6859L532.495 69.971L530.981 83.1537L548.949 85.2162L555.504 27.7083L632.734 36.6349L634.839 18.6614L539.567 7.65904Z" fill="#4364F7"/>
<path d="M552.54 -100.637L552.243 -97.9296L552.029 -96.1221L543.533 -21.6486L561.508 -19.5391L565.132 -51.32L644.083 -85.4626L662.784 -83.3158L664.889 -101.289L554.107 -114.116L552.54 -100.637ZM567.5 -72.0683L569.997 -94.0596L608.112 -89.6547L567.5 -72.0683Z" fill="#4364F7"/>
<path d="M596.216 -28.3425L594.16 -10.04L514.974 -19.2072L512.896 -1.21359L600.326 8.85355L610.117 9.98226L613.034 -15.8388L650.849 12.2744L661.626 -2.22201L590.034 -55.4898L570.719 -47.2984L596.216 -28.3425Z" fill="#4364F7"/>
<path d="M824.468 43.8111L840.762 35.9669L805.742 -36.5461L822.658 -25.05L832.83 -40.0183L754.441 -93.289L744.269 -78.3207L760.658 -67.1833L698.776 -71.7266L697.435 -53.6799L780.428 -47.5775L824.468 43.8111Z" fill="#4364F7"/>
<path d="M758.426 -42.6309L751.852 52.9681L769.519 54.3379L770.469 41.5871L818.413 45.4274L776.837 -41.1613L758.426 -42.6309ZM788.852 24.9325L771.894 23.476L773.787 -5.48108L788.852 24.9325Z" fill="#4364F7"/>
<path d="M705.907 81.5733L705.926 81.5455L706.13 78.4367L707.22 63.5077L707.173 63.5166L709.081 37.0464L746.538 39.8889L747.142 31.5309L747.185 30.8701L747.86 21.8701L747.832 21.8512L752.527 -44.2133L734.478 -45.5586L729.802 20.4781L710.329 19.0175L711.283 5.78244L693.243 4.48379L689.133 62.218L611.594 56.5745L610.253 74.6212L705.907 81.5733Z" fill="#4364F7"/>
<path d="M697.538 190.322L697.72 187.604L697.857 185.79L703.187 111.023L685.138 109.677L682.866 141.583L605.434 179.043L586.658 177.692L585.317 195.738L696.544 203.855L697.538 190.322ZM681.38 162.413L679.817 184.491L641.55 181.706L681.38 162.413Z" fill="#4364F7"/>
<path d="M650.835 119.945L652.114 101.572L731.617 107.372L732.93 89.3069L645.151 82.9565L635.321 82.244L633.502 108.166L594.529 81.6812L584.376 96.6217L658.163 146.805L677.113 137.802L650.835 119.945Z" fill="#4364F7"/>
<path d="M598.862 271.527L606.846 288.4L686.854 219.484L675.052 205.78L639.725 236.252L549.253 174.77L539.1 189.71L625.572 248.474L598.862 271.527Z" fill="#4364F7"/>
<path d="M504.293 362.944L526.222 330.675L574.569 334.342L583.79 353.517L600.084 345.673L562.778 268.278L544.389 271.735L517.119 311.864L481.013 309.126L484.53 327.552L505.381 329.137L489.302 352.797L504.274 362.972L504.293 362.944ZM553.492 290.547L565.504 315.475L537.96 313.402L553.492 290.547Z" fill="#4364F7"/>
<path d="M592.343 313.983L608.656 306.111L580.973 248.733L593.806 257.454L603.978 242.486L522.756 187.29L512.584 202.258L551.084 228.421L558.522 243.828L473.208 260.14L476.574 277.894L566.626 260.702L592.343 313.983Z" fill="#4364F7"/>
<path d="M77.1375 -3.05265L60.5252 4.09352L92.4393 78.0264L76.0253 65.8233L65.2277 80.3467L141.287 136.894L152.085 122.37L136.183 110.548L197.817 117.711L199.922 99.7379L117.262 90.1214L77.1375 -3.05265Z" fill="#4364F7"/>
<path d="M139.454 86.1123L150.076 -9.12192L132.484 -11.2397L130.994 1.45941L83.2551 -4.41071L121.122 83.8632L139.454 86.1123ZM111.921 17.3194L128.802 19.4938L125.683 48.3445L111.921 17.3194Z" fill="#4364F7"/>
<path d="M197.193 -35.7529L197.173 -35.726L196.837 -32.6286L195.115 -17.7593L195.162 -17.7662L192.133 8.59926L154.831 4.17088L153.873 12.4958L153.802 13.1542L152.746 22.1175L152.773 22.1375L145.28 87.9434L163.256 90.0529L170.729 24.274L190.122 26.559L188.607 39.7417L206.576 41.8043L213.131 -15.7037L290.361 -6.77703L292.466 -24.7506L197.193 -35.7529Z" fill="#4364F7"/>
<path d="M253.843 -71.7544L251.786 -53.4519L172.601 -62.6191L170.523 -44.6255L257.953 -34.5584L267.744 -33.4297L270.661 -59.2507L308.475 -31.1375L319.253 -45.6339L247.661 -98.9017L228.346 -90.7103L253.843 -71.7544Z" fill="#4364F7"/>
<path d="M482.095 0.399152L498.389 -7.44508L463.368 -79.9581L480.285 -68.462L490.457 -83.4303L412.068 -136.701L401.896 -121.733L418.285 -110.595L356.403 -115.139L355.062 -97.0919L438.055 -90.9895L482.095 0.399152Z" fill="#4364F7"/>
<path d="M416.053 -86.0429L409.479 9.55613L427.146 10.9259L428.095 -1.82493L476.04 2.01542L434.464 -84.5733L416.053 -86.0429ZM446.479 -18.4795L429.521 -19.936L431.414 -48.8931L446.479 -18.4795Z" fill="#4364F7"/>
<path d="M363.534 38.1613L363.552 38.1335L363.757 35.0247L364.847 20.0957L364.8 20.1047L366.708 -6.36557L404.165 -3.52305L404.769 -11.8811L404.812 -12.5419L405.487 -21.5419L405.459 -21.5608L410.154 -87.6253L392.105 -88.9705L387.429 -22.9339L367.956 -24.3944L368.91 -37.6295L350.87 -38.9282L346.76 18.806L269.221 13.1625L267.88 31.2092L363.534 38.1613Z" fill="#4364F7"/>
<path d="M355.165 146.91L355.347 144.192L355.484 142.378L360.814 67.6107L342.765 66.2654L340.493 98.1714L263.06 135.631L244.285 134.28L242.944 152.326L354.171 160.443L355.165 146.91ZM339.006 119.002L337.444 141.079L299.177 138.294L339.006 119.002Z" fill="#4364F7"/>
<path d="M308.462 76.5328L309.74 58.1595L389.244 63.9604L390.557 45.8949L302.778 39.5445L292.948 38.832L291.128 64.7536L252.156 38.2692L242.003 53.2097L315.79 103.393L334.74 94.3903L308.462 76.5328Z" fill="#4364F7"/>
<path d="M256.489 228.115L264.473 244.988L344.481 176.072L332.678 162.368L297.352 192.84L206.88 131.358L196.727 146.298L283.199 205.062L256.489 228.115Z" fill="#4364F7"/>
<path d="M161.92 319.532L183.849 287.263L232.196 290.93L241.417 310.106L257.711 302.261L220.405 224.866L202.016 228.323L174.746 268.452L138.639 265.714L142.157 284.14L163.008 285.725L146.929 309.385L161.901 319.56L161.92 319.532ZM211.119 247.135L223.13 272.063L195.587 269.99L211.119 247.135Z" fill="#4364F7"/>
<path d="M249.97 270.571L266.283 262.699L238.6 205.321L251.433 214.042L261.605 199.074L180.383 143.878L170.211 158.846L208.711 185.009L216.148 200.416L130.835 216.728L134.2 234.482L224.253 217.29L249.97 270.571Z" fill="#4364F7"/>
<path d="M-115.522 304.278L-115.819 306.986L-116.033 308.793L-124.529 383.267L-106.554 385.376L-102.93 353.595L-23.9788 319.453L-5.27772 321.6L-3.17272 303.626L-113.955 290.8L-115.522 304.278ZM-100.562 332.847L-98.0643 310.856L-59.9498 315.261L-100.562 332.847Z" fill="#4364F7"/>
<path d="M-13.4914 227.332L-20.7524 210.135L-103.611 275.596L-92.4007 289.788L-55.8141 260.842L31.9697 326.105L42.7472 311.609L-41.1555 249.231L-13.4914 227.332Z" fill="#4364F7"/>
<path d="M84.8695 140.007L61.5917 171.317L13.4439 165.603L5.04441 146.054L-11.5679 153.2L22.4229 232.107L40.9419 229.433L69.8889 190.497L105.847 194.763L103.113 176.205L82.3491 173.737L99.4169 150.78L84.8895 139.98L84.8695 140.007ZM32.6447 210.253L21.7011 184.837L49.1314 188.077L32.6447 210.253Z" fill="#4364F7"/>
<path d="M-5.17728 185.19L-21.8096 192.363L3.41526 250.863L-9.03672 241.606L-19.8343 256.129L58.9744 314.72L69.772 300.197L32.416 272.424L25.6383 256.716L111.567 244.036L108.957 226.156L18.2564 239.514L-5.17728 185.19Z" fill="#4364F7"/>
<path d="M156.406 448.727L172.7 440.882L137.68 368.369L154.596 379.865L164.768 364.897L86.3792 311.626L76.2073 326.595L92.5962 337.732L30.714 333.189L29.3731 351.236L112.367 357.338L156.406 448.727Z" fill="#4364F7"/>
<path d="M90.3647 362.285L83.7902 457.884L101.457 459.253L102.407 446.503L150.351 450.343L108.776 363.754L90.3647 362.285ZM120.79 429.848L103.832 428.391L105.725 399.434L120.79 429.848Z" fill="#4364F7"/>
<path d="M37.845 486.489L37.8639 486.461L38.0681 483.352L39.1581 468.423L39.1115 468.432L41.0198 441.962L78.4759 444.804L79.08 436.446L79.1231 435.785L79.798 426.785L79.7702 426.767L84.4655 360.702L66.4167 359.357L61.7403 425.394L42.2674 423.933L43.2215 410.698L25.1816 409.399L21.0716 467.133L-56.4677 461.49L-57.8087 479.537L37.845 486.489Z" fill="#4364F7"/>
<path d="M29.476 595.238L29.6581 592.52L29.7951 590.705L35.1254 515.938L17.0766 514.593L14.8041 546.499L-62.6283 583.959L-81.4035 582.607L-82.7444 600.654L28.482 608.771L29.476 595.238ZM13.3177 567.329L11.7552 589.406L-26.5118 586.622L13.3177 567.329Z" fill="#4364F7"/>
<path d="M-17.2268 524.86L-15.9483 506.487L63.555 512.288L64.8681 494.222L-22.9108 487.872L-32.7406 487.159L-34.5602 513.081L-73.5326 486.597L-83.6857 501.537L-9.8987 551.721L9.05102 542.718L-17.2268 524.86Z" fill="#4364F7"/>
<path d="M-69.1998 676.442L-61.2161 693.315L18.7923 624.399L6.98983 610.695L-28.3362 641.167L-118.809 579.685L-128.962 594.626L-42.4893 653.39L-69.1998 676.442Z" fill="#4364F7"/>
<path d="M98.4059 505.541L81.7936 512.687L113.708 586.62L97.2937 574.417L86.4962 588.94L162.556 645.488L173.353 630.964L157.451 619.142L219.085 626.305L221.19 608.332L138.53 598.715L98.4059 505.541Z" fill="#4364F7"/>
<path d="M160.722 594.706L171.345 499.472L153.752 497.354L152.262 510.053L104.524 504.183L142.39 592.457L160.722 594.706ZM133.189 525.913L150.07 528.087L146.951 556.938L133.189 525.913Z" fill="#4364F7"/>
<path d="M218.462 472.841L218.442 472.868L218.106 475.965L216.384 490.834L216.431 490.827L213.401 517.193L176.1 512.765L175.142 521.089L175.071 521.748L174.015 530.711L174.042 530.731L166.549 596.537L184.524 598.647L191.997 532.868L211.39 535.153L209.876 548.335L227.844 550.398L234.399 492.89L311.629 501.817L313.734 483.843L218.462 472.841Z" fill="#4364F7"/>
<path d="M231.435 364.544L231.138 367.252L230.924 369.06L222.428 443.533L240.403 445.643L244.027 413.862L322.978 379.719L341.679 381.866L343.784 363.892L233.002 351.066L231.435 364.544ZM246.395 393.113L248.893 371.122L287.007 375.527L246.395 393.113Z" fill="#4364F7"/>
<path d="M275.111 436.839L273.055 455.142L193.869 445.975L191.791 463.968L279.222 474.035L289.012 475.164L291.93 449.343L329.744 477.456L340.521 462.96L268.929 409.692L249.615 417.883L275.111 436.839Z" fill="#4364F7"/>
<path d="M333.466 287.598L326.205 270.401L243.346 335.862L254.556 350.054L291.143 321.108L378.927 386.371L389.704 371.875L305.802 309.497L333.466 287.598Z" fill="#4364F7"/>
<path d="M431.826 200.273L408.549 231.583L360.401 225.869L352.001 206.32L335.389 213.466L369.38 292.374L387.899 289.699L416.846 250.764L452.804 255.03L450.07 236.471L429.306 234.004L446.374 211.047L431.846 200.246L431.826 200.273ZM379.602 270.519L368.658 245.104L396.088 248.343L379.602 270.519Z" fill="#4364F7"/>
<path d="M341.78 245.456L325.147 252.629L350.372 311.13L337.92 301.872L327.123 316.395L405.931 374.986L416.729 360.463L379.373 332.69L372.595 316.983L458.524 304.303L455.914 286.422L365.213 299.78L341.78 245.456Z" fill="#4364F7"/>
<path d="M8.92375 730.783L1.66276 713.587L-81.1962 779.048L-69.9855 793.24L-33.399 764.293L54.3849 829.557L65.1624 815.06L-18.7403 752.682L8.92375 730.783Z" fill="#4364F7"/>
<path d="M107.285 643.459L84.0067 674.769L35.859 669.055L27.4594 649.505L10.8471 656.652L44.8379 735.559L63.3569 732.885L92.3039 693.949L128.262 698.215L125.529 679.657L104.764 677.189L121.832 654.232L107.305 643.432L107.285 643.459ZM55.0597 713.704L44.1161 688.289L71.5465 691.529L55.0597 713.704Z" fill="#4364F7"/>
<path d="M17.2378 688.642L0.605438 695.815L25.8303 754.315L13.3783 745.058L2.58077 759.581L81.3895 818.172L92.187 803.649L54.831 775.876L48.0533 760.168L133.982 747.488L131.372 729.608L40.6714 742.965L17.2378 688.642Z" fill="#4364F7"/>
<path d="M503.363 508.993L519.657 501.149L484.637 428.636L501.554 440.132L511.725 425.163L433.336 371.893L423.164 386.861L439.553 397.998L377.671 393.455L376.33 411.502L459.324 417.604L503.363 508.993Z" fill="#4364F7"/>
<path d="M437.322 422.551L430.747 518.15L448.414 519.52L449.364 506.769L497.309 510.609L455.733 424.02L437.322 422.551ZM467.747 490.114L450.789 488.658L452.682 459.701L467.747 490.114Z" fill="#4364F7"/>
<path d="M384.802 546.755L384.821 546.727L385.025 543.618L386.115 528.689L386.068 528.698L387.977 502.228L425.433 505.071L426.037 496.713L426.08 496.052L426.755 487.052L426.727 487.033L431.422 420.968L413.374 419.623L408.697 485.66L389.224 484.199L390.178 470.964L372.139 469.665L368.028 527.4L290.489 521.756L289.148 539.803L384.802 546.755Z" fill="#4364F7"/>
<path d="M376.433 655.504L376.615 652.786L376.752 650.971L382.082 576.204L364.034 574.859L361.761 606.765L284.329 644.225L265.553 642.873L264.213 660.92L375.439 669.037L376.433 655.504ZM360.275 627.595L358.712 649.673L320.445 646.888L360.275 627.595Z" fill="#4364F7"/>
<path d="M329.73 585.126L331.009 566.753L410.512 572.554L411.825 554.488L324.046 548.138L314.216 547.426L312.397 573.347L273.424 546.863L263.271 561.803L337.058 611.987L356.008 602.984L329.73 585.126Z" fill="#4364F7"/>
<path d="M277.757 736.708L285.741 753.582L365.749 684.665L353.947 670.962L318.621 701.434L228.148 639.952L217.995 654.892L304.468 713.656L277.757 736.708Z" fill="#4364F7"/>
<path d="M183.188 828.126L205.117 795.857L253.464 799.524L262.685 818.699L278.98 810.855L241.673 733.46L223.284 736.917L196.014 777.045L159.908 774.308L163.426 792.734L184.276 794.318L168.197 817.979L183.169 828.154L183.188 828.126ZM232.387 755.728L244.399 780.657L216.856 778.583L232.387 755.728Z" fill="#4364F7"/>
<path d="M271.238 779.164L287.551 771.292L259.868 713.915L272.701 722.636L282.873 707.668L201.651 652.471L191.479 667.44L229.979 693.603L237.417 709.009L152.103 725.322L155.469 743.076L245.522 725.884L271.238 779.164Z" fill="#4364F7"/>
<path d="M557.518 399.799L540.905 406.945L572.82 480.878L556.406 468.675L545.608 483.198L621.668 539.746L632.465 525.222L616.563 513.4L678.197 520.563L680.302 502.59L597.642 492.973L557.518 399.799Z" fill="#4364F7"/>
<path d="M619.834 488.964L630.457 393.73L612.864 391.612L611.374 404.311L563.635 398.441L601.502 486.715L619.834 488.964ZM592.301 420.171L609.182 422.346L606.063 451.196L592.301 420.171Z" fill="#4364F7"/>
<path d="M677.573 367.099L677.553 367.126L677.218 370.223L675.495 385.092L675.542 385.086L672.513 411.451L635.211 407.023L634.253 415.348L634.182 416.006L633.126 424.969L633.153 424.989L625.661 490.795L643.636 492.905L651.109 427.126L670.502 429.411L668.988 442.594L686.956 444.656L693.511 387.148L770.741 396.075L772.846 378.101L677.573 367.099Z" fill="#4364F7"/>
<path d="M690.547 258.803L690.25 261.51L690.036 263.318L681.54 337.791L699.515 339.901L703.139 308.12L782.09 273.977L800.791 276.124L802.896 258.15L692.114 245.324L690.547 258.803ZM705.507 287.371L708.004 265.38L746.119 269.785L705.507 287.371Z" fill="#4364F7"/>
<path d="M734.223 331.097L732.167 349.4L652.981 340.233L650.903 358.226L738.334 368.293L748.124 369.422L751.042 343.601L788.856 371.714L799.633 357.218L728.041 303.95L708.726 312.141L734.223 331.097Z" fill="#4364F7"/>
<path d="M792.577 181.856L785.316 164.659L702.458 230.12L713.668 244.312L750.255 215.366L838.039 280.629L848.816 266.133L764.913 203.755L792.577 181.856Z" fill="#4364F7"/>
<path d="M368.992 721.229L368.695 723.936L368.481 725.744L359.985 800.217L377.96 802.327L381.584 770.546L460.535 736.403L479.236 738.55L481.341 720.577L370.559 707.75L368.992 721.229ZM383.952 749.798L386.45 727.806L424.564 732.211L383.952 749.798Z" fill="#4364F7"/>
<path d="M471.023 644.282L463.762 627.085L380.903 692.547L392.113 706.739L428.7 677.792L516.484 743.056L527.261 728.559L443.358 666.181L471.023 644.282Z" fill="#4364F7"/>
<path d="M569.383 556.957L546.105 588.267L497.958 582.553L489.558 563.004L472.946 570.15L506.937 649.058L525.456 646.383L554.403 607.448L590.361 611.714L587.627 593.155L566.863 590.688L583.931 567.731L569.403 556.93L569.383 556.957ZM517.158 627.203L506.215 601.788L533.645 605.027L517.158 627.203Z" fill="#4364F7"/>
<path d="M479.337 602.141L462.704 609.314L487.929 667.814L475.477 658.556L464.68 673.08L543.488 731.671L554.286 717.147L516.93 689.375L510.152 673.667L596.081 660.987L593.471 643.106L502.77 656.464L479.337 602.141Z" fill="#4364F7"/>
<path d="M662.879 742.258L639.602 773.568L591.454 767.854L583.054 748.305L566.442 755.451L600.433 834.359L618.952 831.684L647.899 792.749L683.857 797.015L681.123 778.456L660.359 775.989L677.427 753.032L662.899 742.231L662.879 742.258ZM610.655 812.504L599.711 787.089L627.141 790.328L610.655 812.504Z" fill="#4364F7"/>
<path d="M835.545 549.762L835.727 547.044L835.864 545.229L841.194 470.462L823.145 469.117L820.873 501.023L743.441 538.483L724.665 537.131L723.324 555.178L834.551 563.295L835.545 549.762ZM819.387 521.853L817.824 543.931L779.557 541.146L819.387 521.853Z" fill="#4364F7"/>
<path d="M736.869 630.966L744.853 647.84L824.861 578.923L813.059 565.22L777.733 595.692L687.26 534.21L677.107 549.15L763.579 607.914L736.869 630.966Z" fill="#4364F7"/>
<path d="M642.3 722.384L664.229 690.115L712.576 693.782L721.797 712.957L738.091 705.113L700.785 627.718L682.396 631.175L655.126 671.303L619.02 668.566L622.537 686.992L643.388 688.577L627.309 712.237L642.281 722.412L642.3 722.384ZM691.499 649.986L703.511 674.915L675.967 672.841L691.499 649.986Z" fill="#4364F7"/>
<path d="M730.35 673.423L746.663 665.551L718.98 608.173L731.813 616.894L741.985 601.926L660.763 546.729L650.591 561.698L689.091 587.861L696.529 603.267L611.215 619.58L614.581 637.334L704.633 620.142L730.35 673.423Z" fill="#4364F7"/>
</g>
</svg>
