<svg width="226" height="220" viewBox="0 0 226 220" fill="none" xmlns="http://www.w3.org/2000/svg">
<path d="M168.296 94.9564L129.129 35.9135H128.592L130.241 53.9688L130.277 94.9923L110.38 95.0102C109.824 95.0102 109.358 94.562 109.358 93.9882L109.286 0.0717194L129.793 0.0537895L166.772 59.2402H167.31L166.216 43.7488L166.18 0.0179298L187.081 0L187.171 94.9385L168.296 94.9564Z" fill="#FF8D71"/>
<path d="M37.0501 95.0121L36.9604 0.0735649L99.8234 0.0197754L99.8414 18.8999L58.2912 18.9358L58.3091 37.5469L93.6035 37.5111L93.6214 56.2477L58.3271 56.2836L58.345 76.1678L101.526 76.1319L101.544 94.9583L37.0501 95.0121Z" fill="#FF8D71"/>
<path d="M45.6723 180.178C45.7081 210.551 35.5805 219.731 15.8809 219.749C11.5072 219.749 4.24762 218.798 2.06077 218.117L0.680542 197.318C4.78537 199.775 8.47792 200.6 13.4073 200.6C20.2546 200.6 24.3415 195.525 24.3415 182.257L24.2878 122.981L45.6364 122.963L45.6723 180.178Z" fill="#FF8D71"/>
<path d="M101.399 120.794C132.732 120.758 143.146 139.907 143.164 169.599C143.182 198.466 130.616 219.964 100.395 220C70.1554 220.018 58.1098 199.237 58.0739 169.689C58.0381 139.979 74.8517 120.812 101.399 120.794ZM100.789 201.801C116.115 201.783 121.708 188.372 121.69 170.029C121.672 151.275 115.918 139.244 100.592 139.262C86.7719 139.28 79.5301 151.741 79.5481 169.24C79.566 188.138 85.1944 201.819 100.789 201.801Z" fill="#FF8D71"/>
<path d="M173.283 218.673L173.247 184.463L140.642 122.928L165.217 122.91L165.199 125.94L183.769 165.045L202.608 122.874L225.319 122.856L194.596 184.463L194.632 218.673H173.283Z" fill="#FF8D71"/>
</svg>
