<svg width="36" height="22" viewBox="0 0 36 22" fill="none" xmlns="http://www.w3.org/2000/svg">
<path d="M22.2164 0.955404C23.1933 1.09354 24.1499 1.3389 25.0952 1.62937C26.7453 2.13751 28.3024 2.84344 29.7668 3.75922C29.8687 3.82243 30.0047 3.86255 30.1247 3.86255C31.8448 3.86966 33.5642 3.86717 35.2828 3.86859C35.4213 3.86859 35.5591 3.88315 35.6972 3.89096C35.6972 3.9247 35.7022 3.9389 35.6965 3.94671C35.6162 4.07028 35.5349 4.19208 35.4543 4.3153C34.8709 5.21013 34.3724 6.14616 34.078 7.1809C34.046 7.29205 34.0393 7.38508 34.1146 7.49409C35.6457 9.69283 36.1343 12.1068 35.4944 14.7089C34.9334 16.9911 33.6252 18.7704 31.6374 20.0303C30.2167 20.9312 28.6472 21.3601 26.9704 21.3694C26.2659 21.3736 25.565 21.2788 24.8768 21.1006C23.2 20.6656 21.7626 19.8297 20.578 18.5638C20.4218 18.3976 20.2748 18.224 20.1082 18.0361C19.4819 18.9697 18.8654 19.8879 18.2341 20.8303C17.6052 19.8908 16.9973 18.9814 16.3908 18.0755C16.3489 18.0975 16.3368 18.1 16.3286 18.1078C16.3148 18.1192 16.3031 18.133 16.2921 18.1462C14.8593 19.8382 13.0568 20.8754 10.8609 21.2224C9.63938 21.4159 8.42957 21.3463 7.24321 21.0193C5.56184 20.5573 4.13294 19.6702 2.97853 18.3614C1.8504 17.0816 1.14874 15.5959 0.885258 13.9067C0.583783 12.3301 0.95095 10.81 1.04256 10.441C1.30817 9.36863 1.77122 8.38396 2.40683 7.47847C2.45158 7.4142 2.4672 7.30057 2.44589 7.22387C2.18668 6.27328 1.73997 5.40863 1.21692 4.58055C1.08411 4.36998 0.925028 4.17504 0.77802 3.97299C0.77802 3.94991 0.77802 3.92612 0.77802 3.90268C0.807492 3.90623 0.83661 3.91191 0.865373 3.91191C2.62522 3.91262 4.3847 3.91333 6.14455 3.90978C6.22125 3.90978 6.30647 3.87818 6.37181 3.83628C7.60824 3.043 8.92564 2.41448 10.3098 1.92516C11.308 1.57291 12.3271 1.29807 13.3664 1.09673C14.3728 0.902139 15.3844 0.765074 16.4067 0.697606C18.8992 0.505855 20.8912 0.76969 22.2164 0.955404ZM20.0102 12.578C20.0102 16.4425 23.1457 19.5996 26.9963 19.5847C30.8615 19.5708 33.9828 16.5025 33.98 12.5954C33.9771 8.56896 30.711 5.54215 26.8465 5.62062C23.0314 5.69981 20.045 8.77492 20.0102 12.578ZM9.53107 5.59399C5.77205 5.56132 2.49454 8.69857 2.56023 12.6948C2.62131 16.4215 5.69287 19.5808 9.60919 19.547C13.4385 19.5144 16.5165 16.3874 16.5236 12.6007C16.5296 8.71029 13.414 5.59399 9.53107 5.59399ZM9.87765 3.77094C12.0011 3.90055 13.8664 4.64056 15.4423 6.07372C17.015 7.50404 17.9365 9.28838 18.2713 11.3866C18.6158 9.31324 19.5131 7.54558 21.0563 6.12947C22.6021 4.71194 24.4425 3.96802 26.5312 3.81071C24.0526 2.70886 21.4391 2.24084 18.7489 2.189C15.6916 2.12899 12.7177 2.5796 9.87765 3.77094Z" fill="#43495C"/>
<path d="M26.9826 8.17251C29.3742 8.1686 31.3112 10.0953 31.3112 12.4844C31.3112 14.8827 29.4072 16.7366 27.1609 16.8222C24.6521 16.9185 22.6448 14.9196 22.6455 12.4951C22.6476 10.0428 24.6692 8.13203 26.9826 8.17251ZM29.8035 12.4951C29.8024 10.9362 28.5422 9.66923 26.994 9.66923C25.428 9.66923 24.1532 10.9295 24.1468 12.4837C24.1412 14.0312 25.4223 15.3188 26.9737 15.323C28.5276 15.3291 29.8042 14.0511 29.8035 12.4951Z" fill="#43495C"/>
<path d="M9.43988 8.17254C11.83 8.17005 13.7699 10.1003 13.7639 12.4891C13.7571 14.9069 11.8513 16.7203 9.64441 16.8208C7.12574 16.9359 5.09354 14.9282 5.09815 12.4905C5.10312 10.0208 7.13852 8.13134 9.43988 8.17254ZM12.2575 12.4855C12.2529 10.9171 10.9845 9.66677 9.40118 9.66961C7.87392 9.67245 6.59416 10.9614 6.59771 12.4944C6.60162 14.0451 7.87996 15.3202 9.43562 15.3245C10.9817 15.328 12.2615 14.0405 12.2575 12.4855Z" fill="#43495C"/>
<path d="M26.9839 11.0547C27.7765 11.054 28.4263 11.7042 28.4189 12.4921C28.4111 13.2818 27.7722 13.9217 26.9928 13.9221C26.1903 13.9221 25.5451 13.2879 25.5469 12.502C25.5483 11.6868 26.175 11.0554 26.9839 11.0547Z" fill="#43495C"/>
<path d="M9.43174 11.0469C10.2364 11.0462 10.883 11.6889 10.8862 12.491C10.8894 13.2864 10.2367 13.9395 9.436 13.9412C8.61609 13.943 7.98367 13.3095 7.98438 12.4854C7.98438 11.6761 8.61538 11.0479 9.43174 11.0469Z" fill="#43495C"/>
</svg>
