<svg width="31" height="18" viewBox="0 0 31 18" fill="none" xmlns="http://www.w3.org/2000/svg">
<path fill-rule="evenodd" clip-rule="evenodd" d="M17.3106 17.3294C17.3106 17.3294 17.852 17.2703 18.1294 16.978C18.3832 16.7101 18.3744 16.2045 18.3744 16.2045C18.3744 16.2045 18.3406 13.8439 19.4573 13.4953C20.5577 13.1525 21.9708 15.7782 23.4703 16.7878C24.6031 17.5512 25.4629 17.3841 25.4629 17.3841L29.4701 17.3294C29.4701 17.3294 31.5654 17.2026 30.5721 15.5852C30.4899 15.4527 29.9925 14.3883 27.5934 12.2019C25.08 9.9133 25.4174 10.2835 28.443 6.32408C30.2859 3.91302 31.0225 2.44103 30.7922 1.81162C30.5735 1.20958 29.2178 1.36945 29.2178 1.36945L24.7073 1.39682C24.7073 1.39682 24.3727 1.35217 24.1247 1.49764C23.8826 1.64023 23.7256 1.97294 23.7256 1.97294C23.7256 1.97294 23.0125 3.83812 22.0603 5.42533C20.0515 8.77258 19.2489 8.94974 18.9202 8.74234C18.1558 8.25696 18.3465 6.79505 18.3465 5.7566C18.3465 2.51161 18.8483 1.15917 17.3708 0.809176C16.8807 0.692512 16.5197 0.616176 15.2652 0.603213C13.6556 0.58737 12.2939 0.608974 11.5221 0.979131C11.0085 1.22542 10.6124 1.77562 10.8545 1.8073C11.1523 1.84619 11.8273 1.9859 12.1853 2.46408C12.6475 3.08197 12.6314 4.46753 12.6314 4.46753C12.6314 4.46753 12.897 8.2872 12.0107 8.76106C11.4032 9.08657 10.5698 8.42259 8.77824 5.385C7.86118 3.82948 7.16861 2.10976 7.16861 2.10976C7.16861 2.10976 7.03509 1.78858 6.79592 1.61574C6.50686 1.4069 6.10335 1.34209 6.10335 1.34209L1.81737 1.36945C1.81737 1.36945 1.17322 1.38674 0.936987 1.66183C0.727163 1.90524 0.920847 2.41079 0.920847 2.41079C0.920847 2.41079 4.27656 10.1178 8.07687 14.0023C11.5617 17.5627 15.5176 17.3294 15.5176 17.3294H17.3106Z" fill="#43495C"/>
</svg>
