<svg width="63" height="31" viewBox="0 0 63 31" fill="none" xmlns="http://www.w3.org/2000/svg">
<path d="M7.5886 5.22919C7.5886 4.77894 7.50522 4.3954 7.35514 4.07855C7.20506 3.76171 7.00495 3.51157 6.75482 3.31146C6.52136 3.11135 6.23788 2.96127 5.93772 2.87789C5.63756 2.79451 5.3374 2.74448 5.02056 2.74448H2.93611V11.6661H5.02056C5.32072 11.6661 5.62088 11.6161 5.92104 11.5327C6.2212 11.4493 6.50469 11.2992 6.73814 11.0991C6.98828 10.899 7.18838 10.6489 7.33846 10.332C7.48854 10.0152 7.57192 9.63164 7.57192 9.16471V5.22919H7.5886ZM10.3901 9.64831C10.3901 10.3654 10.2567 11.0157 9.9732 11.566C9.68972 12.1164 9.32286 12.5833 8.85594 12.9668C8.38903 13.3337 7.85541 13.6172 7.25509 13.8173C6.65477 14.0007 6.03777 14.1008 5.4041 14.1008H0.167969V0.259766H5.43745C6.07112 0.259766 6.68812 0.343145 7.28844 0.526581C7.88876 0.710016 8.42238 0.976831 8.87262 1.36038C9.32286 1.72725 9.68972 2.19417 9.9732 2.76116C10.2567 3.31146 10.3901 3.96182 10.3901 4.69556V9.64831Z" fill="#43495C"/>
<path d="M15.1749 0.259766H12.4067V14.0841H15.1749V0.259766Z" fill="#43495C"/>
<path d="M26.1821 13.1998C25.7986 13.45 25.415 13.6501 25.0148 13.8002C24.6146 13.9502 24.1977 14.067 23.7975 14.1337C23.3806 14.2004 22.9971 14.2337 22.6302 14.2337C21.9799 14.2337 21.3462 14.1337 20.6958 13.9502C20.0622 13.7668 19.4785 13.4833 18.9783 13.1165C18.478 12.7496 18.0611 12.2827 17.7443 11.7323C17.4274 11.182 17.2773 10.5317 17.2773 9.78127V4.66175C17.2773 3.92801 17.4274 3.27765 17.7276 2.71067C18.0277 2.14369 18.428 1.66009 18.9449 1.29322C19.4452 0.909671 20.0288 0.62618 20.6792 0.426069C21.3295 0.225958 21.9965 0.142578 22.6802 0.142578C23.4807 0.142578 24.2811 0.25931 25.0482 0.476097C25.8152 0.692884 26.4656 1.04308 27.0159 1.51L25.6652 3.64452C25.2316 3.27765 24.7647 3.02751 24.2311 2.89411C23.7141 2.7607 23.2138 2.67732 22.7303 2.67732C22.4134 2.67732 22.0799 2.72735 21.7631 2.81073C21.4462 2.89411 21.1628 3.04419 20.9126 3.2443C20.6625 3.44441 20.4624 3.71123 20.2956 4.02807C20.1289 4.34491 20.0455 4.72846 20.0455 5.19538V9.23096C20.0455 9.68121 20.1122 10.0648 20.2623 10.3816C20.4124 10.6984 20.6125 10.9486 20.8459 11.1487C21.096 11.3488 21.3629 11.4989 21.6797 11.5823C21.9965 11.6823 22.3134 11.7157 22.6302 11.7157C22.897 11.7157 23.1972 11.6823 23.514 11.5989C23.8308 11.5322 24.1477 11.3655 24.4478 11.0987V8.79739H22.4301V6.44608H27.216V12.266C26.8991 12.6328 26.5656 12.9497 26.1821 13.1998Z" fill="#43495C"/>
<path d="M32.0177 0.259766H29.2495V14.0841H32.0177V0.259766Z" fill="#43495C"/>
<path d="M46.81 8.93125H50.1618L49.6115 7.1636L48.5276 3.51157H48.4442L47.3769 7.0969L46.81 8.93125ZM50.9122 11.2325H46.0596L45.1591 14.0841H42.2075L47.0935 0.259766H49.9283L54.7809 14.0841H51.7793L50.9122 11.2325Z" fill="#43495C"/>
<path d="M12.1245 24.9898H15.4763L14.926 23.2222L13.8421 19.5702H13.7587L12.6748 23.1722L12.1245 24.9898ZM16.21 27.3078H11.3741L10.4569 30.1427H7.50537L12.3913 16.3184H15.2262L20.0788 30.1427H17.0771L16.21 27.3078Z" fill="#43495C"/>
<path d="M28.9337 25.9403C28.9337 25.4067 28.767 24.9731 28.4335 24.6562C28.0999 24.3227 27.633 24.1726 27.0327 24.1726H24.0811V27.6913H27.0494C27.6664 27.6913 28.1333 27.5412 28.4501 27.2243C28.767 26.9075 28.9337 26.4739 28.9337 25.9403ZM28.767 20.3539C28.767 19.8536 28.6169 19.4534 28.3167 19.1865C28.0166 18.9197 27.533 18.7863 26.8993 18.7863H24.0978V21.8213H26.9493C27.533 21.8213 27.9832 21.6879 28.3001 21.4211C28.6002 21.1543 28.767 20.8041 28.767 20.3539ZM31.8519 26.0403C31.8519 26.6073 31.7686 27.1243 31.5851 27.6246C31.4184 28.1248 31.1516 28.5584 30.8181 28.9253C30.4846 29.2922 30.0677 29.5923 29.5674 29.8091C29.0671 30.0259 28.4835 30.1426 27.8331 30.1426H21.313V16.335H27.5663C28.2667 16.335 28.867 16.435 29.3673 16.6351C29.8676 16.8352 30.2844 17.1187 30.618 17.4522C30.9515 17.8024 31.2016 18.2027 31.3517 18.6529C31.5184 19.1032 31.6018 19.5868 31.6018 20.087C31.6018 20.604 31.4684 21.121 31.1849 21.6546C30.9014 22.1882 30.4679 22.6051 29.8842 22.9053C30.2177 23.072 30.5179 23.2721 30.7514 23.5223C30.9848 23.7724 31.2016 24.0392 31.3517 24.3227C31.5184 24.6062 31.6352 24.9064 31.7185 25.2066C31.8186 25.49 31.8519 25.7735 31.8519 26.0403Z" fill="#43495C"/>
<path d="M33.5356 0.259766V2.7278H37.2376V14.0841H40.0058V2.7278V0.259766H33.5356Z" fill="#43495C"/>
<path d="M62.5673 14.0841V11.6161H58.8653V0.259766H56.0972V11.6161V14.0841H62.5673Z" fill="#43495C"/>
<path d="M6.63809 30.1426V27.6746H2.93611V16.335H0.167969V27.6746V30.1426H6.63809Z" fill="#43495C"/>
<path d="M43.6917 0.259766H41.207V2.7278H43.6917V0.259766Z" fill="#43495C"/>
</svg>
