<svg width="61" height="61" viewBox="0 0 61 61" fill="none" xmlns="http://www.w3.org/2000/svg">
<path d="M34.4498 20.4552C35.4267 20.5934 36.3833 20.8387 37.3286 21.1292C38.9787 21.6373 40.5358 22.3433 42.0002 23.259C42.1021 23.3222 42.2381 23.3624 42.3581 23.3624C44.0782 23.3695 45.7976 23.367 47.5162 23.3684C47.6547 23.3684 47.7925 23.383 47.9306 23.3908C47.9306 23.4245 47.9356 23.4387 47.9299 23.4465C47.8496 23.5701 47.7683 23.6919 47.6877 23.8151C47.1043 24.71 46.6057 25.646 46.3114 26.6807C46.2794 26.7919 46.2727 26.8849 46.3479 26.9939C47.8791 29.1927 48.3677 31.6066 47.7278 34.2087C47.1668 36.4909 45.8586 38.2703 43.8708 39.5301C42.4501 40.431 40.8806 40.86 39.2038 40.8692C38.4993 40.8735 37.7984 40.7786 37.1102 40.6004C35.4334 40.1654 33.996 39.3295 32.8114 38.0636C32.6552 37.8974 32.5082 37.7238 32.3416 37.5359C31.7153 38.4695 31.0988 39.3877 30.4675 40.3302C29.8386 39.3906 29.2307 38.4812 28.6242 37.5753C28.5823 37.5974 28.5702 37.5998 28.562 37.6077C28.5482 37.619 28.5365 37.6329 28.5254 37.646C27.0926 39.338 25.2902 40.3753 23.0943 40.7222C21.8728 40.9157 20.663 40.8461 19.4766 40.5191C17.7952 40.0571 16.3663 39.1701 15.2119 37.8612C14.0838 36.5814 13.3821 35.0957 13.1187 33.4065C12.8172 31.8299 13.1843 30.3098 13.276 29.9408C13.5416 28.8685 14.0046 27.8838 14.6402 26.9783C14.685 26.914 14.7006 26.8004 14.6793 26.7237C14.4201 25.7731 13.9734 24.9084 13.4503 24.0804C13.3175 23.8698 13.1584 23.6749 13.0114 23.4728C13.0114 23.4497 13.0114 23.4259 13.0114 23.4025C13.0409 23.406 13.07 23.4117 13.0988 23.4117C14.8586 23.4124 16.6181 23.4131 18.3779 23.4096C18.4546 23.4096 18.5399 23.378 18.6052 23.3361C19.8416 22.5428 21.159 21.9143 22.5432 21.425C23.5414 21.0727 24.5605 20.7979 25.5998 20.5965C26.6062 20.402 27.6178 20.2649 28.6401 20.1974C31.1325 20.0057 33.1246 20.2695 34.4498 20.4552ZM32.2436 32.0778C32.2436 35.9423 35.3791 39.0994 39.2297 39.0845C43.0949 39.0706 46.2162 36.0023 46.2134 32.0952C46.2105 28.0688 42.9444 25.042 39.0799 25.1204C35.2648 25.1996 32.2784 28.2747 32.2436 32.0778ZM21.7645 25.0938C18.0055 25.0611 14.7279 28.1984 14.7936 32.1946C14.8547 35.9213 17.9263 39.0806 21.8426 39.0468C25.6719 39.0142 28.7499 35.8872 28.757 32.1005C28.763 28.2101 25.6474 25.0938 21.7645 25.0938ZM22.111 23.2708C24.2345 23.4004 26.0998 24.1404 27.6757 25.5735C29.2484 27.0039 30.1699 28.7882 30.5047 30.8864C30.8492 28.8131 31.7465 27.0454 33.2897 25.6293C34.8355 24.2118 36.6759 23.4678 38.7646 23.3105C36.286 22.2087 33.6725 21.7407 30.9823 21.6888C27.925 21.6288 24.9511 22.0794 22.111 23.2708Z" fill="#43495C"/>
<path d="M39.2141 27.672C41.6056 27.6681 43.5427 29.5948 43.5427 31.9839C43.5427 34.3822 41.6386 36.2361 39.3923 36.3217C36.8836 36.4179 34.8762 34.4191 34.877 31.9945C34.8791 29.5422 36.9006 27.6315 39.2141 27.672ZM42.0349 31.9945C42.0339 30.4356 40.7736 29.1687 39.2254 29.1687C37.6595 29.1687 36.3847 30.4289 36.3783 31.9831C36.3726 33.5306 37.6538 34.8182 39.2052 34.8225C40.7591 34.8285 42.0356 33.5505 42.0349 31.9945Z" fill="#43495C"/>
<path d="M21.6708 27.672C24.061 27.6695 26.0008 29.5998 25.9948 31.9885C25.9881 34.4063 24.0823 36.2198 21.8754 36.3203C19.3567 36.4353 17.3245 34.4276 17.3291 31.9899C17.3341 29.5202 19.3695 27.6308 21.6708 27.672ZM24.4885 31.985C24.4839 30.4165 23.2155 29.1662 21.6321 29.1691C20.1049 29.1719 18.8251 30.4609 18.8287 31.9938C18.8326 33.5445 20.1109 34.8197 21.6666 34.8239C23.2127 34.8275 24.4924 33.5399 24.4885 31.985Z" fill="#43495C"/>
<path d="M39.2154 30.5557C40.008 30.555 40.6578 31.2052 40.6503 31.9931C40.6425 32.7829 40.0037 33.4228 39.2243 33.4231C38.4218 33.4231 37.7765 32.7889 37.7783 32.0031C37.7797 31.1878 38.4065 30.5564 39.2154 30.5557Z" fill="#43495C"/>
<path d="M21.6632 30.5462C22.4678 30.5455 23.1144 31.1882 23.1176 31.9904C23.1208 32.7858 22.4682 33.4388 21.6674 33.4406C20.8475 33.4423 20.2151 32.8089 20.2158 31.9847C20.2158 31.1754 20.8468 30.5473 21.6632 30.5462Z" fill="#43495C"/>
</svg>
