<svg width="1920" height="800" viewBox="0 0 1920 800" fill="none" xmlns="http://www.w3.org/2000/svg">
<mask id="mask0" mask-type="alpha" maskUnits="userSpaceOnUse" x="0" y="0" width="1920" height="800">
<path d="M0 0H1920V800H0V0Z" fill="white"/>
<path d="M0 0H1920V800H0V0Z" fill="url(#paint0_linear)"/>
</mask>
<g mask="url(#mask0)">
<g opacity="0.6">
<path d="M1917.6 415.482L1887.21 385.086L1752.03 520.576L1764.54 473.601L1722.98 462.533L1665.01 680.205L1706.58 691.273L1718.69 645.764L1757.08 788.153L1798.62 776.993L1747.16 586.021L1917.6 415.482Z" fill="#21232A"/>
<path d="M1775.52 631.496L1995.15 571.194L1984.35 530.486L1955 538.365L1925.97 427.795L1764.37 589.04L1775.52 631.496ZM1903.21 510.201L1913.25 549.386L1846.81 567.873L1903.21 510.201Z" fill="#21232A"/>
<path d="M2095.39 651.806L2095.31 651.785L2088.17 653.768L2053.83 663.043L2053.88 663.14L1993.01 679.64L1969.98 593.382L1950.75 598.589L1949.24 599.011L1928.52 604.562L1928.5 604.64L1776.61 645.971L1787.76 687.516L1939.57 646.164L1951.58 690.995L1921.14 699.245L1932.39 740.733L2065.13 704.629L2113.35 883.005L2154.88 871.845L2095.39 651.806Z" fill="#21232A"/>
<path d="M1564.91 1014.8L1534.68 1047.27L1757.21 1163.31L1777.09 1125.2L1678.74 1074L1734.92 820.166L1693 810.887L1639.3 1053.5L1564.91 1014.8Z" fill="#21232A"/>
<path d="M1279.89 886.39L1370.43 906.429L1404.85 1016.4L1370.62 1053.63L1402.27 1082.71L1540.35 932.267L1516.54 894.705L1403.96 869.785L1378.25 787.655L1340.66 811.627L1355.49 859.059L1289.11 844.365L1279.81 886.373L1279.89 886.39ZM1483.01 931.349L1438.54 979.795L1418.89 917.156L1483.01 931.349Z" fill="#21232A"/>
<path d="M1465.44 1037.74L1497.16 1066.84L1599.51 955.253L1591.54 991.26L1633.53 1000.55L1683.97 772.671L1641.98 763.376L1618.07 871.394L1590.59 901.366L1479.54 727.34L1443.3 750.385L1560.46 934.103L1465.44 1037.74Z" fill="#21232A"/>
<path d="M1712.34 -378.661L1681.95 -409.056L1546.77 -273.567L1559.28 -320.542L1517.72 -331.61L1459.75 -113.937L1501.32 -102.869L1513.44 -148.378L1551.83 -5.99025L1593.36 -17.1498L1541.9 -208.122L1712.34 -378.661Z" fill="#21232A"/>
<path d="M1890.13 -142.337L1890.05 -142.357L1882.92 -140.375L1848.57 -131.1L1848.63 -131.002L1787.75 -114.503L1764.72 -200.76L1745.49 -195.554L1743.98 -195.132L1723.26 -189.58L1723.24 -189.503L1571.35 -148.172L1582.5 -106.626L1734.31 -147.978L1746.32 -103.148L1715.88 -94.898L1727.13 -53.4092L1859.88 -89.5136L1908.09 88.8623L1949.63 77.7028L1890.13 -142.337Z" fill="#21232A"/>
<path d="M2019.44 -48.9167L1977.22 -37.361L1927.82 -220.266L1886.26 -209.03L1940.93 -7.12793L1947.05 15.4827L2006.62 -0.785062L1977.81 107.434L2019.29 118.481L2073.95 -86.4433L2038.87 -121.886L2019.44 -48.9167Z" fill="#21232A"/>
<path d="M1873.22 289.951L1873.3 289.969L1880.34 287.685L1914.26 276.962L1914.2 276.867L1974.33 257.801L2000.99 343.004L2019.98 336.987L2021.48 336.501L2041.94 330.076L2041.96 329.998L2191.96 282.262L2179.06 241.227L2029.13 288.98L2015.23 244.699L2045.29 235.166L2032.3 194.192L1901.2 235.893L1845.47 59.722L1804.44 72.6329L1873.22 289.951Z" fill="#21232A"/>
<path d="M1625.74 367.115L1631.9 365.127L1636.03 363.834L1805.8 309.847L1792.9 268.812L1720.45 291.855L1569.64 153.829L1556.11 111.184L1515.09 124.095L1594.99 376.822L1625.74 367.115ZM1673.15 306.892L1623.03 322.859L1595.52 235.916L1673.15 306.892Z" fill="#21232A"/>
<path d="M1740.06 202.099L1781.75 188.763L1838.87 369.409L1879.91 356.42L1816.73 157.018L1809.66 134.688L1750.82 153.467L1775.03 44.1235L1733.11 34.8454L1687.2 241.903L1723.74 275.826L1740.06 202.099Z" fill="#21232A"/>
<path d="M1359.66 220.656L1329.42 253.124L1551.96 369.172L1571.83 331.06L1473.48 279.86L1529.67 26.0229L1487.75 16.7448L1434.05 259.359L1359.66 220.656Z" fill="#21232A"/>
<path d="M1074.63 92.2479L1165.17 112.287L1199.59 222.262L1165.36 259.487L1197.02 288.566L1335.09 138.125L1311.29 100.563L1198.7 75.6433L1172.99 -6.48746L1135.4 17.4851L1150.24 64.9166L1083.85 50.2233L1074.56 92.2307L1074.63 92.2479ZM1277.76 137.207L1233.28 185.653L1213.63 123.014L1277.76 137.207Z" fill="#21232A"/>
<path d="M1260.18 243.601L1291.91 272.697L1394.25 161.11L1386.28 197.116L1428.28 206.412L1478.72 -21.4722L1436.72 -30.7676L1412.81 77.2513L1385.34 107.223L1274.29 -66.8027L1238.05 -43.7576L1355.21 139.96L1260.18 243.601Z" fill="#21232A"/>
<path d="M784.522 193.697L816.173 222.777L945.482 81.6766L934.976 129.139L976.972 138.435L1025.65 -81.4999L983.657 -90.7952L973.479 -44.8131L929.086 -185.445L888.06 -172.534L947.577 16.0832L784.522 193.697Z" fill="#21232A"/>
<path d="M917.304 -28.1476L700.438 41.4137L712.951 81.6266L741.941 72.5098L775.628 181.75L930.251 13.7965L917.304 -28.1476ZM794.882 98.453L783.184 59.7285L848.786 38.4406L794.882 98.453Z" fill="#21232A"/>
<path d="M596.87 -34.8762L596.948 -34.8589L603.991 -37.1422L637.913 -47.8651L637.853 -47.9603L697.977 -67.0269L724.643 18.1766L743.629 12.1597L745.126 11.6735L765.592 5.24836L765.609 5.1704L915.609 -42.565L902.706 -83.6L752.784 -35.8474L738.883 -80.1282L768.945 -89.6615L755.947 -130.636L624.854 -88.9347L569.121 -265.105L528.094 -252.195L596.87 -34.8762Z" fill="#21232A"/>
<path d="M349.391 42.2891L355.552 40.3009L359.68 39.0072L529.454 -14.9796L516.55 -56.0147L444.103 -32.9718L293.291 -170.998L279.763 -213.642L238.736 -200.731L318.636 51.9961L349.391 42.2891ZM396.803 -17.9339L346.682 -1.96722L319.175 -88.9101L396.803 -17.9339Z" fill="#21232A"/>
<path d="M463.711 -122.728L505.403 -136.063L562.517 44.5823L603.56 31.5933L540.382 -167.808L533.31 -190.139L474.475 -171.359L498.677 -280.703L456.759 -289.981L410.847 -82.9234L447.392 -49.0004L463.711 -122.728Z" fill="#21232A"/>
<path d="M83.3071 -104.171L53.0722 -71.7026L275.606 44.3457L295.484 6.23355L197.133 -44.9669L253.317 -298.804L211.398 -308.082L157.698 -65.4678L83.3071 -104.171Z" fill="#21232A"/>
<path d="M608.065 115.6L577.676 85.2049L442.499 220.694L455.008 173.72L413.444 162.652L355.48 380.324L397.045 391.392L409.163 345.883L447.552 488.271L489.089 477.112L437.624 286.14L608.065 115.6Z" fill="#21232A"/>
<path d="M465.994 331.614L685.614 271.312L674.818 230.605L645.468 238.484L616.444 127.914L454.837 289.158L465.994 331.614ZM593.675 210.319L603.72 249.505L537.274 267.991L593.675 210.319Z" fill="#21232A"/>
<path d="M785.854 351.925L785.777 351.904L778.643 353.887L744.297 363.161L744.353 363.259L683.474 379.759L660.445 293.501L641.221 298.707L639.705 299.13L618.985 304.681L618.965 304.758L467.075 346.09L478.227 387.635L630.039 346.283L642.05 391.114L611.61 399.363L622.859 440.852L755.602 404.748L803.815 583.124L845.352 571.964L785.854 351.925Z" fill="#21232A"/>
<path d="M1036.38 285.325L1030.14 287.05L1025.96 288.167L854.053 334.906L865.205 376.451L938.564 356.501L1083.39 500.799L1095.09 543.979L1136.63 532.819L1067.52 276.931L1036.38 285.325ZM986.46 343.483L1037.21 329.656L1061.01 417.687L986.46 343.483Z" fill="#21232A"/>
<path d="M915.168 445.346L872.948 456.901L823.546 273.996L781.989 285.233L836.654 487.134L842.773 509.745L902.352 493.477L873.534 601.696L915.021 612.744L969.672 407.819L934.599 372.377L915.168 445.346Z" fill="#21232A"/>
<path d="M1296.02 442.936L1327.6 411.779L1110.19 286.398L1088.71 323.633L1184.8 378.959L1117.91 630.184L1159.39 641.232L1223.33 401.113L1296.02 442.936Z" fill="#21232A"/>
<path d="M1575.34 583.318L1485.73 559.457L1456 448.121L1491.78 412.381L1461.39 381.986L1317.06 526.436L1339.25 564.974L1450.68 594.646L1472.88 677.793L1511.46 655.436L1498.64 607.418L1564.34 624.913L1575.41 583.338L1575.34 583.318ZM1374.3 529.785L1420.8 483.269L1437.77 546.684L1374.3 529.785Z" fill="#21232A"/>
<path d="M1396.38 424.231L1365.91 393.815L1258.93 500.962L1268.42 465.326L1226.85 454.258L1166.79 679.798L1208.36 690.866L1236.83 583.958L1265.55 555.178L1369.12 733.757L1406.3 712.27L1297.04 523.749L1396.38 424.231Z" fill="#21232A"/>
<path d="M32.0289 116.118L63.6135 84.9619L-153.799 -40.4193L-175.275 -3.18435L-79.1834 52.1409L-146.082 303.367L-104.595 314.414L-40.6542 74.2957L32.0289 116.118Z" fill="#21232A"/>
<path d="M311.35 256.501L221.744 232.64L192.016 121.304L227.794 85.5644L197.404 55.1692L53.0701 199.619L75.2624 238.157L186.691 267.829L208.896 350.976L247.469 328.619L234.656 280.601L300.356 298.097L311.427 256.521L311.35 256.501ZM110.316 202.968L156.808 156.452L173.78 219.868L110.316 202.968Z" fill="#21232A"/>
<path d="M132.389 97.4144L101.923 66.9987L-5.06071 174.145L4.42867 138.509L-37.1354 127.441L-97.1938 352.981L-55.6297 364.049L-27.1615 257.142L1.56041 228.362L105.131 406.941L142.316 385.453L33.0523 196.933L132.389 97.4144Z" fill="#21232A"/>
<path d="M956.596 1012.78L988.247 1041.86L1117.56 900.764L1107.05 948.227L1149.05 957.522L1197.73 737.588L1155.73 728.292L1145.55 774.274L1101.16 633.642L1060.13 646.553L1119.65 835.171L956.596 1012.78Z" fill="#21232A"/>
<path d="M1089.38 790.94L872.512 860.501L885.025 900.714L914.015 891.597L947.702 1000.84L1102.33 832.884L1089.38 790.94ZM966.956 917.54L955.258 878.816L1020.86 857.528L966.956 917.54Z" fill="#21232A"/>
<path d="M768.943 784.212L769.021 784.229L776.065 781.945L809.987 771.223L809.926 771.127L870.051 752.061L896.717 837.264L915.703 831.247L917.2 830.761L937.666 824.336L937.683 824.258L1087.68 776.523L1074.78 735.488L924.858 783.24L910.956 738.96L941.019 729.426L928.02 688.452L796.928 730.153L741.194 553.982L700.168 566.893L768.943 784.212Z" fill="#21232A"/>
<path d="M521.465 861.376L527.626 859.388L531.754 858.094L701.528 804.108L688.625 763.073L616.177 786.116L465.365 648.09L451.837 605.445L410.811 618.356L490.71 871.083L521.465 861.376ZM568.877 801.153L518.756 817.12L491.249 730.177L568.877 801.153Z" fill="#21232A"/>
<path d="M635.784 696.36L677.477 683.024L734.59 863.67L775.634 850.681L712.456 651.279L705.384 628.948L646.548 647.728L670.75 538.384L628.832 529.106L582.921 736.164L619.466 770.087L635.784 696.36Z" fill="#21232A"/>
<path d="M255.381 714.917L225.146 747.385L447.68 863.433L467.558 825.321L369.207 774.121L425.391 520.284L383.472 511.006L329.772 753.62L255.381 714.917Z" fill="#21232A"/>
<path d="M-29.6415 586.508L60.8954 606.548L95.3188 716.523L61.0888 753.748L92.7395 782.827L230.818 632.386L207.012 594.824L94.4247 569.904L68.7135 487.773L31.1234 511.746L45.9618 559.177L-20.4215 544.484L-29.7194 586.491L-29.6415 586.508ZM173.482 631.468L129.004 679.913L109.358 617.275L173.482 631.468Z" fill="#21232A"/>
<path d="M155.904 737.862L187.633 766.959L289.977 655.371L282.007 691.378L324.003 700.673L374.443 472.789L332.447 463.494L308.538 571.512L281.062 601.485L170.012 427.459L133.771 450.504L250.931 634.221L155.904 737.862Z" fill="#21232A"/>
<path d="M-200.59 949.038L19.0308 888.736L8.23433 848.029L-21.1156 855.908L-50.1398 745.338L-211.746 906.583L-200.59 949.038ZM-72.909 827.743L-62.8635 866.929L-129.309 885.415L-72.909 827.743Z" fill="#21232A"/>
</g>
</g>
<defs>
<linearGradient id="paint0_linear" x1="0" y1="400" x2="1872.75" y2="400" gradientUnits="userSpaceOnUse">
<stop stop-color="#4A81C6"/>
<stop offset="0.541436" stop-color="#305597"/>
<stop offset="1" stop-color="#1A416F"/>
</linearGradient>
</defs>
</svg>
