<svg width="76" height="60" viewBox="0 0 1191 948" fill="none" xmlns="http://www.w3.org/2000/svg">
<path d="M793.187 409.525L624.575 155.343H622.26L629.36 233.072L629.514 409.68L543.858 409.757C541.465 409.757 539.459 407.827 539.459 405.357L539.15 1.04215L627.431 0.964965L786.628 255.765H788.943L784.236 189.074L784.082 0.810587L874.06 0.733398L874.445 409.448L793.187 409.525Z" fill="#21232A"/>
<path d="M228.172 409.766L227.786 1.0509L498.414 0.819336L498.492 82.0992L319.616 82.2536L319.693 162.376L471.637 162.221L471.714 242.884L319.77 243.038L319.848 328.64L505.745 328.486L505.823 409.534L228.172 409.766Z" fill="#21232A"/>
<path d="M505.196 520.757C640.086 520.603 684.92 603.04 684.997 730.865C685.075 855.139 630.98 947.688 500.875 947.843C370.692 947.92 318.835 858.458 318.681 731.251C318.527 603.349 390.91 520.834 505.196 520.757ZM502.572 869.496C568.551 869.419 592.627 811.682 592.55 732.718C592.473 651.978 567.702 600.184 501.723 600.262C442.227 600.339 411.051 653.985 411.128 729.321C411.205 810.678 435.436 869.573 502.572 869.496Z" fill="#21232A"/>
<path d="M814.659 942.134L814.504 794.858L674.136 529.945L779.933 529.868L779.856 542.913L859.802 711.262L940.906 529.714L1038.68 529.637L906.412 794.858L906.566 942.134H814.659Z" fill="#21232A"/>
<path d="M265.29 776.408C265.445 907.166 221.845 946.687 137.037 946.764C118.208 946.764 86.9551 942.673 77.5406 939.74L71.5986 850.201C89.2701 860.776 105.167 864.326 126.388 864.326C155.866 864.326 173.46 842.482 173.46 785.362L173.229 530.176L265.136 530.099L265.29 776.408Z" fill="#21232A"/>
<path d="M170.374 265.794L134.414 244.953L41.8123 405.197V358.189H0.21875V576.016H41.8123V530.475L113.116 653.977L149.153 633.213L53.5419 467.566L170.374 265.794Z" fill="#FBFBFB"/>
<path d="M91.3559 502.989L281.575 391.991L261.357 356.639L235.892 371.305L181.257 275.205L70.3662 466.093L91.3559 502.989ZM180.485 357.874L199.623 391.991L142.132 425.8L180.485 357.874Z" fill="#FBFBFB"/>
<path d="M395.32 442.405H395.243L389.07 446.033L359.283 463.246L359.36 463.323L306.577 493.89L263.594 419.017L246.926 428.666L245.614 429.438L227.634 439.781V439.858L95.9854 516.275L116.744 552.322L248.315 475.905L270.694 514.808L244.302 530.092L265.138 566.062L380.195 499.293L469.633 653.98L505.671 633.216L395.32 442.405Z" fill="#FBFBFB"/>
<path d="M612.868 317.815L607.467 320.98L603.84 323.064L454.828 409.515L475.586 445.562L539.173 408.666L710.409 507.468L732.093 544.904L768.13 524.141L639.877 302.223L612.868 317.815ZM580.689 384.583L624.675 359.034L668.815 435.373L580.689 384.583Z" fill="#FBFBFB"/>
<path d="M539.388 497.519L502.811 518.823L411.135 360.2L375.098 381.041L476.419 556.105L487.763 575.711L539.388 545.684V653.98H580.905L580.982 448.89L539.388 424.498V497.519Z" fill="#FBFBFB"/>
<path d="M894.669 400.486L916.43 363.512L682.071 300.449L671.268 340.587L774.827 368.375V619.779H816.343V379.491L894.669 400.486Z" fill="#FBFBFB"/>
<path d="M1190.61 462.167H1100.94L1045.45 365.527L1069.99 323.227L1034.03 302.386L935.104 473.282L965.432 503.772H1076.94L1118.38 575.943L1148.86 545.454L1124.94 503.772H1190.69V462.167H1190.61ZM989.431 462.167L1021.3 407.131L1052.94 462.167H989.431Z" fill="#FBFBFB"/>
<path d="M983.807 358.04L947.769 337.199L874.46 463.943V428.282H832.866V653.982H874.46V546.998L894.138 512.958L1035.36 654.059L1064.76 624.727L915.745 475.753L983.807 358.04Z" fill="#FBFBFB"/>
</svg>
