<svg width="76" height="60" viewBox="0 0 76 60" fill="none" xmlns="http://www.w3.org/2000/svg">
    <path d="M50.2365 25.8973L39.5548 9.7946H39.4081L39.8579 14.7188L39.8677 25.907L34.4413 25.9119C34.2897 25.9119 34.1626 25.7897 34.1626 25.6332L34.1431 0.0195599L39.7357 0.0146699L49.821 16.1564H49.9676L49.6694 11.9315L49.6596 0.00488997L55.3598 0L55.3842 25.8924L50.2365 25.8973Z" fill="#1DCFFF"/>
    <path d="M14.4407 25.9122L14.4163 0.0198579L31.5607 0.00518799L31.5656 5.15432L20.2338 5.1641L20.2386 10.2399L29.8644 10.2301L29.8693 15.3401L20.2435 15.3499L20.2484 20.7729L32.0252 20.7631L32.0301 25.8976L14.4407 25.9122Z" fill="#1DCFFF"/>
    <path d="M16.7935 49.1395C16.8032 57.4231 14.0411 59.9268 8.66852 59.9317C7.47569 59.9317 5.49579 59.6725 4.89937 59.4867L4.52295 53.8143C5.64245 54.4843 6.64951 54.7092 7.99389 54.7092C9.86135 54.7092 10.976 53.3253 10.976 49.7068L10.9613 33.5405L16.7837 33.5356L16.7935 49.1395Z" fill="#1DCFFF"/>
    <path d="M31.9912 32.9437C40.5365 32.934 43.3768 38.1564 43.3817 46.2542C43.3866 54.1271 39.9597 59.9901 31.7174 59.9999C23.4703 60.0048 20.1851 54.3373 20.1753 46.2787C20.1655 38.176 24.7511 32.9486 31.9912 32.9437ZM31.825 55.0366C36.0048 55.0317 37.53 51.374 37.5251 46.3716C37.5202 41.2567 35.951 37.9755 31.7712 37.9804C28.002 37.9853 26.027 41.3838 26.0319 46.1564C26.0368 51.3105 27.5718 55.0415 31.825 55.0366Z" fill="#1DCFFF"/>
    <path d="M51.5973 59.6386L51.5875 50.3085L42.6951 33.5261L49.3974 33.5213L49.3925 34.3477L54.4572 45.0127L59.5951 33.5115L65.789 33.5066L57.4099 50.3085L57.4197 59.6386H51.5973Z" fill="#1DCFFF"/>
    <path  d="M10.7795 16.7919L8.50136 15.4716L2.63498 25.6232V22.6452H0V36.4447H2.63498V33.5596L7.15209 41.3836L9.43509 40.0682L3.37806 29.5743L10.7795 16.7919Z" fill="#FBFBFB"/>
    <path d="M5.77307 31.8183L17.8236 24.7865L16.5428 22.5469L14.9295 23.476L11.4683 17.388L4.44336 29.4809L5.77307 31.8183ZM11.4195 22.6252L12.6318 24.7865L8.9898 26.9283L11.4195 22.6252Z" fill="#FBFBFB"/>
    <path d="M25.0292 27.9804H25.0243L24.6332 28.2102L22.7462 29.3007L22.7511 29.3056L19.4073 31.242L16.6843 26.4987L15.6284 27.11L15.5452 27.1589L14.4062 27.8141V27.819L6.06616 32.6601L7.38121 34.9437L15.7164 30.1026L17.1341 32.5672L15.4621 33.5354L16.7821 35.8141L24.0711 31.5843L29.737 41.3838L32.02 40.0684L25.0292 27.9804Z" fill="#FBFBFB"/>
    <path d="M38.811 20.0879L38.4688 20.2884L38.2391 20.4204L28.7991 25.8972L30.1141 28.1808L34.1424 25.8434L44.9903 32.1026L46.364 34.4742L48.647 33.1588L40.5221 19.1002L38.811 20.0879ZM36.7725 24.3178L39.559 22.6992L42.3553 27.5354L36.7725 24.3178Z" fill="#FBFBFB"/>
    <path d="M34.1574 31.4716L31.8402 32.8213L26.0325 22.7724L23.7495 24.0927L30.1683 35.1831L30.8869 36.4252L34.1574 34.523V41.3836H36.7875L36.7924 28.391L34.1574 26.8457V31.4716Z" fill="#FBFBFB"/>
    <path d="M56.6641 25.3254L58.0427 22.9831L43.1959 18.988L42.5115 21.5308L49.072 23.2911V39.2178H51.7021V23.9953L56.6641 25.3254Z" fill="#FBFBFB"/>
    <path d="M75.4126 29.232H69.732L66.2171 23.1098L67.7717 20.4301L65.4936 19.1098L59.2263 29.9362L61.1476 31.8677H68.2117L70.8369 36.4398L72.7679 34.5083L71.2524 31.8677H75.4175V29.232H75.4126ZM62.6679 29.232L64.6869 25.7455L66.6913 29.232H62.6679Z" fill="#FBFBFB"/>
    <path d="M62.3085 22.6355L60.0255 21.3152L55.3813 29.3445V27.0853H52.7463V41.3836H55.3813V34.6061L56.6279 32.4496L65.5742 41.3885L67.4367 39.5303L57.9967 30.0927L62.3085 22.6355Z" fill="#FBFBFB"/>
</svg>
