<svg width="1000" height="500" viewBox="0 0 1000 500" fill="none" xmlns="http://www.w3.org/2000/svg">
    <path d="M303 168.24C303.982 166.513 303.88 164.483 304.422 162.621C307.231 152.703 313.087 144.782 320.432 137.81C331.568 127.249 344.702 119.802 358.648 113.641C378.483 104.875 399.232 99.188 420.49 95.1261C445.944 90.2857 471.635 88.1194 497.53 87.984C501.016 87.984 501.016 87.984 501.016 91.5043C501.016 104.705 500.948 117.906 501.084 131.108C501.084 132.766 500.305 133.003 499.256 132.935C492.385 132.461 485.513 132.902 478.676 133.003C465.644 133.206 452.646 133.849 439.648 134.763C413.652 136.591 387.758 139.502 362.236 144.918C349.847 147.558 337.56 150.672 325.882 155.682C320.331 158.051 314.915 160.725 310.514 164.99C308.077 167.394 306.249 170.101 306.757 173.791C307.163 176.499 308.72 178.53 310.616 180.358C314.746 184.318 319.755 186.924 324.934 189.158C338.508 195.014 352.792 198.433 367.211 201.31C386.911 205.27 406.815 207.741 426.819 209.434C455.828 211.905 484.904 212.751 514.048 212.311C534.797 212.006 555.547 210.991 576.228 209.095C596.572 207.234 616.813 204.627 636.784 200.329C650.73 197.35 664.54 193.897 677.504 187.737C682.243 185.469 686.813 182.896 690.299 178.801C691.552 177.311 692.703 175.72 692.669 173.689C692.635 171.997 693.684 172.336 694.666 172.302C695.918 172.234 696.054 173.046 695.986 173.926C695.783 176.668 695.444 179.41 694.734 182.084C692.161 191.799 686.576 199.685 679.468 206.557C666.639 219.013 651.17 227.205 634.821 233.907C614.613 242.2 593.593 247.514 572.133 251.203C553.143 254.453 534.019 256.315 514.793 256.924C514.488 256.924 514.082 256.789 513.946 257.229C504.029 257.229 494.077 257.229 484.159 257.229C483.889 256.653 483.381 256.924 482.975 256.89C470.417 256.348 457.893 255.435 445.402 253.878C429.02 251.847 412.772 248.902 396.795 244.671C379.025 239.966 361.762 233.873 345.548 225.072C334.479 219.081 324.223 212.006 315.829 202.529C310.785 196.842 306.825 190.479 304.659 183.099C304.049 181.069 304.151 178.902 303.068 177.007C303 174.096 303 171.185 303 168.24ZM307.57 181.712C307.773 183.404 308.179 184.487 308.619 185.604C311.361 192.543 315.659 198.433 320.872 203.646C331.264 214.037 343.72 221.349 356.955 227.442C377.4 236.885 398.928 242.809 420.963 247.04C445.775 251.779 470.891 253.945 496.142 254.114C520.784 254.284 545.257 252.591 569.56 248.529C591.697 244.84 613.361 239.424 634.144 230.894C647.92 225.241 661.02 218.404 672.529 208.791C679.129 203.273 684.816 197.011 688.742 189.294C689.825 187.161 690.875 184.961 691.349 182.422C691.01 182.592 690.841 182.626 690.739 182.727C684.917 188.008 677.877 191.189 670.667 193.965C660.241 197.993 649.41 200.735 638.51 203.07C617.727 207.572 596.639 210.28 575.484 212.21C558.695 213.733 541.872 214.68 525.015 215.121C507.041 215.594 489.034 215.561 471.06 214.985C454.271 214.444 437.482 213.462 420.76 211.905C404.039 210.348 387.385 208.215 370.867 205.067C356.955 202.427 343.179 199.279 329.91 194.337C323.275 191.866 316.878 189.023 311.225 184.69C310.007 183.878 308.991 182.93 307.57 181.712ZM307.84 163.196C308.179 162.925 308.551 162.689 308.89 162.384C311.665 159.778 314.847 157.747 318.198 155.986C328.319 150.604 339.252 147.389 350.287 144.579C364.774 140.89 379.499 138.351 394.291 136.32C410.504 134.086 426.785 132.529 443.101 131.48C460.837 130.329 478.574 129.72 496.345 129.754C497.733 129.754 498.004 129.314 498.004 128.027C497.97 116.282 497.936 104.57 498.004 92.8244C498.004 91.4366 497.699 91.0304 496.243 91.0643C480.165 91.2335 464.121 92.1474 448.144 94.043C424.958 96.7847 402.177 101.287 380.006 108.7C364.436 113.878 349.475 120.344 335.766 129.483C326.593 135.609 318.334 142.684 312.376 152.128C310.278 155.479 308.517 159.033 307.84 163.196Z" fill="#211C1A" />
    <path d="M407.322 179.884C412.23 181.069 416.834 181.881 421.437 182.456C423.739 182.727 426.041 182.964 428.343 183.1C429.087 183.133 429.29 183.37 429.29 184.081C429.256 186.857 429.256 189.598 429.29 192.374C429.29 193.322 428.884 193.322 428.139 193.22C421.37 192.442 414.6 191.562 407.898 190.275C399.469 188.685 391.176 186.721 382.883 184.487C381.766 184.183 381.36 183.743 381.428 182.558C381.529 180.121 381.529 177.718 381.428 175.28C381.36 173.893 381.597 173.554 383.12 173.757C389.145 174.57 395.137 174.502 400.993 172.606C402.956 171.963 404.581 170.982 404.885 168.68C405.156 166.615 404.547 165.363 402.719 164.381C399.774 162.824 396.558 162.249 393.275 162.147C388.13 162.012 383.019 162.079 377.874 161.944C376.588 161.91 376.418 162.418 376.452 163.501C376.486 172.539 376.452 181.542 376.52 190.58C376.52 191.9 376.215 192.273 374.861 192.239C367.414 192.171 359.968 192.171 352.521 192.239C351.438 192.239 351.235 191.968 351.235 190.952C351.269 178.598 351.269 166.243 351.235 153.888C351.235 152.5 352.013 152.839 352.724 152.839C364.063 152.839 375.403 152.839 386.742 152.839C391.921 152.839 397.134 152.839 402.313 153.211C409.692 153.752 416.969 154.768 423.908 157.577C426.312 158.559 428.41 159.947 429.73 162.181C432.438 166.717 431.05 171.692 426.278 174.468C421.573 177.21 416.326 178.327 411.046 179.275C409.963 179.579 408.846 179.681 407.322 179.884Z" fill="#ffffff" />
    <path d="M458.942 192.306C450.784 192.306 444.015 192.273 437.245 192.34C436.195 192.34 435.755 192.205 435.823 191.02C435.925 188.955 435.925 186.857 435.823 184.758C435.755 183.607 436.195 183.37 437.245 183.37C446.147 183.404 455.049 183.404 463.985 183.37C465.881 183.37 467.844 183.404 469.672 182.727C470.383 182.49 471.263 182.253 471.297 181.238C471.331 180.324 470.62 179.816 469.909 179.478C466.964 178.09 463.85 177.074 460.804 175.991C455.354 174.028 449.735 172.572 444.624 169.729C442.965 168.781 441.239 167.901 440.054 166.378C437.786 163.433 438.396 160.218 441.408 157.814C444.759 155.14 448.753 154.26 452.849 153.685C456.877 153.109 460.939 152.94 465.001 152.94C476.07 152.94 487.104 152.974 498.173 152.906C499.493 152.906 499.933 153.211 499.831 154.599C499.696 156.63 499.696 158.661 499.764 160.692C499.798 161.809 499.425 162.113 498.308 162.079C490.015 162.045 481.722 162.045 473.429 162.045C471.737 162.045 470.044 162.215 468.42 162.722C467.709 162.926 467.235 163.298 467.133 164.11C467.066 164.821 467.438 165.16 467.98 165.532C469.672 166.683 471.601 167.292 473.531 167.901C479.184 169.763 484.938 171.354 490.455 173.622C493.062 174.705 495.465 176.059 497.631 177.853C500.948 180.629 500.238 186.044 496.176 188.041C492.148 190.039 487.815 190.986 483.381 191.596C474.783 192.78 466.152 192.103 458.942 192.306Z" fill="#ffffff" />
    <path d="M551.18 193.22C541.804 193.186 532.462 192.78 523.356 190.242C517.23 188.515 511.712 185.672 507.515 180.764C502.81 175.28 503.216 168.443 508.497 163.366C512.525 159.473 517.467 157.205 522.781 155.648C534.797 152.128 547.085 151.722 559.473 152.162C562.553 152.263 565.668 152.568 568.748 152.737C569.797 152.805 570.169 153.211 570.136 154.294C570.034 156.494 570.068 158.694 570.136 160.895C570.136 161.741 570 161.978 569.019 161.876C561.267 160.996 553.482 160.861 545.764 162.113C541.398 162.824 537.167 163.975 533.613 166.784C529.348 170.169 529.449 175.991 533.951 179.139C537.539 181.644 541.669 182.795 545.934 183.404C553.55 184.487 561.2 184.386 568.816 183.201C569.729 183.066 570.237 183.066 570.169 184.284C570.068 186.484 570.068 188.685 570.169 190.885C570.203 191.968 569.865 192.306 568.816 192.408C562.926 193.017 557.07 193.254 551.18 193.22Z" fill="#ffffff" />
    <path d="M623.312 193.22C614.41 193.22 605.508 192.78 596.809 190.58C590.242 188.921 584.285 186.112 579.783 180.899C574.875 175.213 575.348 168.308 580.866 163.162C584.86 159.439 589.7 157.205 594.879 155.682C606.862 152.162 619.183 151.755 631.571 152.162C634.652 152.263 637.766 152.602 640.846 152.771C641.862 152.839 642.302 153.177 642.234 154.294C642.132 156.427 642.166 158.593 642.234 160.725C642.268 161.639 642.2 162.045 640.981 161.91C633.23 160.996 625.445 160.895 617.727 162.147C613.361 162.858 609.13 164.043 605.609 166.886C601.547 170.102 601.547 175.653 605.609 178.835C609.231 181.644 613.564 182.761 617.964 183.438C625.58 184.555 633.23 184.42 640.846 183.235C641.997 183.066 642.268 183.404 642.2 184.487C642.098 186.586 642.098 188.651 642.2 190.749C642.268 191.934 641.963 192.374 640.711 192.476C634.889 192.983 629.1 193.254 623.312 193.22Z" fill="#ffffff" />
    <path d="M596.538 115.706C594.778 116.417 593.051 116.519 591.325 116.688C584.623 117.365 577.989 116.62 571.557 114.86C566.48 113.438 561.707 111.103 557.239 108.124C553.584 105.687 550.334 102.81 547.355 99.6957C545.121 97.3602 543.395 94.5169 541.703 91.7074C539.299 87.7809 537.573 83.4483 536.591 78.9802C535.745 74.9522 535.305 70.7888 535.644 66.5915C535.881 63.7144 536.185 60.871 536.93 58.0616C537.268 56.7415 537.607 56.7076 538.555 57.6554C543.53 62.6989 548.608 67.7085 553.584 72.752C554.396 73.5982 555.242 73.9029 556.393 73.9029C560.319 73.8352 564.246 73.869 568.612 73.869C567.36 72.6843 566.514 71.7365 565.532 70.9242C564.889 70.3826 564.821 69.9087 565.566 69.5364C566.209 69.1979 566.412 67.5731 567.631 68.7578C569.052 70.179F5 570.508 71.635 571.93 73.0567C575.585 76.7123 579.275 80.4019 582.931 84.0576C584.961 86.0885 584.961 86.0885 582.626 88.1871C581.543 87.0701 580.426 85.9531 579.139 84.633C579.139 87.5778 579.376 90.3196 579.072 92.9937C578.632 96.8186 579.952 99.4927 582.795 102.031C587.229 106.026 591.291 110.426 595.522 114.657C595.861 114.928 596.132 115.266 596.538 115.706ZM590.005 113.608C589.023 112.118 540.484 63.6805 539.333 62.9697C534.391 87.4086 556.833 115.74 590.005 113.608ZM557.713 76.8816C560.523 79.6572 562.994 82.0943 565.431 84.5314C566.074 85.1746 566.311 84.5653 566.582 84.2606C568.308 82.5682 570.034 80.8758 571.693 79.1156C572.031 78.7433 572.81 78.4725 572.471 77.8632C572.133 77.2539 571.557 76.8477 570.677 76.8477C566.581 76.9154 562.418 76.8816 557.713 76.8816ZM576.127 95.2615C576.127 92.7229 576.127 90.6919 576.127 88.6949C576.127 86.4947 576.093 84.2945 576.127 82.0943C576.127 81.2819 575.619 80.8758 575.111 80.4696C574.739 80.1988 574.536 80.605 574.299 80.8419C572.37 82.7374 570.474 84.6668 568.545 86.5624C568.037 87.0701 568.206 87.307 568.612 87.7471C571.016 90.1165 573.385 92.5198 576.127 95.2615Z" fill="#ffffff" />
    <path d="M531.277 134.188C536.321 126.436 541.263 118.82 546.204 111.204C547.085 109.85 548.032 108.53 548.811 107.142C549.454 106.025 549.962 106.432 550.503 107.142C551.925 108.97 553.313 110.798 554.734 112.626C560.015 119.531 565.261 126.403 570.508 133.308C570.677 133.511 570.846 133.748 571.185 134.188C557.781 134.188 544.647 134.188 531.277 134.188ZM550.943 131.175C555.005 131.175 559.067 131.175 563.129 131.175C563.637 131.175 564.314 131.412 564.551 130.938C564.889 130.363 564.178 129.957 563.874 129.55C559.507 123.83 555.107 118.11 550.774 112.355C549.962 111.272 549.657 111.407 548.98 112.457C545.324 118.211 541.567 123.898 537.878 129.618C537.607 130.024 537.031 130.431 537.37 130.938C537.675 131.378 538.318 131.141 538.792 131.141C542.82 131.175 546.881 131.175 550.943 131.175Z" fill="#ffffff" />
    <path d="M307.57 181.712C308.991 182.93 310.007 183.878 311.124 184.724C316.777 189.057 323.208 191.934 329.808 194.371C343.111 199.313 356.887 202.461 370.766 205.101C387.284 208.215 403.937 210.348 420.659 211.939C437.38 213.496 454.169 214.477 470.958 215.019C488.932 215.594 506.94 215.628 524.913 215.154C541.77 214.714 558.593 213.767 575.382 212.243C596.572 210.314 617.626 207.606 638.409 203.104C649.308 200.735 660.14 198.027 670.565 193.999C677.775 191.189 684.816 188.041 690.638 182.761C690.739 182.659 690.942 182.626 691.247 182.456C690.739 184.995 689.724 187.161 688.641 189.328C684.714 197.045 679.028 203.307 672.427 208.825C660.918 218.438 647.819 225.275 634.042 230.928C613.259 239.458 591.596 244.874 569.459 248.563C545.155 252.625 520.649 254.318 496.04 254.148C470.789 253.979 445.707 251.813 420.862 247.074C398.826 242.877 377.298 236.919 356.854 227.475C343.619 221.383 331.162 214.071 320.771 203.68C315.558 198.433 311.259 192.577 308.517 185.638C308.179 184.521 307.773 183.404 307.57 181.712Z" fill="#ffffff" />
    <path d="M307.84 163.196C308.517 159.067 310.278 155.479 312.41 152.094C318.367 142.65 326.627 135.542 335.8 129.449C349.508 120.31 364.47 113.878 380.04 108.666C402.211 101.253 424.991 96.7509 448.178 94.0092C464.155 92.1136 480.199 91.1997 496.277 91.0305C497.699 91.0305 498.037 91.4028 498.037 92.7906C497.97 104.536 497.97 116.248 498.037 127.993C498.037 129.28 497.767 129.72 496.379 129.72C478.608 129.686 460.838 130.295 443.135 131.446C426.819 132.495 410.538 134.052 394.324 136.286C379.532 138.317 364.808 140.856 350.321 144.546C339.286 147.355 328.353 150.571 318.232 155.953C314.881 157.747 311.699 159.744 308.924 162.35C308.585 162.689 308.213 162.926 307.84 163.196Z" fill="#ffffff" />
    <path d="M590.005 113.608C556.833 115.774 534.391 87.4086 539.333 62.9697C540.484 63.6466 588.989 112.118 590.005 113.608Z" fill="#ffffff" />
    <path d="M550.943 131.175C546.881 131.175 542.82 131.175 538.758 131.175C538.25 131.175 537.607 131.412 537.336 130.972C536.998 130.464 537.573 130.058 537.844 129.652C541.533 123.932 545.291 118.245 548.946 112.491C549.623 111.441 549.928 111.306 550.74 112.389C555.073 118.143 559.507 123.83 563.84 129.584C564.144 129.991 564.855 130.397 564.517 130.972C564.28 131.412 563.569 131.175 563.095 131.209C559.067 131.175 555.005 131.175 550.943 131.175Z" fill="#ffffff" />
    <path d="M100.721 341.1H91.215V409H100.721V376.99H109.839C112.652 376.99 116.047 377.766 118.181 379.609C119.83 381.064 120.897 383.586 122.255 386.787L131.664 409H142.334L131.373 383.295C129.724 379.512 127.299 374.371 120.509 372.916V372.431C126.232 370.976 127.978 366.223 129.142 362.828L131.567 355.65C132.343 353.516 133.022 349.927 135.059 348.472C136.029 347.793 137.096 347.696 137.775 347.696C138.745 347.696 139.618 347.793 140.588 348.278L141.752 340.712C140.588 340.421 138.26 339.936 136.32 339.936C134.38 339.936 132.343 340.324 130.791 341.003C126.717 342.846 125.359 346.92 124.292 350.218L120.8 360.791C119.442 365.059 117.599 369.23 110.13 369.23H100.721V341.1ZM168.808 360.888C161.824 360.888 156.683 363.701 153.579 366.999C148.729 372.237 147.759 379.706 147.759 385.429C147.759 391.152 148.729 398.621 153.579 403.859C156.683 407.157 161.824 409.97 168.808 409.97C175.792 409.97 180.933 407.157 184.037 403.859C188.887 398.621 189.857 391.152 189.857 385.429C189.857 379.706 188.887 372.237 184.037 366.999C180.933 363.701 175.792 360.888 168.808 360.888ZM180.351 387.563C180.351 392.025 180.351 396.972 176.956 400.561C175.598 402.016 173.076 403.762 168.808 403.762C164.54 403.762 162.018 402.016 160.66 400.561C157.265 396.972 157.265 392.025 157.265 387.563V383.295C157.265 378.833 157.265 373.886 160.66 370.297C162.018 368.842 164.54 367.096 168.808 367.096C173.076 367.096 175.598 368.842 176.956 370.297C180.351 373.886 180.351 378.833 180.351 383.295V387.563ZM235.077 399.785C233.525 400.561 231.779 401.337 229.645 402.016C227.026 402.792 224.892 403.18 222.273 403.18C220.624 403.18 215.871 402.889 212.767 399.979C209.275 396.681 209.081 392.219 209.081 388.242V381.937C209.081 378.348 208.79 372.334 213.64 368.939C215.386 367.775 217.714 367.096 220.43 367.096C223.631 367.096 226.056 367.969 227.511 369.424C229.451 371.364 229.451 374.177 229.16 376.893L237.017 376.214C238.472 371.17 236.629 366.029 231.779 363.41C228.772 361.761 224.407 360.888 221.206 360.888C216.55 360.888 211.215 362.149 207.626 364.865C200.642 370.103 199.575 379.318 199.575 385.72C199.575 389.794 200.157 399.3 207.044 405.314C211.506 409.194 216.938 409.97 221.012 409.97C225.377 409.97 228.772 409.291 232.07 408.03C234.107 407.254 236.338 406.09 237.793 405.314L235.077 399.785ZM249.178 409H256.938V373.304L270.518 397.942H273.428L287.008 373.304V409H295.544V361.858H285.941L272.943 386.011L259.557 361.858H249.178V409ZM351.594 361.858H342.476L319.002 398.233V361.858H310.466V409H319.584L343.058 372.625V409H351.594V361.858ZM399.233 361.858H390.697V383.683C387.108 384.944 384.392 385.235 381.773 385.235C379.445 385.235 376.05 385.041 374.11 383.295C372.17 381.646 371.976 379.318 371.976 377.863V361.858H363.44V376.699C363.44 380.676 363.925 384.847 367.417 387.951C371.2 391.249 377.311 391.443 379.93 391.443C382.355 391.443 386.429 391.152 390.697 389.891V409H399.233V361.858ZM421.079 387.466H450.179V385.332C450.179 377.766 449.888 371.558 445.232 366.514C442.128 363.216 437.375 360.888 431.361 360.888C424.862 360.888 420.012 363.798 417.005 367.096C412.058 372.722 411.573 379.997 411.573 384.653C411.573 389.988 412.349 397.748 417.199 403.18C420.4 406.769 425.929 409.97 433.786 409.97C437.278 409.97 440.964 409.485 444.844 408.03C446.881 407.254 449.112 406.09 450.567 405.314L447.851 399.785C446.299 400.561 444.553 401.337 442.419 402.016C439.8 402.792 437.763 403.18 435.047 403.18C430.585 403.18 426.608 401.725 424.377 399.3C422.825 397.651 421.079 394.353 421.079 388.727V387.466ZM421.079 381.258V380.191C421.079 374.759 422.728 371.752 424.183 370.2C425.444 368.745 427.675 367.096 431.264 367.096C433.786 367.096 436.114 367.678 437.957 369.424C441.061 372.334 441.061 376.02 441.061 379.318V381.258H421.079ZM494.817 399.785C493.265 400.561 491.519 401.337 489.385 402.016C486.766 402.792 484.632 403.18 482.013 403.18C480.364 403.18 475.611 402.889 472.507 399.979C469.015 396.681 468.821 392.219 468.821 388.242V381.937C468.821 378.348 468.53 372.334 473.38 368.939C475.126 367.775 477.454 367.096 480.17 367.096C483.371 367.096 485.796 367.969 487.251 369.424C489.191 371.364 489.191 374.177 488.9 376.893L496.757 376.214C498.212 371.17 496.369 366.029 491.519 363.41C488.512 361.761 484.147 360.888 480.946 360.888C476.29 360.888 470.955 362.149 467.366 364.865C460.382 370.103 459.315 379.318 459.315 385.72C459.315 389.794 459.897 399.3 466.784 405.314C471.246 409.194 476.678 409.97 480.752 409.97C485.117 409.97 488.512 409.291 491.81 408.03C493.847 407.254 496.078 406.09 497.533 405.314L494.817 399.785ZM517.454 361.858H508.918V409H517.454V387.369H524.341C525.99 387.369 527.736 387.563 529.385 388.824C531.228 390.182 531.907 392.122 532.78 394.159L539.473 409H548.979L541.219 391.637C541.122 391.443 539.861 388.533 537.824 386.593C536.175 385.041 534.526 384.265 532.586 383.974V383.683C534.429 383.198 535.884 382.228 536.854 381.258C538.6 379.512 539.085 377.766 539.764 375.923L541.316 371.364C541.995 369.521 542.577 368.745 542.965 368.357C543.547 367.775 544.226 367.678 544.905 367.678C545.584 367.678 546.457 367.775 547.427 368.357L548.688 361.955C546.845 361.179 544.905 360.888 543.256 360.888C541.898 360.888 540.928 361.082 539.667 361.567C537.533 362.44 535.787 363.798 534.041 369.036L532.198 374.468C531.713 375.826 530.937 377.766 529.676 378.93C528.027 380.482 525.699 380.579 524.05 380.579H517.454V361.858ZM586.29 409H594.05V378.542C594.05 373.886 594.147 369.036 590.364 365.253C586.29 361.179 578.724 360.888 576.396 360.888C573.292 360.888 566.502 361.179 562.234 363.992C559.615 365.738 557.287 368.745 558.548 373.886L566.308 374.274C566.308 371.946 566.793 370.006 568.927 368.648C570.964 367.29 574.262 367.096 575.911 367.096C577.754 367.096 581.343 367.29 583.477 369.23C585.32 370.976 585.514 372.916 585.514 375.147V381.258H578.142C567.666 381.258 563.204 383.78 561.264 385.235C558.936 387.078 556.22 390.57 556.22 396.196C556.22 401.531 558.742 404.732 560.585 406.381C564.077 409.485 568.054 409.97 571.837 409.97C575.329 409.97 577.754 409.582 580.664 408.03C583.38 406.575 584.835 404.829 585.902 403.18H586.29V409ZM585.514 397.166C584.35 399.106 582.992 400.27 581.246 401.434C578.918 402.986 577.172 403.568 574.262 403.568C571.934 403.568 569.703 403.18 567.763 401.531C565.92 399.979 565.338 398.136 565.338 395.905C565.338 392.607 566.696 390.57 567.957 389.503C569.509 388.145 572.322 387.078 577.754 387.078H585.514V397.166ZM644.855 361.858H622.836C619.635 361.858 615.561 362.731 613.039 364.283C609.547 366.417 607.51 370.394 607.51 374.468C607.51 377.572 608.771 380.579 610.517 382.519C612.069 384.265 614.785 386.011 618.18 386.496V386.787C617.695 386.981 616.143 387.563 614.785 388.727C613.039 390.279 612.36 391.831 611.778 393.092L604.212 409H613.912L619.829 395.808C620.702 393.771 621.769 391.831 623.418 390.57C625.261 389.115 627.104 389.018 628.753 389.018H636.319V409H644.855V361.858ZM636.319 368.648V382.228H625.94C620.508 382.228 616.434 380.191 616.434 375.535C616.434 373.498 616.919 371.461 618.859 370.103C620.896 368.648 623.418 368.648 625.358 368.648H636.319ZM715.34 399.785C713.788 400.561 712.042 401.337 709.908 402.016C707.289 402.792 705.155 403.18 702.536 403.18C700.887 403.18 696.134 402.889 693.03 399.979C689.538 396.681 689.344 392.219 689.344 388.242V381.937C689.344 378.348 689.053 372.334 693.903 368.939C695.649 367.775 697.977 367.096 700.693 367.096C703.894 367.096 706.319 367.969 707.774 369.424C709.714 371.364 709.714 374.177 709.423 376.893L717.28 376.214C718.735 371.17 716.892 366.029 712.042 363.41C709.035 361.761 704.67 360.888 701.469 360.888C696.813 360.888 691.478 362.149 687.889 364.865C680.905 370.103 679.838 379.318 679.838 385.72C679.838 389.794 680.42 399.3 687.307 405.314C691.769 409.194 697.201 409.97 701.275 409.97C705.64 409.97 709.035 409.291 712.333 408.03C714.37 407.254 716.601 406.09 718.056 405.314L715.34 399.785ZM729.442 409H750.782C754.274 409 759.415 408.515 763.295 405.023C766.108 402.501 767.466 399.009 767.466 395.42C767.466 392.51 766.496 389.794 764.847 387.951C763.295 386.205 760.87 384.847 758.639 384.265V383.974C760.385 383.586 762.131 382.616 763.78 380.288C765.235 378.154 765.914 375.632 765.914 373.401C765.914 369.812 764.362 367.096 762.422 365.35C758.833 362.149 753.789 361.858 751.17 361.858H729.442V409ZM737.978 368.066H749.327C750.685 368.066 753.013 368.163 754.953 369.618C756.893 371.073 757.378 372.916 757.378 374.856C757.378 376.699 756.99 378.542 755.244 379.997C753.304 381.646 750.879 381.743 748.842 381.743H737.978V368.066ZM737.978 387.951H750.103C752.625 387.951 754.662 388.63 756.02 389.697C757.863 391.152 758.445 393.189 758.445 395.517C758.445 398.233 757.184 399.979 756.214 400.852C754.759 402.113 752.334 402.792 749.618 402.792H737.978V387.951ZM816.31 361.858H794.291C791.09 361.858 787.016 362.731 784.494 364.283C781.002 366.417 778.965 370.394 778.965 374.468C778.965 377.572 780.226 380.579 781.972 382.519C783.524 384.265 786.24 386.011 789.635 386.496V386.787C789.15 386.981 787.598 387.563 786.24 388.727C784.494 390.279 783.815 391.831 783.233 393.092L775.667 409H785.367L791.284 395.808C792.157 393.771 793.224 391.831 794.873 390.57C796.716 389.115 798.559 389.018 800.208 389.018H807.774V409H816.31V361.858ZM807.774 368.648V382.228H797.395C791.963 382.228 787.889 380.191 787.889 375.535C787.889 373.498 788.374 371.461 790.314 370.103C792.351 368.648 794.873 368.648 796.813 368.648H807.774ZM839.324 388.339H845.241C847.86 388.339 850.382 388.436 852.613 389.988C854.456 391.249 855.232 392.995 855.232 395.129C855.232 397.748 854.068 399.591 852.807 400.755C850.188 403.083 845.92 403.18 844.368 403.18C842.719 403.18 839.324 402.986 835.25 401.628C833.601 401.046 832.049 400.367 830.303 399.397L827.199 405.411C829.139 406.575 830.788 407.254 833.213 408.03C836.705 409.194 839.809 409.97 844.659 409.97C850.382 409.97 855.717 409 859.985 405.12C863.283 402.016 864.447 398.427 864.447 395.517C864.447 392.219 862.992 386.399 855.62 384.653V384.362C859.791 382.907 862.41 378.348 862.41 373.401C862.41 368.26 859.403 365.253 857.269 363.798C853.874 361.47 849.121 360.888 845.144 360.888C841.458 360.888 835.832 361.664 832.534 363.798C830.109 365.447 827.781 368.357 828.945 373.401L836.414 373.789C836.026 371.267 837.384 369.327 838.936 368.357C840.197 367.581 842.04 367.096 844.659 367.096C846.502 367.096 848.927 367.193 850.867 368.745C852.904 370.297 853.486 372.722 853.486 374.856C853.486 376.117 853.001 377.96 852.031 379.124C850.091 381.549 846.114 381.743 843.98 381.743H839.324V388.339ZM884.998 379.221V361.858H876.268V409H896.444C903.428 409 907.696 406.963 910.121 404.732C912.74 402.404 914.777 398.621 914.777 394.159C914.777 389.891 913.031 386.011 909.927 383.392C905.368 379.609 899.063 379.221 894.989 379.221H884.998ZM884.998 386.011H896.735C900.227 386.011 902.361 387.078 903.428 388.048C905.465 389.794 905.853 392.025 905.853 394.159C905.853 397.554 904.495 399.203 903.816 399.882C902.652 401.143 900.421 402.21 897.026 402.21H884.998V386.011Z" fill="#ffffff" />
</svg>
