<svg width="1000" height="500" viewBox="0 0 1000 500" fill="none" xmlns="http://www.w3.org/2000/svg">
<path fill-rule="evenodd" clip-rule="evenodd" d="M0 276.39C0 325.488 27.4403 375 88.8879 375C150.28 375 177.775 325.488 177.775 276.39C177.775 242.853 166.5 204.233 147.68 173.04C129.378 142.917 107.389 125 88.8879 125C70.3347 125 48.3349 142.917 30.192 173.04C11.2834 204.233 0 242.853 0 276.39Z" fill="#fff"/>
<path fill-rule="evenodd" clip-rule="evenodd" d="M631.089 198.663H568.868V138.397H759.976V198.663H697.755V361.61H631.089V198.663Z" fill="#fff"/>
<path fill-rule="evenodd" clip-rule="evenodd" d="M902.192 198.666H999.974V138.397H902.2C812.358 138.397 764.394 183.264 764.394 250.005C764.394 316.747 812.358 361.613 902.2 361.613H999.974V301.344H902.192C860.622 301.344 833.282 286.417 833.282 250.005C833.282 213.594 860.622 198.666 902.192 198.666Z" fill="#fff"/>
<path fill-rule="evenodd" clip-rule="evenodd" d="M397.751 271.631L433.292 138.397H551.098V361.613H484.429V179.935L435.969 361.613H359.531L311.102 180.051L311.099 361.613H244.436V138.397H362.208L397.751 271.631Z" fill="#fff"/>
</svg>
