<svg width="1000" height="500" viewBox="0 0 1000 500" fill="#fff" xmlns="http://www.w3.org/2000/svg">
<g clip-path="url(#clip0)">
<path d="M192.525 219.225C195.898 209.927 201.276 201.905 208.113 195.068C230.447 172.552 257.429 164.895 287.785 173.646C318.14 182.397 336.645 203.546 343.573 234.449C345.67 243.747 345.488 253.136 344.12 262.525C343.756 265.169 342.935 265.898 340.292 264.804C334.184 262.069 328.168 259.243 322.789 255.232C317.32 251.222 313.673 246.755 312.124 239.371C304.922 205.187 264.995 190.693 237.01 211.659C234.275 213.756 231.723 214.576 228.259 214.394C217.411 213.847 206.746 215.123 196.445 218.769C195.351 219.043 194.257 219.863 192.525 219.225Z" fill="#fff"/>
<path d="M813.947 220.228C818.323 208.833 824.43 199.809 832.543 192.425C856.518 170.547 884.412 164.257 914.859 175.378C945.032 186.408 961.896 209.107 966.363 240.83C967.366 248.031 967.092 255.324 965.907 262.616C965.451 265.533 964.358 265.716 961.987 264.713C953.419 261.067 945.306 256.691 938.469 250.219C936.372 248.213 935.187 246.026 934.822 243.2C929.262 206.281 887.329 189.417 857.885 212.206C856.153 213.573 854.512 214.576 852.142 214.394C839.471 213.573 827.074 215.214 813.947 220.228Z" fill="#fff"/>
<path d="M577.666 172.37C595.442 172.37 613.127 172.461 630.902 172.279C634.458 172.279 635.643 173.282 635.552 176.837C635.278 183.947 635.278 191.057 635.552 198.259C635.643 201.723 634.549 202.634 631.176 202.543C606.928 202.452 582.589 202.543 558.341 202.361C554.148 202.361 552.233 203.181 552.689 207.739C553.054 211.294 553.874 215.944 552.142 218.405C550.319 220.957 545.397 219.134 541.933 219.59C535.369 220.41 529.171 222.142 523.154 224.786C520.419 226.062 519.508 225.606 519.508 222.416C519.599 206.919 519.69 191.422 519.508 176.016C519.508 172.461 521.149 172.188 523.975 172.188C541.933 172.37 559.8 172.37 577.666 172.37Z" fill="#fff"/>
<path fill-rule="evenodd" clip-rule="evenodd" d="M741.659 253.774C742.844 254.047 744.029 254.321 745.214 254.686H745.305C757.612 254.321 768.459 249.034 779.307 243.929C792.525 237.639 806.016 232.078 820.51 229.617C839.38 226.427 856.609 230.62 872.288 241.65C872.744 242.015 873.2 242.379 873.655 242.835C873.838 243.017 873.838 243.291 874.02 244.02C864.722 243.2 855.697 241.741 846.49 241.65L845.958 241.642C839.836 241.554 839.833 241.554 839.745 247.849C839.198 274.74 858.067 296.162 884.868 297.803C901.185 298.806 914.676 292.151 925.16 279.48C926.709 277.566 926.8 276.381 924.704 274.74C919.143 270.273 914.221 265.077 910.483 258.605C938.377 274.011 967.821 282.489 999.909 279.298C993.163 283.491 985.688 285.314 978.122 286.5C972.379 287.32 966.636 287.958 960.893 288.14C957.885 288.232 956.427 289.325 954.877 291.787C927.074 336.089 866.363 342.562 830.082 305.005C815.588 290.055 808.295 271.914 808.022 251.13C807.931 246.664 806.746 246.117 802.917 247.302C796.08 249.398 789.517 252.042 782.954 254.868C780.857 255.779 780.036 256.509 782.133 258.605C794.075 270.547 795.624 284.859 789.882 299.809C783.956 315.488 771.832 324.786 755.059 325.697C725.433 327.338 695.807 325.971 666.18 326.335C662.534 326.427 662.808 324.33 662.808 321.96C662.808 306.19 662.717 290.328 662.899 274.558C662.99 271.003 661.805 269.818 658.523 269.362C648.222 267.903 638.377 264.895 628.806 260.975C627.438 260.428 625.798 258.879 625.433 262.16C625.16 264.622 622.789 263.619 621.331 263.619C600.638 263.71 580.036 263.71 559.344 263.71C552.689 263.71 552.689 263.71 552.689 270.365C552.689 277.384 552.871 284.312 552.598 291.331C552.507 295.16 553.783 296.253 557.521 296.253C581.951 296.071 606.472 296.253 630.902 296.071C635.187 296.071 636.828 296.983 636.554 301.541C636.19 308.104 636.19 314.667 636.554 321.139C636.828 325.333 635.643 326.518 631.358 326.518C600.638 326.335 570.009 326.427 539.289 326.427C534.093 326.427 528.988 326.244 523.792 326.518C520.237 326.7 519.417 325.333 519.417 322.051C519.599 301.723 519.508 281.304 519.508 260.975C519.508 253.592 519.508 253.592 512.762 256.6C505.378 259.882 498.45 263.984 491.431 267.903C484.412 271.823 477.028 274.923 469.189 277.019C465.816 277.931 465.816 278.933 467.639 281.486C477.484 295.068 487.147 308.651 496.901 322.233C497.63 323.327 499.271 324.421 498.724 325.697C497.995 327.429 495.989 326.518 494.622 326.518C484.412 326.609 474.294 326.427 464.084 326.609C461.167 326.7 459.344 325.606 457.794 323.236C448.405 309.016 438.924 294.977 429.535 280.757C427.985 278.295 426.345 277.201 423.336 277.293C417.138 277.475 410.848 277.475 404.649 277.293C401.459 277.201 400.547 278.295 400.547 281.486C400.729 294.977 400.547 308.56 400.729 322.051C400.729 325.606 399.635 326.7 396.08 326.609C387.694 326.335 379.398 326.335 371.012 326.609C367.548 326.7 366.636 325.515 366.727 322.142C366.91 311.203 366.636 300.264 366.91 289.325C367.001 285.315 366.363 284.038 361.987 285.406C354.603 287.685 346.946 288.961 339.107 288.414C336.281 288.232 334.913 289.325 333.364 291.604C314.129 320.684 287.056 333.081 252.598 328.432C222.242 324.33 196.718 300.356 188.696 269.544C186.964 262.981 185.962 256.418 186.326 249.672C186.509 246.299 185.324 246.208 182.68 247.211C177.575 249.125 172.653 251.404 167.73 253.865C165.269 255.05 164.357 256.691 164.357 259.517C164.54 280.21 164.357 300.811 164.54 321.504C164.54 325.15 163.719 326.609 159.799 326.427C153.236 326.153 146.764 326.153 140.201 326.427C136.828 326.609 134.731 325.515 132.634 322.78C119.69 305.46 106.472 288.414 93.5278 271.185C91.5223 268.45 89.9727 267.448 86.5087 268.906C79.5807 271.732 72.2881 273.464 64.9043 274.284C61.8961 274.649 61.258 275.743 61.1668 278.569C60.5287 292.881 60.8933 307.101 60.9845 321.413C60.9845 325.424 59.7083 326.609 55.7885 326.427C47.8578 326.153 40.0182 326.153 32.0875 326.427C28.35 326.518 27.5296 325.15 27.5296 321.686C27.7119 305.916 27.5296 290.055 27.7119 274.284C27.7119 271.367 26.9827 269.727 24.1568 268.359C13.7648 263.254 6.4722 254.777 0 245.296C15.4057 252.133 31.0848 257.876 47.6755 261.067C64.2662 264.439 80.8569 265.716 97.9034 261.887C86.4175 263.892 81.6773 255.779 76.299 248.396C71.8323 242.288 67.0921 236.363 62.5342 230.346C60.711 231.167 61.3491 232.534 61.3491 233.628C61.258 240.009 61.1668 246.39 61.3491 252.771C61.4403 255.871 60.4376 256.326 57.6117 255.506C47.8578 252.771 38.742 248.851 30.3555 243.108C28.4412 241.832 27.5296 240.374 27.5296 237.912C27.6208 217.402 27.6208 196.892 27.5296 176.381C27.5296 173.282 28.35 172.097 31.6317 172.188C39.5624 172.37 47.402 172.37 55.3327 172.188C58.0675 172.188 59.7083 173.099 61.3491 175.287C83.4093 204.458 105.652 233.537 127.803 262.707C128.441 263.528 129.17 264.348 130.082 265.442C131.176 263.801 130.72 262.16 130.72 260.611C130.72 232.808 130.811 205.005 130.629 177.201C130.538 173.008 131.814 172.097 135.734 172.188C144.12 172.461 152.416 172.279 160.802 172.188C163.446 172.097 164.448 172.917 164.448 175.743C164.357 195.342 164.357 214.941 164.448 234.54C164.448 236.819 163.446 238.277 161.987 239.644C157.703 243.747 154.239 248.578 151.595 254.139C165.816 241.741 181.404 231.896 200.365 229.161C219.508 226.427 237.01 231.167 252.142 243.929C247.037 243.382 241.933 242.744 236.737 242.288C231.814 241.923 226.983 241.832 222.151 241.468C219.234 241.194 218.414 242.47 218.049 245.296C214.859 269.18 234.002 294.066 258.341 297.256C276.299 299.717 291.067 293.701 302.917 280.027C304.923 277.748 305.105 276.381 302.461 274.284C296.992 269.909 292.252 264.986 288.788 258.696C302.005 265.624 315.588 271.276 329.9 275.287C344.303 279.298 358.979 279.845 373.747 278.842V277.931C366.18 277.11 366.727 271.823 366.727 266.171C366.91 236.363 366.91 206.645 366.727 176.837C366.727 173.282 367.73 172.279 371.285 172.279C396.08 172.461 420.784 172.37 445.579 172.37C467.639 172.37 486.235 184.676 492.343 203.82C498.45 223.601 493.892 246.299 475.205 260.611C465.269 268.177 454.057 272.826 441.841 275.378C441.112 275.469 440.383 275.652 439.836 276.928C441.659 276.655 443.573 276.381 445.397 276.016C461.076 272.644 475.114 265.807 488.514 257.147C496.171 252.224 503.92 247.393 511.668 242.653C528.715 232.261 547.493 231.258 566.727 232.99C575.843 233.719 584.959 235.178 594.075 238.095C593.346 235.907 591.249 235.725 589.881 233.446H596.718C605.105 233.446 613.4 233.537 621.787 233.355C625.068 233.263 626.162 234.448 625.798 237.548C625.615 239.006 625.798 240.556 625.798 242.106C625.798 246.937 625.798 246.937 620.602 247.94C637.83 255.232 655.059 258.15 673.564 257.147C671.559 254.321 668.824 254.686 666.545 254.139C663.902 253.409 662.899 252.224 662.899 249.398C662.99 224.968 662.99 200.447 662.899 176.016C662.899 173.282 663.628 172.279 666.454 172.279C692.252 172.37 718.14 172.097 743.938 172.461C761.805 172.735 779.581 185.497 783.318 201.358C788.514 223.51 780.128 239.827 758.706 249.034C753.236 251.404 747.493 252.68 741.659 253.774ZM400.638 243.929C400.638 245.752 400.912 247.211 403.282 247.119C407.87 246.991 412.47 247.077 417.065 247.163C425.524 247.322 433.968 247.48 442.297 246.299C450.866 245.023 457.247 240.556 459.799 231.805C464.084 216.946 455.242 204.458 439.562 203.637C432.137 203.234 424.674 203.268 417.199 203.301C412.836 203.32 408.469 203.34 404.102 203.273C401.276 203.181 400.456 204.366 400.547 207.01C400.684 211.588 400.667 216.115 400.65 220.667C400.644 222.188 400.638 223.712 400.638 225.242V243.929ZM698.724 201.905C696.627 201.905 695.807 202.726 695.807 204.913L695.808 204.999C695.899 213.812 695.988 222.535 695.807 231.167C695.716 233.993 696.992 234.448 699.362 234.357C704.558 234.266 709.663 234.357 715.861 234.357C722.242 234.175 729.717 235.087 737.01 233.355C743.118 231.987 748.678 229.617 750.684 222.871C753.692 212.571 747.676 203.911 736.007 202.543C723.61 201.085 711.121 202.179 698.724 201.905ZM751.322 293.61C756.244 291.24 759.344 287.411 759.799 281.668C760.438 272.097 755.424 265.716 745.67 263.801C739.979 262.59 734.247 262.706 728.93 262.814C726.241 262.869 723.658 262.921 721.24 262.799C718.752 262.799 716.39 262.807 714.115 262.816C713.791 262.817 713.468 262.819 713.148 262.82H713.146H713.143C708.295 262.84 703.829 262.858 699.362 262.799C696.81 262.707 695.898 263.437 695.898 266.08C695.989 275.105 696.08 284.221 695.898 293.336C695.898 296.071 697.083 296.527 699.453 296.527C706.062 296.481 712.648 296.481 719.234 296.481C725.82 296.481 732.407 296.481 739.016 296.436C743.3 296.345 747.493 295.433 751.322 293.61Z" fill="#fff"/>
</g>
<defs>
<clipPath id="clip0">
<rect width="1000" height="159.435" fill="#fff" transform="translate(0 170)"/>
</clipPath>
</defs>
</svg>
