<svg width="1000" height="500" viewBox="0 0 1000 500" fill="none" xmlns="http://www.w3.org/2000/svg">
<path d="M379.845 163.769L323.494 158.835C292.424 155.996 277.92 172.325 302.765 201.187L359.6 266.937C375.013 284.619 393.007 288.066 396.995 258.532L404.551 202.078C409.355 167.757 405.099 165.852 379.845 163.769ZM394.527 200.397L388.316 240.008C384.598 262.736 379.475 265.558 363.349 244.753L334.502 207.699C319.516 188.402 322.929 182.489 343.411 183.185L381.756 184.668C390.672 184.807 396.567 187.214 394.527 200.397Z" fill="url(#paint0_linear)"/>
<path d="M517.595 238.303C469.331 308.437 495.668 309.324 538.633 297.029L585.964 283.879C627.165 272.513 628.925 273.356 625.416 237.399L621.897 197.947C616.656 135.689 589.481 133.922 555.296 183.908L517.595 238.303ZM537.747 287.385C504.448 297.908 511.438 280.403 522.841 263.745L566.691 202.327C584.221 176.896 588.61 190.059 593.012 211.087L600.025 246.18C602.647 260.2 603.521 267.247 583.346 273.356L537.747 287.385Z" fill="url(#paint1_linear)"/>
<path d="M455.736 334.09L446.689 233.541C442.167 183.229 421.961 180.269 388.315 205.255L344.416 237.511C310.796 262.476 311.881 286.617 329.609 300.897L397.254 355.235C428.505 380.408 460.639 388.134 455.736 334.09ZM405.555 329.018L359.382 294.897C331.11 274.004 337.783 260.252 356.753 246.026L384.387 224.804C413.311 202.173 418.561 227.015 423.669 258.782L432.225 310.311C439.324 351.954 424.836 343.564 405.555 329.018Z" fill="url(#paint2_linear)"/>
<path d="M569.427 269.329L487.168 219.229C470.624 208.85 448.779 194.323 457.936 246.834L469.048 312.747C476.858 359.624 487.027 374.616 519.715 354.357L573.582 321.556C611.426 298.317 601.442 288.868 569.427 269.329ZM540.721 315.806L522.941 326.925C504.609 338.59 495.5 333.074 489.594 310.608L473.823 248.861C468.455 227.001 473.483 226.723 488.869 237.553L540.382 274.281C563.193 291.103 557.96 305.202 540.721 315.806Z" fill="url(#paint3_linear)"/>
<path d="M517.821 176.566L476.906 138.771C447.205 111.256 434.111 131.382 426.319 168.889L404.144 274.746C393.365 326.376 414.803 328.009 446.586 294.77L508.583 229.806C540.382 196.564 536.76 194.343 517.821 176.566ZM490.336 226.16L441.727 280.451C423.908 300.463 411.222 303.775 419.853 275.174L449.095 179.476C453.686 164.365 456.939 159.751 467.699 170.004L493.273 194.275C505.55 205.598 501.129 214.386 490.336 226.16Z" fill="url(#paint4_linear)"/>
<path d="M517.595 238.303C469.331 308.437 495.668 309.324 538.633 297.029L585.964 283.879C627.165 272.513 628.925 273.356 625.416 237.399L621.897 197.947C616.656 135.689 589.481 133.922 555.296 183.908L517.595 238.303ZM537.747 287.385C504.448 297.908 511.438 280.403 522.841 263.745L566.691 202.327C584.221 176.896 588.61 190.059 593.012 211.087L600.025 246.18C602.647 260.2 603.521 267.247 583.346 273.356L537.747 287.385Z" fill="url(#paint5_linear)"/>
<path d="M379.845 163.769L323.494 158.835C292.424 155.996 277.92 172.325 302.765 201.187L359.6 266.937C375.013 284.619 393.007 288.066 396.995 258.532L404.551 202.078C409.355 167.757 405.099 165.852 379.845 163.769ZM394.527 200.397L388.316 240.008C384.598 262.736 379.475 265.558 363.349 244.753L334.502 207.699C319.516 188.402 322.929 182.489 343.411 183.185L381.756 184.668C390.672 184.807 396.567 187.214 394.527 200.397Z" fill="url(#paint6_linear)"/>
<path d="M563.711 266.262L485.626 218.689C469.917 208.841 449.175 195.046 457.865 244.901L468.434 307.472C475.833 351.973 485.495 366.207 516.521 346.976L567.665 315.843C603.579 293.773 594.115 284.808 563.711 266.262ZM536.468 310.367L519.59 320.931C502.173 332.002 493.534 326.779 487.934 305.451L472.958 246.828C467.869 226.077 472.63 225.811 487.236 236.095L536.144 270.952C557.793 286.93 552.833 300.298 536.468 310.367Z" fill="url(#paint7_linear)"/>
<path d="M455.736 334.09L446.689 233.541C442.167 183.229 421.961 180.269 388.315 205.255L344.416 237.511C310.796 262.476 311.881 286.617 329.609 300.897L397.254 355.235C428.505 380.408 460.639 388.134 455.736 334.09ZM405.555 329.018L359.382 294.897C331.11 274.004 337.783 260.252 356.753 246.026L384.387 224.804C413.311 202.173 418.561 227.015 423.669 258.782L432.225 310.311C439.324 351.954 424.836 343.564 405.555 329.018Z" fill="url(#paint8_linear)"/>
<path d="M195.696 268.684C203.524 263.311 208.185 254.433 208.185 244.743C208.185 230.912 197.647 216.185 178.08 216.185C150.117 216.185 147.943 239.028 147.943 246.007V246.483H164.913L164.935 246.039C165.432 237.295 169.847 232.884 178.08 232.884C183.418 232.884 189.655 236.28 189.655 246.007C189.655 251.847 186.967 261.679 168.851 261.679H168.325V277.867H168.851C190.35 277.867 192.019 289.89 192.019 293.541C192.019 304.544 185.019 310.311 178.08 310.311C169.309 310.311 163.819 305.382 163.354 297.125L163.326 296.654H146.373V297.144C146.373 312.005 156.165 326.96 178.08 326.96C198.223 326.96 210.691 309.7 210.691 293.697C210.691 282.756 205.223 273.67 195.696 268.684Z" fill="#fff"/>
<path d="M30.4257 216.185H0V326.96H19.0318V286.679H28.835C53.2648 286.679 64.1816 268.871 64.1816 251.202C64.1816 228.617 52.1907 216.185 30.4257 216.185ZM28.835 269.365H19.0318V232.558H30.2879C40.2482 232.558 45.2992 238.886 45.2992 251.347C45.2992 259.681 40.9858 269.365 28.835 269.365Z" fill="#fff"/>
<path d="M105.673 214.613C82.9253 214.613 70.3589 234.616 70.3589 270.92C70.3589 307.549 83.1247 328.538 105.365 328.538C127.889 328.538 140.824 307.412 140.824 270.626C140.824 234.519 128.344 214.613 105.673 214.613ZM105.673 311.376C95.533 311.376 90.1822 297.291 90.1822 270.626C90.1822 244.485 95.1435 231.802 105.365 231.802C115.747 231.802 121.018 244.959 121.018 270.92C121.018 297.41 115.696 311.376 105.673 311.376Z" fill="#fff"/>
<path d="M260.864 216.58L260.766 216.185H240.86L214.074 326.383L213.955 326.96H233.622L238.989 303.152H262.773L267.796 326.96H287.821L260.864 216.58ZM250.645 242.56C251.835 251.041 253.945 261.679 255.953 271.988L259.135 286.461H242.184L245.315 272.129C247.68 260.831 249.529 250.52 250.645 242.56Z" fill="#fff"/>
<path d="M695.513 216.185L682.361 249.989L669.322 216.525L669.187 216.185H648.034L671.769 270.009L648.343 326.275L648.034 326.97H669.187L682.361 291.829L695.473 326.97H716.633L692.929 270.009L716.653 216.185H695.513Z" fill="#fff"/>
<path d="M966.261 216.185H935.818V326.97H954.829V286.679H964.689C989.061 286.679 999.999 268.871 999.999 251.202C999.999 228.617 988.016 216.185 966.261 216.185ZM964.689 269.365H954.829V232.558H966.101C976.064 232.558 981.116 238.886 981.116 251.347C981.116 259.681 976.809 269.365 964.689 269.365Z" fill="#fff"/>
<path d="M792.874 233.491H814.522V326.97H833.838V233.491H855.629V216.185H792.874V233.491Z" fill="#fff"/>
<path d="M890.049 214.613C867.267 214.613 854.762 234.625 854.762 270.939C854.762 307.549 867.467 328.538 889.679 328.538C912.272 328.538 925.178 307.412 925.178 270.671C925.178 234.533 912.727 214.613 890.049 214.613ZM890.049 311.376C879.916 311.376 874.548 297.291 874.548 270.671C874.548 244.485 879.507 231.802 889.679 231.802C900.116 231.802 905.381 244.967 905.381 270.939C905.381 297.41 900.08 311.376 890.049 311.376Z" fill="#fff"/>
<path d="M756.006 269.099L741.768 216.58L741.689 216.185H720.552L746.124 300.114C744.99 304.915 740.715 309.968 732.063 309.968H731.572V326.97H732.063C748.21 326.97 758.075 319.901 763.106 304.691L788.989 216.816L789.159 216.185H768.654L756.006 269.099Z" fill="#fff"/>
<path d="M391.181 226.371L401.186 227.482L405.879 192.033L395.38 191.045L391.181 226.371Z" fill="url(#paint9_linear)"/>
<path d="M428.36 293.688L429.348 309.004L457.016 284.3L450.593 271.455L428.36 293.688Z" fill="url(#paint10_linear)"/>
<path d="M495.368 220.874L479.99 238.352L496.542 242.799L508.584 229.806L495.368 220.874Z" fill="url(#paint11_linear)"/>
<path d="M545.949 284.3L547.925 295.417L590.909 282.077L582.757 273.431L545.949 284.3Z" fill="url(#paint12_linear)"/>
<defs>
<linearGradient id="paint0_linear" x1="292.006" y1="168.388" x2="415.54" y2="233.047" gradientUnits="userSpaceOnUse">
<stop offset="0.01" stop-color="#fff"/>
<stop offset="0.99" stop-color="#fff"/>
</linearGradient>
<linearGradient id="paint1_linear" x1="581.809" y1="145.724" x2="543.964" y2="309.606" gradientUnits="userSpaceOnUse">
<stop offset="0.01" stop-color="#fff"/>
<stop offset="0.99" stop-color="#fff"/>
</linearGradient>
<linearGradient id="paint2_linear" x1="456.235" y1="282.254" x2="317.408" y2="282.254" gradientUnits="userSpaceOnUse">
<stop offset="0.01" stop-color="#fff"/>
<stop offset="0.99" stop-color="#fff"/>
</linearGradient>
<linearGradient id="paint3_linear" x1="552.229" y1="237.549" x2="447.227" y2="312.694" gradientUnits="userSpaceOnUse">
<stop offset="0.01" stop-color="#fff"/>
<stop offset="0.99" stop-color="#fff"/>
</linearGradient>
<linearGradient id="paint4_linear" x1="496.549" y1="147.934" x2="358.985" y2="259.853" gradientUnits="userSpaceOnUse">
<stop offset="0.01" stop-color="#fff"/>
<stop offset="0.99" stop-color="#fff"/>
</linearGradient>
<linearGradient id="paint5_linear" x1="581.809" y1="145.724" x2="543.964" y2="309.606" gradientUnits="userSpaceOnUse">
<stop offset="0.01" stop-color="#fff"/>
<stop offset="0.99" stop-color="#fff"/>
</linearGradient>
<linearGradient id="paint6_linear" x1="292.006" y1="168.388" x2="415.54" y2="233.047" gradientUnits="userSpaceOnUse">
<stop offset="0.01" stop-color="#fff"/>
<stop offset="0.99" stop-color="#fff"/>
</linearGradient>
<linearGradient id="paint7_linear" x1="547.386" y1="236.087" x2="447.71" y2="307.426" gradientUnits="userSpaceOnUse">
<stop offset="0.01" stop-color="#fff"/>
<stop offset="0.99" stop-color="#fff"/>
</linearGradient>
<linearGradient id="paint8_linear" x1="456.235" y1="282.254" x2="317.408" y2="282.254" gradientUnits="userSpaceOnUse">
<stop offset="0.01" stop-color="#fff"/>
<stop offset="0.99" stop-color="#fff"/>
</linearGradient>
<linearGradient id="paint9_linear" x1="292.005" y1="168.388" x2="418.297" y2="180.256" gradientUnits="userSpaceOnUse">
<stop offset="0.01" stop-color="#fff"/>
<stop offset="0.99" stop-color="#fff"/>
</linearGradient>
<linearGradient id="paint10_linear" x1="496.55" y1="147.934" x2="367.347" y2="278.3" gradientUnits="userSpaceOnUse">
<stop offset="0.01" stop-color="#fff"/>
<stop offset="0.99" stop-color="#fff"/>
</linearGradient>
<linearGradient id="paint11_linear" x1="496.55" y1="147.935" x2="436.729" y2="324.212" gradientUnits="userSpaceOnUse">
<stop offset="0.01" stop-color="#fff"/>
<stop offset="0.99" stop-color="#fff"/>
</linearGradient>
<linearGradient id="paint12_linear" x1="581.809" y1="145.724" x2="574.777" y2="312.529" gradientUnits="userSpaceOnUse">
<stop offset="0.01" stop-color="#fff"/>
<stop offset="0.99" stop-color="#fff"/>
</linearGradient>
</defs>
</svg>
