<svg width="1000" height="500" viewBox="0 0 1000 500" fill="none" xmlns="http://www.w3.org/2000/svg">
<path d="M252.422 277.906C250.954 279.374 197.828 331.913 194.013 335.435C201.351 340.718 232.169 359.796 273.848 345.708C277.077 344.534 282.654 343.066 285.882 341.599L289.111 338.076C299.09 326.336 312.299 310.78 319.636 277.906C297.329 268.514 267.978 265.285 252.422 277.906Z" fill="url(#paint0_linear)"/>
<path d="M282.066 154.631L277.37 150.521C264.749 139.955 254.476 133.204 238.332 126.747L229.82 123.812L216.319 120.29C207.513 118.529 197.534 117.648 188.435 117.648C179.336 117.648 170.237 118.529 161.432 120.583L147.343 124.399L139.418 127.334C127.678 132.03 116.818 139.074 106.838 146.999C155.562 132.324 190.196 160.794 190.783 161.381C190.783 161.381 250.953 209.811 252.421 211.279C267.39 226.248 301.731 227.422 317.874 214.801C314.059 198.071 298.503 168.719 282.066 154.631Z" fill="url(#paint1_linear)"/>
<path d="M186.674 339.251C186.674 339.251 107.426 260.002 103.023 255.599C99.2073 260.882 87.7603 279.374 87.7603 305.496C87.7603 314.302 88.9343 323.694 92.4565 333.967C93.6305 337.489 95.0981 341.305 96.8592 344.827L97.1527 345.414C109.48 357.448 123.862 366.841 139.712 373.298L147.637 376.233L161.726 380.049C170.531 381.81 179.63 382.984 188.729 382.984C197.828 382.984 206.927 382.397 215.732 380.636L230.114 377.114L239.8 373.592C251.541 368.895 263.575 361.851 273.554 353.926C224.537 367.721 186.968 339.544 186.674 339.251Z" fill="url(#paint2_linear)"/>
<path d="M103.317 154.337C100.089 155.511 96.8599 156.685 93.6312 158.446H93.3377C81.3037 170.774 71.9112 185.156 65.4539 201.006L62.5188 208.931L58.7031 223.019C56.9421 231.825 56.0615 240.924 56.0615 250.023C56.0615 259.121 56.9421 268.22 58.7031 277.026L62.5188 291.114L65.4539 299.039C70.1502 311.073 77.1945 321.64 85.4129 331.619C82.4777 321.64 81.0102 312.541 81.0102 304.029C81.0102 270.568 99.208 248.555 99.5015 248.261C99.5015 248.261 178.75 169.013 182.859 164.904C175.815 159.327 144.996 140.249 103.317 154.337Z" fill="url(#paint3_linear)"/>
<path d="M298.503 154.924C320.81 180.46 334.312 213.627 334.312 250.316C334.312 286.712 320.81 320.172 298.503 345.414C293.807 350.698 289.111 355.687 283.827 360.09C281.479 362.145 279.131 363.906 276.783 365.96C275.022 367.134 273.554 368.308 271.793 369.482C262.988 375.646 253.595 380.636 243.616 384.745C226.886 391.496 208.394 395.312 189.316 395.312C169.944 395.312 151.159 391.496 134.136 384.452C124.45 380.342 115.351 375.353 106.839 369.189C105.371 368.015 103.61 366.841 101.849 365.667L101.556 365.373C98.914 363.319 96.5659 361.558 94.2178 359.503C88.9345 354.807 83.9448 349.817 79.2486 344.534C57.2351 319.292 44.027 286.125 44.027 250.023C44.027 213.92 57.2351 180.753 79.2486 155.511C83.9448 150.228 88.9345 145.238 94.2178 140.542C96.5659 138.488 98.914 136.433 101.556 134.672H101.849C103.61 133.498 105.078 132.324 106.839 131.15C115.351 125.279 124.743 120.29 134.136 116.18C151.159 109.136 169.944 105.027 189.316 105.027C208.394 105.027 226.886 108.843 243.616 115.593C253.595 119.703 262.988 124.692 271.793 130.856C273.554 132.03 275.315 133.204 276.783 134.378C279.131 136.139 281.479 137.9 283.827 139.955L298.503 154.924ZM343.998 239.75C343.998 239.456 343.998 239.163 343.998 238.869C351.042 223.9 363.956 223.606 378.045 237.108C378.045 214.507 373.055 196.31 362.195 186.33C346.639 172.535 330.496 181.634 317.288 162.849C315.82 146.706 326.974 139.662 346.052 144.358C334.605 124.986 321.397 111.778 306.721 108.256C303.493 107.669 300.558 107.375 297.622 107.669C292.046 107.962 287.349 109.43 282.947 110.897C280.599 111.484 278.251 112.365 275.902 112.952C274.141 113.245 272.674 113.539 270.913 113.539C266.51 113.832 261.814 112.952 256.237 110.604C246.845 97.3956 253.008 86.2421 270.913 80.3719C271.5 80.3719 271.793 80.0784 272.087 79.7848C271.793 79.7848 271.5 79.4913 270.913 79.4913C260.933 73.9146 251.541 69.8054 242.735 68.0443C234.224 66.2832 226.592 66.2832 219.841 68.3378C204.285 73.6211 200.763 86.5357 188.142 92.6994C185.5 94.167 181.978 95.0475 178.163 95.6346C177.869 95.6346 177.576 95.6346 177.282 95.6346C163.193 88.2967 162.9 75.3822 176.401 61C159.084 61 144.409 63.9351 133.549 70.0989C130.32 72.1535 127.678 74.2081 125.33 76.8497C113.003 90.9384 119.166 105.614 106.252 118.235C105.078 119.409 103.61 120.583 102.143 121.757C101.849 121.757 101.556 121.757 101.556 121.757H101.262C98.6205 122.051 96.2724 121.757 93.9242 121.464C83.3578 118.822 79.5421 108.549 83.3578 92.9929C81.8902 93.8735 80.4226 94.754 78.9551 95.6346C61.9313 106.495 50.1908 118.529 46.9621 132.03C42.8529 152.283 58.9962 161.969 49.0167 183.102C35.5151 192.787 24.0681 186.624 18.4913 167.545C7.04432 187.211 2.34811 205.409 6.75081 219.497C13.5016 238.869 31.4059 239.163 34.0475 261.176C34.0475 261.47 34.0475 261.763 34.0475 262.057C27.2967 276.439 14.3822 277.026 0 263.524C0 286.125 4.98973 304.323 15.8497 314.302C31.4059 327.804 47.5492 318.998 60.7572 337.489C62.2248 353.633 51.0713 360.677 31.6994 355.981C43.1465 375.646 56.3546 388.854 71.0302 392.083C73.9653 392.67 76.607 392.964 79.2486 392.964C84.8253 392.67 89.5215 391.202 94.2178 389.735C96.5659 388.854 98.914 388.267 101.556 387.68H101.849C103.61 387.387 105.078 387.093 106.839 387.093C111.535 386.8 116.525 387.387 122.395 390.322C131.494 403.53 125.624 414.977 106.839 420.554C106.839 420.554 106.839 420.554 106.545 420.554C106.839 420.847 106.839 420.847 106.839 420.847C116.525 426.424 125.624 430.24 134.136 432.294C143.234 434.349 151.159 434.642 158.497 432.294C174.053 427.011 177.282 414.39 189.61 408.226C192.545 406.759 196.067 405.585 200.176 405.291C200.47 405.291 200.763 405.291 201.057 405.291C216.026 412.335 216.319 425.25 202.818 439.339C219.548 439.339 233.637 436.697 244.203 430.827C248.019 428.772 251.247 426.424 253.889 423.489C266.217 409.4 260.053 395.018 272.38 382.691C273.848 381.223 275.609 379.755 277.37 378.581C277.37 378.875 277.077 378.875 277.077 378.875C277.077 378.581 277.077 378.581 277.37 378.581H277.664L277.37 378.875C280.012 378.875 282.36 378.875 284.414 379.168C295.568 381.223 299.677 391.789 295.861 407.933C297.035 407.346 298.209 406.465 299.384 405.878C316.994 395.018 329.028 382.397 332.257 368.895C336.366 348.349 320.223 338.957 330.202 317.824C330.202 318.118 329.909 318.118 329.909 318.411C343.411 309.019 354.858 315.182 360.434 333.967C371.881 314.302 376.578 296.104 372.175 282.016C364.837 262.35 346.639 261.763 343.998 239.75Z" fill="#B8B7B9"/>
<path d="M517.171 221.552C514.529 211.866 509.246 193.081 481.656 193.081C465.512 193.081 441.444 204.528 441.444 249.729C441.444 278.493 453.478 304.91 481.656 304.91C500.147 304.91 513.062 293.756 517.171 274.091H550.338C543.587 308.725 520.986 333.087 481.069 333.087C438.509 333.087 408.277 304.323 408.277 249.142C408.277 193.375 440.27 164.904 481.656 164.904C529.498 164.904 548.87 198.071 550.631 221.552H517.171V221.552Z" fill="#55565A"/>
<path d="M587.613 169.013L630.76 258.241L663.927 169.013H701.496L642.794 304.029C631.934 328.684 620.78 332.793 605.224 332.793C598.473 332.793 588.2 331.619 584.678 330.739V302.268C587.613 303.442 593.483 304.91 597.593 304.91C606.692 304.91 609.333 302.561 614.91 292.289L550.043 168.719L587.613 169.013Z" fill="#55565A"/>
<path d="M808.336 230.944C802.76 201.593 784.268 193.081 770.767 193.081C743.176 193.081 737.893 211.866 735.251 221.552H702.084C703.846 198.071 723.217 164.904 771.06 164.904C812.152 164.904 844.732 193.375 844.732 249.142C844.732 304.323 813.913 333.087 771.354 333.087C731.436 333.087 708.542 308.725 702.084 274.091H735.251C739.361 293.756 752.569 304.91 770.767 304.91C796.009 304.91 807.456 283.483 810.097 258.534H764.016V230.944C763.429 230.944 808.336 230.944 808.336 230.944Z" fill="#55565A"/>
<path d="M891.987 233.879L953.038 169.013H996.184L931.025 234.466L1000 328.978H956.854L907.544 258.828L891.987 274.971V328.978H858.82V169.013H891.987V233.879Z" fill="#55565A"/>
<defs>
<linearGradient id="paint0_linear" x1="330.539" y1="257.151" x2="153.427" y2="409.4" gradientUnits="userSpaceOnUse">
<stop stop-color="#C9C8C9"/>
<stop offset="0.295" stop-color="#C9C8C9"/>
<stop offset="0.3821" stop-color="#C3C2C3"/>
<stop offset="0.5027" stop-color="#B1B0B2"/>
<stop offset="0.643" stop-color="#949396"/>
<stop offset="0.7969" stop-color="#6B6B6F"/>
<stop offset="0.8696" stop-color="#55565A"/>
<stop offset="1" stop-color="#55565A"/>
</linearGradient>
<linearGradient id="paint1_linear" x1="177.65" y1="131.659" x2="320.802" y2="290.246" gradientUnits="userSpaceOnUse">
<stop stop-color="#FFED7F"/>
<stop offset="0.0449" stop-color="#FFED7F"/>
<stop offset="0.1149" stop-color="#FFE960"/>
<stop offset="0.2003" stop-color="#FFE643"/>
<stop offset="0.2954" stop-color="#FFE32A"/>
<stop offset="0.402" stop-color="#FFE017"/>
<stop offset="0.5265" stop-color="#FFDF0A"/>
<stop offset="0.6859" stop-color="#FFDE02"/>
<stop offset="1" stop-color="#FFDD00"/>
</linearGradient>
<linearGradient id="paint2_linear" x1="214.609" y1="375.175" x2="53.5824" y2="234.433" gradientUnits="userSpaceOnUse">
<stop stop-color="#969598"/>
<stop offset="0.295" stop-color="#969598"/>
<stop offset="0.2961" stop-color="#959598"/>
<stop offset="0.472" stop-color="#79797D"/>
<stop offset="0.6486" stop-color="#656569"/>
<stop offset="0.8247" stop-color="#595A5E"/>
<stop offset="1" stop-color="#55565A"/>
</linearGradient>
<linearGradient id="paint3_linear" x1="44.1487" y1="289.971" x2="165.641" y2="169.734" gradientUnits="userSpaceOnUse">
<stop stop-color="#C4BD70"/>
<stop offset="0.354" stop-color="#C4BD70"/>
<stop offset="0.9534" stop-color="#969300"/>
<stop offset="1" stop-color="#969300"/>
</linearGradient>
</defs>
</svg>
