<?xml version="1.0" standalone="no"?>
<!DOCTYPE svg PUBLIC "-//W3C//DTD SVG 20010904//EN"
 "http://www.w3.org/TR/2001/REC-SVG-20010904/DTD/svg10.dtd">
<svg version="1.0" xmlns="http://www.w3.org/2000/svg"
 width="1494.000000pt" height="510.000000pt" viewBox="0 0 1494.000000 510.000000"
 preserveAspectRatio="xMidYMid meet">
<metadata>
Created by potrace 1.16, written by Peter Selinger 2001-2019
</metadata>
<g transform="translate(0.000000,510.000000) scale(0.100000,-0.100000)"
fill="#000000" stroke="none">
<path d="M3283 3222 l-913 -2 0 -200 0 -200 765 0 765 0 -2 -431 -3 -430 -756
1 -757 1 -7 -28 c-3 -15 -6 -183 -5 -373 3 -540 2 -550 -15 -544 -8 4 -15 3
-15 0 0 -15 203 -98 319 -130 75 -21 106 -18 245 25 452 139 853 496 1068 949
105 221 179 479 204 715 16 141 33 616 24 638 -4 9 -214 11 -917 9z"/>
</g>
</svg>
