<svg width="1000" height="500" viewBox="0 0 1000 500" fill="none" xmlns="http://www.w3.org/2000/svg">
<path d="M295 0L704.615 500H295V0Z" fill="#DC3529"/>
<path d="M432.914 419.875H440.641L423.698 402.341C430.795 401.936 436.916 397.075 436.916 389.21C436.916 380.767 430.678 375.915 422.325 375.915H409.79V419.871H415.281V401.124L432.91 419.867L432.914 419.875ZM415.285 380.767H422.209C427.933 380.767 431.421 384.121 431.421 389.271C431.421 394.071 428.502 397.774 420.089 397.774C416.822 397.774 416.023 397.774 415.276 397.714V380.767H415.285ZM445.898 403.904C445.898 413.388 452.995 420.557 462.837 420.557C472.907 420.557 480.004 413.392 480.004 403.895V375.911H474.509V402.285C474.509 409.451 470.559 415.352 462.949 415.352C455.334 415.352 451.38 409.455 451.38 402.281V375.907H445.898V403.9V403.904ZM514.273 388.459C513.647 379.554 508.044 375.216 500.831 375.216C493.679 375.216 487.441 379.791 487.441 387.358C487.441 393.026 490.649 396.842 497.11 399.389L502.662 401.59C506.616 403.144 509.413 405.346 509.413 408.756C509.413 412.632 505.981 415.706 501.233 415.706C495.103 415.706 492.703 412.347 492.246 407.547H486.751C487.441 416.331 493.044 420.557 500.944 420.557C509.301 420.557 514.908 415.412 514.908 408.298C514.908 402.976 511.705 398.862 504.777 396.268L499.286 394.196C494.991 392.569 492.932 390.484 492.932 387.19C492.932 384.186 494.594 380.076 500.771 380.076C505.407 380.076 508.381 383.253 509.124 388.459H514.282H514.273Z" fill="white"/>
<path d="M316.686 419.875H339.175V414.652H322.181V400.252H339.18V395.055H322.181V381.112H339.18V375.911H316.69V419.875H316.686ZM346.673 419.875H367.449V414.652H352.168V375.902H346.669V419.875H346.673ZM373.458 419.875H389.196C396.526 419.875 402.306 414.609 402.306 407.435C402.306 402.113 399.215 397.658 393.836 396.846V396.734C397.096 395.111 399.275 392.159 399.275 388.058C399.275 383.599 397.268 380.417 394.579 378.453C392.002 376.597 389.084 375.907 384.793 375.907H373.462V419.875H373.458ZM378.953 415.011V399.915H387.31C394.691 399.915 396.806 404.016 396.806 407.495C396.806 411.484 394.691 415.006 387.31 415.006H378.953V415.011ZM378.953 395.055V380.767H384.737C387.94 380.767 390.167 381.458 391.601 382.796C392.973 384.065 393.776 385.917 393.776 388.17C393.776 392.452 390.28 395.055 385.821 395.055H378.949H378.953ZM352.613 439.071C349.117 435.834 343.462 433.46 337.678 433.46C322.923 433.46 314.627 445.257 314.627 456.13C314.627 467.008 322.923 478.793 337.678 478.793C343.173 478.793 348.901 476.488 352.786 472.9L349.298 468.908C346.263 471.8 342.486 473.595 337.686 473.595C328.816 473.595 320.463 466.361 320.463 456.126C320.463 446.004 328.587 438.657 337.686 438.657C341.86 438.657 345.801 440.34 348.896 443.168L352.609 439.067L352.613 439.071ZM389.693 478.111H395.693L378.02 434.159H373.216L355.531 478.115H361.54L365.489 467.885H385.743L389.684 478.115L389.693 478.111ZM383.852 463.02H367.376L375.62 441.45L383.852 463.02ZM401.421 478.115H406.903V463.136H413.43C422.641 463.136 428.136 456.027 428.136 448.676C428.136 441.338 422.645 434.163 413.43 434.163H401.416V478.119L401.421 478.115ZM406.911 458.28V439.028H412.29C418.873 439.028 422.65 442.322 422.65 448.676C422.65 455.043 418.873 458.28 412.29 458.28H406.916H406.911ZM434.313 478.119H439.804V434.163H434.313V478.119ZM456.285 478.119H461.775V439.373H472.645V434.168H445.407V439.373H456.285V478.124V478.119ZM504.126 478.119H510.139L492.453 434.168H487.649L469.968 478.124H475.977L479.927 467.893H500.184L504.126 478.124V478.119ZM498.298 463.028H481.817L490.062 441.458L498.294 463.028H498.298ZM515.858 478.124H536.63V472.922H521.349V434.172H515.867V478.128H515.858V478.124Z" fill="#010101"/>
</svg>
