<svg width="1000" height="500" viewBox="0 0 1000 500" fill="none" xmlns="http://www.w3.org/2000/svg">
<path d="M160.243 235.185C152.924 239.506 143.84 239.683 137.843 239.683H123.732V193.298H135.814C142.87 193.298 151.16 193.298 158.215 196.561C168.798 201.323 170.562 210.406 170.562 215.697C170.562 222.399 168.269 230.423 160.243 235.185ZM593.615 338.977C587.53 338.977 581.092 342.945 579.769 350.794H607.637C606.226 342.769 599.788 338.977 593.615 338.977ZM787.195 364.462C785.431 363.227 782.961 363.139 781.462 363.139H773.349V374.956H781.109C782.873 374.956 785.431 374.78 787.195 373.457C788.253 372.663 789.399 370.988 789.399 368.695C789.399 366.578 788.253 365.168 787.195 364.462ZM379.399 175.485C368.022 175.485 356.204 182.804 353.647 197.443H405.327C402.857 182.54 390.775 175.485 379.399 175.485ZM376.753 341.975C372.431 341.975 368.992 343.21 365.993 345.944C362.289 349.03 360.437 353.175 360.437 358.554C360.437 364.021 362.642 368.43 365.905 371.34C368.11 373.28 371.638 375.309 376.753 375.309C382.221 375.309 385.748 373.104 387.865 371.076C391.393 367.813 393.068 362.963 393.068 358.554C393.068 354.233 391.304 349.295 388.041 346.208C385.043 343.474 380.721 341.975 376.753 341.975ZM158.48 146.208C158.48 130.864 146.662 125.044 133.257 125.044H123.644V168.166H132.992C138.019 168.166 158.48 167.637 158.48 146.208ZM1000 62.522V437.478C1000 471.869 971.867 500 937.472 500H62.5276C28.133 499.912 0 471.781 0 437.478V62.522C0 28.1305 28.133 0 62.5276 0H937.472C971.867 0 1000 28.1305 1000 62.522ZM217.48 212.257C217.48 232.716 226.563 246.296 234.853 254.145C244.642 263.492 259.811 270.018 276.92 270.018C289.532 270.018 299.145 266.226 305.142 263.228V233.245C296.852 240.829 287.768 242.857 280.977 242.857C262.545 242.857 249.228 229.718 249.228 211.817C249.228 195.944 259.547 181.041 280.007 181.041C290.59 181.041 298.704 184.568 305.23 190.653V160.406C296.411 156.085 287.062 153.88 275.686 153.88C265.103 153.88 249.757 156.173 236.352 167.989C225.24 177.778 217.48 193.122 217.48 212.257ZM90.8369 266.49H147.279C161.919 266.49 177.264 263.933 189.876 252.91C201.429 242.593 204.251 228.748 204.251 218.871C204.251 210.053 202.222 196.914 192.169 187.39C187.847 183.333 181.321 178.571 170.209 176.808C174.707 174.25 189.082 165.432 189.082 143.739C189.082 129.63 183.261 116.49 173.472 108.907C159.891 98.3245 141.723 98.3245 132.375 98.3245H90.8369V266.49ZM151.16 329.189H134.58L107.417 365.432V329.189H90.8369V388.007H107.417L134.58 351.764V388.007H151.16V329.189ZM222.154 329.189H205.574V350H182.468V329.189H165.888V388.007H182.468V364.109H205.574V388.007H222.154V329.189ZM279.125 330.776C274.363 328.483 269.336 327.249 263.251 327.249C257.518 327.249 249.228 328.483 242.085 334.832C236.088 340.123 231.855 348.413 231.855 358.73C231.855 369.753 236.705 377.072 241.203 381.305C246.494 386.332 254.696 389.859 263.868 389.859C270.659 389.859 275.862 387.831 279.125 386.155V370.018C274.627 374.074 269.777 375.22 266.073 375.22C256.195 375.22 248.964 368.166 248.964 358.554C248.964 350 254.52 341.975 265.544 341.975C271.276 341.975 275.597 343.915 279.125 347.178V330.776ZM336.802 329.189H287.592V343.298H303.907V388.007H320.487V343.298H336.802V329.189ZM338.037 254.674C348.884 264.991 362.201 270.018 379.928 270.018C418.026 270.018 430.373 244.092 433.636 235.979L405.415 231.481C400.388 240.3 391.569 245.855 379.928 245.855C368.11 245.855 361.231 240.035 357.968 235.538C354.44 230.776 352.677 223.721 352.677 217.108H434.342V214.55C434.342 202.734 432.842 185.538 421.201 171.693C413.617 162.61 400.741 153.792 378.605 153.792C365.464 153.792 350.384 156.526 337.508 169.136C329.659 176.984 320.84 190.3 320.84 211.993C320.928 229.189 325.955 243.298 338.037 254.674ZM410.177 358.554C410.177 346.914 405.68 339.506 401.358 335.185C394.744 328.571 386.454 327.337 381.251 327.337C370.403 327.337 364.671 333.157 362.113 336.861V329.277H345.533V419.224H362.113V380.511C368.639 389.33 376.929 390.035 380.986 390.035C389.717 390.035 396.508 386.596 400.917 382.452C404.357 379.012 410.177 371.869 410.177 358.554ZM434.253 419.136L481.7 329.189H462.916L446.6 362.61L428.433 329.189H409.119L437.076 379.189L415.469 419.136H434.253ZM556.663 388.007L545.904 329.189H533.645L517.506 363.051L501.367 329.189H489.108L478.349 388.007H494.929L499.78 356.085L514.419 388.007H520.416L535.056 356.085L539.907 388.007H556.663ZM623.247 360.053C623.247 353.704 622.453 344.444 616.192 336.949C612.135 332.099 605.168 327.337 593.262 327.337C586.207 327.337 578.005 328.836 571.126 335.626C566.893 339.859 562.131 347.002 562.131 358.73C562.131 367.989 564.865 375.573 571.391 381.658C577.211 387.213 584.443 389.947 593.968 389.947C614.516 389.947 621.131 375.926 622.894 371.605L607.637 369.136C604.903 373.898 600.141 376.896 593.88 376.896C587.53 376.896 583.826 373.81 582.062 371.34C580.122 368.783 579.24 364.991 579.24 361.464H623.247V360.053V360.053ZM690.184 329.189H673.604V350H650.498V329.189H633.918V388.007H650.498V364.109H673.604V388.007H690.184V329.189ZM748.038 329.189H698.827V343.298H715.142V388.007H731.722V343.298H748.038V329.189ZM806.509 368.695C806.509 362.875 804.568 358.818 802.011 356.085C797.954 351.587 791.428 350.088 786.225 350.088H773.349V329.189H756.769V388.007H787.106C791.075 388.007 795.926 387.478 800.247 383.686C803.069 381.217 806.509 376.455 806.509 368.695ZM829.262 329.189H812.682V388.007H829.262V329.189ZM909.075 215.168C909.075 180.688 881.118 152.646 846.547 152.646C812.065 152.646 784.02 180.6 784.02 215.168C784.02 249.647 811.976 277.69 846.547 277.69C881.118 277.601 909.075 249.647 909.075 215.168ZM875.915 214.55L864.538 193.739H852.544L870.006 224.868L856.513 249.735H868.154L897.698 193.651H886.057L875.915 214.55ZM848.399 197.443C851.133 200.176 853.867 204.762 853.867 211.993C853.867 220.282 850.251 224.78 848.135 226.808C845.313 229.453 841.079 231.57 835.7 231.57C833.142 231.57 828.027 231.129 823.97 225.661V249.824H813.652V193.739H823.97V198.501C825.558 196.208 829.174 192.593 835.876 192.593C839.051 192.504 844.254 193.298 848.399 197.443ZM843.196 211.993C843.196 209.259 842.05 206.261 840.021 204.321C838.169 202.645 835.435 201.675 832.966 201.675C830.232 201.675 828.115 202.469 826.263 204.145C823.97 206.085 822.824 208.642 822.824 211.993C822.824 215.344 824.147 218.166 826.175 219.929C827.498 221.076 829.703 222.399 832.966 222.399C836.317 222.399 838.522 221.076 839.933 219.753C842.226 217.725 843.196 214.727 843.196 211.993ZM799.982 218.254C796.278 218.254 793.368 221.164 793.368 224.868C793.368 228.571 796.278 231.481 799.982 231.481C803.686 231.481 806.597 228.571 806.597 224.868C806.597 221.164 803.686 218.254 799.982 218.254Z" fill="#D60000"/>
</svg>
