<svg width="1000" height="500" viewBox="0 0 1000 500" fill="none" xmlns="http://www.w3.org/2000/svg">
<path d="M489.746 265.214H460.975C449.491 265.214 440.153 274.553 440.153 286.036V389.127C440.153 401.193 448.909 409.949 460.975 409.949H489.746C501.229 409.949 510.567 400.611 510.567 389.127V361.913H488.291V384.902C488.291 387.425 486.24 389.476 483.716 389.476H467.716C465.193 389.476 463.149 387.425 463.149 384.902V289.825C463.149 287.302 465.2 285.251 467.716 285.251H483.716C486.24 285.251 488.291 287.302 488.291 289.825V314.371H510.567V286.044C510.56 274.56 501.222 265.214 489.746 265.214Z" fill="#007F32"/>
<path d="M584.589 294.015H519.309V314.371H540.808V409.993H563.084V314.371H584.589V294.015Z" fill="#007F32"/>
<path d="M224.808 359.178H222.633L222.619 294.022H200.357V409.993H219.95L244.364 347.84H246.539V409.985H268.815V294.022H248.961L224.808 359.178Z" fill="#007F32"/>
<path d="M128.675 265.193L101.475 409.964H125.046L143.679 288.756H145.854L165.308 409.964H188.945L161.963 265.193H128.675Z" fill="#007F32"/>
<path d="M607.025 294.015L582.756 409.993H605.156L607.919 395.156H637.73L640.465 409.993H662.93L638.799 294.015H607.025V294.015ZM611.512 375.913L621.861 314.378H623.963L634.188 375.913H611.512Z" fill="#007F32"/>
<path d="M354.058 294.015L329.789 409.993H352.189L354.952 395.156H384.763L387.498 409.993H409.963L385.832 294.015H354.058V294.015ZM358.538 375.913L368.887 314.378H370.989L381.214 375.913H358.538Z" fill="#007F32"/>
<path d="M335.934 294.015H285.469V409.985H307.745V314.378H335.934V294.015Z" fill="#007F32"/>
<path d="M798.261 294.015H773.643C762.167 294.015 752.829 303.353 752.829 314.836V389.171C752.829 400.647 762.167 409.985 773.643 409.985H798.261C809.738 409.985 819.076 400.647 819.076 389.171V314.836C819.076 303.353 809.738 294.015 798.261 294.015ZM796.807 384.945C796.807 387.469 794.756 389.52 792.24 389.52H779.672C777.149 389.52 775.098 387.469 775.098 384.945V319.055C775.098 316.531 777.149 314.48 779.672 314.48H792.24C794.763 314.48 796.807 316.567 796.807 319.135V384.945Z" fill="#007F32"/>
<path d="M0 90V410H61.6V148.4H938.4V410H1000V90H0Z" fill="#007F32"/>
<path d="M905.826 294.015H881.811L861.681 343.236H857.819V294.015H835.731V409.993H857.819V362.487H862.561L883.011 409.993H907.062L881.266 351.833L905.826 294.015Z" fill="#007F32"/>
<path d="M723.294 353.324V351.156H723.273C731.883 349.367 738.371 341.695 738.371 332.531V332.524V314.756C738.371 303.316 729.033 294.015 717.556 294.015H674.327V409.985H718.582C730.065 409.985 739.403 400.647 739.403 389.171V372.778V372.771C739.411 363.127 732.458 355.084 723.294 353.324ZM696.603 314.415H711.52C714.043 314.415 716.094 316.465 716.094 318.989V338.691C716.094 341.215 714.043 343.265 711.52 343.265H696.603V314.415ZM717.134 384.945C717.134 387.469 715.083 389.52 712.56 389.52H696.596V362.509H712.56C715.083 362.509 717.134 364.56 717.134 367.084V384.945Z" fill="#007F32"/>
</svg>
