<svg width="61" height="60" viewBox="0 0 61 60" fill="none" xmlns="http://www.w3.org/2000/svg">
<path d="M34.4498 19.9552C35.4267 20.0934 36.3833 20.3387 37.3286 20.6292C38.9787 21.1373 40.5358 21.8433 42.0002 22.759C42.1021 22.8222 42.2381 22.8624 42.3581 22.8624C44.0782 22.8695 45.7976 22.867 47.5162 22.8684C47.6547 22.8684 47.7925 22.883 47.9306 22.8908C47.9306 22.9245 47.9356 22.9387 47.9299 22.9465C47.8496 23.0701 47.7683 23.1919 47.6877 23.3151C47.1043 24.21 46.6057 25.146 46.3114 26.1807C46.2794 26.2919 46.2727 26.3849 46.3479 26.4939C47.8791 28.6927 48.3677 31.1066 47.7278 33.7087C47.1668 35.9909 45.8586 37.7703 43.8708 39.0301C42.4501 39.931 40.8806 40.36 39.2038 40.3692C38.4993 40.3735 37.7984 40.2786 37.1102 40.1004C35.4334 39.6654 33.996 38.8295 32.8114 37.5636C32.6552 37.3974 32.5082 37.2238 32.3416 37.0359C31.7153 37.9695 31.0988 38.8877 30.4675 39.8302C29.8386 38.8906 29.2307 37.9812 28.6242 37.0753C28.5823 37.0974 28.5702 37.0998 28.562 37.1077C28.5482 37.119 28.5365 37.1329 28.5254 37.146C27.0926 38.838 25.2902 39.8753 23.0943 40.2222C21.8728 40.4157 20.663 40.3461 19.4766 40.0191C17.7952 39.5571 16.3663 38.6701 15.2119 37.3612C14.0838 36.0814 13.3821 34.5957 13.1187 32.9065C12.8172 31.3299 13.1843 29.8098 13.276 29.4408C13.5416 28.3685 14.0046 27.3838 14.6402 26.4783C14.685 26.414 14.7006 26.3004 14.6793 26.2237C14.4201 25.2731 13.9734 24.4084 13.4503 23.5804C13.3175 23.3698 13.1584 23.1749 13.0114 22.9728C13.0114 22.9497 13.0114 22.9259 13.0114 22.9025C13.0409 22.906 13.07 22.9117 13.0988 22.9117C14.8586 22.9124 16.6181 22.9131 18.3779 22.9096C18.4546 22.9096 18.5399 22.878 18.6052 22.8361C19.8416 22.0428 21.159 21.4143 22.5432 20.925C23.5414 20.5727 24.5605 20.2979 25.5998 20.0965C26.6062 19.902 27.6178 19.7649 28.6401 19.6974C31.1325 19.5057 33.1246 19.7695 34.4498 19.9552ZM32.2436 31.5778C32.2436 35.4423 35.3791 38.5994 39.2297 38.5845C43.0949 38.5706 46.2162 35.5023 46.2134 31.5952C46.2105 27.5688 42.9444 24.542 39.0799 24.6204C35.2648 24.6996 32.2784 27.7747 32.2436 31.5778ZM21.7645 24.5938C18.0055 24.5611 14.7279 27.6984 14.7936 31.6946C14.8547 35.4213 17.9263 38.5806 21.8426 38.5468C25.6719 38.5142 28.7499 35.3872 28.757 31.6005C28.763 27.7101 25.6474 24.5938 21.7645 24.5938ZM22.111 22.7708C24.2345 22.9004 26.0998 23.6404 27.6757 25.0735C29.2484 26.5039 30.1699 28.2882 30.5047 30.3864C30.8492 28.3131 31.7465 26.5454 33.2897 25.1293C34.8355 23.7118 36.6759 22.9678 38.7646 22.8105C36.286 21.7087 33.6725 21.2407 30.9823 21.1888C27.925 21.1288 24.9511 21.5794 22.111 22.7708Z" fill="#1DCFFF"/>
<path d="M39.2141 27.172C41.6056 27.1681 43.5427 29.0948 43.5427 31.4839C43.5427 33.8822 41.6386 35.7361 39.3923 35.8217C36.8836 35.9179 34.8762 33.9191 34.877 31.4945C34.8791 29.0422 36.9006 27.1315 39.2141 27.172ZM42.0349 31.4945C42.0339 29.9356 40.7736 28.6687 39.2254 28.6687C37.6595 28.6687 36.3847 29.9289 36.3783 31.4831C36.3726 33.0306 37.6538 34.3182 39.2052 34.3225C40.7591 34.3285 42.0356 33.0505 42.0349 31.4945Z" fill="#1DCFFF"/>
<path d="M21.6708 27.172C24.061 27.1695 26.0008 29.0998 25.9948 31.4885C25.9881 33.9063 24.0823 35.7198 21.8754 35.8203C19.3567 35.9353 17.3245 33.9276 17.3291 31.4899C17.3341 29.0202 19.3695 27.1308 21.6708 27.172ZM24.4885 31.485C24.4839 29.9165 23.2155 28.6662 21.6321 28.6691C20.1049 28.6719 18.8251 29.9609 18.8287 31.4938C18.8326 33.0445 20.1109 34.3197 21.6666 34.3239C23.2127 34.3275 24.4924 33.0399 24.4885 31.485Z" fill="#1DCFFF"/>
<path d="M39.2154 30.0557C40.008 30.055 40.6578 30.7052 40.6503 31.4931C40.6425 32.2829 40.0037 32.9228 39.2243 32.9231C38.4218 32.9231 37.7765 32.2889 37.7783 31.5031C37.7797 30.6878 38.4065 30.0564 39.2154 30.0557Z" fill="#1DCFFF"/>
<path d="M21.6632 30.0462C22.4678 30.0455 23.1144 30.6882 23.1176 31.4904C23.1208 32.2858 22.4682 32.9388 21.6674 32.9406C20.8475 32.9423 20.2151 32.3089 20.2158 31.4847C20.2158 30.6754 20.8468 30.0473 21.6632 30.0462Z" fill="#1DCFFF"/>
</svg>
