<svg width="341" height="39" viewBox="0 0 341 39" fill="none" xmlns="http://www.w3.org/2000/svg">
<path fill-rule="evenodd" clip-rule="evenodd" d="M341 30.6695L310.059 0L286.141 22.9044L263.034 0L239.132 22.8899L216.039 0L192.121 22.9044L169.014 0L145.102 22.8991L122 0L98.0822 22.9044L74.9752 0L51.0724 22.8899L27.9799 0L4.0621 22.9044L-19.0449 0L-51.0001 30.6011L-43.1353 38.8139L-19.1818 15.8754L2.57751 37.4438L3.88959 38.8139L27.8431 15.8754L49.0191 36.8657L50.8848 38.8139L74.8383 15.8754L96.5976 37.4438L97.9097 38.8139L121.863 15.8754L143.412 37.2352L144.924 38.8139L168.877 15.8754L190.637 37.4438L191.949 38.8139L215.902 15.8754L237.078 36.8657L238.944 38.8139L262.897 15.8754L284.657 37.4438L285.969 38.8139L309.922 15.8754L332.995 38.7455L341 30.6695Z" fill="#0052D4"/>
</svg>
