<svg width="653" height="520" viewBox="0 0 653 520" fill="none" xmlns="http://www.w3.org/2000/svg">
<path d="M434.965 224.232L342.478 84.8066H341.208L345.102 127.443L345.187 224.316L298.202 224.359C296.89 224.359 295.789 223.3 295.789 221.945L295.62 0.169359L344.044 0.127019L431.367 139.891H432.637L430.055 103.309L429.97 0.0423398L479.325 0L479.537 224.189L434.965 224.232Z" fill="#21232A"/>
<path d="M125.036 224.358L124.824 0.169012L273.27 0.0419922L273.312 44.6258L175.195 44.7105L175.237 88.6592L258.582 88.5745L258.624 132.82L175.28 132.904L175.322 179.859L277.291 179.774L277.333 224.231L125.036 224.358Z" fill="#21232A"/>
<path d="M145.397 425.472C145.481 497.196 121.566 518.874 75.0468 518.916C64.7187 518.916 47.5757 516.672 42.4116 515.063L39.1523 465.949C48.8455 471.75 57.5652 473.698 69.2055 473.698C85.375 473.698 95.0258 461.715 95.0258 430.384L94.8988 290.408L145.312 290.366L145.397 425.472Z" fill="#21232A"/>
<path d="M276.994 285.243C350.984 285.158 375.577 330.377 375.62 400.492C375.662 468.659 345.99 519.425 274.624 519.509C203.216 519.552 174.771 470.48 174.687 400.704C174.602 330.547 214.306 285.286 276.994 285.243ZM275.555 476.534C311.746 476.492 324.952 444.822 324.91 401.508C324.868 357.221 311.28 328.811 275.09 328.853C242.454 328.896 225.354 358.322 225.396 399.645C225.438 444.271 238.73 476.577 275.555 476.534Z" fill="#21232A"/>
<path d="M446.73 516.376L446.646 435.592L369.65 290.281L427.683 290.239L427.64 297.394L471.493 389.737L515.98 290.154L569.61 290.112L497.059 435.592L497.144 516.376H446.73Z" fill="#21232A"/>
<path d="M93.3341 145.395L73.6091 133.963L22.815 221.861V196.076H0V315.559H22.815V290.578L61.9265 358.322L81.6938 346.933L29.2489 256.071L93.3341 145.395Z" fill="#FBFBFB"/>
<path d="M49.9909 275.505L154.33 214.62L143.24 195.229L129.272 203.273L99.3035 150.56L38.4775 255.267L49.9909 275.505ZM98.8802 195.906L109.378 214.62L77.8429 233.165L98.8802 195.906Z" fill="#FBFBFB"/>
<path d="M216.722 242.268H216.68L213.294 244.258L196.955 253.7L196.997 253.742L168.044 270.509L144.468 229.439L135.325 234.731L134.605 235.155L124.743 240.828V240.871L52.5303 282.787L63.9166 302.56L136.087 260.643L148.362 281.983L133.885 290.366L145.314 310.096L208.426 273.472L257.484 358.321L277.252 346.932L216.722 242.268Z" fill="#FBFBFB"/>
<path d="M336.048 173.932L333.085 175.668L331.096 176.811L249.359 224.231L260.746 244.004L295.624 223.766L389.551 277.961L401.445 298.495L421.213 287.106L350.863 165.379L336.048 173.932ZM318.397 210.556L342.524 196.541L366.736 238.415L318.397 210.556Z" fill="#FBFBFB"/>
<path d="M295.748 272.499L275.684 284.185L225.398 197.177L205.631 208.608L261.208 304.635L267.43 315.389L295.748 298.919V358.322H318.521L318.563 245.825L295.748 232.446V272.499Z" fill="#FBFBFB"/>
<path d="M490.629 219.278L502.565 198.997L374.014 164.406L368.088 186.422L424.893 201.665V339.565H447.665V207.761L490.629 219.278Z" fill="#FBFBFB"/>
<path d="M652.957 253.107H603.771L573.337 200.098L586.798 176.895L567.073 165.464L512.808 259.204L529.443 275.928H590.607L613.338 315.516L630.057 298.792L616.936 275.928H652.999V253.107H652.957ZM542.607 253.107L560.088 222.919L577.443 253.107H542.607Z" fill="#FBFBFB"/>
<path d="M539.517 195.991L519.75 184.559L479.538 254.081V234.52H456.723V358.322H479.538V299.639L490.331 280.967L567.792 358.364L583.919 342.275L502.183 260.559L539.517 195.991Z" fill="#FBFBFB"/>
</svg>
