<svg width="1043" height="110" viewBox="0 0 1043 110" fill="none" xmlns="http://www.w3.org/2000/svg">
<path fill-rule="evenodd" clip-rule="evenodd" d="M493.064 64.8366L428.264 0.604492L361.175 64.851L296.36 0.604492L229.313 64.8105L164.539 0.604492L97.4493 64.851L32.6343 0.604492L-56.9995 86.4403L-34.9388 109.477L32.2505 45.1348L93.285 105.634L96.9654 109.477L164.155 45.1348L223.553 104.012L228.787 109.477L295.976 45.1348L357.01 105.634L360.691 109.477L427.88 45.1348L488.314 105.038L492.565 109.478L559.754 45.1353L620.789 105.634L624.469 109.478L691.659 45.1353L751.057 104.013L756.29 109.478L823.48 45.1353L884.514 105.634L888.195 109.478L955.384 45.1353L1020.1 109.286L1042.56 86.6326L955.768 0.604975L888.678 64.8514L823.863 0.604975L756.817 64.811L692.042 0.604975L624.953 64.8514L560.138 0.604975L493.064 64.8366Z" fill="#1DCFFF"/>
</svg>
