<svg width="60" height="61" viewBox="0 0 60 61" fill="none" xmlns="http://www.w3.org/2000/svg">
<path fill-rule="evenodd" clip-rule="evenodd" d="M39 20.4746C38.1719 20.4746 37.5 21.1458 37.5 21.9743C37.5 22.8026 38.1719 23.4746 39 23.4746C39.8281 23.4746 40.5 22.8026 40.5 21.9743C40.5 21.1461 39.8281 20.4746 39 20.4746Z" fill="#163E97"/>
<path d="M30.0004 24.4746C26.4105 24.4746 23.5 27.3851 23.5 30.975C23.5 34.5653 26.4109 37.4744 30.0004 37.4744C33.5902 37.4744 36.5 34.565 36.5 30.975C36.5 27.3854 33.5906 24.4746 30.0004 24.4746Z" stroke="#163E97" stroke-width="3"/>
<rect x="16" y="16.9746" width="28" height="28" rx="2" stroke="#163E97" stroke-width="2"/>
<circle cx="30" cy="30.9746" r="29" stroke="#163E97" stroke-width="2"/>
</svg>
