<svg width="40" height="41" viewBox="0 0 60 61" fill="none" xmlns="http://www.w3.org/2000/svg">
<circle cx="30" cy="30.9746" r="29" stroke-width="2" stroke="#163E97" />
<mask id="path-2-inside-1">
<path d="M27.3072 38.4169V27.0283L23.4997 28.5246C23.4997 28.5246 22.569 30.4365 22.7382 33.2629C22.8228 35.5074 24.1766 38.0844 25.192 39.2482L27.3072 38.4169ZM37.5452 14.9746C38.3913 15.0577 39.8297 15.4734 40.8451 16.3047C41.945 17.3022 42.1988 18.8817 41.8604 20.2948C41.5219 21.5418 41.0989 22.2068 39.7451 23.1212C38.3913 24.0356 37.376 24.1188 37.376 24.1188V29.6052L39.9989 31.6003L37.376 33.9279V41.4095C37.376 41.4095 39.5759 39.6638 41.2681 36.2555C41.2681 36.2555 41.3527 36.0893 41.5219 35.6736C41.6912 36.588 41.6066 38.5 40.5066 40.8276C39.6605 42.6564 38.2221 44.319 36.276 45.3165C32.9762 47.0622 30.4379 47.2285 27.8149 46.7297C24.6843 46.1478 21.8075 44.4853 19.9461 41.5758C18.5923 39.4975 18 37.1699 18 34.593C18.0846 29.5221 22.0613 25.1994 26.6304 23.5369C27.2226 23.3706 27.3919 23.2043 28.1534 23.1212C27.8149 23.3706 27.3919 23.62 26.8842 23.9525C25.4458 24.8669 24.1766 26.6957 23.5843 28.1089L32.3839 24.3681V36.0893L25.3612 39.4975C26.2073 40.5782 28.661 42.1577 30.7763 42.407C34.33 42.8227 36.6991 41.4926 36.6991 41.4926V33.8448L34.0761 31.6003L36.6991 29.6052V24.1188C35.1761 23.9525 33.0608 23.2875 32.0455 23.0381C30.4379 22.7056 25.192 21.2924 24.3458 21.1261C23.4997 21.043 22.4844 21.043 21.8921 21.5418C21.2998 22.0405 20.8768 23.0381 21.1306 23.8694C21.2998 24.3681 21.6383 24.6175 21.8921 24.8669C21.8921 24.8669 21.5537 24.8669 21.046 24.5344C20.0307 23.9525 19.2692 22.8718 19.1846 21.4586C19.1352 20.5887 19.311 19.7207 19.6957 18.9357C20.0805 18.1506 20.6615 17.4742 21.3845 16.9697C22.7382 16.1384 24.2612 15.6396 26.0381 15.889C28.661 16.2215 32.1301 17.6347 35.2607 18.3829C36.4453 18.6323 37.376 18.7154 38.2221 18.2998C38.6452 18.0504 39.322 17.3022 38.7298 16.3878C38.0529 15.3071 36.7837 15.3071 35.6838 15.1409C36.6991 14.9746 36.8683 14.9746 37.5452 14.9746Z" fill="#163E97" />
</mask>
<path d="M27.3072 38.4169V27.0283L23.4997 28.5246C23.4997 28.5246 22.569 30.4365 22.7382 33.2629C22.8228 35.5074 24.1766 38.0844 25.192 39.2482L27.3072 38.4169ZM37.5452 14.9746C38.3913 15.0577 39.8297 15.4734 40.8451 16.3047C41.945 17.3022 42.1988 18.8817 41.8604 20.2948C41.5219 21.5418 41.0989 22.2068 39.7451 23.1212C38.3913 24.0356 37.376 24.1188 37.376 24.1188V29.6052L39.9989 31.6003L37.376 33.9279V41.4095C37.376 41.4095 39.5759 39.6638 41.2681 36.2555C41.2681 36.2555 41.3527 36.0893 41.5219 35.6736C41.6912 36.588 41.6066 38.5 40.5066 40.8276C39.6605 42.6564 38.2221 44.319 36.276 45.3165C32.9762 47.0622 30.4379 47.2285 27.8149 46.7297C24.6843 46.1478 21.8075 44.4853 19.9461 41.5758C18.5923 39.4975 18 37.1699 18 34.593C18.0846 29.5221 22.0613 25.1994 26.6304 23.5369C27.2226 23.3706 27.3919 23.2043 28.1534 23.1212C27.8149 23.3706 27.3919 23.62 26.8842 23.9525C25.4458 24.8669 24.1766 26.6957 23.5843 28.1089L32.3839 24.3681V36.0893L25.3612 39.4975C26.2073 40.5782 28.661 42.1577 30.7763 42.407C34.33 42.8227 36.6991 41.4926 36.6991 41.4926V33.8448L34.0761 31.6003L36.6991 29.6052V24.1188C35.1761 23.9525 33.0608 23.2875 32.0455 23.0381C30.4379 22.7056 25.192 21.2924 24.3458 21.1261C23.4997 21.043 22.4844 21.043 21.8921 21.5418C21.2998 22.0405 20.8768 23.0381 21.1306 23.8694C21.2998 24.3681 21.6383 24.6175 21.8921 24.8669C21.8921 24.8669 21.5537 24.8669 21.046 24.5344C20.0307 23.9525 19.2692 22.8718 19.1846 21.4586C19.1352 20.5887 19.311 19.7207 19.6957 18.9357C20.0805 18.1506 20.6615 17.4742 21.3845 16.9697C22.7382 16.1384 24.2612 15.6396 26.0381 15.889C28.661 16.2215 32.1301 17.6347 35.2607 18.3829C36.4453 18.6323 37.376 18.7154 38.2221 18.2998C38.6452 18.0504 39.322 17.3022 38.7298 16.3878C38.0529 15.3071 36.7837 15.3071 35.6838 15.1409C36.6991 14.9746 36.8683 14.9746 37.5452 14.9746Z" stroke="#163E97" fill="#163E97" />
<path d="M27.3072 38.4169L27.9153 39.9642L28.9698 39.5498V38.4169H27.3072ZM27.3072 27.0283H28.9698V24.5885L26.6991 25.4809L27.3072 27.0283ZM23.4997 28.5246L22.8916 26.9772L22.2885 27.2142L22.0049 27.7969L23.4997 28.5246ZM22.7382 33.2629L24.3996 33.2003L24.3989 33.1819L24.3978 33.1635L22.7382 33.2629ZM25.192 39.2482L23.9392 40.3411L24.7095 41.2241L25.8001 40.7955L25.192 39.2482ZM40.8451 16.3047L41.9619 15.0731L41.9308 15.0449L41.8983 15.0183L40.8451 16.3047ZM41.8604 20.2948L43.4649 20.7303L43.4714 20.7063L43.4772 20.6821L41.8604 20.2948ZM37.376 24.1188L37.2403 22.4617L35.7134 22.5867V24.1188H37.376ZM37.376 29.6052H35.7134V30.4295L36.3695 30.9285L37.376 29.6052ZM39.9989 31.6003L41.1025 32.8439L42.6152 31.5015L41.0055 30.277L39.9989 31.6003ZM37.376 33.9279L36.2725 32.6844L35.7134 33.1805V33.9279H37.376ZM37.376 41.4095H35.7134V44.8512L38.4094 42.7118L37.376 41.4095ZM41.2681 36.2555L39.7863 35.5014L39.779 35.5162L41.2681 36.2555ZM41.5219 35.6736L43.1568 35.3711L42.1234 29.7873L39.9821 35.0467L41.5219 35.6736ZM40.5066 40.8276L39.0034 40.1172L38.9977 40.1295L40.5066 40.8276ZM36.276 45.3165L35.5176 43.8369L35.4986 43.8469L36.276 45.3165ZM27.8149 46.7297L28.1255 45.0964L28.1187 45.0951L27.8149 46.7297ZM19.9461 41.5758L21.3466 40.6797L21.3391 40.6683L19.9461 41.5758ZM18 34.593L16.3377 34.5652L16.3374 34.5791V34.593H18ZM26.6304 23.5369L26.181 21.9361L26.1207 21.9531L26.0618 21.9745L26.6304 23.5369ZM28.1534 23.1212L29.1396 24.4597L34.1079 20.7987L27.9729 21.4685L28.1534 23.1212ZM26.8842 23.9525L27.7762 25.3557L27.7951 25.3433L26.8842 23.9525ZM23.5843 28.1089L22.051 27.4663L20.4696 31.2396L24.2348 29.639L23.5843 28.1089ZM32.3839 24.3681H34.0465V21.8548L31.7335 22.8381L32.3839 24.3681ZM32.3839 36.0893L33.1098 37.585L34.0465 37.1304V36.0893H32.3839ZM25.3612 39.4975L24.6353 38.0018L22.7826 38.901L24.0521 40.5225L25.3612 39.4975ZM30.7763 42.407L30.5816 44.0582L30.5832 44.0583L30.7763 42.407ZM36.6991 41.4926L37.513 42.9424L38.3617 42.4659V41.4926H36.6991ZM36.6991 33.8448H38.3617V33.0793L37.78 32.5816L36.6991 33.8448ZM34.0761 31.6003L33.0696 30.277L31.43 31.5242L32.9952 32.8635L34.0761 31.6003ZM36.6991 29.6052L37.7056 30.9285L38.3617 30.4295V29.6052H36.6991ZM36.6991 24.1188H38.3617V22.6278L36.8795 22.466L36.6991 24.1188ZM32.0455 23.0381L32.442 21.4235L32.4123 21.4162L32.3822 21.41L32.0455 23.0381ZM24.3458 21.1261L24.6664 19.4947L24.588 19.4793L24.5084 19.4715L24.3458 21.1261ZM21.1306 23.8694L19.5405 24.3549L19.548 24.3793L19.5562 24.4035L21.1306 23.8694ZM21.8921 24.8669L21.8921 26.5295L25.9566 26.5295L23.0573 23.6809L21.8921 24.8669ZM21.046 24.5344L21.957 23.1436L21.9156 23.1165L21.8727 23.0919L21.046 24.5344ZM19.1846 21.4586L17.5247 21.5529L17.525 21.558L19.1846 21.4586ZM21.3845 16.9697L20.5145 15.5529L20.4729 15.5784L20.433 15.6063L21.3845 16.9697ZM26.0381 15.889L25.807 17.5356L25.829 17.5384L26.0381 15.889ZM35.2607 18.3829L34.8743 19.9999L34.8962 20.0051L34.9182 20.0098L35.2607 18.3829ZM38.2221 18.2998L38.9551 19.792L39.0119 19.7641L39.0664 19.732L38.2221 18.2998ZM38.7298 16.3878L37.3208 17.2703L37.3275 17.281L37.3343 17.2916L38.7298 16.3878ZM35.6838 15.1409L35.4151 13.5001L35.4353 16.7848L35.6838 15.1409ZM28.9698 38.4169V27.0283H25.6447V38.4169H28.9698ZM26.6991 25.4809L22.8916 26.9772L24.1078 30.0719L27.9153 28.5756L26.6991 25.4809ZM23.4997 28.5246C22.0049 27.7969 22.0046 27.7974 22.0044 27.7979C22.0043 27.798 22.0041 27.7985 22.0039 27.7989C22.0036 27.7996 22.0032 27.8003 22.0028 27.8011C22.0021 27.8026 22.0013 27.8042 22.0005 27.806C21.9988 27.8095 21.9969 27.8135 21.9948 27.818C21.9905 27.8269 21.9854 27.8378 21.9795 27.8505C21.9678 27.8761 21.9528 27.9092 21.9353 27.9496C21.9001 28.0304 21.8544 28.1408 21.8022 28.2786C21.6978 28.554 21.5671 28.9412 21.4443 29.4238C21.1991 30.3874 20.9819 31.746 21.0786 33.3623L24.3978 33.1635C24.3254 31.9534 24.4889 30.9428 24.6668 30.2438C24.7555 29.8952 24.8468 29.6277 24.9118 29.4563C24.9442 29.3708 24.9698 29.3097 24.9849 29.2749C24.9924 29.2575 24.9973 29.2468 24.9991 29.2429C25 29.241 25.0001 29.2408 24.9994 29.2423C24.999 29.2431 24.9984 29.2443 24.9976 29.246C24.9972 29.2468 24.9968 29.2477 24.9963 29.2488C24.996 29.2493 24.9958 29.2498 24.9955 29.2504C24.9953 29.2507 24.9951 29.2512 24.9951 29.2513C24.9948 29.2518 24.9946 29.2523 23.4997 28.5246ZM21.0768 33.3255C21.1298 34.7302 21.5695 36.1503 22.0969 37.3363C22.6248 38.5234 23.2998 39.6083 23.9392 40.3411L26.4448 38.1552C26.0687 37.7242 25.5592 36.9387 25.1352 35.9852C24.7107 35.0307 24.4313 34.04 24.3996 33.2003L21.0768 33.3255ZM25.8001 40.7955L27.9153 39.9642L26.6991 36.8695L24.5839 37.7008L25.8001 40.7955ZM37.3827 16.6292C37.9977 16.6896 39.0959 17.0213 39.7918 17.5911L41.8983 15.0183C40.5635 13.9255 38.785 13.4258 37.7078 13.32L37.3827 16.6292ZM39.7282 17.5362C40.2436 18.0037 40.4887 18.8838 40.2435 19.9076L43.4772 20.6821C43.9089 18.8795 43.6464 16.6007 41.9619 15.0731L39.7282 17.5362ZM40.2559 19.8593C40.113 20.3857 39.9894 20.6478 39.8388 20.8551C39.6806 21.0726 39.4109 21.3407 38.8145 21.7435L40.6757 24.4989C41.4331 23.9873 42.0518 23.4657 42.5282 22.8104C43.0122 22.1448 43.2693 21.4509 43.4649 20.7303L40.2559 19.8593ZM38.8145 21.7435C38.2796 22.1048 37.8326 22.288 37.5472 22.3791C37.4039 22.4248 37.3003 22.4477 37.2458 22.4581C37.2185 22.4632 37.2036 22.4653 37.2023 22.4654C37.2016 22.4655 37.2043 22.4652 37.2106 22.4645C37.2138 22.4641 37.2178 22.4637 37.2227 22.4633C37.2252 22.463 37.2279 22.4628 37.2308 22.4625C37.2323 22.4624 37.2338 22.4623 37.2354 22.4621C37.2362 22.4621 37.237 22.462 37.2378 22.4619C37.2382 22.4619 37.2389 22.4618 37.2391 22.4618C37.2397 22.4618 37.2403 22.4617 37.376 24.1188C37.5117 25.7758 37.5123 25.7757 37.5129 25.7757C37.5132 25.7757 37.5138 25.7756 37.5142 25.7756C37.5151 25.7755 37.516 25.7754 37.5169 25.7753C37.5188 25.7752 37.5207 25.775 37.5226 25.7748C37.5265 25.7745 37.5307 25.7741 37.5351 25.7737C37.544 25.7729 37.5539 25.7719 37.5648 25.7707C37.5866 25.7684 37.6125 25.7653 37.6422 25.7613C37.7017 25.7534 37.7767 25.7418 37.8658 25.7249C38.044 25.6911 38.2788 25.636 38.5586 25.5467C39.1193 25.3676 39.8568 25.0521 40.6757 24.4989L38.8145 21.7435ZM35.7134 24.1188V29.6052H39.0386V24.1188H35.7134ZM36.3695 30.9285L38.9924 32.9236L41.0055 30.277L38.3825 28.282L36.3695 30.9285ZM38.8954 30.3568L36.2725 32.6844L38.4795 35.1715L41.1025 32.8439L38.8954 30.3568ZM35.7134 33.9279V41.4095H39.0386V33.9279H35.7134ZM37.376 41.4095C38.4094 42.7118 38.4098 42.7115 38.4102 42.7112C38.4103 42.7111 38.4107 42.7108 38.411 42.7106C38.4116 42.7101 38.4122 42.7097 38.4128 42.7092C38.414 42.7082 38.4154 42.7071 38.4169 42.7059C38.42 42.7034 38.4235 42.7006 38.4276 42.6973C38.4358 42.6906 38.4461 42.6823 38.4584 42.6721C38.483 42.6518 38.5157 42.6245 38.5558 42.5902C38.6359 42.5215 38.7458 42.4246 38.8799 42.2996C39.1478 42.0497 39.5139 41.6866 39.9338 41.211C40.7723 40.2613 41.8345 38.8533 42.7572 36.9949L39.779 35.5162C39.0095 37.066 38.1257 38.235 37.4412 39.0102C37.0996 39.3971 36.8098 39.6834 36.6125 39.8674C36.5139 39.9593 36.4386 40.0254 36.3919 40.0655C36.3685 40.0855 36.3522 40.099 36.3438 40.106C36.3396 40.1095 36.3373 40.1113 36.3371 40.1115C36.3369 40.1116 36.3373 40.1113 36.3382 40.1106C36.3387 40.1102 36.3393 40.1097 36.34 40.1092C36.3403 40.1089 36.3407 40.1086 36.3412 40.1082C36.3414 40.1081 36.3417 40.1078 36.3418 40.1077C36.3422 40.1074 36.3425 40.1071 37.376 41.4095ZM41.2681 36.2555C42.7498 37.0096 42.7499 37.0095 42.75 37.0093C42.75 37.0093 42.7501 37.0091 42.7501 37.009C42.7502 37.0088 42.7503 37.0086 42.7504 37.0084C42.7506 37.008 42.7509 37.0076 42.7511 37.0071C42.7515 37.0063 42.752 37.0054 42.7524 37.0045C42.7534 37.0026 42.7544 37.0006 42.7555 36.9984C42.7577 36.994 42.7602 36.989 42.763 36.9833C42.7686 36.972 42.7754 36.958 42.7834 36.9413C42.7995 36.9077 42.8204 36.863 42.8464 36.8057C42.8981 36.6912 42.9699 36.5262 43.0618 36.3005L39.9821 35.0467C39.9047 35.2367 39.8496 35.3626 39.8168 35.4352C39.8004 35.4714 39.7896 35.4942 39.7845 35.5048C39.782 35.5102 39.7809 35.5124 39.7812 35.5118C39.7813 35.5115 39.7818 35.5105 39.7827 35.5087C39.7831 35.5079 39.7837 35.5068 39.7843 35.5056C39.7846 35.505 39.7849 35.5043 39.7853 35.5037C39.7854 35.5033 39.7856 35.5029 39.7858 35.5026C39.7859 35.5024 39.786 35.5022 39.7861 35.502C39.7861 35.5019 39.7862 35.5018 39.7862 35.5017C39.7863 35.5016 39.7864 35.5014 41.2681 36.2555ZM39.8871 35.9762C39.9826 36.4921 39.9804 38.05 39.0034 40.1172L42.0098 41.5379C43.2328 38.95 43.3997 36.684 43.1568 35.3711L39.8871 35.9762ZM38.9977 40.1295C38.2866 41.6666 37.0916 43.0302 35.5176 43.837L37.0344 46.7961C39.3527 45.6077 41.0344 43.6463 42.0155 41.5257L38.9977 40.1295ZM35.4986 43.8469C32.5462 45.4088 30.3934 45.5277 28.1255 45.0964L27.5043 48.363C30.4824 48.9293 33.4062 48.7156 37.0535 46.7861L35.4986 43.8469ZM28.1187 45.0951C25.3729 44.5848 22.9257 43.148 21.3465 40.6798L18.5456 42.4717C20.6893 45.8225 23.9957 47.7109 27.5111 48.3643L28.1187 45.0951ZM21.3391 40.6683C20.1886 38.902 19.6626 36.9018 19.6626 34.593H16.3374C16.3374 37.4381 16.996 40.093 18.553 42.4832L21.3391 40.6683ZM19.6623 34.6207C19.7326 30.411 23.0984 26.5913 27.1989 25.0992L26.0618 21.9745C21.0242 23.8076 16.4366 28.6332 16.3377 34.5652L19.6623 34.6207ZM27.0797 25.1376C27.28 25.0813 27.4429 25.0254 27.5778 24.9765C27.7387 24.9181 27.7753 24.9023 27.869 24.8701C27.9687 24.8358 28.0807 24.8016 28.3338 24.774L27.9729 21.4685C27.4645 21.524 27.1112 21.6144 26.7878 21.7256C26.4361 21.8466 26.426 21.8674 26.181 21.9361L27.0797 25.1376ZM27.1671 21.7828C26.8736 21.999 26.5794 22.1647 25.9732 22.5617L27.7951 25.3433C28.2043 25.0753 28.7562 24.7421 29.1396 24.4597L27.1671 21.7828ZM25.9922 22.5494C24.1794 23.7019 22.7274 25.8525 22.051 27.4663L25.1177 28.7516C25.6259 27.539 26.7122 26.0319 27.7761 25.3556L25.9922 22.5494ZM24.2348 29.639L33.0344 25.8982L31.7335 22.8381L22.9339 26.5789L24.2348 29.639ZM30.7214 24.3681V36.0893H34.0465V24.3681H30.7214ZM31.658 34.5935L24.6353 38.0018L26.0871 40.9933L33.1098 37.585L31.658 34.5935ZM24.0521 40.5225C24.6588 41.2973 25.6856 42.0901 26.769 42.7081C27.8683 43.3353 29.228 43.8986 30.5816 44.0582L30.971 40.7559C30.2093 40.6661 29.2845 40.315 28.4166 39.8199C27.5328 39.3157 26.9097 38.7785 26.6702 38.4726L24.0521 40.5225ZM30.5832 44.0583C32.6078 44.2952 34.3039 44.0355 35.5047 43.7105C36.1053 43.5479 36.5851 43.3682 36.9247 43.2237C37.0946 43.1513 37.2302 43.0874 37.3288 43.0385C37.3782 43.0141 37.4184 42.9933 37.4492 42.977C37.4646 42.9689 37.4776 42.9618 37.4882 42.956C37.4936 42.9531 37.4983 42.9505 37.5024 42.9482C37.5045 42.9471 37.5064 42.946 37.5082 42.9451C37.509 42.9446 37.5099 42.9441 37.5107 42.9436C37.5111 42.9434 37.5117 42.9431 37.5119 42.943C37.5124 42.9427 37.513 42.9424 36.6991 41.4926C35.8852 40.0429 35.8857 40.0426 35.8863 40.0423C35.8864 40.0422 35.887 40.0419 35.8873 40.0417C35.8879 40.0414 35.8886 40.041 35.8892 40.0407C35.8904 40.04 35.8914 40.0394 35.8923 40.0389C35.8941 40.0379 35.8954 40.0372 35.8961 40.0368C35.8976 40.036 35.8969 40.0364 35.8941 40.0379C35.8884 40.0409 35.8743 40.0483 35.8519 40.0594C35.8071 40.0816 35.7298 40.1184 35.6221 40.1642C35.4065 40.2561 35.0718 40.3829 34.6359 40.5009C33.7638 40.737 32.4985 40.9346 30.9694 40.7557L30.5832 44.0583ZM38.3617 41.4926V33.8448H35.0365V41.4926H38.3617ZM37.78 32.5816L35.1571 30.3371L32.9952 32.8635L35.6182 35.108L37.78 32.5816ZM35.0827 32.9236L37.7056 30.9285L35.6926 28.282L33.0696 30.277L35.0827 32.9236ZM38.3617 29.6052V24.1188H35.0365V29.6052H38.3617ZM36.8795 22.466C35.5001 22.3154 33.6517 21.7206 32.442 21.4235L31.6489 24.6527C32.4699 24.8543 34.8521 25.5896 36.5187 25.7715L36.8795 22.466ZM32.3822 21.41C31.6273 21.2538 29.9627 20.8304 28.3237 20.4095C26.7532 20.006 25.1515 19.5901 24.6664 19.4947L24.0253 22.7575C24.3863 22.8284 25.8307 23.2022 27.4965 23.6301C29.0939 24.0404 30.8561 24.4898 31.7087 24.6662L32.3822 21.41ZM24.5084 19.4715C24.0358 19.4251 23.4334 19.3922 22.826 19.465C22.2355 19.5357 21.4674 19.7259 20.8212 20.2701L22.9631 22.8135C22.9091 22.8589 22.9448 22.7997 23.2216 22.7665C23.4814 22.7354 23.8098 22.744 24.1833 22.7807L24.5084 19.4715ZM20.8212 20.2701C20.276 20.7292 19.864 21.3603 19.6279 22.0229C19.3912 22.6875 19.2852 23.5188 19.5405 24.3549L22.7207 23.3838C22.7222 23.3887 22.7008 23.3055 22.7602 23.1388C22.8203 22.9702 22.9159 22.8531 22.9631 22.8135L20.8212 20.2701ZM19.5562 24.4035C19.8868 25.378 20.6397 25.9672 20.7269 26.0529L23.0573 23.6809C23.0103 23.6348 22.965 23.5921 22.9287 23.5582C22.8876 23.5198 22.8626 23.4967 22.832 23.4678C22.7761 23.415 22.7465 23.3845 22.7264 23.3618C22.7173 23.3514 22.7116 23.3443 22.7084 23.34C22.7068 23.3379 22.7057 23.3364 22.7051 23.3355C22.7045 23.3345 22.7042 23.3341 22.7042 23.3341C22.7042 23.334 22.7043 23.3343 22.7046 23.3348C22.7049 23.3353 22.7051 23.3358 22.7054 23.3363C22.7059 23.3375 22.7058 23.3374 22.705 23.3352L19.5562 24.4035ZM21.8921 24.8669C21.8921 23.2043 21.8929 23.2043 21.8937 23.2043C21.894 23.2043 21.8948 23.2043 21.8953 23.2043C21.8964 23.2043 21.8974 23.2043 21.8984 23.2043C21.9005 23.2044 21.9026 23.2044 21.9047 23.2044C21.9088 23.2044 21.9129 23.2045 21.9169 23.2045C21.9248 23.2047 21.9326 23.2048 21.94 23.2051C21.955 23.2055 21.9689 23.2062 21.9818 23.207C22.0076 23.2087 22.0293 23.2109 22.0473 23.2132C22.0833 23.2179 22.1032 23.2231 22.1088 23.2246C22.1221 23.2284 22.0666 23.2154 21.957 23.1436L20.1351 25.9252C20.5331 26.1859 20.9006 26.3392 21.2101 26.426C21.3637 26.4692 21.5 26.4951 21.6154 26.5102C21.6729 26.5177 21.7251 26.5226 21.7714 26.5255C21.7946 26.527 21.8162 26.528 21.8364 26.5286C21.8464 26.5289 21.8561 26.5291 21.8654 26.5293C21.8701 26.5293 21.8746 26.5294 21.8791 26.5294C21.8813 26.5294 21.8835 26.5295 21.8857 26.5295C21.8868 26.5295 21.8878 26.5295 21.8889 26.5295C21.8895 26.5295 21.8903 26.5295 21.8905 26.5295C21.8913 26.5295 21.8921 26.5295 21.8921 24.8669ZM21.8727 23.0919C21.3264 22.7788 20.8941 22.1934 20.8442 21.3593L17.525 21.558C17.6442 23.5503 18.735 25.1262 20.2193 25.9769L21.8727 23.0919ZM20.8445 21.3644C20.8113 20.7805 20.9292 20.1968 21.1887 19.6673L18.2028 18.204C17.6929 19.2445 17.459 20.3969 17.5247 21.5529L20.8445 21.3644ZM21.1887 19.6673C21.4483 19.1376 21.842 18.6778 22.3359 18.3331L20.433 15.6063C19.4809 16.2707 18.7127 17.1637 18.2028 18.204L21.1887 19.6673ZM22.2544 18.3865C23.3744 17.6988 24.5105 17.3535 25.807 17.5355L26.2692 14.2426C24.012 13.9258 22.1021 14.578 20.5145 15.5529L22.2544 18.3865ZM25.829 17.5384C26.9787 17.6841 28.3727 18.0774 29.9699 18.5691C31.513 19.0441 33.2411 19.6096 34.8743 19.9999L35.6471 16.7658C34.1497 16.408 32.5779 15.8928 30.9482 15.3911C29.3724 14.906 27.7204 14.4264 26.2472 14.2397L25.829 17.5384ZM34.9182 20.0098C36.1296 20.2648 37.5614 20.4766 38.9551 19.792L37.4891 16.8075C37.1905 16.9542 36.7609 16.9997 35.6032 16.756L34.9182 20.0098ZM39.0664 19.732C39.5086 19.4713 40.0579 18.9826 40.3755 18.2695C40.7391 17.453 40.7443 16.4398 40.1252 15.484L37.3343 17.2916C37.3429 17.3049 37.3077 17.2523 37.3008 17.1455C37.2941 17.043 37.318 16.9615 37.3379 16.9168C37.3549 16.8787 37.3672 16.8694 37.3587 16.8784C37.3488 16.8888 37.3478 16.8852 37.3778 16.8675L39.0664 19.732ZM40.1388 15.5053C39.5165 14.5118 38.619 14.0531 37.827 13.8242C37.149 13.6283 36.296 13.5519 35.9322 13.497L35.4353 16.7848C35.5938 16.8087 35.751 16.829 35.8923 16.8471C36.0392 16.8658 36.1675 16.8819 36.2954 16.9C36.5518 16.9363 36.7452 16.9728 36.9039 17.0186C37.1906 17.1015 37.2662 17.1832 37.3208 17.2703L40.1388 15.5053ZM35.9524 16.7816C36.4558 16.6992 36.6952 16.6673 36.8771 16.6524C37.052 16.6381 37.1956 16.6372 37.5452 16.6372V13.312C36.7771 13.312 36.5181 13.3195 35.4151 13.5001L35.9524 16.7816Z" mask="url(#path-2-inside-1)"/>
</svg>
