<svg width="40" height="40" viewBox="0 0 40 40" fill="none" xmlns="http://www.w3.org/2000/svg">
<g clip-path="url(#clip0)">
<path d="M39.7026 1.60249C39.3565 1.21499 38.8104 1.11109 38.358 1.30874L0.702093 17.793C0.284909 17.9758 0.0106923 18.3844 0.000536169 18.8406C-0.00962 19.2961 0.245847 19.7164 0.655219 19.918L9.64655 24.3398L11.8872 37.7819C11.9598 38.292 12.3606 38.7022 12.8825 38.7764C13.2575 38.8303 13.6301 38.6983 13.8879 38.4327L20.9863 31.3343L31.1159 38.5702C31.4409 38.8014 31.8597 38.8522 32.2284 38.7061C32.5979 38.56 32.8682 38.2358 32.9464 37.846L39.9776 2.61186C40.0471 2.26264 39.9573 1.88843 39.7026 1.60249ZM10.5747 22.1844L3.95363 18.9281L30.1112 7.47744L10.5747 22.1844ZM14.2418 25.6679L13.152 31.1171L11.9762 24.0625L26.3488 13.243L14.5614 25.0703C14.3957 25.2359 14.2856 25.4515 14.2418 25.6679ZM14.9551 34.0507L16.1848 27.9046L19.0527 29.9531L14.9551 34.0507ZM31.0026 35.6085L17.1957 25.7468L36.9198 5.95714L31.0026 35.6085Z" fill="#163E97"/>
</g>
<defs>
<clipPath id="clip0">
<rect width="40" height="40" fill="white"/>
</clipPath>
</defs>
</svg>
