<svg width="49" height="48" viewBox="0 0 49 48" fill="none" xmlns="http://www.w3.org/2000/svg">
<path d="M27.1622 15.9647C27.9437 16.0752 28.709 16.2715 29.4652 16.5039C30.7853 16.9104 32.031 17.4751 33.2025 18.2078C33.284 18.2583 33.3928 18.2904 33.4888 18.2904C34.8649 18.2961 36.2404 18.2941 37.6153 18.2953C37.7261 18.2953 37.8363 18.3069 37.9468 18.3132C37.9468 18.3401 37.9508 18.3515 37.9463 18.3578C37.8821 18.4566 37.817 18.5541 37.7525 18.6526C37.2858 19.3685 36.8869 20.1173 36.6514 20.9451C36.6259 21.034 36.6205 21.1085 36.6807 21.1957C37.9056 22.9547 38.2965 24.8858 37.7846 26.9675C37.3358 28.7932 36.2893 30.2167 34.699 31.2246C33.5624 31.9453 32.3068 32.2885 30.9654 32.2959C30.4018 32.2993 29.841 32.2234 29.2905 32.0808C27.9491 31.7329 26.7992 31.0641 25.8515 30.0514C25.7265 29.9185 25.6089 29.7796 25.4757 29.6293C24.9746 30.3761 24.4814 31.1107 23.9763 31.8647C23.4732 31.113 22.9869 30.3855 22.5017 29.6608C22.4682 29.6784 22.4585 29.6804 22.452 29.6867C22.4409 29.6958 22.4315 29.7068 22.4227 29.7173C21.2765 31.071 19.8345 31.9007 18.0778 32.1783C17.1006 32.3331 16.1327 32.2774 15.1836 32.0158C13.8385 31.6462 12.6954 30.9366 11.7719 29.8895C10.8694 28.8657 10.3081 27.6771 10.0973 26.3258C9.85609 25.0645 10.1498 23.8484 10.2231 23.5532C10.4356 22.6953 10.806 21.9076 11.3145 21.1832C11.3503 21.1318 11.3628 21.0408 11.3458 20.9795C11.1384 20.219 10.781 19.5273 10.3626 18.8648C10.2564 18.6964 10.1291 18.5404 10.0115 18.3788C10.0115 18.3603 10.0115 18.3413 10.0115 18.3225C10.0351 18.3254 10.0584 18.3299 10.0814 18.3299C11.4892 18.3305 12.8968 18.3311 14.3047 18.3282C14.3661 18.3282 14.4342 18.3029 14.4865 18.2694C15.4757 17.6348 16.5296 17.132 17.6369 16.7405C18.4354 16.4587 19.2507 16.2388 20.0822 16.0778C20.8873 15.9221 21.6966 15.8124 22.5145 15.7585C24.5084 15.6051 26.102 15.8161 27.1622 15.9647ZM25.3973 25.2628C25.3973 28.3544 27.9056 30.8801 30.9861 30.8681C34.0783 30.857 36.5753 28.4024 36.573 25.2767C36.5708 22.0556 33.9578 19.6341 30.8663 19.6969C27.8142 19.7602 25.4251 22.2203 25.3973 25.2628ZM17.0139 19.6756C14.0067 19.6494 11.3847 22.1592 11.4372 25.3562C11.4861 28.3376 13.9434 30.865 17.0764 30.838C20.1399 30.8119 22.6022 28.3103 22.6079 25.2809C22.6128 22.1686 20.1203 19.6756 17.0139 19.6756ZM17.2912 18.2171C18.9899 18.3208 20.4822 18.9128 21.7429 20.0594C23.0011 21.2036 23.7383 22.6311 24.0061 24.3097C24.2817 22.651 24.9995 21.2369 26.2341 20.104C27.4707 18.9699 28.9431 18.3748 30.614 18.249C28.6312 17.3675 26.5404 16.9931 24.3882 16.9516C21.9423 16.9036 19.5632 17.2641 17.2912 18.2171Z" fill="#163E97"/>
<path d="M30.9755 21.7388C32.8888 21.7357 34.4384 23.2771 34.4384 25.1883C34.4384 27.1069 32.9152 28.5901 31.1182 28.6586C29.1112 28.7355 27.5053 27.1365 27.5059 25.1968C27.5076 23.235 29.1248 21.7064 30.9755 21.7388ZM33.2322 25.1968C33.2314 23.9497 32.2232 22.9362 30.9846 22.9362C29.7319 22.9362 28.712 23.9443 28.7069 25.1877C28.7024 26.4257 29.7273 27.4558 30.9684 27.4592C32.2116 27.464 33.2328 26.4416 33.2322 25.1968Z" fill="#163E97"/>
<path d="M16.9402 21.7388C18.8523 21.7368 20.4042 23.2811 20.3994 25.192C20.394 27.1263 18.8693 28.5771 17.1038 28.6575C15.0889 28.7495 13.4631 27.1433 13.4668 25.1932C13.4708 23.2174 15.0991 21.7059 16.9402 21.7388ZM19.1943 25.1892C19.1906 23.9344 18.1759 22.9342 16.9092 22.9365C15.6874 22.9387 14.6636 23.9699 14.6665 25.1963C14.6696 26.4368 15.6922 27.457 16.9368 27.4604C18.1736 27.4632 19.1974 26.4331 19.1943 25.1892Z" fill="#163E97"/>
<path d="M30.9758 24.0449C31.6099 24.0444 32.1297 24.5645 32.1238 25.1949C32.1175 25.8266 31.6065 26.3385 30.9829 26.3388C30.3409 26.3388 29.8248 25.8315 29.8262 25.2028C29.8273 24.5506 30.3287 24.0455 30.9758 24.0449Z" fill="#163E97"/>
<path d="M16.9323 24.0371C17.576 24.0365 18.0933 24.5507 18.0959 25.1924C18.0984 25.8288 17.5763 26.3512 16.9357 26.3526C16.2798 26.354 15.7738 25.8472 15.7744 25.1879C15.7744 24.5405 16.2792 24.038 16.9323 24.0371Z" fill="#163E97"/>
</svg>
