<svg width="1012" height="110" viewBox="0 0 1012 110" fill="none" xmlns="http://www.w3.org/2000/svg">
<path fill-rule="evenodd" clip-rule="evenodd" d="M461.742 64.7184L396.941 0.486328L329.852 64.7328L265.037 0.486328L197.99 64.6923L133.216 0.486328L66.1265 64.7328L1.31152 0.486328L-88.3223 86.3221L-66.2616 109.359L0.927734 45.0166L61.9623 105.516L65.6426 109.359L132.832 45.0166L192.231 103.894L197.464 109.359L264.653 45.0166L325.688 105.516L329.368 109.359L396.557 45.0166L456.991 104.92L461.242 109.359L528.432 45.0171L589.466 105.516L593.146 109.359L660.336 45.0171L719.734 103.895L724.968 109.359L792.157 45.0171L853.192 105.516L856.872 109.359L924.061 45.0171L988.779 109.168L1011.23 86.5144L924.445 0.486811L857.356 64.7333L792.541 0.486811L725.494 64.6928L660.72 0.486811L593.63 64.7333L528.815 0.486811L461.742 64.7184Z" fill="#4364F7"/>
</svg>
