<svg width="40" height="40" viewBox="0 0 40 40" fill="none" xmlns="http://www.w3.org/2000/svg">
<path d="M1.58054 18.7463C2.11151 21.5347 3.68765 26.8979 8.27665 31.4869C12.8657 36.0759 18.2289 37.6525 21.0177 38.1834C24.2111 38.7915 28.8972 38.8832 31.1873 36.5931L32.4641 35.3163C33.1085 34.6719 33.4636 33.8147 33.4636 32.9031C33.4636 31.9915 33.1085 31.1347 32.4641 30.4903L27.3583 25.3846C26.7135 24.7397 25.8567 24.385 24.9451 24.385C24.0335 24.385 23.1768 24.7397 22.5319 25.3846L21.2556 26.6609C20.4759 27.4406 19.004 27.444 18.2184 26.6705L13.1257 21.3642C13.1182 21.3563 13.1106 21.3483 13.1027 21.3408C12.3217 20.5598 12.3217 19.2889 13.1027 18.508L14.379 17.2317C15.7131 15.8976 15.7131 13.7389 14.379 12.4052L9.27326 7.29952C7.94292 5.96917 5.77802 5.96917 4.44725 7.29952L3.17093 8.57626C1.34312 10.4045 0.733846 14.3009 1.58054 18.7463ZM5.44428 10.8496C6.78426 9.54021 6.71265 9.51508 6.86047 9.51508C6.91114 9.51508 6.9618 9.53434 7.00033 9.57287C12.3803 14.9818 12.1643 14.6639 12.1643 14.8189C12.1643 14.8729 12.1446 14.9202 12.1065 14.9587L10.8297 16.2351C8.79673 18.2681 8.78878 21.5589 10.8167 23.6012L15.9124 28.9108C15.9204 28.9183 15.9279 28.9263 15.9359 28.9343C17.9684 30.9668 21.4897 30.9735 23.5289 28.9343L24.8053 27.6579C24.8823 27.5809 25.0079 27.5809 25.085 27.6579C30.465 33.0664 30.2489 32.7486 30.2489 32.9035C30.2489 32.958 30.2292 33.0049 30.1911 33.0434L28.9144 34.3197C28.0396 35.1945 25.2533 35.7179 21.619 35.0257C19.1937 34.5634 14.5302 33.1941 10.55 29.214C6.56986 25.2338 5.20057 20.5703 4.7387 18.1449C4.0461 14.5107 4.56953 11.7239 5.44428 10.8496Z" fill="#163E97"/>
<path fill-rule="evenodd" clip-rule="evenodd" d="M31.31 9.00259C28.3091 6.04295 23.8756 4.34003 18.1703 4.36456C17.4125 4.36782 16.7955 3.75614 16.7922 2.99834C16.789 2.24054 17.4007 1.62357 18.1585 1.62032C24.4189 1.5934 29.61 3.47155 33.2371 7.04871C36.8659 10.6276 38.7758 15.7561 38.7648 21.9285C38.7634 22.6863 38.148 23.2995 37.3902 23.2982C36.6324 23.2968 36.0191 22.6814 36.0205 21.9236C36.0305 16.3245 34.3092 11.9605 31.31 9.00259Z" fill="#163E97"/>
<path fill-rule="evenodd" clip-rule="evenodd" d="M26.8532 12.7849C24.7479 10.7086 21.615 9.48963 17.5267 9.5072C16.7689 9.51046 16.1519 8.89878 16.1487 8.14098C16.1454 7.38318 16.7571 6.76622 17.5149 6.76296C22.1584 6.743 26.0488 8.13722 28.7802 10.831C31.5133 13.5266 32.9325 17.3723 32.9243 21.9539C32.923 22.7118 32.3076 23.325 31.5498 23.3236C30.792 23.3223 30.1787 22.7069 30.1801 21.949C30.1872 17.9407 28.9566 14.8594 26.8532 12.7849Z" fill="#163E97"/>
</svg>
