<svg width="40" height="40" viewBox="0 0 40 40" fill="none" xmlns="http://www.w3.org/2000/svg">
<g clip-path="url(#clip0)">
<path d="M9.67438 37.1457C12.7649 39.0054 16.2985 39.9857 19.9292 39.9857C30.9311 39.9857 40 31.008 40 19.9927C40 8.99017 30.9439 0 19.9292 0C8.94806 0 0.0143433 8.96881 0.0143433 19.9927C0.0143433 23.6719 0.994873 27.2324 2.85431 30.3253L0 40L9.67438 37.1457ZM2.35748 19.9927C2.35748 10.2606 10.2402 2.34283 19.9292 2.34283C29.7043 2.34283 37.6572 10.2606 37.6572 19.9927C37.6572 29.725 29.7043 37.6425 19.9292 37.6425C16.5656 37.6425 13.2968 36.6898 10.4773 34.8868L10.0269 34.599L3.46527 36.535L5.401 29.9731L5.11322 29.523C3.31024 26.7029 2.35748 23.4076 2.35748 19.9927Z" fill="#163E97"/>
<path d="M9.73644 16.3087C10.1234 18.3409 11.2721 22.2496 14.6165 25.594C17.9609 28.9384 21.8696 30.0874 23.9021 30.4743C26.2294 30.9175 29.6446 30.9843 31.3136 29.3153L32.2441 28.3848C32.7137 27.9151 32.9725 27.2905 32.9725 26.6261C32.9725 25.9617 32.7137 25.3373 32.2441 24.8677L28.5231 21.1467C28.0531 20.6767 27.4287 20.4182 26.7643 20.4182C26.1 20.4182 25.4756 20.6767 25.0056 21.1467L24.0754 22.0768C23.5072 22.6451 22.4345 22.6475 21.862 22.0838L18.1504 18.2167C18.1449 18.2109 18.1395 18.2051 18.1337 18.1996C17.5645 17.6304 17.5645 16.7042 18.1337 16.1351L19.0638 15.2049C20.0361 14.2326 20.0361 12.6594 19.0638 11.6874L15.3428 7.96642C14.3733 6.99687 12.7955 6.99687 11.8257 7.96642L10.8955 8.8969V8.89659C9.5634 10.229 9.11937 13.069 9.73644 16.3087ZM12.5523 10.5537C13.5289 9.59941 13.4767 9.5811 13.5844 9.5811C13.6213 9.5811 13.6583 9.59514 13.6863 9.62321C17.6072 13.5652 17.4498 13.3335 17.4498 13.4465C17.4498 13.4858 17.4354 13.5203 17.4076 13.5484L16.4772 14.4786C14.9955 15.9602 14.9897 18.3586 16.4677 19.8469L20.1814 23.7165C20.1872 23.722 20.1927 23.7278 20.1985 23.7336C21.6798 25.215 24.246 25.2198 25.7322 23.7336L26.6624 22.8035C26.7186 22.7473 26.8101 22.7473 26.8663 22.8035C30.7872 26.7451 30.6297 26.5135 30.6297 26.6264C30.6297 26.6661 30.6153 26.7002 30.5876 26.7283L29.6571 27.6585C29.0196 28.296 26.9889 28.6775 24.3403 28.173C22.5727 27.8361 19.174 26.8382 16.2733 23.9375C13.3726 21.0368 12.3747 17.638 12.0381 15.8705C11.5333 13.2218 11.9148 11.1909 12.5523 10.5537Z" fill="#163E97"/>
</g>
<defs>
<clipPath id="clip0">
<rect width="40" height="40" fill="white"/>
</clipPath>
</defs>
</svg>
